<?xml version="1.0" encoding="UTF-8"?>
<svg version="1.1" xmlns="http://www.w3.org/2000/svg" width="8534" height="8534">
<path d="M0 0 C0.78117187 0.00644531 1.56234375 0.01289062 2.3671875 0.01953125 C16.31929797 0.44847963 28.74722184 6.69168665 41.20898438 12.45166016 C43.48910542 13.49501478 45.78012059 14.5084269 48.078125 15.51171875 C55.73556321 18.855223 63.29160438 22.3237058 70.74291992 26.10449219 C77.26589746 29.40730473 83.8489974 32.580269 90.4375 35.75 C101.98920265 41.31465973 113.53230009 46.89695243 125.06253052 52.50598145 C126.82459824 53.36261412 128.58717457 54.21820155 130.35031128 55.07263184 C140.59263939 60.03719644 150.73848409 65.1344312 160.76757812 70.51782227 C164.39428656 72.45894902 168.06336463 74.30027218 171.75 76.125 C189.01364819 84.70328418 206.14371897 93.57121411 223.03271484 102.86572266 C230.2464434 106.83254684 237.50414806 110.71196768 244.77386475 114.57479858 C255.6202616 120.33903021 266.43251226 126.15210748 277.13818359 132.17480469 C279.855086 133.69923577 282.57778191 135.21304966 285.30078125 136.7265625 C296.81258197 143.13460921 308.25193766 149.64927343 319.61523438 156.31713867 C326.41412431 160.30117672 333.25460995 164.20324629 340.125 168.0625 C350.26375715 173.76667452 360.29296191 179.63919347 370.28808594 185.59082031 C373.94097918 187.76212049 377.59922337 189.92425509 381.2578125 192.0859375 C395.53118928 200.52460763 409.74195947 209.04161039 423.80664062 217.82519531 C427.94106251 220.39609217 432.09214978 222.93970085 436.24169922 225.48608398 C448.0523944 232.73460199 459.8086615 240.06070844 471.5 247.5 C473.26171697 248.61979446 475.02343579 249.73958602 476.78515625 250.859375 C480.50424736 253.22399253 484.2213019 255.5917766 487.9375 257.9609375 C491.4934895 260.22664609 495.05563922 262.4819837 498.625 264.7265625 C511.38954643 272.77143453 523.96028564 281.08736749 536.4777832 289.50976562 C543.90648395 294.49870949 551.39870516 299.3514028 559.00369263 304.06758118 C563.839624 307.07099466 568.57956493 310.18167875 573.25 313.4375 C574.85368191 314.54497312 576.45788312 315.6516945 578.0625 316.7578125 C578.92230469 317.35110352 579.78210937 317.94439453 580.66796875 318.55566406 C583.81168553 320.71398824 586.96659373 322.85545457 590.125 324.9921875 C590.99164276 325.57850449 590.99164276 325.57850449 591.87579346 326.17666626 C593.06501224 326.98113538 594.25424169 327.78558874 595.44348145 328.59002686 C608.53865693 337.45154689 621.5450979 346.43440227 634.5 355.5 C636.25774326 356.72796371 638.01555478 357.95582971 639.7734375 359.18359375 C644.68628537 362.6167131 649.59447786 366.05642264 654.5 369.5 C655.23412109 370.0151416 655.96824219 370.5302832 656.72460938 371.06103516 C673.34254827 382.73030469 689.76534501 394.65729628 706.09570312 406.72509766 C708.5148571 408.51096782 710.93666019 410.29318282 713.359375 412.07421875 C729.680887 424.07450711 745.85289537 436.26018545 761.953125 448.55566406 C764.34256758 450.3798129 766.73354975 452.20192198 769.125 454.0234375 C777.40682748 460.33652774 785.63518907 466.71138456 793.80712891 473.16601562 C795.50730315 474.50575489 797.21188048 475.83967726 798.91796875 477.171875 C805.8559077 482.59370577 812.71946278 488.09790579 819.54077148 493.66577148 C823.80270958 497.13870911 828.10123064 500.5579898 832.4375 503.9375 C839.93998605 509.7913609 847.26392412 515.85706569 854.59326172 521.92529297 C857.13559075 524.02491169 859.69244908 526.10646512 862.25 528.1875 C866.76923224 531.87820633 871.22412231 535.6402198 875.66943359 539.41918945 C879.03908071 542.27905411 882.44057856 545.0928129 885.875 547.875 C891.58015403 552.52027055 897.12378615 557.34156796 902.671875 562.171875 C906.28734494 565.31941758 909.92098463 568.44515379 913.5625 571.5625 C914.13444092 572.05266602 914.70638184 572.54283203 915.2956543 573.04785156 C918.21437387 575.54808279 921.13751974 578.04293583 924.06640625 580.53125 C930.77723445 586.24220245 937.35838736 592.06042328 943.828125 598.04296875 C946.68244812 600.66777759 949.58715048 603.22438678 952.515625 605.765625 C957.47506584 610.10025439 962.34255619 614.54094183 967.21875 618.96875 C968.0953125 619.7628125 968.971875 620.556875 969.875 621.375 C970.66648438 622.09429688 971.45796875 622.81359375 972.2734375 623.5546875 C974.45173165 625.52216634 974.45173165 625.52216634 976.7890625 627.1328125 C977.35367188 627.58398438 977.91828125 628.03515625 978.5 628.5 C978.5 629.16 978.5 629.82 978.5 630.5 C979.37615967 630.89288208 979.37615967 630.89288208 980.27001953 631.29370117 C982.62266302 632.56635406 984.2526391 633.95273523 986.1796875 635.80078125 C986.86160156 636.44853516 987.54351562 637.09628906 988.24609375 637.76367188 C988.94863281 638.43978516 989.65117187 639.11589844 990.375 639.8125 C991.76670244 641.14352525 993.15990706 642.47298179 994.5546875 643.80078125 C995.21952148 644.4345166 995.88435547 645.06825195 996.56933594 645.72119141 C998.33155089 647.34480018 1000.13756296 648.8591593 1002.0078125 650.35546875 C1003.24144531 651.41701172 1003.24144531 651.41701172 1004.5 652.5 C1004.5 653.16 1004.5 653.82 1004.5 654.5 C1005.07621094 654.7475 1005.65242188 654.995 1006.24609375 655.25 C1008.8370806 656.68694245 1010.52044807 658.35958333 1012.5625 660.5 C1014.83653856 662.87442798 1016.74521929 664.66347952 1019.5 666.5 C1019.5 667.16 1019.5 667.82 1019.5 668.5 C1020.08716797 668.76047119 1020.67433594 669.02094238 1021.27929688 669.28930664 C1023.64179911 670.57730671 1025.16049594 671.94621627 1027.03125 673.87109375 C1027.67707031 674.52787109 1028.32289062 675.18464844 1028.98828125 675.86132812 C1029.98408203 676.8890332 1029.98408203 676.8890332 1031 677.9375 C1032.32055423 679.2926707 1033.64340028 680.64561265 1034.96875 681.99609375 C1035.55076172 682.59607178 1036.13277344 683.1960498 1036.73242188 683.81420898 C1038.4989699 685.5770481 1038.4989699 685.5770481 1040.72070312 687.09399414 C1041.30787109 687.55797607 1041.89503906 688.02195801 1042.5 688.5 C1042.5 689.16 1042.5 689.82 1042.5 690.5 C1043.30898994 690.82150528 1043.30898994 690.82150528 1044.13432312 691.14950562 C1047.35365184 692.98732438 1049.76419815 695.49414266 1052.35083008 698.10791016 C1052.92538437 698.6805661 1053.49993866 699.25322205 1054.09190369 699.8432312 C1055.98936641 701.73699109 1057.87953238 703.63785577 1059.76953125 705.5390625 C1061.09189455 706.86261878 1062.41462868 708.18580464 1063.73771667 709.50863647 C1066.51225463 712.28473885 1069.28340153 715.06416775 1072.05200195 717.84619141 C1075.58397634 721.3950807 1079.12242179 724.93742755 1082.66324329 728.47748756 C1085.39776012 731.21227782 1088.12965098 733.94967873 1090.86069298 736.68793869 C1092.16332766 737.9937356 1093.46655128 739.29894529 1094.77039528 740.6035347 C1107.09321956 752.94111123 1107.09321956 752.94111123 1112.15019226 758.9312439 C1114.44951389 761.60353176 1116.97734582 764.04087191 1119.5 766.5 C1123.46663765 770.41253596 1127.24585151 774.39561196 1130.859375 778.640625 C1132.66147789 780.68300828 1134.55938947 782.58901711 1136.5 784.5 C1139.62410984 787.58245505 1142.52701088 790.77509772 1145.38671875 794.1015625 C1148.19736369 797.29146267 1151.09862309 800.39272684 1154 803.5 C1157.99518995 807.78256918 1161.94583191 812.08605802 1165.76953125 816.5234375 C1167.93037207 818.99157623 1170.15437702 821.39804009 1172.375 823.8125 C1175.68336914 827.43523905 1178.86012358 831.11692891 1181.9375 834.9375 C1185.15945075 838.93226434 1188.50677983 842.74531667 1192 846.5 C1196.21025775 851.02988654 1200.1763803 855.70292392 1204.0546875 860.51953125 C1206.97004102 864.07290942 1209.97821049 867.53715263 1213 871 C1218.29026276 877.07030583 1223.43742127 883.23789236 1228.5 889.5 C1229.9156763 891.22997757 1231.3323708 892.95912237 1232.75 894.6875 C1233.4925 895.59628906 1234.235 896.50507812 1235 897.44140625 C1236.31627729 899.05178924 1237.63294981 900.66185388 1238.953125 902.26904297 C1245.68875497 910.46958741 1252.27912845 918.75561565 1258.69213867 927.21118164 C1262.24527925 931.88749367 1265.87239252 936.49370941 1269.5625 941.0625 C1275.74020285 948.72931716 1281.64696169 956.58362153 1287.5 964.5 C1288.04914063 965.24266113 1288.59828125 965.98532227 1289.1640625 966.75048828 C1292.08839548 970.70885339 1295.00719109 974.67124408 1297.921875 978.63671875 C1300.30097659 981.87320695 1302.68656817 985.10473639 1305.078125 988.33203125 C1312.17301656 997.91335006 1319.14883749 1007.56539643 1325.98144531 1017.33544922 C1327.50835103 1019.51190357 1329.04597427 1021.68042559 1330.5859375 1023.84765625 C1361.1518688 1066.99901631 1389.99318653 1111.75104255 1416.5 1157.5 C1417.37620438 1159.00656724 1418.25251008 1160.51307557 1419.12890625 1162.01953125 C1421.45055872 1166.01518452 1423.76282198 1170.01617289 1426.0703125 1174.02001953 C1427.02755388 1175.68048024 1427.98589697 1177.34030628 1428.9453125 1178.99951172 C1435.9189528 1191.06586727 1442.66637166 1203.23883051 1449.26953125 1215.51171875 C1451.37305738 1219.42079783 1453.49425633 1223.31915729 1455.63671875 1227.20703125 C1460.90932885 1236.7798782 1466.02703814 1246.39581033 1470.86328125 1256.19702148 C1473.16884291 1260.86367285 1475.53384617 1265.48704681 1477.99047852 1270.07592773 C1490.94033272 1294.27205548 1502.30455825 1319.29148171 1513.52416992 1344.32440186 C1514.52151039 1346.54795708 1515.52124077 1348.77042513 1516.52148438 1350.99267578 C1525.53202715 1371.02192544 1534.303089 1391.12110862 1542.5 1411.5 C1542.78232483 1412.20086731 1543.06464966 1412.90173462 1543.35552979 1413.62384033 C1577.36111311 1498.09971345 1605.85491171 1584.58203779 1675.1875 2010.8125 C1675.24843842 2011.9163504 1675.30937683 2013.02020081 1675.37216187 2014.15750122 C1677.36859191 2050.80931924 1677.70689413 2087.48956171 1677.6875 2124.1875 C1677.68738041 2125.19819424 1677.68726082 2126.20888847 1677.6871376 2127.25020981 C1677.6822989 2159.71132908 1677.30474108 2192.08152814 1675.5 2224.5 C1675.39158628 2226.51301125 1675.28335317 2228.52603224 1675.17529297 2230.5390625 C1671.90014366 2290.75429158 1666.25894032 2350.82679879 1657.5 2410.5 C1657.2805069 2412.00128448 1657.2805069 2412.00128448 1657.05657959 2413.53289795 C1642.40061829 2513.54551063 1620.82564208 2612.19977107 1558.73046875 2810.15771484 C1557.56070763 2813.3351017 1556.41675623 2816.52039668 1555.28062439 2819.7098999 C1539.6529072 2863.5663139 1522.27618166 2906.89713585 1503.5 2949.5 C1502.71326904 2951.294375 1502.71326904 2951.294375 1501.91064453 2953.125 C1490.85404553 2978.32617036 1479.21707728 3003.22891892 1467.17823792 3027.97259521 C1464.7532176 3032.96331371 1462.36900934 3037.97275262 1459.99365234 3042.98730469 C1455.7339438 3051.97478822 1451.2931697 3060.82137811 1446.5859375 3069.58203125 C1444.63158722 3073.22795455 1442.77038716 3076.91676116 1440.9375 3080.625 C1430.81575529 3101.01082646 1420.31700287 3121.14535133 1408.98632812 3140.88720703 C1406.58656519 3145.10571277 1404.26298192 3149.36523873 1401.9375 3153.625 C1384.80033047 3184.93305081 1366.30065113 3215.4414477 1347.29541016 3245.64453125 C1346.15996479 3247.4503742 1345.02656035 3249.25750343 1343.89599609 3251.06640625 C1327.11182822 3277.92107484 1309.42060626 3304.27939203 1291.15820312 3330.14941406 C1289.55223436 3332.42595517 1287.95466739 3334.70815636 1286.359375 3336.9921875 C1279.48965904 3346.80733867 1272.41555245 3356.46364838 1265.28222656 3366.08837891 C1263.51142769 3368.48453661 1261.75028828 3370.88748244 1259.9921875 3373.29296875 C1252.58383977 3383.41964369 1244.99901048 3393.38580285 1237.25439453 3403.25732422 C1235.483476 3405.52112294 1233.72262785 3407.7923974 1231.96484375 3410.06640625 C1224.74528279 3419.40185623 1217.4092409 3428.62858704 1209.92822266 3437.75585938 C1208.63995352 3439.32908924 1207.35677275 3440.90648248 1206.07421875 3442.484375 C1201.63996521 3447.93464755 1197.13158277 3453.31613362 1192.58105469 3458.66918945 C1189.72107147 3462.03888745 1186.90725959 3465.44048907 1184.125 3468.875 C1176.20246432 3478.60069344 1167.89837479 3488.01397546 1159.4765625 3497.30859375 C1157.63043439 3499.35538796 1155.81006716 3501.42131557 1154 3503.5 C1149.88916189 3508.21704465 1145.69182811 3512.85500129 1141.5 3517.5 C1140.4171875 3518.7065625 1140.4171875 3518.7065625 1139.3125 3519.9375 C1125.12909234 3535.74186853 1110.80993047 3551.46367888 1095.63574219 3566.32739258 C1092.67277927 3569.24653703 1089.8400948 3572.21496594 1087.125 3575.3671875 C1083.14410239 3579.97597644 1078.87810712 3584.26874406 1074.5625 3588.5625 C1073.80259766 3589.32626953 1073.04269531 3590.09003906 1072.25976562 3590.87695312 C1068.76325278 3594.36749413 1065.24286793 3597.77436888 1061.49609375 3600.99609375 C1056.92619972 3604.93085572 1052.72579841 3609.20208899 1048.5 3613.5 C1043.5750109 3618.50903329 1038.62894856 3623.39033347 1033.27539062 3627.94335938 C1031.43425461 3629.55764474 1029.7136595 3631.25170298 1028 3633 C1025.10000647 3635.9454073 1022.06373569 3638.65463709 1018.93359375 3641.3515625 C1015.73404235 3644.17620659 1012.61962592 3647.08766366 1009.5 3650 C1004.08132237 3655.04991538 998.60223506 3659.99595301 992.96972656 3664.80712891 C991.18779854 3666.32934067 989.40631399 3667.85206974 987.625 3669.375 C987.01615967 3669.89497559 986.40731934 3670.41495117 985.7800293 3670.95068359 C982.24299739 3673.97944776 978.75573515 3677.05179463 975.3125 3680.1875 C971.14927574 3683.96486445 966.84292109 3687.52427268 962.47265625 3691.05859375 C959.16249043 3693.77719248 955.92494833 3696.57073453 952.6875 3699.375 C947.4694715 3703.88456621 942.13239262 3708.19777594 936.68261719 3712.4230957 C932.67921842 3715.53877944 928.78823631 3718.76054293 924.9375 3722.0625 C919.774066 3726.47943212 914.4703363 3730.67504279 909.05859375 3734.78515625 C906.47118365 3736.75082541 903.90492576 3738.74136771 901.34765625 3740.74609375 C892.04561039 3748.03727584 882.63096195 3755.1444975 873.09375 3762.125 C868.82397084 3765.25236333 864.59694716 3768.43354918 860.375 3771.625 C852.89426977 3777.26327307 845.25986168 3782.66692235 837.58398438 3788.03515625 C835.61559364 3789.41874861 833.65752444 3790.81548714 831.703125 3792.21875 C799.87310987 3815.01575893 766.66975251 3835.96929978 733.0390625 3855.98632812 C730.48098511 3857.5113358 727.92789187 3859.04445587 725.375 3860.578125 C711.4410582 3868.91676074 697.27619653 3876.80604409 683.02099609 3884.57714844 C679.83712347 3886.31353133 676.66235114 3888.06606783 673.48828125 3889.8203125 C642.84814063 3906.64823372 611.35930783 3922.12399084 579.5 3936.5 C577.15094325 3937.57009648 574.80198781 3938.64041537 572.453125 3939.7109375 C520.85845646 3963.12949773 467.9306698 3983.54550349 414.17919922 4001.43945312 C387.20468061 4010.45326927 387.20468061 4010.45326927 368.75 4031.25 C363.09045128 4043.88377659 360.35691841 4057.74866917 357.01660156 4071.125 C342.06044361 4130.88410646 324.58839673 4189.93694345 305.5 4248.5 C305.17966797 4249.48397766 304.85933594 4250.46795532 304.52929688 4251.48175049 C279.63832353 4327.88026592 250.95431223 4402.99092729 218.5 4476.5 C218.21336487 4477.14998962 217.92672974 4477.79997925 217.63140869 4478.46966553 C209.18878241 4497.60519595 200.40327897 4516.57564181 191.5 4535.5 C190.63279813 4537.34895159 189.76560925 4539.19790928 188.8984375 4541.046875 C184.61481374 4550.15843059 180.20055268 4559.19434207 175.66455078 4568.18261719 C174.329563 4570.83915891 173.00613111 4573.50130089 171.68359375 4576.1640625 C166.28458595 4587.02491815 160.80529372 4597.83072446 155.1171875 4608.54296875 C153.20054178 4612.15748856 151.3161183 4615.78732623 149.4453125 4619.42578125 C143.09110347 4631.77236643 136.512722 4643.94700774 129.625 4656.00390625 C126.64709948 4661.21981637 123.75234085 4666.47813506 120.875 4671.75 C102.91288261 4704.54842677 83.19300224 4736.43891976 63.10742188 4767.97119141 C61.32030584 4770.78269625 59.54322009 4773.60043541 57.765625 4776.41796875 C49.29797556 4789.79479289 40.48752407 4802.87109632 31.37548828 4815.81591797 C29.00758844 4819.20470876 26.68663228 4822.62391242 24.36889648 4826.04711914 C18.43725792 4834.80547734 12.25653466 4843.32779895 5.84179688 4851.73779297 C3.87996378 4854.31430521 1.9402361 4856.90720247 0 4859.5 C-1.07507812 4860.93085937 -1.07507812 4860.93085937 -2.171875 4862.390625 C-3.87645579 4864.66721277 -5.57375959 4866.94838401 -7.265625 4869.234375 C-12.91307848 4876.84481703 -18.69932867 4884.30524248 -24.70947266 4891.63305664 C-28.24139977 4895.93980754 -31.70529329 4900.29126001 -35.125 4904.6875 C-39.57234777 4910.39193466 -44.19362962 4915.92614535 -48.890625 4921.42578125 C-51.26269035 4924.20733088 -53.57492712 4927.03348661 -55.875 4929.875 C-64.03466592 4939.88847195 -72.5839891 4949.57090704 -81.30859375 4959.09375 C-83.21371809 4961.18565123 -85.08439061 4963.29963385 -86.9375 4965.4375 C-91.21130966 4970.35188066 -95.63592378 4975.12764172 -100.04736328 4979.91796875 C-101.49354374 4981.49296865 -102.93327372 4983.0736171 -104.37109375 4984.65625 C-108.9890314 4989.73279663 -113.66126219 4994.7166457 -118.55918884 4999.52674866 C-120.32174393 5001.31876443 -121.95525508 5003.15603447 -123.58032227 5005.07202148 C-128.13882407 5010.31377501 -133.04923827 5015.1938558 -137.96484375 5020.09765625 C-138.96715081 5021.10063903 -139.96930956 5022.10377003 -140.97132874 5023.10704041 C-143.05991534 5025.19709138 -145.15027388 5027.28534888 -147.24194336 5029.37231445 C-149.9023041 5032.0269787 -152.55814842 5034.68610884 -155.21266842 5037.34661198 C-157.27766606 5039.41524949 -159.34507204 5041.48146699 -161.4131794 5043.54699516 C-162.39256411 5044.52572005 -163.37122681 5045.50516806 -164.34910393 5046.48539925 C-169.38641652 5051.53217913 -174.45486685 5056.47284276 -179.88148499 5061.10166931 C-182.03413843 5062.96147373 -184.01987907 5064.95895227 -186 5067 C-189.24256259 5070.28103368 -192.57047022 5073.35459996 -196.0703125 5076.35546875 C-199.44544268 5079.33448236 -202.71765093 5082.41946264 -206 5085.5 C-210.47931691 5089.69980404 -214.96855631 5093.86695359 -219.625 5097.87109375 C-221.88751181 5099.83665089 -224.09690683 5101.85673309 -226.3125 5103.875 C-229.77530082 5107.00422827 -233.30679003 5110.00500349 -236.9375 5112.9375 C-240.74087503 5116.01336588 -244.40082652 5119.18753166 -248 5122.5 C-252.41640144 5126.55983645 -256.96163522 5130.39323821 -261.62890625 5134.16015625 C-264.72987151 5136.68733747 -267.771621 5139.27629779 -270.8125 5141.875 C-275.80103566 5146.1239455 -280.89330067 5150.21435214 -286.06445312 5154.23828125 C-290.53326538 5157.72110968 -294.92964634 5161.28484136 -299.3125 5164.875 C-306.14986243 5170.46244199 -313.12368943 5175.8489547 -320.15625 5181.1875 C-323.84046473 5183.98723718 -327.49039951 5186.82838348 -331.13305664 5189.68188477 C-340.32866644 5196.88275922 -349.67567394 5203.85383562 -359.10449219 5210.74560547 C-362.30238816 5213.08764384 -365.48950464 5215.4441325 -368.67700195 5217.80029297 C-406.50018577 5245.74090711 -445.39222966 5272.13983975 -484.81982422 5297.75732422 C-487.21650534 5299.31566907 -489.61066858 5300.8777811 -492.00390625 5302.44140625 C-502.09662089 5309.02258402 -512.31535627 5315.38857916 -522.578125 5321.70068359 C-525.66955274 5323.60441207 -528.75686488 5325.51469665 -531.84375 5327.42578125 C-545.63282551 5335.95268182 -559.50569303 5344.31474251 -573.5 5352.5 C-575.54688087 5353.70051083 -577.5937557 5354.90103195 -579.640625 5356.1015625 C-589.52821157 5361.892587 -599.43852211 5367.63318934 -609.44140625 5373.22265625 C-614.3539269 5375.97104912 -619.23890893 5378.76747373 -624.125 5381.5625 C-625.02162354 5382.07522461 -625.91824707 5382.58794922 -626.84204102 5383.11621094 C-630.75045264 5385.35205071 -634.65768961 5387.58990798 -638.5625 5389.83203125 C-643.6421665 5392.74652723 -648.72795156 5395.64317045 -653.875 5398.4375 C-655.75027461 5399.45782879 -657.62523832 5400.47872905 -659.5 5401.5 C-660.15919434 5401.85771484 -660.81838867 5402.21542969 -661.49755859 5402.58398438 C-663.69007081 5403.77765807 -665.87661606 5404.98173821 -668.0625 5406.1875 C-668.76616699 5406.5683374 -669.46983398 5406.9491748 -670.19482422 5407.34155273 C-673.47081975 5409.1590132 -675.38832159 5410.33248238 -677.5 5413.5 C-677.2695546 5417.92167105 -675.50494962 5420.005278 -672.5 5423.125 C-669.24500472 5426.60075994 -666.1197883 5430.10955779 -663.125 5433.8125 C-659.79981652 5437.91973883 -656.42327209 5441.97474919 -653 5446 C-648.09424357 5451.77522782 -643.28165258 5457.62148088 -638.5 5463.5 C-637.00056908 5465.33379879 -635.50056542 5467.16712943 -634 5469 C-633.25234375 5469.91394531 -632.5046875 5470.82789062 -631.734375 5471.76953125 C-630.28702949 5473.53822795 -628.83914699 5475.30648543 -627.390625 5477.07421875 C-620.73692406 5485.19707628 -614.10597734 5493.33828847 -607.5 5501.5 C-606.99033691 5502.1295459 -606.48067383 5502.7590918 -605.95556641 5503.40771484 C-599.63073626 5511.23286312 -593.44460534 5519.15006159 -587.35766602 5527.16162109 C-583.78556594 5531.852236 -580.14147807 5536.4755265 -576.4375 5541.0625 C-571.92883872 5546.65494581 -567.56678435 5552.33921566 -563.27880859 5558.10229492 C-559.76242289 5562.82683696 -556.20160918 5567.51488361 -552.61938477 5572.18969727 C-545.27518073 5581.77769729 -538.10487756 5591.46934572 -531.08105469 5601.29394531 C-528.92534113 5604.30182482 -526.7528068 5607.29739213 -524.58105469 5610.29370117 C-518.32472646 5618.93007346 -512.14397031 5627.61710414 -506.01708984 5636.34570312 C-504.53567476 5638.44934115 -503.04434617 5640.54560144 -501.55078125 5642.640625 C-489.77111087 5659.23613989 -478.60671814 5676.25261355 -467.35229492 5693.20605469 C-464.91606039 5696.87538137 -462.47307271 5700.54012065 -460.02734375 5704.203125 C-417.81552594 5767.49888927 -379.45469461 5834.04354751 -345.65087891 5902.18212891 C-344.27852912 5904.94604255 -342.89926329 5907.70644179 -341.51782227 5910.46582031 C-340.87533831 5911.74980307 -340.23391716 5913.03431814 -339.59350586 5914.31933594 C-337.77631235 5917.96356255 -335.94114908 5921.59762245 -334.0859375 5925.22265625 C-326.4037059 5940.30387689 -319.39572556 5955.66386058 -312.47363281 5971.10400391 C-311.17400658 5974.00212707 -309.86877638 5976.89760381 -308.55761719 5979.79052734 C-270.39869613 6063.98871586 -238.86966744 6151.33807323 -214.5 6240.5 C-214.26214783 6241.36715637 -214.02429565 6242.23431274 -213.77923584 6243.12774658 C-208.15328703 6263.65217763 -203.01665637 6284.2532907 -198.45385742 6305.04150391 C-198.27738678 6305.83219269 -198.10091614 6306.62288147 -197.9190979 6307.43753052 C-197.59173147 6308.90487883 -197.27048343 6310.37361268 -196.95687866 6311.84396362 C-195.34217606 6319.237643 -195.34217606 6319.237643 -190.65332031 6324.86499023 C-188.01683814 6325.64248345 -185.79736754 6325.70852826 -183.046875 6325.66015625 C-181.9655127 6325.64831299 -180.88415039 6325.63646973 -179.77001953 6325.62426758 C-178.60841309 6325.60388428 -177.44680664 6325.58350098 -176.25 6325.5625 C-114.57734122 6325.08177375 -53.12676727 6334.94213887 2.5 6362.5 C3.43344238 6362.96051758 4.36688477 6363.42103516 5.32861328 6363.89550781 C16.28434459 6369.34758404 26.76595857 6375.20020968 36.76025391 6382.27050781 C38.52176886 6383.51538422 40.29667414 6384.73908754 42.07421875 6385.9609375 C50.30751019 6391.67226907 57.95380044 6397.91496949 65.5 6404.5 C66.55574219 6405.40492187 66.55574219 6405.40492187 67.6328125 6406.328125 C69.60845426 6408.0309794 71.55760929 6409.75927827 73.5 6411.5 C73.96873535 6411.91830078 74.4374707 6412.33660156 74.92041016 6412.76757812 C82.93204288 6419.94336626 90.41844987 6427.40569261 97.5 6435.5 C97.94553223 6436.00611816 98.39106445 6436.51223633 98.85009766 6437.03369141 C115.15305386 6455.63630894 129.08808949 6476.0181111 141.33837891 6497.48242188 C142.4379183 6499.39217251 143.56389886 6501.28324056 144.69921875 6503.171875 C156.61804268 6523.27033646 165.19111687 6545.36707922 172.5 6567.5 C172.84514648 6568.53995117 173.19029297 6569.57990234 173.54589844 6570.65136719 C186.1527189 6609.25309632 191.71617499 6649.57454528 191.75 6690.125 C191.75067474 6690.87123627 191.75134949 6691.61747253 191.75204468 6692.38632202 C191.6637614 6754.88510542 175.3093753 6816.2508517 146.5 6871.5 C145.98695312 6872.51835937 145.47390625 6873.53671875 144.9453125 6874.5859375 C133.82249293 6896.11219029 119.56125159 6916.00092296 104.09082031 6934.58447266 C102.63022227 6936.34319768 101.18519554 6938.11356638 99.7421875 6939.88671875 C93.53511723 6947.41520086 86.81252409 6954.39208623 79.9375 6961.3125 C78.64392578 6962.61997192 78.64392578 6962.61997192 77.32421875 6963.95385742 C72.10909737 6969.14379214 66.70258333 6973.9223302 60.9621582 6978.52368164 C58.99659147 6980.10139732 57.07433483 6981.70228358 55.1796875 6983.36328125 C41.66546411 6995.16469917 26.73331012 7004.85339181 11.49414062 7014.26660156 C9.87089063 7015.27059997 8.25468358 7016.2859784 6.640625 7017.3046875 C-0.78457679 7021.91429264 -8.62479333 7025.73165432 -16.5 7029.5 C-17.23976074 7029.85465332 -17.97952148 7030.20930664 -18.74169922 7030.57470703 C-58.28275067 7049.35269408 -100.9301722 7061.27433278 -144.5 7065.5 C-145.20769531 7065.57057617 -145.91539062 7065.64115234 -146.64453125 7065.71386719 C-181.02034062 7068.96889122 -214.63826443 7064.87837021 -247.9140625 7056.19921875 C-254.76483909 7054.86339194 -260.23150636 7055.07006952 -266.5 7058.5 C-273.95610307 7064.65128503 -278.69319778 7073.75854717 -283.625 7081.9375 C-304.53843643 7116.55771571 -329.91050684 7149.00466718 -357.11987305 7178.88427734 C-358.67545754 7180.59384061 -360.22590499 7182.30809617 -361.77050781 7184.02758789 C-369.12797053 7192.15895202 -376.79735788 7199.95107665 -384.56225586 7207.69262695 C-386.69827357 7209.82324634 -388.82884118 7211.95921223 -390.95898438 7214.09570312 C-392.34082507 7215.4768835 -393.72297567 7216.85775389 -395.10546875 7218.23828125 C-396.04171333 7219.17756218 -396.04171333 7219.17756218 -396.99687195 7220.13581848 C-401.33713129 7224.45344764 -405.85723164 7228.51119413 -410.5 7232.5 C-411.70242357 7233.54618504 -412.90433541 7234.59295889 -414.10546875 7235.640625 C-415.29918144 7236.67742622 -416.49319871 7237.71387685 -417.6875 7238.75 C-418.33187012 7239.30937256 -418.97624023 7239.86874512 -419.64013672 7240.44506836 C-423.24490758 7243.56793455 -426.87059919 7246.66237808 -430.52758789 7249.72387695 C-451.19609778 7267.04398083 -468.57728194 7286.26806462 -482.35009766 7309.56445312 C-483.45621223 7311.42629524 -484.59121472 7313.26768978 -485.73046875 7315.109375 C-532.58420467 7392.61218458 -530.51305562 7498.37031766 -527.5 7631.5 C-527.39134248 7632.86715404 -527.28311473 7634.23434229 -527.17529297 7635.6015625 C-526.40654269 7645.24732799 -525.49520647 7654.87514623 -524.5 7664.5 C-524.4318811 7665.16610291 -524.36376221 7665.83220581 -524.2935791 7666.51849365 C-515.50344155 7752.18988451 -496.07032489 7837.2633291 -463.91940308 7933.1439209 C-445.2561607 7988.52804547 -429.6654949 8042.42007589 -457.11328125 8097.91796875 C-465.64848553 8114.63115421 -477.52805017 8129.06213159 -490.5 8142.5 C-491.06799316 8143.08990723 -491.63598633 8143.67981445 -492.22119141 8144.28759766 C-499.58911092 8151.89982509 -507.1001434 8159.01856226 -515.5 8165.5 C-516.81128958 8166.52852898 -518.12248028 8167.55718403 -519.43359375 8168.5859375 C-532.55988661 8178.81803111 -546.19285878 8187.91139258 -560.53466797 8196.33935547 C-562.58358554 8197.54936219 -564.6223184 8198.77534198 -566.66015625 8200.00390625 C-575.43147064 8205.26689599 -584.32393839 8210.06661952 -593.52490234 8214.53222656 C-595.5015546 8215.50076173 -597.46496466 8216.4920198 -599.42578125 8217.4921875 C-609.2995481 8222.52339847 -619.31049748 8227.14473285 -629.5 8231.5 C-630.43054199 8231.90057617 -631.36108398 8232.30115234 -632.31982422 8232.71386719 C-701.02915884 8262.10139178 -774.49611688 8277.88962897 -848.5 8286.5 C-849.27782837 8286.59110046 -850.05565674 8286.68220093 -850.85705566 8286.77606201 C-863.38669693 8288.23517969 -875.93104031 8289.43581283 -888.5 8290.5 C-889.3751123 8290.5762561 -890.25022461 8290.65251221 -891.15185547 8290.7310791 C-922.42318645 8293.44017232 -953.66829825 8293.78908007 -985.03569794 8293.81007385 C-988.06589917 8293.81245359 -991.09608497 8293.8177646 -994.12628174 8293.82336426 C-1030.20657333 8293.87214675 -1066.15542338 8292.56945572 -1102.125 8289.6875 C-1103.18988647 8289.60385193 -1104.25477295 8289.52020386 -1105.35192871 8289.434021 C-1129.1146389 8287.56026358 -1152.81794753 8285.20264588 -1176.5 8282.5 C-1177.4409552 8282.39298767 -1178.3819104 8282.28597534 -1179.35137939 8282.17572021 C-1227.31842919 8276.69634783 -1275.12344865 8269.51327979 -1322.6875 8261.25 C-1323.95395355 8261.03029541 -1325.2204071 8260.81059082 -1326.52523804 8260.58422852 C-1341.35732547 8257.99522854 -1356.13475997 8255.20785445 -1370.8841114 8252.18415451 C-1373.293911 8251.69121351 -1375.70447221 8251.20219022 -1378.11534119 8250.71450806 C-1379.71792909 8250.39009082 -1381.32051394 8250.06565849 -1382.9230957 8249.74121094 C-1383.71386096 8249.58125074 -1384.50462622 8249.42129055 -1385.31935406 8249.25648308 C-1389.16619718 8248.47545479 -1393.00929433 8247.68116768 -1396.8465271 8246.85412598 C-1418.02786413 8242.29200647 -1437.84225896 8240.57286294 -1459.5 8241.5 C-1460.67012634 8241.54740326 -1461.84025269 8241.59480652 -1463.0458374 8241.64364624 C-1470.53839125 8241.96692354 -1478.01796486 8242.43003408 -1485.5 8242.9375 C-1520.99140756 8245.28332472 -1556.38385099 8245.68832311 -1591.94189453 8245.68530273 C-1596.79251863 8245.68522177 -1601.6430477 8245.69213534 -1606.49365234 8245.70581055 C-1706.48220044 8245.98304583 -1806.6332799 8237.62904064 -1934.73059082 8214.04699707 C-1937.39590007 8213.52056119 -1940.06243879 8213.00091653 -1942.72949219 8212.48339844 C-1993.58859947 8202.58143118 -2043.86722701 8189.30921284 -2093.5 8174.5 C-2094.2897522 8174.26518921 -2095.07950439 8174.03037842 -2095.89318848 8173.78845215 C-2100.70548573 8172.35689911 -2105.5114059 8170.90620707 -2110.3125 8169.4375 C-2111.40844482 8169.10371338 -2112.50438965 8168.76992676 -2113.63354492 8168.42602539 C-2138.32029983 8160.70565411 -2155.34558383 8148.60587224 -2167.5 8125.5 C-2169.67496575 8121.16948784 -2171.78026715 8116.80729059 -2173.875 8112.4375 C-2174.41382812 8111.32439453 -2174.95265625 8110.21128906 -2175.5078125 8109.06445312 C-2179.38051962 8101.0101444 -2183.01957127 8092.87410099 -2186.56213379 8084.67044067 C-2187.53200525 8082.4259324 -2188.50634427 8080.18340299 -2189.48144531 8077.94116211 C-2227.02912595 7991.51425721 -2259.1098133 7902.95779448 -2324.6875 7505.5625 C-2324.68689575 7504.36489044 -2324.6862915 7503.16728088 -2324.68566895 7501.93338013 C-2324.65903624 7482.37572095 -2324.20586156 7462.98780868 -2322.5 7443.5 C-2322.4391925 7442.78396606 -2322.37838501 7442.06793213 -2322.31573486 7441.3302002 C-2316.28965145 7370.52130348 -2301.08855287 7299.75472587 -2272.5 7234.5 C-2272.10925293 7233.6042627 -2271.71850586 7232.70852539 -2271.31591797 7231.78564453 C-2258.97447874 7203.60697444 -2244.28749936 7176.77249219 -2227.26953125 7151.1328125 C-2224.08816461 7146.29188759 -2221.64218657 7142.21093284 -2220.5 7136.5 C-2225.7638645 7132.93933199 -2230.82050007 7130.48999711 -2236.8125 7128.4375 C-2257.8092629 7120.73099582 -2275.53950025 7105.79524794 -2291.5 7090.5 C-2292.25152344 7089.78972656 -2293.00304688 7089.07945313 -2293.77734375 7088.34765625 C-2307.47270448 7075.08620794 -2318.6910801 7058.65376986 -2328.40234375 7042.3203125 C-2331.40902684 7038.27780748 -2334.74467811 7036.0851073 -2339.5 7034.5 C-2347.18334461 7033.77467477 -2354.10038505 7035.35331514 -2361.5 7037.25 C-2370.76675016 7039.50837352 -2380.00546593 7041.38812616 -2389.4375 7042.8125 C-2390.48357422 7042.97137695 -2391.52964844 7043.13025391 -2392.60742188 7043.29394531 C-2440.5640153 7050.29210118 -2498.05883749 7046.90971187 -2538.45043945 7017.46484375 C-2554.83898329 7005.06295261 -2566.58832754 6988.87614915 -2569.54711914 6968.21435547 C-2572.68516434 6943.50838415 -2564.99836003 6921.98962713 -2553.5 6900.5 C-2553.03182861 6899.59991211 -2553.03182861 6899.59991211 -2552.55419922 6898.68164062 C-2542.60818787 6879.591128 -2529.978407 6861.25234183 -2516.5 6844.5 C-2514.19893071 6841.56981009 -2511.91176619 6838.62885955 -2509.625 6835.6875 C-2509.02727783 6834.91978271 -2508.42955566 6834.15206543 -2507.8137207 6833.36108398 C-2493.68922853 6815.1911811 -2480.25932543 6796.51969601 -2467.0390625 6777.68505859 C-2465.49214322 6775.48884546 -2463.93451727 6773.30056212 -2462.375 6771.11328125 C-2432.38307827 6728.87948397 -2405.31841362 6684.44999127 -2379.33837891 6639.66796875 C-2378.09722344 6637.52915955 -2376.8546763 6635.39115742 -2375.61083984 6633.25390625 C-2368.40970284 6620.87861895 -2361.31551955 6608.46236624 -2354.50878906 6595.86523438 C-2351.95886703 6591.15041629 -2349.35992602 6586.48496264 -2346.625 6581.875 C-2344.53847266 6578.34931658 -2342.61544998 6574.80364147 -2340.8125 6571.125 C-2337.97835176 6565.34363909 -2334.91152187 6559.7058017 -2331.8125 6554.0625 C-2327.72857563 6546.6156804 -2323.6928586 6539.14756838 -2319.75 6531.625 C-2319.33919189 6530.84326416 -2318.92838379 6530.06152832 -2318.50512695 6529.25610352 C-2315.26834506 6523.05859381 -2312.14093215 6516.80758636 -2309.02099609 6510.55078125 C-2306.49505264 6505.48615084 -2303.9582648 6500.42697225 -2301.42141724 6495.36779785 C-2299.17247868 6490.88267751 -2296.92570968 6486.39647121 -2294.67917061 6481.91014862 C-2293.02310654 6478.60321614 -2291.36629698 6475.29666166 -2289.70776367 6471.9909668 C-2281.89308222 6456.41360145 -2274.16623617 6440.80349855 -2266.70864868 6425.05093384 C-2265.54517855 6422.59535234 -2264.37663718 6420.14226672 -2263.20581055 6417.69018555 C-2254.6106314 6399.68834824 -2246.13343521 6381.64052159 -2237.92529297 6363.45874023 C-2233.09885839 6352.77326088 -2228.16009425 6342.14317142 -2223.15332031 6331.54101562 C-2216.00820871 6317.57654706 -2216.00820871 6317.57654706 -2212.5 6302.5 C-2226.76933456 6293.97954917 -2241.20044699 6285.89323653 -2255.89160156 6278.13085938 C-2257.14914364 6277.46625008 -2258.40663173 6276.80153862 -2259.6640625 6276.13671875 C-2260.56910522 6275.65826004 -2260.56910522 6275.65826004 -2261.49243164 6275.1701355 C-2265.44431797 6273.07519506 -2269.3630352 6270.9312746 -2273.24755859 6268.71411133 C-2278.71937879 6265.59139365 -2284.20003211 6262.59093044 -2289.84765625 6259.80078125 C-2291.26310348 6259.09733424 -2292.67846503 6258.39371481 -2294.09375 6257.68994141 C-2294.81973389 6257.32950745 -2295.54571777 6256.96907349 -2296.29370117 6256.59771729 C-2299.91063668 6254.79815479 -2303.51933617 6252.98224579 -2307.12890625 6251.16796875 C-2322.93735024 6243.23266913 -2338.76430117 6235.35956611 -2354.75976562 6227.80615234 C-2357.78193261 6226.3656148 -2360.78986232 6224.89767822 -2363.796875 6223.42578125 C-2365.36828247 6222.66092407 -2365.36828247 6222.66092407 -2366.97143555 6221.88061523 C-2368.97319439 6220.90558587 -2370.97225009 6219.92497909 -2372.96801758 6218.93774414 C-2373.86673584 6218.50196045 -2374.7654541 6218.06617676 -2375.69140625 6217.6171875 C-2376.47717041 6217.23159668 -2377.26293457 6216.84600586 -2378.07250977 6216.44873047 C-2382.63387818 6214.66602126 -2387.47036375 6214.35933816 -2392.32275391 6214.00683594 C-2393.45780869 6213.92273972 -2394.59286346 6213.83864349 -2395.76231384 6213.7519989 C-2397.60086693 6213.61952507 -2397.60086693 6213.61952507 -2399.4765625 6213.484375 C-2401.45913047 6213.33740172 -2403.44169759 6213.19041632 -2405.42422771 6213.04293346 C-2407.53548601 6212.88604315 -2409.64681568 6212.73013723 -2411.75814819 6212.57424927 C-2503.39946907 6205.78822463 -2597.1951781 6198.76011701 -2682.68261719 6162.57617188 C-2695.6891725 6157.16186247 -2709.29724303 6155.70879591 -2723.2734375 6155.12109375 C-2723.96806091 6155.09177765 -2724.66268433 6155.06246155 -2725.37835693 6155.03225708 C-2726.09074524 6155.00227631 -2726.80313354 6154.97229553 -2727.53710938 6154.94140625 C-2793.50614828 6152.1438236 -2860.95752167 6135.56992651 -2921.5 6109.5 C-2922.48468262 6109.0771875 -2923.46936523 6108.654375 -2924.48388672 6108.21875 C-2956.91093401 6094.17964277 -2986.82533768 6075.40759638 -3014.5 6053.5 C-3015.43199219 6052.76265625 -3016.36398437 6052.0253125 -3017.32421875 6051.265625 C-3023.76173956 6046.08622166 -3029.87283779 6040.59645995 -3035.91455078 6034.96777344 C-3037.56680046 6033.43815763 -3039.23279377 6031.92476578 -3040.90234375 6030.4140625 C-3046.14068321 6025.66049166 -3051.25462397 6020.95552405 -3055.79296875 6015.51171875 C-3057.02418363 6014.06074469 -3058.30447099 6012.65091879 -3059.61328125 6011.26953125 C-3098.9713078 5969.72136902 -3125.90902833 5914.44629394 -3124.63623047 5856.79882812 C-3123.43068003 5827.60635955 -3110.22356053 5798.98290903 -3093.5 5775.5 C-3093.07235352 5774.89575195 -3092.64470703 5774.29150391 -3092.20410156 5773.66894531 C-3085.1441079 5763.75904596 -3077.40199379 5754.82862456 -3068.97705078 5746.0625 C-3067.12193207 5744.10006037 -3065.3668121 5742.06319428 -3063.625 5740 C-3060.90385194 5736.84670932 -3057.95393108 5734.15366335 -3054.77734375 5731.46484375 C-3052.59100978 5729.5785213 -3050.47956421 5727.62598859 -3048.3737793 5725.65063477 C-3042.03498325 5719.72692196 -3035.41224416 5714.2949816 -3028.51367188 5709.03808594 C-3026.35994357 5707.39302188 -3024.21959797 5705.73129132 -3022.078125 5704.0703125 C-3001.9582755 5688.59573849 -2980.52000661 5675.0909604 -2958.5 5662.5 C-2957.39760986 5661.86602295 -2957.39760986 5661.86602295 -2956.27294922 5661.21923828 C-2944.75820263 5654.62006622 -2932.97050677 5648.54817305 -2921.15991211 5642.50048828 C-2920.54397186 5642.18443634 -2919.92803162 5641.8683844 -2919.29342651 5641.54275513 C-2917.60210677 5640.67536212 -2915.90960954 5639.81026619 -2914.21704102 5638.9453125 C-2911.39624376 5637.50230435 -2911.39624376 5637.50230435 -2908.5 5635.5 C-2908.59368149 5629.8791106 -2909.38105983 5626.27315522 -2912.375 5621.5 C-2941.26978562 5574.76017296 -2954.59824772 5513.31424209 -2957.8125 5458.875 C-2957.85201782 5458.20588593 -2957.89153564 5457.53677185 -2957.93225098 5456.84738159 C-2960.42300063 5412.85842883 -2958.18129058 5368.90886522 -2930.33203125 5333.15625 C-2929.38733816 5331.93802908 -2928.44332301 5330.71928214 -2927.5 5329.5 C-2927.00814209 5328.8706958 -2926.51628418 5328.2413916 -2926.00952148 5327.59301758 C-2923.0063306 5323.84500432 -2923.0063306 5323.84500432 -2922.9375 5319.1875 C-2924.68445254 5316.18274163 -2925.43708731 5315.8584192 -2928.5 5314.5 C-2929.17716064 5314.1692749 -2929.85432129 5313.8385498 -2930.55200195 5313.49780273 C-2931.27347412 5313.14661377 -2931.99494629 5312.7954248 -2932.73828125 5312.43359375 C-2942.57912351 5307.60886646 -2952.09390577 5302.5317983 -2961.41357422 5296.77197266 C-2964.63789562 5294.80629111 -2967.90138775 5292.90847049 -2971.16064453 5291.00146484 C-2983.10828901 5284.00346876 -2994.87377831 5276.73583789 -3006.58007812 5269.34228516 C-3009.35677338 5267.5903669 -3012.13877747 5265.84719177 -3014.921875 5264.10546875 C-3035.2029048 5251.36317843 -3055.04098999 5237.87731697 -3074.50927734 5223.92578125 C-3076.63419009 5222.40389133 -3078.76444813 5220.88964307 -3080.89453125 5219.375 C-3090.93030498 5212.21122794 -3100.72265616 5204.77497459 -3110.40869141 5197.14599609 C-3112.38730638 5195.58869722 -3114.37041168 5194.03735583 -3116.35546875 5192.48828125 C-3126.2980119 5184.72154487 -3136.06197211 5176.75806646 -3145.66870117 5168.5793457 C-3149.02758859 5165.72491203 -3152.43214165 5162.94076506 -3155.875 5160.1875 C-3161.14826087 5155.902493 -3166.09381939 5151.30695987 -3171.02294922 5146.63549805 C-3174.77895213 5143.07854598 -3178.61093813 5139.63586721 -3182.51489258 5136.2421875 C-3193.47443035 5126.62378121 -3203.80624098 5116.29485471 -3214.125 5106 C-3214.89710815 5105.23177414 -3214.89710815 5105.23177414 -3215.68481445 5104.44802856 C-3220.97543725 5099.17843217 -3226.1983816 5093.89010738 -3231.02685547 5088.1875 C-3232.61035371 5086.37358885 -3234.28113565 5084.68548591 -3236 5083 C-3239.01413582 5080.03264677 -3241.79917333 5076.92654708 -3244.55859375 5073.72265625 C-3246.78804061 5071.17023117 -3249.08001382 5068.68112486 -3251.375 5066.1875 C-3255.44540056 5061.72477168 -3259.30176909 5057.13742 -3263.09375 5052.4375 C-3265.79779889 5049.1364533 -3268.58144477 5045.91264883 -3271.375 5042.6875 C-3276.78618549 5036.41459006 -3281.9399106 5029.97374818 -3287.0078125 5023.421875 C-3288.61074785 5021.35736141 -3290.22632058 5019.30317524 -3291.84375 5017.25 C-3300.01042419 5006.86050475 -3307.87050871 4996.28952259 -3315.5 4985.5 C-3316.13728027 4984.60087891 -3316.77456055 4983.70175781 -3317.43115234 4982.77539062 C-3326.52345547 4969.9190104 -3335.25635312 4956.9150819 -3343.5 4943.5 C-3344.12986816 4942.48373535 -3344.75973633 4941.4674707 -3345.40869141 4940.42041016 C-3385.4979477 4875.69465739 -3417.02488868 4806.51220076 -3443.5 4713.5 C-3443.67253296 4712.84380676 -3443.84506592 4712.18761353 -3444.02282715 4711.51153564 C-3454.95304401 4669.81473521 -3461.73901011 4627.52040494 -3464.5 4584.5 C-3464.58254532 4583.21789642 -3464.66509064 4581.93579285 -3464.75013733 4580.61483765 C-3465.41533707 4569.79008826 -3465.67565928 4559.00370745 -3465.703125 4548.16015625 C-3465.71006595 4546.44087198 -3465.717061 4544.72158793 -3465.72410583 4543.00230408 C-3465.74328982 4537.52236672 -3465.74802593 4532.04246697 -3465.75 4526.5625 C-3465.75073643 4525.62935974 -3465.75147285 4524.69621948 -3465.7522316 4523.73480225 C-3465.77154473 4493.69631386 -3465.25285663 4463.82626724 -3462.70245361 4433.87756348 C-3462.51035607 4431.621619 -3462.32626783 4429.3651585 -3462.14404297 4427.10839844 C-3460.19963772 4403.4738144 -3455.9649795 4380.34429357 -3448.26171875 4357.890625 C-3443.96986897 4345.08881879 -3446.83156154 4336.36335726 -3452.5 4324.5 C-3462.56558295 4304.42965332 -3478.31503408 4290.78104738 -3497.5 4279.5 C-3499.20860528 4278.45877946 -3500.91696019 4277.4171479 -3502.625 4276.375 C-3509.11154672 4272.50382892 -3515.75202941 4268.92918334 -3522.44921875 4265.4375 C-3530.47267417 4261.24684655 -3538.32977152 4256.90627476 -3546.05859375 4252.19140625 C-3549.55269085 4250.06230674 -3553.07125412 4247.97748956 -3556.59765625 4245.90234375 C-3570.7705814 4237.56175396 -3584.81475559 4229.05231872 -3598.71337891 4220.25878906 C-3601.29627802 4218.62858009 -3603.88689835 4217.01159379 -3606.48046875 4215.3984375 C-3619.11034116 4207.50104674 -3631.4653039 4199.2045657 -3643.8125 4190.875 C-3644.65981689 4190.30390503 -3645.50713379 4189.73281006 -3646.38012695 4189.14440918 C-3657.85517906 4181.403779 -3669.22553671 4173.52985127 -3680.5 4165.5 C-3681.38276611 4164.87335449 -3682.26553223 4164.24670898 -3683.17504883 4163.60107422 C-3693.76701664 4156.0646411 -3704.14003123 4148.25907207 -3714.45703125 4140.3515625 C-3718.23188292 4137.46033849 -3722.03070488 4134.60473006 -3725.84863281 4131.77075195 C-3734.01203374 4125.70909186 -3741.91495323 4119.36648212 -3749.77099609 4112.91308594 C-3752.05819327 4111.04379799 -3754.37146225 4109.20837399 -3756.6875 4107.375 C-3761.07183112 4103.88077638 -3765.34693022 4100.26689555 -3769.61621094 4096.6340332 C-3773.02506718 4093.7365054 -3776.46374861 4090.88236877 -3779.9375 4088.0625 C-3789.55369569 4080.22397076 -3798.91549564 4072.11106295 -3808.05859375 4063.7265625 C-3810.16154833 4061.80866793 -3812.28669156 4059.92623955 -3814.4375 4058.0625 C-3819.35030788 4053.79005812 -3824.12471839 4049.3669984 -3828.91357422 4044.95703125 C-3830.50210515 4043.49806655 -3832.09586496 4042.04504223 -3833.69140625 4040.59375 C-3838.49020171 4036.22416358 -3843.23273432 4031.83151421 -3847.77490234 4027.19262695 C-3849.40201896 4025.59613679 -3851.08054898 4024.13500445 -3852.82421875 4022.66796875 C-3858.71373286 4017.54283551 -3864.1735345 4011.97556023 -3869.68188477 4006.44848633 C-3871.55829475 4004.56671726 -3873.43998969 4002.69035262 -3875.32226562 4000.81445312 C-3880.77892399 3995.36050488 -3886.17915305 3989.91729943 -3891.18139648 3984.03686523 C-3892.85596431 3982.08511473 -3894.65060619 3980.28562161 -3896.5 3978.5 C-3899.71434731 3975.3288397 -3902.71750963 3972.04417247 -3905.66015625 3968.62109375 C-3907.69508819 3966.27508942 -3909.78290967 3963.9826355 -3911.875 3961.6875 C-3915.82249469 3957.31849317 -3919.5442459 3952.80007159 -3923.24609375 3948.22265625 C-3925.45146704 3945.55862647 -3927.7317631 3942.99211558 -3930.0625 3940.4375 C-3934.43661948 3935.62521311 -3938.49242507 3930.61916505 -3942.5 3925.5 C-3943.30953125 3924.47390625 -3944.1190625 3923.4478125 -3944.953125 3922.390625 C-3947.28998785 3919.42781674 -3949.61781546 3916.45802579 -3951.94335938 3913.48632812 C-3953.57863669 3911.39965682 -3955.21906903 3909.31709493 -3956.859375 3907.234375 C-3965.0167202 3896.84752296 -3972.86858567 3886.27861943 -3980.5 3875.5 C-3981.08313965 3874.67677246 -3981.6662793 3873.85354492 -3982.26708984 3873.00537109 C-3989.84830957 3862.28186791 -3997.30581411 3851.48711737 -4004.5 3840.5 C-4004.92313477 3839.85562988 -4005.34626953 3839.21125977 -4005.78222656 3838.54736328 C-4021.09031622 3815.19997709 -4035.3055673 3791.24360232 -4049.09228516 3766.97460938 C-4050.38374708 3764.70435998 -4051.68126307 3762.43769816 -4052.98046875 3760.171875 C-4057.03778273 3753.06664015 -4060.87665368 3745.89605412 -4064.48803711 3738.55371094 C-4066.4875242 3734.49472754 -4068.55714229 3730.48531214 -4070.7019043 3726.5012207 C-4076.69987878 3715.35572096 -4082.15911036 3703.97289535 -4087.5 3692.5 C-4088.02190918 3691.37916016 -4088.54381836 3690.25832031 -4089.08154297 3689.10351562 C-4127.6785681 3605.79394269 -4157.40056387 3518.69651662 -4212.5 3266.5 C-4212.68435608 3265.23724243 -4212.68435608 3265.23724243 -4212.87243652 3263.94897461 C-4221.50671027 3204.60877176 -4227.27110921 3144.89163731 -4230.25 3085 C-4230.33861298 3083.2312149 -4230.33861298 3083.2312149 -4230.42901611 3081.42669678 C-4232.15517518 3046.33510838 -4232.68859525 3011.28225089 -4232.68530273 2976.15209961 C-4232.68522195 2971.70251357 -4232.69211049 2967.25303154 -4232.70581055 2962.8034668 C-4233.03163395 2855.10808182 -4223.58155131 2747.63769602 -4116.68930054 2285.82620239 C-4115.12500304 2281.32017461 -4113.58574894 2276.80660406 -4112.06640625 2272.28515625 C-4101.05017113 2239.62119631 -4088.59933326 2207.38203352 -4075.5 2175.5 C-4075.21638611 2174.80964661 -4074.93277222 2174.11929321 -4074.64056396 2173.40802002 C-4049.27399353 2111.72556603 -4021.40702146 2051.29128397 -3991.625 1991.625 C-3990.97599228 1990.32296631 -3990.97599228 1990.32296631 -3990.31387329 1988.99462891 C-3984.20257517 1976.7432147 -3977.9239938 1964.5902339 -3971.5 1952.5 C-3970.84989226 1951.27362286 -3970.19982413 1950.04722473 -3969.54980469 1948.82080078 C-3967.80959832 1945.54419169 -3966.06316812 1942.27103049 -3964.3125 1939 C-3964.00317535 1938.42203674 -3963.69385071 1937.84407349 -3963.37515259 1937.24859619 C-3956.76618132 1924.91115367 -3949.9799362 1912.67616057 -3943.15136719 1900.45898438 C-3941.26309405 1897.07550265 -3939.38708883 1893.68537161 -3937.51269531 1890.29418945 C-3921.22586759 1860.85796807 -3904.10812321 1831.89404546 -3886.5435791 1803.20501709 C-3885.50317015 1801.50517944 -3884.46398546 1799.80459267 -3883.42480469 1798.10400391 C-3874.86353764 1784.10001394 -3866.18659702 1770.17753657 -3857.33007812 1756.35839844 C-3855.35630347 1753.27556043 -3853.38875411 1750.18880407 -3851.421875 1747.1015625 C-3844.62112648 1736.43581208 -3837.7873874 1725.80133387 -3830.71728516 1715.31201172 C-3829.41271452 1713.37006962 -3828.1175448 1711.42210419 -3826.82421875 1709.47265625 C-3812.9907571 1688.62732304 -3798.85310815 1667.99059334 -3784.5 1647.5 C-3783.95504883 1646.72188965 -3783.41009766 1645.9437793 -3782.84863281 1645.14208984 C-3771.22043337 1628.55898137 -3759.30779267 1612.1877911 -3747.27050781 1595.89990234 C-3745.49632036 1593.49501229 -3743.72779351 1591.08606164 -3741.9609375 1588.67578125 C-3734.26580001 1578.18531508 -3726.44032175 1567.80591415 -3718.5 1557.5 C-3717.60528636 1556.33607768 -3716.71074605 1555.17202209 -3715.81640625 1554.0078125 C-3714.17580797 1551.87266621 -3712.53365023 1549.73875151 -3710.890625 1547.60546875 C-3709.27399434 1545.50543382 -3707.65908886 1543.40419656 -3706.046875 1541.30078125 C-3697.30096502 1529.89524591 -3688.43155978 1518.60161007 -3679.34106445 1507.46826172 C-3675.79922154 1503.12305464 -3672.3186796 1498.73575639 -3668.875 1494.3125 C-3664.84202959 1489.13823338 -3660.67463754 1484.10014947 -3656.41357422 1479.11254883 C-3653.71660482 1475.9522341 -3651.07928852 1472.75694273 -3648.5 1469.5 C-3644.96989368 1465.04585766 -3641.31562873 1460.70948394 -3637.63232422 1456.38232422 C-3634.75396515 1452.99631105 -3631.92201415 1449.57892756 -3629.125 1446.125 C-3624.48380567 1440.42485224 -3619.66726107 1434.88579373 -3614.83984375 1429.34375 C-3611.61945435 1425.64512201 -3608.43287356 1421.91840447 -3605.25 1418.1875 C-3601.82573395 1414.17640744 -3598.36272725 1410.21344294 -3594.8125 1406.3125 C-3591.85867819 1403.06329601 -3589.05550252 1399.74125315 -3586.3125 1396.3125 C-3581.40648347 1390.2424901 -3576.06996487 1384.61022524 -3570.71875 1378.93359375 C-3567.84287149 1375.87961432 -3565.06486475 1372.75716613 -3562.328125 1369.578125 C-3559.29499976 1366.1302134 -3556.15776012 1362.77832752 -3553.03588867 1359.41088867 C-3550.0570465 1356.19503528 -3547.10569129 1352.95874279 -3544.1875 1349.6875 C-3539.46372376 1344.40798538 -3534.60102301 1339.26068799 -3529.72729492 1334.11987305 C-3527.08329558 1331.31862006 -3524.54701707 1328.56029248 -3522.17578125 1325.51953125 C-3521.34626953 1324.51986328 -3521.34626953 1324.51986328 -3520.5 1323.5 C-3519.84 1323.5 -3519.18 1323.5 -3518.5 1323.5 C-3518.23646729 1322.90977051 -3517.97293457 1322.31954102 -3517.70141602 1321.71142578 C-3516.45023299 1319.40839473 -3515.15195022 1317.93638558 -3513.27734375 1316.1171875 C-3512.65666016 1315.50746094 -3512.03597656 1314.89773438 -3511.39648438 1314.26953125 C-3510.42678711 1313.33173828 -3510.42678711 1313.33173828 -3509.4375 1312.375 C-3508.1527607 1311.12463926 -3506.87010319 1309.87213484 -3505.58984375 1308.6171875 C-3505.02128662 1308.06659668 -3504.45272949 1307.51600586 -3503.86694336 1306.94873047 C-3502.39270095 1305.52585988 -3502.39270095 1305.52585988 -3501.5 1303.5 C-3500.84 1303.5 -3500.18 1303.5 -3499.5 1303.5 C-3499.23050034 1302.90485596 -3498.96100067 1302.30971191 -3498.68333435 1301.6965332 C-3497.501462 1299.5027138 -3496.33257622 1298.09604259 -3494.56665039 1296.35546875 C-3493.97586197 1295.76805908 -3493.38507355 1295.18064941 -3492.77638245 1294.57543945 C-3492.1399028 1293.95241943 -3491.50342316 1293.32939941 -3490.84765625 1292.6875 C-3490.19171982 1292.03676514 -3489.53578339 1291.38603027 -3488.85997009 1290.71557617 C-3486.7655104 1288.63890663 -3484.66448998 1286.56904494 -3482.5625 1284.5 C-3480.46494687 1282.43011273 -3478.3688848 1280.3587707 -3476.27574158 1278.28442383 C-3474.97411739 1276.99500221 -3473.66982883 1275.70826321 -3472.36256409 1274.42456055 C-3469.96206344 1272.05045557 -3467.71549868 1269.79056791 -3465.70092773 1267.07421875 C-3465.10646851 1266.29498047 -3465.10646851 1266.29498047 -3464.5 1265.5 C-3463.84 1265.5 -3463.18 1265.5 -3462.5 1265.5 C-3461.84 1264.18 -3461.18 1262.86 -3460.5 1261.5 C-3459.84 1261.5 -3459.18 1261.5 -3458.5 1261.5 C-3457.84 1260.18 -3457.18 1258.86 -3456.5 1257.5 C-3455.84 1257.5 -3455.18 1257.5 -3454.5 1257.5 C-3453.84 1256.18 -3453.18 1254.86 -3452.5 1253.5 C-3451.84 1253.5 -3451.18 1253.5 -3450.5 1253.5 C-3449.84 1252.18 -3449.18 1250.86 -3448.5 1249.5 C-3447.84 1249.5 -3447.18 1249.5 -3446.5 1249.5 C-3445.84 1248.18 -3445.18 1246.86 -3444.5 1245.5 C-3443.84 1245.5 -3443.18 1245.5 -3442.5 1245.5 C-3442.23848145 1244.9006665 -3441.97696289 1244.30133301 -3441.70751953 1243.68383789 C-3440.41661773 1241.34920048 -3439.24352577 1240.22350416 -3437.1796875 1238.55859375 C-3433.3629414 1235.32910569 -3429.82924495 1231.90251852 -3426.3203125 1228.34765625 C-3425.77719421 1227.7988681 -3425.23407593 1227.25007996 -3424.67449951 1226.68466187 C-3422.40966974 1224.39275233 -3420.14910095 1222.09671958 -3417.89257812 1219.79663086 C-3416.2269587 1218.10099814 -3414.55532413 1216.41148699 -3412.8828125 1214.72265625 C-3412.37138702 1214.19777115 -3411.85996155 1213.67288605 -3411.33303833 1213.13209534 C-3410.09282171 1211.88304841 -3408.80066105 1210.68597483 -3407.5 1209.5 C-3406.84 1209.5 -3406.18 1209.5 -3405.5 1209.5 C-3405.17 1208.51 -3404.84 1207.52 -3404.5 1206.5 C-3403.0390625 1205.0625 -3403.0390625 1205.0625 -3401.125 1203.5 C-3397.05577601 1200.05793239 -3393.32491404 1196.35778918 -3389.58422852 1192.56420898 C-3386.23568805 1189.18881949 -3382.77227724 1186.01703442 -3379.15234375 1182.9375 C-3377.32680518 1181.38914975 -3377.32680518 1181.38914975 -3375.125 1179.0625 C-3373.5 1177.5 -3373.5 1177.5 -3371.5 1177.5 C-3371.24476563 1176.90767578 -3370.98953125 1176.31535156 -3370.7265625 1175.70507812 C-3369.37413687 1173.27372696 -3368.01057758 1171.98634459 -3365.875 1170.21875 C-3361.61497367 1166.61233782 -3357.55143152 1162.83778181 -3353.5 1159 C-3348.88140739 1154.62496598 -3344.21039288 1150.34070607 -3339.40625 1146.16992188 C-3336.55169007 1143.66925718 -3333.77586243 1141.08729064 -3331 1138.5 C-3326.86887891 1134.6678143 -3322.70956509 1130.88360435 -3318.4453125 1127.19921875 C-3316.1633471 1125.20593572 -3313.92771426 1123.16506973 -3311.6875 1121.125 C-3308.24621795 1118.01471149 -3304.73678702 1115.03521688 -3301.125 1112.125 C-3297.11175889 1108.8804924 -3293.27564046 1105.5127332 -3289.5 1102 C-3284.867489 1097.6900623 -3280.0787805 1093.6493906 -3275.1484375 1089.6796875 C-3272.52724881 1087.52242601 -3270.00845719 1085.28689 -3267.5 1083 C-3263.30270966 1079.17829137 -3258.96289769 1075.58525811 -3254.55078125 1072.015625 C-3250.97943376 1069.07074948 -3247.4878836 1066.04279913 -3244 1063 C-3238.8457376 1058.50599436 -3233.62811936 1054.11562043 -3228.3125 1049.8125 C-3224.97717174 1047.07011898 -3221.70673207 1044.25802253 -3218.4375 1041.4375 C-3213.79774669 1037.43953367 -3209.10615628 1033.5369656 -3204.30078125 1029.73828125 C-3200.62647719 1026.80191274 -3197.00170663 1023.8073296 -3193.375 1020.8125 C-3185.77804268 1014.54291392 -3178.14441809 1008.32021018 -3170.49267578 1002.11767578 C-3168.47047699 1000.4760329 -3166.45160162 998.83038484 -3164.43359375 997.18359375 C-3157.60213602 991.61226801 -3150.73962275 986.09006404 -3143.79077148 980.66577148 C-3139.29291571 977.14607039 -3134.86006092 973.55117148 -3130.4375 969.9375 C-3124.59748877 965.16971651 -3118.68431997 960.51865823 -3112.69140625 955.9453125 C-3109.37368901 953.41141233 -3106.09112045 950.83418719 -3102.8125 948.25 C-3095.94179749 942.83809245 -3089.04043674 937.46623411 -3082.1328125 932.1015625 C-3079.10242275 929.74770122 -3076.07651092 927.38828473 -3073.0546875 925.0234375 C-3064.43199715 918.28232097 -3055.73655716 911.65235518 -3046.96362305 905.10791016 C-3041.4015576 900.9504937 -3035.90277721 896.72114431 -3030.4375 892.4375 C-3023.65566417 887.12661199 -3016.77129189 881.9768742 -3009.81835938 876.89257812 C-3003.79935491 872.48256589 -2997.85913706 867.977187 -2991.9375 863.4375 C-2984.03875473 857.38924353 -2976.04155293 851.50364938 -2967.95703125 845.70703125 C-2963.29725861 842.36363667 -2958.67664799 838.96848405 -2954.0625 835.5625 C-2953.27544678 834.98169678 -2952.48839355 834.40089355 -2951.67749023 833.80249023 C-2949.28448393 832.03568205 -2946.89212194 830.26800533 -2944.5 828.5 C-2932.96008752 819.97090855 -2921.38478252 811.49631456 -2909.73828125 803.11328125 C-2907.47933793 801.48510744 -2905.22357339 799.85262375 -2902.96875 798.21875 C-2894.97835498 792.43094045 -2886.95887398 786.68953195 -2878.88769531 781.01489258 C-2873.79072052 777.42597845 -2868.73321309 773.78553972 -2863.6875 770.125 C-2854.87315547 763.73656045 -2845.9627604 757.49068506 -2837.03222656 751.26611328 C-2832.85082671 748.34977636 -2828.67575157 745.42441557 -2824.5 742.5 C-2822.8385569 741.33721782 -2821.17709854 740.17445743 -2819.515625 739.01171875 C-2816.12891913 736.64115704 -2812.74366639 734.26853854 -2809.359375 731.89453125 C-2801.18677215 726.16366193 -2793.00316913 720.45140609 -2784.76831055 714.81030273 C-2779.98278695 711.52885143 -2775.21916295 708.21692463 -2770.46044922 704.89672852 C-2758.12356634 696.29001183 -2745.70023548 687.81606757 -2733.25292969 679.37011719 C-2714.87635592 666.88656317 -2696.68016492 654.15010268 -2678.70458984 641.09570312 C-2676.51285343 639.50930343 -2674.31430192 637.93286229 -2672.11328125 636.359375 C-2660.3959897 627.97136036 -2648.91543609 619.29353157 -2637.5 610.5 C-2636.69997559 609.88447266 -2635.89995117 609.26894531 -2635.07568359 608.63476562 C-2626.37483144 601.93204796 -2617.75846463 595.13913088 -2609.25878906 588.18286133 C-2605.03112578 584.72640396 -2600.75253083 581.34640011 -2596.4375 578 C-2589.52433509 572.61785969 -2582.93771243 566.88958183 -2576.35253906 561.11425781 C-2573.96159972 559.030851 -2571.54504715 556.97860151 -2569.12744141 554.92626953 C-2562.74589277 549.50488703 -2556.55454563 543.9112739 -2550.421875 538.2109375 C-2547.92253272 535.89202902 -2545.41652263 533.58502936 -2542.875 531.3125 C-2541.98941406 530.51779297 -2541.98941406 530.51779297 -2541.0859375 529.70703125 C-2539.5 528.5 -2539.5 528.5 -2536.5 527.5 C-2536.17 526.51 -2535.84 525.52 -2535.5 524.5 C-2533.93359375 522.95703125 -2533.93359375 522.95703125 -2531.9375 521.3125 C-2528.10614476 518.08173558 -2524.61928602 514.63120266 -2521.1640625 511.00390625 C-2519.5 509.5 -2519.5 509.5 -2517.5 509.5 C-2517.10554688 508.59894531 -2517.10554688 508.59894531 -2516.703125 507.6796875 C-2515.42605624 505.36603696 -2514.29531457 504.27014433 -2512.25 502.625 C-2507.99930492 499.03308423 -2504.05886897 495.18084756 -2500.125 491.25 C-2499.50592773 490.63527832 -2498.88685547 490.02055664 -2498.24902344 489.38720703 C-2497.66411133 488.80052246 -2497.07919922 488.21383789 -2496.4765625 487.609375 C-2495.95143066 487.08311523 -2495.42629883 486.55685547 -2494.88525391 486.01464844 C-2493.28420638 484.34120469 -2493.28420638 484.34120469 -2491.5 481.5 C-2490.84 481.5 -2490.18 481.5 -2489.5 481.5 C-2489.18095703 480.68789063 -2489.18095703 480.68789063 -2488.85546875 479.859375 C-2487.00976545 476.64668106 -2484.46018168 474.29474544 -2481.8125 471.75 C-2477.81353334 467.83090618 -2473.9630051 463.88033812 -2470.33203125 459.61328125 C-2468.45086671 457.44332386 -2466.51028032 455.33490833 -2464.55664062 453.23022461 C-2459.74361582 448.04374717 -2455.18474508 442.72953177 -2450.74609375 437.21484375 C-2448.4116941 434.39326505 -2445.98009402 431.69409288 -2443.5 429 C-2439.44016355 424.58359856 -2435.60676179 420.03836478 -2431.83984375 415.37109375 C-2429.31266363 412.27012983 -2426.72373995 409.22834545 -2424.125 406.1875 C-2419.89880674 401.22682755 -2415.83765371 396.15946472 -2411.83862305 391.01464844 C-2408.12289492 386.25065939 -2404.29436592 381.5876478 -2400.4375 376.9375 C-2395.09507792 370.48593449 -2389.92690276 363.94001288 -2384.85742188 357.27099609 C-2383.33999049 355.29123939 -2381.8045171 353.32640119 -2380.265625 351.36328125 C-2367.79959528 335.45834678 -2355.92108223 319.14248024 -2344.11767578 302.74267578 C-2342.47790627 300.4693702 -2340.83168691 298.20087071 -2339.18359375 295.93359375 C-2333.97522064 288.76192309 -2328.81542364 281.56688689 -2323.8125 274.25 C-2299.76922568 239.10180896 -2299.76922568 239.10180896 -2286.5 236.5 C-2279.3450868 235.63810452 -2272.85880436 236.67901895 -2265.97265625 238.515625 C-2265.15006317 238.73450882 -2264.32747009 238.95339264 -2263.47994995 239.1789093 C-2253.1292382 242.03302072 -2243.14534553 245.85665282 -2233.125 249.6875 C-2231.0236953 250.48381203 -2228.92229354 251.27986798 -2226.82080078 252.07568359 C-2183.91010545 268.37786693 -2141.41413232 285.78076796 -2099.5 304.5 C-2097.86331298 305.22663398 -2096.22659532 305.95319894 -2094.58984375 306.6796875 C-2067.61555919 318.69427794 -2040.99943484 331.47778643 -2014.5 344.5 C-2013.47274811 345.00460754 -2013.47274811 345.00460754 -2012.42474365 345.51940918 C-1998.27970816 352.47282108 -1984.20743796 359.52040154 -1970.41308594 367.15356445 C-1963.97679313 370.71484407 -1957.47486236 374.12832736 -1950.9375 377.5 C-1940.83410303 382.729063 -1930.95046157 388.28491367 -1921.11035156 393.99121094 C-1917.55844297 396.04422208 -1913.99253203 398.07227165 -1910.42675781 400.10107422 C-1886.91674338 413.48574314 -1863.75005057 427.42248332 -1840.93066406 441.95507812 C-1838.38199955 443.57500069 -1835.82811797 445.18645855 -1833.2734375 446.796875 C-1788.69653169 474.94965323 -1745.15753634 505.17117836 -1703.5 537.5 C-1701.89776113 538.73146468 -1700.29374816 539.96059417 -1698.68969727 541.18969727 C-1686.40434992 550.61061404 -1674.29358289 560.23313564 -1662.30419922 570.02783203 C-1660.71726954 571.32271511 -1659.12651263 572.61290478 -1657.53515625 573.90234375 C-1650.68526221 579.46473935 -1643.98594518 585.19145495 -1637.30273438 590.95166016 C-1635.52514087 592.47840691 -1633.74047985 593.99641708 -1631.953125 595.51171875 C-1624.9506985 601.45752304 -1618.12569594 607.55322107 -1611.40234375 613.8125 C-1607.10877162 617.78824378 -1602.71237116 621.63534175 -1598.23828125 625.40625 C-1597.49964844 626.0353125 -1596.76101562 626.664375 -1596 627.3125 C-1594.99453125 628.15748047 -1594.99453125 628.15748047 -1593.96875 629.01953125 C-1592.5 630.5 -1592.5 630.5 -1592.5 632.5 C-1591.90541992 632.7678833 -1591.31083984 633.0357666 -1590.69824219 633.31176758 C-1588.47760243 634.51210673 -1587.0756393 635.70702998 -1585.328125 637.51171875 C-1584.46175415 638.39549194 -1584.46175415 638.39549194 -1583.57788086 639.29711914 C-1582.97468018 639.92094482 -1582.37147949 640.54477051 -1581.75 641.1875 C-1576.26270608 646.80364702 -1576.26270608 646.80364702 -1570.4375 652.0625 C-1562.47871328 658.82060769 -1555.11753208 666.45238734 -1548.37109375 674.41015625 C-1545.85614989 677.21912278 -1543.18145333 679.85086812 -1540.5 682.5 C-1536.65974318 686.29865501 -1532.96599354 690.13641713 -1529.46484375 694.25390625 C-1527.309829 696.7173923 -1525.08132125 699.10004766 -1522.84082031 701.4855957 C-1517.55553719 707.11305353 -1512.50477951 712.82584204 -1507.67578125 718.85546875 C-1505.369683 721.65839248 -1502.95848469 724.33003275 -1500.5 727 C-1495.60620521 732.32980108 -1491.03979483 737.86835578 -1486.5 743.5 C-1485.49065906 744.73005016 -1484.48017402 745.9591621 -1483.46875 747.1875 C-1476.39722188 755.79460256 -1469.60228729 764.56486725 -1462.97509766 773.51757812 C-1461.51953564 775.47374555 -1460.04976811 777.41825164 -1458.57421875 779.359375 C-1438.38808884 805.9453303 -1419.70403438 833.89697352 -1402.5 862.5 C-1401.97390137 863.36963379 -1401.44780273 864.23926758 -1400.90576172 865.13525391 C-1392.3203515 879.35331106 -1384.30169441 893.83939085 -1376.5 908.5 C-1375.84136963 909.73049072 -1375.84136963 909.73049072 -1375.16943359 910.98583984 C-1362.96607802 933.787974 -1351.69492145 956.96549169 -1341.3125 980.65039062 C-1340.50334591 982.49238323 -1339.68992052 984.332427 -1338.875 986.171875 C-1326.83416816 1013.36239656 -1315.6431031 1040.75971211 -1306.72045898 1069.14697266 C-1301.86253022 1084.41558159 -1296.83512981 1098.47113168 -1281.9375 1106.25 C-1273.08521774 1110.61583075 -1263.75118735 1113.82056169 -1254.4753418 1117.15136719 C-1215.03122678 1131.32526859 -1176.54551326 1148.33451393 -1138.59082031 1166.06542969 C-1135.60762717 1167.45004603 -1132.61420825 1168.80968829 -1129.6171875 1170.1640625 C-1110.65559623 1178.81594064 -1095.88255259 1188.78379084 -1088.1875 1208.9375 C-1086.10446217 1219.7314233 -1087.74912786 1229.82786039 -1093.16015625 1239.453125 C-1100.59837948 1250.38899324 -1111.17646036 1257.29747624 -1122.5625 1263.625 C-1124.28007401 1264.59808268 -1125.99763924 1265.57118126 -1127.7146759 1266.54521179 C-1129.47887873 1267.54428043 -1131.2455146 1268.53892466 -1133.01269531 1269.53271484 C-1138.51015756 1272.62835282 -1143.97330145 1275.78363654 -1149.4375 1278.9375 C-1150.50258789 1279.55101318 -1151.56767578 1280.16452637 -1152.66503906 1280.79663086 C-1160.58350762 1285.36694623 -1168.45494306 1290.01366124 -1176.3125 1294.6875 C-1189.10847254 1302.29690676 -1201.968161 1309.79249867 -1215 1316.9921875 C-1229.98235383 1324.12015141 -1229.98235383 1324.12015141 -1239.5 1336.5 C-1240.4899019 1341.0486197 -1240.42985956 1344.84729786 -1239.86669922 1349.45947266 C-1239.78700677 1350.13172504 -1239.70731432 1350.80397743 -1239.62520695 1351.4966011 C-1239.35964488 1353.72012681 -1239.08216295 1355.94199471 -1238.8046875 1358.1640625 C-1238.6140989 1359.74129049 -1238.4243011 1361.31861422 -1238.23524475 1362.89602661 C-1237.8327589 1366.2414681 -1237.42517653 1369.58623177 -1237.01339722 1372.93054199 C-1236.37387544 1378.12491605 -1235.74539041 1383.32058335 -1235.11938477 1388.51660156 C-1234.91092542 1390.24597427 -1234.70244463 1391.97534439 -1234.49394226 1393.70471191 C-1234.3397561 1394.98361046 -1234.3397561 1394.98361046 -1234.18245506 1396.28834534 C-1233.87139894 1398.86465973 -1233.55920406 1401.4408337 -1233.24665833 1404.01696777 C-1231.58094067 1417.75436647 -1229.98307945 1431.49852173 -1228.4375 1445.25 C-1228.232281 1447.06982669 -1228.02704098 1448.889651 -1227.82177734 1450.70947266 C-1227.379102 1454.63941746 -1226.93863028 1458.56960175 -1226.5 1462.5 C-1225.51 1462.83 -1224.52 1463.16 -1223.5 1463.5 C-1220.96326712 1462.1446674 -1220.96326712 1462.1446674 -1218.5 1460.5 C-1217.015 1460.005 -1217.015 1460.005 -1215.5 1459.5 C-1214.29117904 1457.49983534 -1214.29117904 1457.49983534 -1213.5 1455.5 C-1212.84 1455.5 -1212.18 1455.5 -1211.5 1455.5 C-1210.84 1454.18 -1210.18 1452.86 -1209.5 1451.5 C-1208.84 1451.5 -1208.18 1451.5 -1207.5 1451.5 C-1207.25636719 1450.91863281 -1207.01273438 1450.33726563 -1206.76171875 1449.73828125 C-1205.27294653 1447.09720855 -1203.62356738 1445.65016526 -1201.3125 1443.6875 C-1195.76667502 1438.84809782 -1190.62524862 1433.66133208 -1185.50317383 1428.37768555 C-1184.88337646 1427.74644775 -1184.2635791 1427.11520996 -1183.625 1426.46484375 C-1182.79355469 1425.60814087 -1182.79355469 1425.60814087 -1181.9453125 1424.73413086 C-1180.5 1423.5 -1180.5 1423.5 -1178.5 1423.5 C-1178.24476563 1422.90703125 -1177.98953125 1422.3140625 -1177.7265625 1421.703125 C-1176.37376259 1419.2732551 -1175.01658724 1418.00763734 -1172.875 1416.25 C-1169.30031887 1413.23023327 -1165.99928236 1410.05282816 -1162.75 1406.6875 C-1160.80817875 1404.79961823 -1158.82622813 1403.02352085 -1156.78125 1401.25 C-1152.40663127 1397.45056262 -1148.1985115 1393.49202733 -1144 1389.5 C-1139.21234353 1384.94780205 -1134.37981642 1380.48094698 -1129.38867188 1376.15234375 C-1126.53868894 1373.65897709 -1123.76981663 1371.08165555 -1121 1368.5 C-1116.87229646 1364.67098455 -1112.7150928 1360.89137503 -1108.45703125 1357.20703125 C-1106.1144085 1355.16366569 -1103.80726578 1353.08319141 -1101.5 1351 C-1096.15210014 1346.17878725 -1090.75697785 1341.42105973 -1085.27734375 1336.75 C-1079.71877521 1332.00920677 -1074.19062026 1327.25913783 -1068.8125 1322.3125 C-1065.31740111 1319.10354956 -1061.7571616 1316.03934163 -1058.0625 1313.0625 C-1054.06775746 1309.84056683 -1050.25447891 1306.49342389 -1046.5 1303 C-1041.8675162 1298.69003562 -1037.07877767 1294.64938832 -1032.1484375 1290.6796875 C-1029.52724881 1288.52242601 -1027.00845719 1286.28689 -1024.5 1284 C-1021.10401318 1280.90444804 -1017.63828469 1277.94848793 -1014.0625 1275.0625 C-1010.25912497 1271.98663412 -1006.59917348 1268.81246834 -1003 1265.5 C-998.5301488 1261.38621091 -993.90955107 1257.52912703 -989.18359375 1253.71484375 C-986.55291443 1251.54367173 -984.02057576 1249.29758643 -981.5 1247 C-978.10401318 1243.90444804 -974.63828469 1240.94848793 -971.0625 1238.0625 C-966.288597 1234.20174863 -961.76611572 1230.12562925 -957.25 1225.96875 C-953.68815771 1222.77118704 -949.97434167 1219.78611657 -946.25 1216.78125 C-942.46094593 1213.63805742 -938.86730648 1210.29841405 -935.24609375 1206.96484375 C-932.58124834 1204.57292703 -929.85168175 1202.30745116 -927.0625 1200.0625 C-922.52442682 1196.40234709 -918.23804209 1192.54878862 -913.97412109 1188.57958984 C-910.80666361 1185.64864673 -907.55911348 1182.8797958 -904.1875 1180.1875 C-898.89443887 1175.93319257 -893.99275762 1171.333018 -889.06518555 1166.66845703 C-884.48929552 1162.36001575 -879.76603143 1158.37331684 -874.85546875 1154.44921875 C-872.10968106 1152.17699975 -869.64013401 1149.73009106 -867.1640625 1147.171875 C-864.77847909 1144.77509166 -862.22744074 1142.59079027 -859.66796875 1140.3828125 C-857.25157049 1138.2842468 -854.87470976 1136.145603 -852.5 1134 C-849.56321535 1131.34886006 -846.61397458 1128.71709829 -843.625 1126.125 C-840.19667808 1123.14083314 -836.84379199 1120.07811516 -833.5 1117 C-829.55280383 1113.36642339 -825.57651305 1109.77588627 -821.515625 1106.26953125 C-819.94563565 1104.89122665 -818.39789562 1103.48756387 -816.859375 1102.07421875 C-815.95703125 1101.24535156 -815.0546875 1100.41648437 -814.125 1099.5625 C-813.29226562 1098.79035156 -812.45953125 1098.01820312 -811.6015625 1097.22265625 C-809.5 1095.5 -809.5 1095.5 -807.5 1095.5 C-807.17 1094.51 -806.84 1093.52 -806.5 1092.5 C-804.72265625 1090.67578125 -804.72265625 1090.67578125 -802.5625 1088.8125 C-801.85222656 1088.18988281 -801.14195312 1087.56726562 -800.41015625 1086.92578125 C-798.5 1085.5 -798.5 1085.5 -796.5 1085.5 C-796.17 1084.51 -795.84 1083.52 -795.5 1082.5 C-794.1796875 1081.16796875 -794.1796875 1081.16796875 -792.375 1079.6875 C-788.16846929 1076.12405402 -784.14166402 1072.39873073 -780.125 1068.625 C-775.97196255 1064.73066969 -771.8120578 1060.8518688 -767.5625 1057.0625 C-761.84264436 1051.94872178 -756.26810593 1046.68210374 -750.6796875 1041.42578125 C-747.92145363 1038.83180465 -745.15611511 1036.24582839 -742.3828125 1033.66796875 C-741.38834106 1032.74310669 -741.38834106 1032.74310669 -740.3737793 1031.79956055 C-739.1287803 1030.64246969 -737.88291969 1029.48630486 -736.63598633 1028.33129883 C-733.05745202 1025.0027227 -729.57259838 1021.60049535 -726.14746094 1018.11401367 C-724.43034271 1016.43175691 -722.64543624 1014.86707984 -720.8125 1013.3125 C-716.46954847 1009.59240792 -712.49837813 1005.52925215 -708.53637695 1001.41137695 C-707.22704788 1000.07130544 -705.86720716 998.78096794 -704.5 997.5 C-703.84 997.5 -703.18 997.5 -702.5 997.5 C-702.10385498 996.59713257 -702.10385498 996.59713257 -701.69970703 995.67602539 C-700.43295288 993.37839012 -699.33736109 992.31124411 -697.3046875 990.68359375 C-693.12974198 987.1510201 -689.2872893 983.357986 -685.4453125 979.47265625 C-684.81357117 978.83524506 -684.18182983 978.19783386 -683.53094482 977.54110718 C-680.88365642 974.86669543 -678.24054669 972.18822163 -675.6015625 969.50561523 C-673.65794923 967.5319875 -671.7083145 965.56447271 -669.7578125 963.59765625 C-669.15889191 962.98527603 -668.55997131 962.37289581 -667.94290161 961.74195862 C-666.49944092 960.28970448 -665.00422372 958.88921987 -663.5 957.5 C-662.84 957.5 -662.18 957.5 -661.5 957.5 C-660.84 956.18 -660.18 954.86 -659.5 953.5 C-658.84 953.5 -658.18 953.5 -657.5 953.5 C-656.84 952.18 -656.18 950.86 -655.5 949.5 C-654.84 949.5 -654.18 949.5 -653.5 949.5 C-652.84 948.18 -652.18 946.86 -651.5 945.5 C-650.84 945.5 -650.18 945.5 -649.5 945.5 C-649.23494156 944.90929718 -648.96988312 944.31859436 -648.6967926 943.70999146 C-647.46180647 941.42947201 -646.1913226 939.95568244 -644.35131836 938.14013672 C-643.71403305 937.50623016 -643.07674774 936.87232361 -642.42015076 936.21920776 C-641.73364944 935.54616608 -641.04714813 934.87312439 -640.33984375 934.1796875 C-639.28223595 933.12988205 -639.28223595 933.12988205 -638.20326233 932.05886841 C-635.9527047 929.82611018 -633.69557104 927.60015735 -631.4375 925.375 C-629.17674302 923.14183957 -626.91744978 920.90724714 -624.661026 918.66970825 C-623.25704949 917.27801112 -621.85040892 915.88899556 -620.44090271 914.50289917 C-619.80676956 913.87529694 -619.17263641 913.2476947 -618.51928711 912.60107422 C-617.95906357 912.0491037 -617.39884003 911.49713318 -616.82164001 910.92843628 C-615.39195227 909.51655141 -615.39195227 909.51655141 -614.5 907.5 C-613.84 907.5 -613.18 907.5 -612.5 907.5 C-612.23646729 906.90977051 -611.97293457 906.31954102 -611.70141602 905.71142578 C-610.45023299 903.40839473 -609.15195022 901.93638558 -607.27734375 900.1171875 C-606.34631836 899.20259766 -606.34631836 899.20259766 -605.39648438 898.26953125 C-604.75001953 897.64433594 -604.10355469 897.01914062 -603.4375 896.375 C-602.1527607 895.12463926 -600.87010319 893.87213484 -599.58984375 892.6171875 C-599.02128662 892.06659668 -598.45272949 891.51600586 -597.86694336 890.94873047 C-596.39270095 889.52585988 -596.39270095 889.52585988 -595.5 887.5 C-594.84 887.5 -594.18 887.5 -593.5 887.5 C-593.26667969 886.93796875 -593.03335938 886.3759375 -592.79296875 885.796875 C-591.18062924 882.93265858 -589.1806438 881.02747979 -586.8125 878.75 C-583.23753029 875.24622456 -579.86052683 871.69528256 -576.609375 867.89453125 C-573.6445489 864.52890458 -570.56935733 861.27017506 -567.5 858 C-563.32111701 853.54335827 -559.17849142 849.07510434 -555.1953125 844.44140625 C-553.04844949 841.98290184 -550.83462868 839.589711 -548.625 837.1875 C-545.33567762 833.58608829 -542.17982364 829.92692725 -539.125 826.125 C-535.73611989 821.92183068 -532.18738692 817.9381941 -528.5 814 C-524.07211732 809.26614799 -519.88699195 804.41022966 -515.82421875 799.35546875 C-513.21028057 796.14405898 -510.51922794 793.00810917 -507.8125 789.875 C-500.90634435 781.86084569 -494.19392032 773.69163825 -487.5 765.5 C-486.93603516 764.81083496 -486.37207031 764.12166992 -485.79101562 763.41162109 C-478.70651518 754.74935879 -471.71698486 746.01988028 -464.82958984 737.20019531 C-463.06888773 734.94872093 -461.30037587 732.70344266 -459.53198242 730.45800781 C-444.1056473 710.86065163 -429.05879476 691.02208697 -414.28662109 670.92773438 C-412.51285994 668.51747461 -410.73556356 666.10986576 -408.95703125 663.703125 C-398.19950729 649.14269188 -387.47706759 634.57235362 -377.33959961 619.5703125 C-374.61690588 615.55043328 -371.84498938 611.57363158 -369.00880432 607.63272095 C-363.27658651 599.66716526 -357.79377502 591.5560723 -352.375 583.375 C-351.43147843 581.95426454 -350.48770577 580.53369581 -349.54370117 579.11328125 C-348.06227906 576.88407337 -346.58108187 574.65471873 -345.10081482 572.42474365 C-341.45006531 566.92546355 -337.7881432 561.43373441 -334.12109375 555.9453125 C-333.05678912 554.35173479 -331.99249866 552.75814761 -330.92822266 551.16455078 C-329.39625302 548.87072394 -327.86403418 546.57706671 -326.33074951 544.28411865 C-304.30428536 511.33875916 -283.24293221 477.75875419 -262.73878479 443.84803772 C-260.24940341 439.73271427 -257.74871767 435.62442849 -255.2421875 431.51953125 C-241.72031171 409.36256753 -228.62087677 386.96908106 -215.67578125 364.47094727 C-212.27583143 358.56435526 -208.84817624 352.67628556 -205.375 346.8125 C-199.85325135 337.47345795 -194.53480189 328.02031437 -189.22070312 318.56201172 C-187.48807848 315.47878552 -185.75190474 312.39757529 -184.015625 309.31640625 C-177.5428156 297.81108874 -171.17505601 286.25602285 -164.91772461 274.63208008 C-161.71472843 268.69558227 -158.40658455 262.85345937 -154.9609375 257.0546875 C-152.87798354 253.41230277 -151.06698878 249.65016908 -149.22265625 245.8828125 C-147.13090646 241.77520407 -144.88482473 237.76685226 -142.625 233.75 C-139.10962893 227.48802037 -135.76505324 221.17650019 -132.60066223 214.73051453 C-130.09827344 209.64781073 -127.48458283 204.63066964 -124.83203125 199.625 C-119.88811401 190.26084898 -115.0174342 180.86088271 -110.1875 171.4375 C-109.76912872 170.621604 -109.35075745 169.80570801 -108.91970825 168.96508789 C-95.2160291 142.223758 -81.62896902 115.40999304 -68.79980469 88.23632812 C-67.35147702 85.18733178 -65.88451237 82.14776313 -64.4140625 79.109375 C-63.87539551 77.99618896 -63.33672852 76.88300293 -62.78173828 75.73608398 C-61.68384213 73.4673251 -60.58586139 71.19860715 -59.48779297 68.92993164 C-56.61081794 62.96193874 -53.78361399 56.97543354 -51.03125 50.94921875 C-50.74470551 50.32376663 -50.45816101 49.69831451 -50.16293335 49.0539093 C-48.79046581 46.05706563 -47.42631156 43.05729007 -46.07666016 40.05004883 C-38.87058693 24.26325923 -29.42232013 8.76540207 -12.75390625 1.87109375 C-8.46499114 0.32385529 -4.53627253 -0.04007308 0 0 Z " fill="#ed1c24" transform="translate(5883.5,74.5)"/>
<path d="M0 0 C1.61032133 -0.00701993 3.22064237 -0.01410676 4.83096313 -0.02125549 C9.96543768 -0.04070886 15.09986734 -0.04569108 20.234375 -0.046875 C21.10903664 -0.04731686 21.98369827 -0.04775871 22.88486481 -0.04821396 C50.02289034 -0.05540697 76.97540689 0.30271583 103.984375 3.203125 C104.79479248 3.28798157 105.60520996 3.37283813 106.44018555 3.46026611 C173.18921226 10.4701183 238.66983335 24.95060273 301.984375 47.203125 C302.65855469 47.43944641 303.33273437 47.67576782 304.02734375 47.91925049 C330.29809332 57.14190957 355.75784484 67.94671185 380.95361328 79.78173828 C383.80212453 81.11765197 386.65616104 82.4409524 389.51171875 83.76171875 C401.38540146 89.28972912 412.88797949 95.36748926 424.33056641 101.73583984 C426.84458665 103.12583631 429.36997026 104.49144656 431.90234375 105.84765625 C460.49524525 121.21514835 487.68950102 139.19954471 513.984375 158.203125 C514.74556641 158.75178223 515.50675781 159.30043945 516.29101562 159.86572266 C526.16584234 167.00223658 535.79827576 174.35577025 545.19921875 182.10546875 C548.86618341 185.12471283 552.60569065 188.04297097 556.359375 190.953125 C561.27162678 194.77521001 565.94432666 198.77107121 570.51953125 202.99609375 C574.18951452 206.28221189 578.05634118 209.313658 581.9296875 212.35546875 C582.60773438 212.96519531 583.28578125 213.57492187 583.984375 214.203125 C583.984375 214.863125 583.984375 215.523125 583.984375 216.203125 C584.57722794 216.47442734 585.17008087 216.74572968 585.78089905 217.0252533 C587.95053489 218.18503571 589.45694203 219.3682063 591.23999023 221.04907227 C591.85576431 221.62672836 592.47153839 222.20438446 593.10597229 222.79954529 C593.76580612 223.42901566 594.42563995 224.05848602 595.10546875 224.70703125 C595.80465927 225.3686879 596.50384979 226.03034454 597.22422791 226.71205139 C604.85574555 233.96998089 612.32419597 241.39178298 619.76049805 248.84887695 C622.07290223 251.16671338 624.39070398 253.47905804 626.70898438 255.79101562 C628.20865457 257.29134564 629.70801506 258.7919853 631.20703125 260.29296875 C631.88629166 260.97020493 632.56555206 261.6474411 633.26539612 262.34519958 C637.15896992 266.25769727 640.87532105 270.27457141 644.47706604 274.45770264 C646.55138937 276.85971206 648.70594635 279.18455662 650.859375 281.515625 C654.93297409 285.98186014 658.79265203 290.57233879 662.5859375 295.27734375 C664.756632 297.92530821 666.97703027 300.51436603 669.22631836 303.0949707 C675.91281236 310.77951351 682.13754816 318.75709311 688.25292969 326.90087891 C690.04384457 329.28219974 691.84544371 331.6551584 693.6484375 334.02734375 C727.38645639 378.54065348 757.05923394 426.57146189 780.61035156 477.25195312 C782.0434209 480.3299457 783.49376224 483.39943422 784.9453125 486.46875 C822.26946382 565.81940262 846.13408172 652.12605352 858.671875 765.953125 C858.73290405 766.67577545 858.79393311 767.3984259 858.85681152 768.14297485 C859.27428557 773.16034918 859.64462398 778.17991394 859.984375 783.203125 C860.03350037 783.90985352 860.08262573 784.61658203 860.13323975 785.34472656 C861.30189357 802.77310355 861.22843799 820.24392498 861.234375 837.703125 C861.23525871 838.8949684 861.23525871 838.8949684 861.23616028 840.11088943 C861.24998185 866.57615611 860.64741838 892.85162235 857.984375 919.203125 C857.91176453 919.934245 857.83915405 920.66536499 857.76434326 921.41864014 C856.73440099 931.71315976 855.45570428 941.96276752 853.984375 952.203125 C853.87867187 952.94030762 853.77296875 953.67749023 853.6640625 954.43701172 C846.46426381 1004.33796943 835.58188234 1053.23473157 819.984375 1101.203125 C819.75878906 1101.89708374 819.53320312 1102.59104248 819.30078125 1103.30603027 C812.68156395 1123.59759279 805.26001107 1143.52654542 796.984375 1163.203125 C796.71085205 1163.85458496 796.4373291 1164.50604492 796.15551758 1165.17724609 C788.58579419 1183.16440303 780.37432824 1200.79893225 771.671875 1218.265625 C771.26171143 1219.09221619 770.85154785 1219.91880737 770.42895508 1220.77044678 C765.39835103 1230.88038539 760.044601 1240.70577005 754.24438477 1250.39428711 C752.33309734 1253.59181517 750.51613333 1256.82883508 748.75 1260.109375 C731.05521175 1292.97466003 708.76456401 1323.72960168 685.984375 1353.203125 C685.45392578 1353.89100098 684.92347656 1354.57887695 684.37695312 1355.28759766 C678.62891821 1362.72836396 672.70109269 1369.98388123 666.58984375 1377.12890625 C664.22573313 1379.90011655 661.94593542 1382.73239689 659.671875 1385.578125 C655.386868 1390.85138587 650.79133487 1395.79694439 646.11987305 1400.72607422 C643.29028518 1403.71400885 640.51819815 1406.72592192 637.84204102 1409.85253906 C633.70100197 1414.59678664 629.28898271 1419.04241694 624.83203125 1423.48828125 C623.97306747 1424.34820175 623.1141037 1425.20812225 622.22911072 1426.09410095 C620.42260485 1427.90128361 618.61485038 1429.70721892 616.8059082 1431.51196289 C614.0550069 1434.25750893 611.30948279 1437.00835046 608.56445312 1439.75976562 C606.79979968 1441.5237582 605.03483603 1443.2874405 603.26953125 1445.05078125 C602.05197899 1446.27136986 602.05197899 1446.27136986 600.80982971 1447.51661682 C596.55844771 1451.75076568 592.23515638 1455.83588536 587.68145752 1459.74415588 C585.29199631 1461.79835777 582.98628138 1463.94008863 580.671875 1466.078125 C576.18639948 1470.1687306 571.57856956 1474.05130343 566.85546875 1477.86328125 C564.30675494 1479.94039632 561.79713595 1482.0527464 559.2980957 1484.1887207 C534.96539928 1504.97799789 508.81258666 1523.78028338 481.984375 1541.203125 C481.29118164 1541.65333008 480.59798828 1542.10353516 479.88378906 1542.56738281 C466.50464386 1551.21610804 452.79708795 1559.2699122 438.984375 1567.203125 C437.8691748 1567.84677002 437.8691748 1567.84677002 436.73144531 1568.50341797 C386.56795455 1597.41591808 333.16002707 1620.0140462 278.04644775 1637.54681396 C276.08127098 1638.17228521 274.11746578 1638.80190647 272.15380859 1639.43212891 C215.9250468 1657.34937018 157.38545656 1668.16704905 98.671875 1673.515625 C97.33387344 1673.63786438 97.33387344 1673.63786438 95.96884155 1673.76257324 C13.39793569 1681.18549524 -70.11870066 1676.31241288 -241.015625 1635.203125 C-242.16691895 1634.82752441 -243.31821289 1634.45192383 -244.50439453 1634.06494141 C-281.8083178 1621.80993675 -319.85372089 1607.30173238 -354.22070312 1588.1796875 C-357.3983287 1586.4508379 -360.64675669 1584.86556884 -363.890625 1583.265625 C-392.74644428 1568.90678232 -420.36403496 1552.33038141 -447.015625 1534.203125 C-447.59280273 1533.81366699 -448.16998047 1533.42420898 -448.76464844 1533.02294922 C-469.65584556 1518.91893402 -489.68036181 1503.66891409 -509.17773438 1487.70458984 C-510.82218063 1486.36115939 -512.47316452 1485.02574069 -514.125 1483.69140625 C-519.45292673 1479.37939775 -524.61477411 1474.93413573 -529.68359375 1470.3203125 C-531.77386389 1468.42261331 -533.88548615 1466.55579085 -536.015625 1464.703125 C-550.15336429 1452.36065419 -563.78955955 1439.51582116 -577.078125 1426.265625 C-577.95831299 1425.3900293 -578.83850098 1424.51443359 -579.74536133 1423.61230469 C-584.11856148 1419.22865933 -588.34328713 1414.78325196 -592.37768555 1410.08618164 C-595.12077258 1406.93259239 -598.01581993 1403.9236392 -600.890625 1400.890625 C-605.81056273 1395.6636384 -610.46937182 1390.34449638 -614.94921875 1384.734375 C-617.01675282 1382.20174347 -619.17675841 1379.7958134 -621.390625 1377.390625 C-626.39055244 1371.88984127 -630.93428882 1366.06703509 -635.47509766 1360.18945312 C-637.09738952 1358.0976993 -638.73296048 1356.01686711 -640.37109375 1353.9375 C-653.03370225 1337.8356426 -664.75729652 1321.22762522 -676.140625 1304.203125 C-676.89856354 1303.07224457 -676.89856354 1303.07224457 -677.67181396 1301.91851807 C-685.07988839 1290.851066 -692.14272364 1279.60971579 -699.015625 1268.203125 C-700.17836975 1266.2877509 -701.34112731 1264.37238459 -702.50390625 1262.45703125 C-703.44599744 1260.8936417 -704.38744177 1259.32986211 -705.328125 1257.765625 C-706.03678711 1256.59483398 -706.03678711 1256.59483398 -706.75976562 1255.40039062 C-753.96180921 1176.90203983 -784.84611915 1086.72896456 -812.015625 932.203125 C-812.16866416 930.82420561 -812.32181866 929.44529901 -812.47509766 928.06640625 C-821.69947209 844.14826425 -817.54493791 759.23045526 -790.015625 625.203125 C-789.76036041 624.23264221 -789.76036041 624.23264221 -789.49993896 623.24255371 C-774.82492355 567.65144428 -754.40373543 514.5471853 -728.92047119 463.03497314 C-727.57514957 460.3113888 -726.23960176 457.58301926 -724.90234375 454.85546875 C-699.11369117 402.48830522 -666.15945076 353.18403456 -629.015625 308.203125 C-627.57803198 306.43236718 -626.14053333 304.66153274 -624.703125 302.890625 C-616.46181245 292.8322175 -607.97609029 283.03206354 -599.09765625 273.53125 C-596.65473261 270.91474373 -594.27318498 268.2481098 -591.89355469 265.57397461 C-587.36935821 260.54424605 -582.67573648 255.71801999 -577.88671875 250.94140625 C-577.05278091 250.10651169 -576.21884308 249.27161713 -575.3596344 248.41142273 C-573.61215873 246.66327219 -571.86344227 244.91636115 -570.11352539 243.1706543 C-567.45278472 240.51528541 -564.7974457 237.85459883 -562.14257812 235.19335938 C-560.4326123 233.48405419 -558.72233638 231.77505914 -557.01171875 230.06640625 C-556.22816513 229.2808284 -555.44461151 228.49525055 -554.63731384 227.68586731 C-550.45723554 223.52333034 -546.19851672 219.51616914 -541.72286987 215.67225647 C-539.33078707 213.61380301 -537.02103481 211.46939783 -534.703125 209.328125 C-530.21414443 205.23432291 -525.60319024 201.34842833 -520.875 197.53515625 C-518.3779637 195.49863894 -515.92408552 193.42054523 -513.48168945 191.3190918 C-505.99367744 184.89045481 -498.21622273 178.88620664 -490.33398438 172.95068359 C-487.94719495 171.15154304 -485.56715819 169.34371553 -483.1875 167.53515625 C-466.9436805 155.22661255 -450.35864373 143.47883528 -433.14746094 132.55957031 C-430.97469416 131.17708151 -428.81119836 129.78089318 -426.6484375 128.3828125 C-405.26746606 114.62914704 -383.10400748 102.41531814 -360.43896484 90.94042969 C-357.27649419 89.33551304 -354.1235678 87.71339455 -350.97265625 86.0859375 C-276.82788387 48.05416308 -195.15884086 23.36788551 -34.42410278 1.36697388 C-32.54068059 1.23884456 -30.65807049 1.09876462 -28.77584839 0.95407104 C-19.1699623 0.24694324 -9.62782625 0.02601475 0 0 Z " fill="#ED1C24" transform="translate(1362.015625,4252.796875)"/>
</svg>
