<?xml version="1.0" encoding="UTF-8"?>
<svg version="1.1" xmlns="http://www.w3.org/2000/svg" width="8534" height="8534">
<path d="M0 0 C5.59866958 4.94087318 11.04788735 10.04635677 16.47875977 15.17016602 C19.76186394 18.26645499 23.09005863 21.309452 26.43188477 24.34204102 C30.95245558 28.46819961 35.3058319 32.71994764 39.57250977 37.10766602 C41.59076006 39.0763887 43.62961931 40.91060858 45.76660156 42.74365234 C50.12400415 46.54450176 54.22928949 50.55736972 58.31079102 54.65063477 C59.05973129 55.39861832 59.80867157 56.14660187 60.58030701 56.91725159 C62.15209701 58.48836566 63.72264325 60.06072494 65.29199219 61.63427734 C67.6753978 64.02303947 70.06409545 66.40641547 72.45336914 68.78930664 C73.98949713 70.32609552 75.52531485 71.86319461 77.06079102 73.40063477 C77.76514786 74.10296738 78.4695047 74.80529999 79.19520569 75.52891541 C83.14847222 79.50066025 86.92726881 83.56785609 90.57237244 87.82484436 C92.95687849 90.54873417 95.52880858 93.0662078 98.11938477 95.59204102 C101.93698601 99.36328652 105.60043267 103.17938055 109.08032227 107.26782227 C112.01651869 110.6146362 115.0724395 113.8461842 118.11938477 117.09204102 C122.31924136 121.57130481 126.48634118 126.06060061 130.49047852 130.71704102 C132.45603565 132.97955283 134.47611786 135.18894784 136.49438477 137.40454102 C139.62361303 140.86734184 142.62438825 144.39883105 145.55688477 148.02954102 C148.63275065 151.83291604 151.80691643 155.49286753 155.11938477 159.09204102 C159.1747742 163.50360487 163.00412216 168.04391984 166.76782227 172.70532227 C169.36386599 175.89215999 172.01696741 179.02536508 174.68188477 182.15454102 C178.52352904 186.67598242 182.29393965 191.24186028 185.97875977 195.89282227 C187.58503986 197.91825939 189.19944173 199.93560519 190.82250977 201.94750977 C197.80113848 210.60774976 204.60507285 219.38842433 211.33178711 228.24536133 C213.23929579 230.74945494 215.15706037 233.24545556 217.07641602 235.74047852 C224.81187788 245.8120979 232.35738996 255.97397724 239.59790039 266.40698242 C241.21512981 268.72954393 242.84564043 271.04234657 244.47875977 273.35375977 C263.08565492 299.72307257 280.79481185 326.74753696 297.11938477 354.59204102 C297.68979492 355.56157715 298.26020508 356.53111328 298.84790039 357.5300293 C308.07920963 373.2534972 316.86949926 389.17429237 325.37768555 405.29663086 C326.99947371 408.36516136 328.63393977 411.42656163 330.27172852 414.48657227 C352.35489009 455.96885348 370.26508349 499.918216 385.89282227 544.20141602 C386.20229294 545.0757428 386.51176361 545.95006958 386.83061218 546.85089111 C388.30594736 551.02451272 389.7673455 555.20199422 391.20166016 559.38989258 C396.00177083 573.22104295 402.03361208 585.52735796 411.29125977 596.97094727 C434.40800141 626.1479792 452.49300297 659.4177909 469.11938477 692.59204102 C469.65305664 693.65535645 470.18672852 694.71867187 470.73657227 695.81420898 C483.61552071 721.64156721 494.56946891 748.36554599 504.11938477 775.59204102 C504.34692444 776.24072144 504.57446411 776.88940186 504.80889893 777.55773926 C535.80660686 866.15985356 554.38419824 958.66181608 566.36938477 1102.59204102 C566.41662689 1103.50341827 566.46386902 1104.41479553 566.51254272 1105.35379028 C568.28418303 1140.16839869 568.28418303 1140.16839869 558.11938477 1152.59204102 C549.99349167 1160.82676303 541.76041026 1164.86824668 530.11938477 1165.59204102 C518.75279793 1164.78494609 508.76803198 1159.09030936 499.36938477 1153.09204102 C498.46317383 1152.52356445 497.55696289 1151.95508789 496.62329102 1151.36938477 C492.96735264 1149.06907902 489.33449689 1146.75454221 485.78344727 1144.29516602 C483.26642081 1142.6860406 481.08989789 1141.70431772 478.24438477 1140.84204102 C477.46321289 1140.59969727 476.68204102 1140.35735352 475.87719727 1140.10766602 C475.29711914 1139.93750977 474.71704102 1139.76735352 474.11938477 1139.59204102 C473.93762695 1140.68258789 473.93762695 1140.68258789 473.75219727 1141.79516602 C473.50083008 1143.30336914 473.50083008 1143.30336914 473.24438477 1144.84204102 C472.97174805 1146.49139648 472.97174805 1146.49139648 472.69360352 1148.17407227 C472.33319684 1150.31935009 471.96237594 1152.46293169 471.57641602 1154.60375977 C465.88556755 1186.6522222 469.51332226 1217.07944758 480.33666992 1247.51098633 C497.7669372 1297.03405056 520.18055591 1386.83170466 499.31079102 1438.19750977 C494.76945375 1447.32485319 487.73308418 1454.25839543 478.12329102 1457.77954102 C467.76290728 1460.58182946 456.74378853 1461.1702413 446.08032227 1460.36157227 C436.95257409 1459.67549969 427.82855424 1459.3948273 418.67681885 1459.30493164 C417.22973819 1459.28809618 415.78272099 1459.26424724 414.33587646 1459.2331543 C412.27120095 1459.19085682 410.20787914 1459.17542693 408.14282227 1459.16625977 C406.9354541 1459.15167725 405.72808594 1459.13709473 404.48413086 1459.12207031 C399.84344873 1459.7702573 396.65934676 1461.79608534 393.61547852 1465.34594727 C390.3590038 1470.90959226 387.67521098 1476.67557522 385.11938477 1482.59204102 C388.63553834 1487.38679589 391.24909639 1489.80110558 397.11938477 1491.59204102 C409.05140356 1493.00770426 420.54537608 1486.18685312 431.00689697 1481.14016724 C434.7745638 1479.32452928 438.55500265 1477.53580504 442.33422852 1475.74438477 C443.09038452 1475.38541611 443.84654053 1475.02644745 444.62561035 1474.65660095 C455.6915705 1469.41193155 466.88249614 1464.45812833 478.11938477 1459.59204102 C478.83269958 1459.28286743 479.5460144 1458.97369385 480.28094482 1458.65515137 C504.58897175 1448.12863175 529.04246066 1438.02946183 553.75964355 1428.50231934 C556.09639361 1427.60090994 558.43170296 1426.69584706 560.7668457 1425.7902832 C648.34169853 1391.89509115 739.06655012 1364.55130282 977.05981445 1324.0300293 C980.33085699 1323.75110258 983.59907654 1323.4534617 986.86645508 1323.13452148 C1014.17328094 1320.48941181 1041.47059616 1320.30137591 1068.88123703 1320.28196716 C1071.75905791 1320.27958068 1074.63686274 1320.27426428 1077.51467896 1320.26867676 C1101.45631925 1320.23458423 1125.23995004 1320.82359751 1149.11938477 1322.59204102 C1149.79182598 1322.64146095 1150.4642672 1322.69088089 1151.15708542 1322.7417984 C1247.47138915 1329.83768974 1344.2776907 1347.6635729 1825.49731445 1469.6953125 C1844.4296759 1475.11178807 1863.36404246 1480.52091148 1882.30688477 1485.90063477 C1883.2295665 1486.16268078 1884.15224823 1486.42472679 1885.10289001 1486.69471359 C1892.68825901 1488.8488413 1900.2738319 1491.00225072 1907.85952759 1493.15522766 C1933.26151595 1500.36489102 1958.65665152 1507.59808326 1984.04253769 1514.86422348 C1988.42078097 1516.11738846 1992.79914426 1517.37013378 1997.17752075 1518.62283325 C2000.11664394 1519.46378605 2003.05576003 1520.30476363 2005.99487305 1521.14575195 C2007.0889615 1521.45880567 2007.0889615 1521.45880567 2008.20515275 1521.7781837 C2016.07323793 1524.02957621 2023.94100512 1526.28206759 2031.80780029 1528.53796387 C2062.22214027 1537.25928071 2092.65665822 1545.89891407 2123.15063477 1554.33813477 C2123.82805709 1554.52567487 2124.50547942 1554.71321497 2125.2034297 1554.90643811 C2150.79302536 1561.98983073 2176.41552881 1568.93446483 2202.11938477 1575.59204102 C2202.75062759 1575.7556588 2203.38187042 1575.91927658 2204.03224182 1576.08785248 C2289.1424658 1598.1454847 2374.78549709 1617.58113669 2622.11938477 1653.59204102 C2622.93993347 1653.65649414 2623.76048218 1653.72094727 2624.605896 1653.78735352 C2690.00831723 1658.88368585 2755.06766509 1658.77346982 2820.11938477 1649.59204102 C2820.83856079 1649.49105103 2821.55773682 1649.39006104 2822.29870605 1649.28601074 C2879.55664254 1641.19969039 2935.56394681 1627.68778435 2990.3347168 1609.16967773 C2991.01425919 1608.94062241 2991.69380157 1608.71156708 2992.39393616 1608.47557068 C2994.24695143 1607.8495661 2996.09838943 1607.21889812 2997.94970703 1606.58789062 C3006.7174889 1603.8332282 3018.41873887 1602.59518588 3027.11938477 1606.15454102 C3036.75895772 1611.37060057 3042.95860142 1619.11776476 3046.11938477 1629.59204102 C3046.71969303 1632.76921646 3047.02917782 1635.94011364 3047.29248047 1639.16113281 C3047.41215038 1640.52729374 3047.41215038 1640.52729374 3047.53423786 1641.92105389 C3048.37902181 1652.43814167 3048.38959503 1662.94252964 3048.34985352 1673.48657227 C3048.34865386 1675.65085319 3048.3482102 1677.81513465 3048.34846497 1679.97941589 C3048.3469127 1684.50161035 3048.33873801 1689.02372428 3048.32519531 1693.54589844 C3048.30848084 1699.18217716 3048.30446729 1704.81836665 3048.30500698 1710.45466709 C3048.30410886 1750.15987468 3047.71743283 1789.85228112 3046.18188477 1829.52954102 C3046.11744171 1831.23483475 3046.11744171 1831.23483475 3046.05169678 1832.97457886 C3045.75399213 1840.84761227 3045.44225099 1848.72000106 3045.11938477 1856.59204102 C3045.0817804 1857.51295532 3045.04417603 1858.43386963 3045.00543213 1859.38269043 C3042.05573165 1931.02397764 3036.25168049 2002.53668302 3028.82055664 2073.84155273 C3028.28666053 2078.96462385 3027.76536079 2084.08881978 3027.25053406 2089.21383667 C3019.65844796 2164.48849015 3008.61785576 2239.60073595 2939.11938477 2574.59204102 C2938.86582214 2575.54548401 2938.61225952 2576.498927 2938.35101318 2577.48126221 C2913.64340183 2670.30430017 2883.58564355 2761.65936785 2825.11938477 2903.59204102 C2824.79989868 2904.32340271 2824.4804126 2905.0547644 2824.15124512 2905.80828857 C2814.19440124 2928.58725067 2803.85918349 2951.17174953 2793.11938477 2973.59204102 C2792.7606427 2974.34110718 2792.40190063 2975.09017334 2792.0322876 2975.86193848 C2776.80726586 3007.62736208 2776.80726586 3007.62736208 2768.76391602 3022.61938477 C2766.59306976 3026.67283571 2764.48084541 3030.75534374 2762.38110352 3034.84594727 C2762.04685867 3035.49707993 2761.71261383 3036.14821259 2761.36824036 3036.81907654 C2760.67698208 3038.16592404 2759.98574396 3039.5127819 2759.29452515 3040.85964966 C2752.85321419 3053.40252616 2746.27968771 3065.85873627 2739.44702148 3078.1940918 C2738.18786896 3080.46834633 2736.93591881 3082.74641035 2735.68579102 3085.02563477 C2728.36674491 3098.33026106 2720.7436625 3111.46073727 2713.11938477 3124.59204102 C2712.66063965 3125.38465332 2712.20189453 3126.17726563 2711.72924805 3126.99389648 C2699.07231748 3148.84856478 2685.57588945 3170.22387009 2672.11938477 3191.59204102 C2671.51223633 3192.55835449 2670.90508789 3193.52466797 2670.27954102 3194.52026367 C2653.08047082 3221.84151392 2634.9020355 3248.6198377 2616.24438477 3274.96704102 C2615.75373535 3275.66071777 2615.26308594 3276.35439453 2614.75756836 3277.0690918 C2594.89501726 3305.09519536 2574.27936327 3332.53417119 2553.11938477 3359.59204102 C2552.61536133 3360.23786133 2552.11133789 3360.88368164 2551.59204102 3361.54907227 C2545.5321662 3369.31278456 2539.38381689 3376.99164577 2533.11938477 3384.59204102 C2531.61867302 3386.42479178 2530.11867839 3388.25812996 2528.61938477 3390.09204102 C2527.50176758 3391.4571582 2527.50176758 3391.4571582 2526.36157227 3392.84985352 C2524.88533616 3394.65528513 2523.41131741 3396.46253243 2521.93969727 3398.27172852 C2517.42322066 3403.81686883 2512.84317871 3409.30134636 2508.21020508 3414.74902344 C2505.26004383 3418.22408216 2502.36288562 3421.73639275 2499.49438477 3425.27954102 C2495.91538354 3429.68005676 2492.17146177 3433.89036623 2488.34985352 3438.08032227 C2486.12419125 3440.58662846 2484.02416916 3443.16128495 2481.93188477 3445.77954102 C2477.02702881 3451.84811499 2471.69183476 3457.47910765 2466.34204102 3463.15454102 C2463.44118024 3466.23510113 2460.63551906 3469.38284258 2457.87329102 3472.58813477 C2454.17767484 3476.81052028 2450.34632611 3480.91305026 2446.5456543 3485.04077148 C2444.29367135 3487.49012096 2442.05145826 3489.94840242 2439.80688477 3492.40454102 C2422.07453687 3511.75711979 2422.07453687 3511.75711979 2413.95704651 3519.72193909 C2412.28209488 3521.42645859 2410.7407388 3523.17583281 2409.20117188 3525.00195312 C2403.84982384 3531.15200982 2398.01514199 3536.84013597 2392.24829102 3542.59594727 C2390.99936096 3543.84555246 2389.75057926 3545.09530594 2388.50193787 3546.34519958 C2385.89549046 3548.95311406 2383.28726183 3551.55923008 2380.67773438 3554.1640625 C2377.35149955 3557.48460067 2374.02977542 3560.80960913 2370.70938206 3564.13598728 C2368.13482654 3566.71417527 2365.55787061 3569.28995346 2362.98020744 3571.8650341 C2361.75520608 3573.08937361 2360.53093257 3574.31444186 2359.30743599 3575.54028511 C2347.76986493 3587.09513124 2347.76986493 3587.09513124 2341.69602966 3592.23558044 C2339.19396758 3594.38822024 2336.92526739 3596.73059496 2334.61938477 3599.09204102 C2330.86788682 3602.90073435 2327.01348707 3606.51170978 2322.94750977 3609.98266602 C2321.09000488 3611.61790536 2319.35332467 3613.32685895 2317.61938477 3615.09204102 C2314.71939123 3618.03744832 2311.68312045 3620.74667811 2308.55297852 3623.44360352 C2305.35343323 3626.26824221 2302.23885612 3629.17954685 2299.11938477 3632.09204102 C2294.81404591 3636.1080928 2290.48970805 3640.08333347 2286.02954102 3643.92797852 C2283.75733966 3645.90744227 2281.53478604 3647.93787272 2279.30688477 3649.96704102 C2275.86560272 3653.07732952 2272.35617179 3656.05682413 2268.74438477 3658.96704102 C2264.73112192 3662.21156619 2260.89523092 3665.57951285 2257.11938477 3669.09204102 C2252.58947152 3673.30227243 2247.91646313 3677.26841948 2243.09985352 3681.14672852 C2239.54647534 3684.06208204 2236.08223214 3687.0702515 2232.61938477 3690.09204102 C2226.54907894 3695.38230378 2220.38149241 3700.52946229 2214.11938477 3705.59204102 C2212.38940719 3707.00771732 2210.6602624 3708.42441181 2208.93188477 3709.84204102 C2206.99482098 3711.42590799 2205.0572744 3713.00918459 2203.11938477 3714.59204102 C2202.51964844 3715.08220703 2201.91991211 3715.57237305 2201.30200195 3716.07739258 C2191.98705766 3723.68592534 2182.60843437 3731.2018613 2173.11938477 3738.59204102 C2172.43650391 3739.12410156 2171.75362305 3739.65616211 2171.05004883 3740.2043457 C2167.28771289 3743.13474039 2163.52296632 3746.06199922 2159.75610352 3748.98657227 C2156.71118448 3751.35157654 2153.67242157 3753.7241358 2150.63891602 3756.10375977 C2140.72914353 3763.86712093 2130.67781804 3771.40929848 2120.51489258 3778.83764648 C2117.31666831 3781.17992528 2114.12922406 3783.53665494 2110.94140625 3785.89306641 C2094.87024267 3797.76502763 2078.68491895 3809.41750216 2062.11938477 3820.59204102 C2061.28536133 3821.15536133 2060.45133789 3821.71868164 2059.59204102 3822.29907227 C2041.1462697 3834.73663192 2022.41939616 3846.72200243 2003.37768555 3858.22680664 C2001.03779743 3859.64136387 1998.70169929 3861.0620617 1996.36547852 3862.48266602 C1984.63463617 3869.59226743 1972.7517539 3876.40757756 1960.77954102 3883.10180664 C1958.40931424 3884.42962091 1956.04457423 3885.76650499 1953.68188477 3887.10766602 C1944.39554712 3892.35496461 1934.96771104 3897.31788645 1925.49438477 3902.21704102 C1924.60115509 3902.67913971 1924.60115509 3902.67913971 1923.68988037 3903.15057373 C1914.20868781 3908.04940261 1904.67850913 3912.84729809 1895.11938477 3917.59204102 C1894.47648499 3917.91116455 1893.83358521 3918.23028809 1893.17120361 3918.55908203 C1873.70122528 3928.20986436 1854.08973946 3937.36621115 1834.05187988 3945.77880859 C1832.088562 3946.60501185 1830.12764725 3947.43670004 1828.16723633 3948.26977539 C1793.89961784 3962.81526503 1758.89609997 3975.50361665 1723.44348145 3986.84777832 C1721.88704335 3987.34620802 1720.33113819 3987.84630483 1718.77575684 3988.34802246 C1668.57170457 4004.54146014 1616.97684 4017.0047001 1565.11938477 4026.59204102 C1564.1586908 4026.76975037 1563.19799683 4026.94745972 1562.20819092 4027.1305542 C1481.26817245 4042.02368005 1399.29554913 4049.92748361 1317.11938477 4053.59204102 C1315.9753418 4053.64457031 1314.83129883 4053.69709961 1313.65258789 4053.7512207 C1305.8101294 4054.10382369 1297.96659031 4054.37150419 1290.11938477 4054.59204102 C1288.95974213 4054.62491211 1288.95974213 4054.62491211 1287.77667236 4054.65844727 C1240.02549141 4055.9959308 1192.20504448 4056.68831576 1144.52734375 4053.25268555 C1132.12659222 4051.83409667 1132.12659222 4051.83409667 1120.05688477 4053.71704102 C1116.07306041 4057.5723549 1115.8042123 4063.09231307 1115.29516602 4068.38500977 C1115.1572017 4069.73292653 1115.01823928 4071.0807414 1114.87841797 4072.4284668 C1114.80660309 4073.13585999 1114.73478821 4073.84325317 1114.66079712 4074.57208252 C1108.89491777 4130.1738845 1091.33300615 4183.51948906 1069.11938477 4234.59204102 C1068.83146057 4235.2555658 1068.54353638 4235.91909058 1068.24688721 4236.60272217 C1054.1803526 4268.95604876 1038.63302594 4300.95958987 1021.11938477 4331.59204102 C1020.59393066 4332.51404297 1020.06847656 4333.43604492 1019.52709961 4334.38598633 C1002.67976485 4363.84307296 984.87067936 4392.93883825 965.4050293 4420.74584961 C964.0779354 4422.6515625 962.76657084 4424.56726219 961.45922852 4426.48657227 C955.52377469 4435.19583294 949.42361468 4443.77255425 943.22875977 4452.29907227 C941.34762678 4454.88934439 939.47876 4457.48675095 937.63500977 4460.10375977 C931.33821471 4469.03944972 924.72991754 4477.72205455 918.08422852 4486.40063477 C914.62559534 4490.91950617 911.20819273 4495.46745583 907.80688477 4500.02954102 C902.80546478 4506.72489581 897.67621872 4513.3105899 892.48706055 4519.86108398 C891.08694373 4521.63309902 889.69395325 4523.41049884 888.30297852 4525.18969727 C883.45325641 4531.39128467 878.5575495 4537.54603176 873.55688477 4543.62719727 C870.60979432 4547.2118794 867.67414329 4550.80568495 864.74438477 4554.40454102 C864.19129639 4555.08379639 863.63820801 4555.76305176 863.06835938 4556.46289062 C859.42885343 4560.94543096 855.85298968 4565.47293326 852.30688477 4570.02954102 C848.7136635 4574.64079895 844.99135618 4579.08085532 841.06079102 4583.40844727 C838.94363232 4585.78971831 836.93606805 4588.24000142 834.93188477 4590.71704102 C830.2317668 4596.50739253 825.35317127 4602.12963747 820.45532227 4607.75219727 C817.76417314 4610.84287493 815.09754335 4613.95342913 812.43969727 4617.07275391 C807.50896794 4622.85853684 802.49127979 4628.53899867 797.35375977 4634.14282227 C794.82289471 4636.91703973 792.35299086 4639.73911223 789.88891602 4642.57250977 C787.10049203 4645.75488328 784.26292647 4648.89253528 781.42797852 4652.03344727 C779.93819196 4653.68456434 778.45101599 4655.33804246 776.96704102 4656.99438477 C771.25630927 4663.36603303 765.46267095 4669.65773345 759.65014648 4675.9362793 C758.18026121 4677.52619348 756.71362417 4679.11902533 755.24829102 4680.71313477 C743.80283359 4693.15987453 732.33712029 4705.58461786 720.25488281 4717.41967773 C717.36055067 4720.27120034 714.59060553 4723.16517751 711.95141602 4726.25561523 C707.95649383 4730.84319595 703.71028939 4735.14526847 699.40454102 4739.43969727 C698.58996933 4740.25522568 697.77539764 4741.07075409 696.93614197 4741.91099548 C695.22379284 4743.6240211 693.51019634 4745.33580067 691.79541016 4747.04638672 C689.18936462 4749.64707654 686.58869954 4752.25306058 683.98852539 4754.85961914 C682.31501778 4756.53246588 680.64119995 4758.20500235 678.96704102 4759.87719727 C678.19908707 4760.64717545 677.43113312 4761.41715363 676.63990784 4762.21046448 C672.50750366 4766.32520845 668.28374167 4770.26044659 663.86643982 4774.06736755 C661.71204052 4775.94753465 659.68583257 4777.92793623 657.68188477 4779.96704102 C656.5565332 4781.10399414 656.5565332 4781.10399414 655.40844727 4782.26391602 C654.65305664 4783.03219727 653.89766602 4783.80047852 653.11938477 4784.59204102 C648.18240959 4789.61326491 643.20718902 4794.47790578 637.86547852 4799.06860352 C635.67694288 4800.97806414 633.64126674 4803.00794729 631.61938477 4805.09204102 C628.31019484 4808.50305217 624.8197673 4811.61992869 621.23364258 4814.73168945 C617.82733295 4817.72892725 614.54002025 4820.84924213 611.24438477 4823.96704102 C606.01438052 4828.89231438 600.75869123 4833.77874108 595.39672852 4838.56079102 C593.84037844 4839.94895918 592.29119288 4841.3451908 590.74829102 4842.74829102 C585.49159175 4847.5255793 580.13687507 4852.16154108 574.67285156 4856.69897461 C568.84751786 4861.56863895 564.47899452 4866.00488426 561.15844727 4872.88500977 C560.8151236 4873.58619431 560.47179993 4874.28737885 560.11807251 4875.0098114 C556.57695176 4882.43101933 553.98290913 4890.08103172 551.49438477 4897.90454102 C550.98657539 4899.47047795 550.47767035 4901.03605992 549.96777344 4902.60131836 C548.89141557 4905.91062242 547.82204035 4909.22208092 546.7565918 4912.53491211 C545.14902758 4917.5196213 543.4946778 4922.48803047 541.83422852 4927.45532227 C516.41284001 5003.75834992 495.58202539 5081.87155257 479.11938477 5160.59204102 C478.92235962 5161.53227112 478.72533447 5162.47250122 478.52233887 5163.44122314 C456.31172448 5269.63945555 443.44154385 5377.12848722 437.47781372 5512.93252563 C437.242058 5519.43616392 436.97923776 5525.93802782 436.69763184 5532.43983459 C435.29951329 5565.1344238 434.93079875 5597.78797349 434.93180084 5630.50961304 C434.93188344 5633.66656596 434.93052329 5636.82351618 434.92913818 5639.98046875 C434.92388772 5674.56582763 435.61809427 5709.05096369 437.43188477 5743.59204102 C437.49363892 5744.79933868 437.55539307 5746.00663635 437.61901855 5747.2505188 C438.6707142 5767.67949017 440.12536167 5788.06214856 441.93701172 5808.43774414 C442.06650963 5809.9515139 442.06650963 5809.9515139 442.19862366 5811.49586487 C442.35734053 5813.34826235 442.52350338 5815.20004741 442.69944763 5817.05088806 C443.74769387 5829.45611988 442.56210434 5841.57120433 434.49438477 5851.52954102 C428.3433126 5857.81580159 422.05244379 5859.76880876 413.36938477 5860.34204102 C400.07820618 5860.34368454 386.74221621 5855.41536682 374.11938477 5851.59204102 C372.5009668 5851.10356689 372.5009668 5851.10356689 370.84985352 5850.60522461 C359.02352179 5846.95598907 348.31814332 5842.32623226 337.46655273 5836.39111328 C330.1678429 5832.45746509 323.27317503 5830.20622312 315.11938477 5828.59204102 C296.82548278 5824.94139124 279.50287945 5819.2589157 261.88891602 5813.22241211 C219.54984017 5798.56536714 219.54984017 5798.56536714 176.26464844 5787.16479492 C175.10073074 5786.90847794 173.93681305 5786.65216095 172.73762512 5786.38807678 C170.38590925 5785.87068441 168.03417484 5785.35337626 165.68241882 5784.83616638 C145.87800996 5780.4665411 126.2072168 5775.68024499 106.56420898 5770.63885498 C103.00451761 5769.72600648 99.44377757 5768.81727001 95.88305664 5767.90844727 C95.18096856 5767.72921282 94.47888048 5767.54997837 93.75551701 5767.36531258 C91.64375185 5766.82623286 89.53196168 5766.28725123 87.42016602 5765.74829102 C86.73010405 5765.57215145 86.04004208 5765.39601189 85.32906914 5765.21453476 C80.59284256 5764.0057206 75.85623899 5762.79839319 71.11938477 5761.59204102 C69.84273956 5761.26673401 68.56609436 5760.941427 67.25076294 5760.60626221 C52.86488467 5756.94836402 38.48372939 5753.40327766 23.93188477 5750.46704102 C23.11133606 5750.30017792 22.29078735 5750.13331482 21.44537354 5749.96139526 C7.27564956 5747.09171256 -6.92108816 5744.7117541 -21.23727417 5742.68644714 C-28.45885772 5741.66234124 -35.67156912 5740.58132245 -42.88452148 5739.49829102 C-114.3210259 5728.71728461 -114.3210259 5728.71728461 -186.25561523 5722.40454102 C-187.00697754 5722.36147827 -187.75833984 5722.31841553 -188.5324707 5722.27404785 C-210.80641745 5721.02557966 -232.99835944 5721.49517761 -255.25561523 5722.84204102 C-256.938582 5722.94190811 -256.938582 5722.94190811 -258.6555481 5723.04379272 C-288.13125807 5724.81394669 -317.13470942 5727.5526242 -345.88061523 5734.59204102 C-346.77280762 5734.75833008 -347.665 5734.92461914 -348.58422852 5735.09594727 C-351.03396804 5735.66138504 -352.80397952 5736.17266198 -354.88061523 5737.59204102 C-356.56779098 5740.74675318 -356.99756113 5743.95330041 -357.50561523 5747.46704102 C-357.87973428 5749.47388949 -358.26278217 5751.47909091 -358.65405273 5753.48266602 C-358.84837891 5754.50295898 -359.04270508 5755.52325195 -359.24291992 5756.57446289 C-367.23761022 5794.40538636 -390.43627712 5829.41342076 -413.85717773 5859.40454102 C-414.32494629 5860.0060498 -414.79271484 5860.60755859 -415.2746582 5861.22729492 C-416.15645899 5862.35867994 -417.04325355 5863.48619651 -417.93579102 5864.60913086 C-420.21610767 5867.2797669 -420.21610767 5867.2797669 -420.88061523 5870.59204102 C-420.00046753 5870.6436438 -420.00046753 5870.6436438 -419.10253906 5870.69628906 C-376.60017068 5873.35758676 -341.45838017 5888.75264154 -312.88061523 5920.59204102 C-292.00425428 5944.96821102 -277.61175823 5974.54484063 -266.88061523 6004.59204102 C-266.50453125 6005.6394043 -266.12844727 6006.68676758 -265.7409668 6007.76586914 C-249.34976869 6053.90303867 -242.27836693 6101.93161214 -238.88061523 6150.59204102 C-238.8273407 6151.34211426 -238.77406616 6152.0921875 -238.71917725 6152.86499023 C-236.72570225 6181.40733764 -236.67201824 6209.99686783 -236.63518906 6238.59467697 C-236.63069909 6241.47573668 -236.62299757 6244.35677264 -236.61465454 6247.23782349 C-236.3978477 6333.84768038 -246.10975262 6419.8074683 -305.1338501 6655.42529297 C-305.87992659 6657.5900429 -306.62250747 6659.75596706 -307.36450195 6661.92211914 C-365.2106429 6830.50979447 -365.2106429 6830.50979447 -447.17578125 6890.36206055 C-467.62122796 6900.27484454 -489.75942198 6902.11001914 -511.47827148 6894.89672852 C-533.41611294 6886.48428415 -552.07961027 6871.61864986 -566.31811523 6852.96704102 C-571.36169287 6846.39510652 -576.85755049 6843.4832515 -584.88061523 6841.59204102 C-587.63160509 6841.42332126 -590.25960076 6841.35759057 -593.00561523 6841.40454102 C-593.84850098 6841.41098633 -594.69138672 6841.41743164 -595.55981445 6841.42407227 C-602.82979051 6841.50461207 -610.0959481 6841.73723441 -617.36279297 6841.95483398 C-708.86006229 6844.67933656 -801.21529688 6840.78870578 -1076.74780273 6802.47094727 C-1077.51844559 6802.30457764 -1078.28908844 6802.13820801 -1079.08308411 6801.96679688 C-1082.62589 6801.20058419 -1086.16567719 6800.42425322 -1089.70068359 6799.62280273 C-1099.21274468 6797.51763798 -1099.21274468 6797.51763798 -1108.88061523 6797.59204102 C-1112.3150954 6800.33478058 -1113.63897886 6802.90471086 -1114.95874023 6807.04516602 C-1115.31057373 6808.12693115 -1115.66240723 6809.20869629 -1116.02490234 6810.32324219 C-1116.57223022 6812.06504761 -1116.57223022 6812.06504761 -1117.13061523 6813.84204102 C-1117.52192627 6815.04771729 -1117.9132373 6816.25339355 -1118.31640625 6817.49560547 C-1119.51542761 6821.19099366 -1120.69983252 6824.89078939 -1121.88061523 6828.59204102 C-1136.67165571 6874.85338039 -1157.51945287 6918.48673082 -1187.88061523 6956.59204102 C-1188.93249023 6957.95135742 -1188.93249023 6957.95135742 -1190.00561523 6959.33813477 C-1203.42245018 6976.33114815 -1219.40830769 6989.4453601 -1237.88061523 7000.59204102 C-1238.9114624 7001.21925049 -1238.9114624 7001.21925049 -1239.96313477 7001.85913086 C-1262.55168222 7015.45695896 -1286.30745329 7022.33222011 -1312.50561523 7015.84204102 C-1330.56780842 7010.67347496 -1345.15658671 7000.77314678 -1358.75561523 6988.02954102 C-1380.27485112 6968.54682588 -1408.90425249 6964.32375719 -1436.43869019 6959.83029175 C-1444.22972967 6958.55704593 -1452.01271385 6957.23588535 -1459.79467773 6955.90844727 C-1460.98751908 6955.70508098 -1460.98751908 6955.70508098 -1462.20445824 6955.49760628 C-1504.46037643 6948.2745914 -1546.44716508 6939.47547962 -1588.08184814 6929.2744751 C-1590.9133489 6928.58405944 -1593.74690387 6927.90279509 -1596.58129883 6927.22436523 C-1696.7324401 6903.23575658 -1795.39084331 6870.6396454 -1895.5637207 6826.08862305 C-1897.93307037 6825.01957303 -1900.30419751 6823.95534379 -1902.67797852 6822.89624023 C-1922.96334283 6813.83491236 -1942.94267177 6804.20703152 -1962.81811523 6794.27954102 C-1963.90460358 6793.73804413 -1964.99109192 6793.19654724 -1966.11050415 6792.63864136 C-1980.01683164 6785.69791525 -1993.74759524 6778.49713399 -2007.35105896 6770.98060608 C-2010.9880194 6768.98414676 -2014.64431015 6767.02423961 -2018.30050659 6765.06329346 C-2042.71033183 6751.96621933 -2066.23254877 6737.16809726 -2089.25561523 6721.77954102 C-2089.97329071 6721.30059387 -2090.69096619 6720.82164673 -2091.4303894 6720.32818604 C-2102.42468292 6712.98502069 -2113.28379507 6705.50147543 -2123.88061523 6697.59204102 C-2125.25945393 6696.57111643 -2126.63836122 6695.5502845 -2128.01733398 6694.52954102 C-2144.53269673 6682.25992808 -2160.52318717 6669.37331895 -2176.18481445 6656.03344727 C-2177.88296369 6654.59004486 -2179.58651716 6653.15322679 -2181.29077148 6651.71704102 C-2188.69906927 6645.45001304 -2195.8649823 6638.96898328 -2202.91967773 6632.30688477 C-2205.58406077 6629.79081728 -2208.28306126 6627.31671048 -2210.99821472 6624.8555603 C-2217.68539829 6618.78081999 -2224.13407894 6612.49312338 -2230.50976562 6606.09326172 C-2232.2058125 6604.39180324 -2233.90721344 6602.69582839 -2235.60913086 6601.00024414 C-2240.69612119 6595.91635383 -2245.69955697 6590.82162251 -2250.37060547 6585.34716797 C-2252.9036703 6582.40291525 -2255.59091456 6579.60415636 -2258.25561523 6576.77954102 C-2262.98257899 6571.73293157 -2267.45570667 6566.55869953 -2271.77905273 6561.15844727 C-2273.8606295 6558.61644738 -2276.03099903 6556.19674766 -2278.25561523 6553.77954102 C-2283.25554267 6548.27875729 -2287.79927905 6542.45595111 -2292.34008789 6536.57836914 C-2293.96237976 6534.48661532 -2295.59795072 6532.40578312 -2297.23608398 6530.32641602 C-2305.3997824 6519.94217336 -2313.24783591 6509.37163042 -2320.88061523 6498.59204102 C-2321.50194336 6497.71950684 -2322.12327148 6496.84697266 -2322.76342773 6495.94799805 C-2333.03537265 6481.49923887 -2342.65722082 6466.73025441 -2351.88061523 6451.59204102 C-2352.33017578 6450.8548584 -2352.77973633 6450.11767578 -2353.24291992 6449.3581543 C-2355.46703839 6445.70069531 -2357.66304692 6442.02768808 -2359.84008789 6438.34204102 C-2360.89750784 6436.56363037 -2361.97166636 6434.79620216 -2363.04858398 6433.02954102 C-2400.5360736 6371.04084232 -2427.98335039 6303.38043365 -2450.22039795 6234.62939453 C-2450.84274363 6232.70890836 -2451.47015868 6230.79006707 -2452.09790039 6228.87133789 C-2482.58090041 6135.40918699 -2499.46331844 6036.51627919 -2510.06811523 5905.77954102 C-2510.1051355 5905.07656891 -2510.14215576 5904.3735968 -2510.18029785 5903.64932251 C-2510.45431791 5898.29840764 -2510.67531245 5892.94599389 -2510.88061523 5887.59204102 C-2510.92298309 5886.5016452 -2510.96535095 5885.41124939 -2511.00900269 5884.28781128 C-2511.73560101 5865.14035116 -2512.07965594 5846.01444305 -2512.06888962 5826.8517189 C-2512.06810038 5824.739796 -2512.0695658 5822.62788289 -2512.07131958 5820.51596069 C-2512.08188196 5798.86186928 -2511.59945043 5777.26408671 -2510.50439453 5755.63378906 C-2510.45663879 5754.65957001 -2510.40888306 5753.68535095 -2510.35968018 5752.68161011 C-2510.27049713 5750.89515367 -2510.17523415 5749.10898408 -2510.07220459 5747.32327271 C-2509.68697874 5739.73397511 -2510.92544519 5732.91921133 -2512.89233398 5725.59204102 C-2513.09670578 5724.82037094 -2513.30107758 5724.04870087 -2513.51164246 5723.25364685 C-2514.1914046 5720.69820635 -2514.8788256 5718.14492732 -2515.56811523 5715.59204102 C-2515.92767303 5714.25582199 -2515.92767303 5714.25582199 -2516.29449463 5712.89260864 C-2540.18127038 5624.33654222 -2571.11568072 5538.57485509 -2648.58862305 5385.77270508 C-2649.8741257 5383.60299425 -2651.14040058 5381.42297382 -2652.40405273 5379.24047852 C-2658.86195017 5368.17959904 -2665.8318193 5357.48948301 -2672.94311523 5346.84204102 C-2673.4019812 5346.1549707 -2673.86084717 5345.46790039 -2674.33361816 5344.76000977 C-2687.8067259 5324.60018764 -2687.8067259 5324.60018764 -2701.94311523 5304.90454102 C-2702.53471436 5304.1062085 -2703.12631348 5303.30787598 -2703.73583984 5302.48535156 C-2712.34495201 5290.89566837 -2721.24717072 5279.58235828 -2730.39233398 5268.41235352 C-2731.69470902 5266.81942237 -2732.99127555 5265.22174582 -2734.28686523 5263.62329102 C-2743.21155171 5252.62911202 -2752.44143973 5241.95037667 -2762.09545898 5231.59204102 C-2764.47466016 5229.03835972 -2766.80982886 5226.44907239 -2769.13061523 5223.84204102 C-2780.99611847 5210.66508742 -2793.35562289 5198.0141146 -2805.88061523 5185.46704102 C-2806.9002536 5184.44352036 -2806.9002536 5184.44352036 -2807.94049072 5183.39932251 C-2817.35580855 5173.87968567 -2817.35580855 5173.87968567 -2827.31616211 5164.94213867 C-2829.0953184 5163.40675567 -2830.73548833 5161.76947293 -2832.38061523 5160.09204102 C-2835.32661738 5157.09969726 -2838.41044531 5154.33879929 -2841.59155273 5151.59985352 C-2843.81634662 5149.64841314 -2845.99232024 5147.65020454 -2848.16162109 5145.63745117 C-2853.37115118 5140.80578434 -2858.70515869 5136.22019008 -2864.24389648 5131.76391602 C-2866.80481552 5129.65447752 -2869.25184978 5127.46316453 -2871.69311523 5125.21704102 C-2876.12420124 5121.17858288 -2880.75942512 5117.48965706 -2885.49487305 5113.82128906 C-2889.56748312 5110.65572032 -2893.52859768 5107.38805956 -2897.44311523 5104.02954102 C-2903.7439459 5098.64529789 -2910.26236003 5093.57828326 -2916.88061523 5088.59204102 C-2917.61699219 5088.03500488 -2918.35336914 5087.47796875 -2919.11206055 5086.90405273 C-2930.92109828 5077.97403823 -2942.81791266 5069.17660423 -2954.88061523 5060.59204102 C-2955.65308594 5060.04225586 -2956.42555664 5059.4924707 -2957.22143555 5058.92602539 C-2981.09741962 5041.97925651 -3005.56571869 5025.88992258 -3030.56811523 5010.65454102 C-3031.30715088 5010.20385254 -3032.04618652 5009.75316406 -3032.80761719 5009.28881836 C-3035.90880614 5007.39892647 -3039.01196653 5005.51291373 -3042.12280273 5003.63891602 C-3060.2795639 4992.47326233 -3060.2795639 4992.47326233 -3062.88061523 4983.59204102 C-3064.99626749 4969.61653045 -3057.71971764 4959.04910837 -3050.74121094 4947.63867188 C-3045.2785775 4938.69658025 -3040.26631697 4929.53638493 -3035.32885742 4920.29614258 C-3033.94318904 4917.7088764 -3032.54192497 4915.13060375 -3031.13842773 4912.55297852 C-2999.45990948 4853.86972773 -2976.52327404 4786.02437535 -2969.88061523 4719.59204102 C-2969.7370459 4718.24807251 -2969.7370459 4718.24807251 -2969.59057617 4716.87695312 C-2966.7775367 4686.63173754 -2967.40317293 4654.62921412 -2971.88061523 4624.59204102 C-2971.98007446 4623.91151672 -2972.07953369 4623.23099243 -2972.18200684 4622.52984619 C-2980.67420095 4564.51948823 -2997.25559676 4508.62182568 -3019.88061523 4454.59204102 C-3020.36401367 4453.42463379 -3020.84741211 4452.25722656 -3021.34545898 4451.05444336 C-3028.05505871 4434.90557585 -3035.40364734 4419.11923977 -3043.06811523 4403.40454102 C-3043.48182373 4402.55548187 -3043.89553223 4401.70642273 -3044.32177734 4400.83163452 C-3046.73399871 4395.89198462 -3049.17259702 4390.96644874 -3051.6427002 4386.05548096 C-3052.48402254 4384.38125696 -3053.32136672 4382.70502918 -3054.15515137 4381.02703857 C-3060.97801635 4367.29955543 -3060.97801635 4367.29955543 -3070.75561523 4355.59204102 C-3071.43906006 4354.90110352 -3072.12250488 4354.21016602 -3072.82666016 4353.49829102 C-3074.81928353 4351.50124321 -3076.84118608 4349.54113859 -3078.88061523 4347.59204102 C-3079.44635254 4347.04547852 -3080.01208984 4346.49891602 -3080.5949707 4345.93579102 C-3086.46027699 4340.30222271 -3092.63444444 4335.07130539 -3098.96655273 4329.97094727 C-3102.32044268 4327.23298617 -3105.60242029 4324.41973936 -3108.88061523 4321.59204102 C-3113.96037133 4317.21738539 -3119.07656681 4312.8987418 -3124.29858398 4308.69360352 C-3126.03433386 4307.28084492 -3127.74535979 4305.83721039 -3129.43139648 4304.36547852 C-3130.26026367 4303.65649414 -3131.08913086 4302.94750977 -3131.94311523 4302.21704102 C-3132.6559668 4301.59055664 -3133.36881836 4300.96407227 -3134.10327148 4300.31860352 C-3141.77730319 4295.54796777 -3151.17666092 4294.78598798 -3159.94311523 4293.46704102 C-3179.43773691 4290.35702783 -3198.65930034 4286.06738042 -3217.88061523 4281.59204102 C-3219.13769287 4281.2994339 -3219.13769287 4281.2994339 -3220.42016602 4281.00091553 C-3277.55147964 4267.64715349 -3333.24558041 4249.69794096 -3385.88061523 4223.59204102 C-3386.95182617 4223.0714209 -3386.95182617 4223.0714209 -3388.04467773 4222.5402832 C-3396.85493142 4218.24845695 -3404.96633683 4213.05300755 -3413.13061523 4207.65454102 C-3414.62250366 4206.6698584 -3414.62250366 4206.6698584 -3416.14453125 4205.6652832 C-3446.04062248 4185.57065988 -3474.16083128 4158.0486284 -3481.88061523 4121.59204102 C-3488.18631647 4084.70081884 -3476.18328211 4048.05441486 -3455.00561523 4017.77954102 C-3441.65950909 3999.24777468 -3425.30360532 3980.05799348 -3407.25561523 3966.02954102 C-3400.84592121 3960.87333778 -3394.950192 3955.74958319 -3393.22485352 3947.42993164 C-3392.85274226 3943.28128699 -3393.41579435 3939.91809349 -3394.46264648 3935.94750977 C-3394.64495316 3935.21702927 -3394.82725983 3934.48654877 -3395.01509094 3933.7339325 C-3397.13626436 3925.34594415 -3399.47246249 3917.01266427 -3401.79653931 3908.6791687 C-3416.89392256 3854.38818314 -3428.43239824 3799.26413951 -3434.48999023 3743.20336914 C-3434.73079865 3740.9770953 -3434.97917478 3738.7516066 -3435.23999023 3736.52758789 C-3438.97593358 3704.34955207 -3439.68376665 3669.36057799 -3432.88061523 3637.59204102 C-3432.69869629 3636.71112793 -3432.51677734 3635.83021484 -3432.3293457 3634.92260742 C-3426.66133645 3608.35539696 -3413.88660771 3583.13487656 -3390.88061523 3567.59204102 C-3359.23382557 3547.92765952 -3322.38946133 3550.73746742 -3287.32910156 3558.8684082 C-3263.3194913 3564.77689707 -3240.33467737 3573.3147455 -3217.88061523 3583.59204102 C-3215.70240804 3584.57420721 -3213.52401615 3585.55596386 -3211.34545898 3586.53735352 C-3199.26011583 3592.01444617 -3187.38133106 3597.75039301 -3175.7121582 3604.0637207 C-3170.22533438 3607.02522416 -3164.7201058 3609.95240426 -3159.21838379 3612.8861084 C-3157.23934931 3613.94236482 -3155.26149338 3615.00079646 -3153.28393555 3616.05981445 C-3152.04142685 3616.72421056 -3150.79891401 3617.38859891 -3149.55639648 3618.05297852 C-3148.46238525 3618.63869629 -3147.36837402 3619.22441406 -3146.24121094 3619.82788086 C-3142.47986034 3621.80241914 -3138.68716507 3623.70653258 -3134.88061523 3625.59204102 C-3134.73551514 3624.68528122 -3134.59041504 3623.77852142 -3134.44091797 3622.84428406 C-3112.30089646 3484.58612435 -3112.30089646 3484.58612435 -3096.88061523 3434.59204102 C-3096.57446289 3433.5980127 -3096.26831055 3432.60398438 -3095.95288086 3431.57983398 C-3088.42742886 3407.46556869 -3079.5959468 3382.95055419 -3062.88061523 3363.59204102 C-3061.73592773 3362.04516602 -3061.73592773 3362.04516602 -3060.56811523 3360.46704102 C-3050.18134492 3349.35561231 -3036.33428736 3342.75359875 -3021.13061523 3342.15454102 C-2992.12859033 3343.09861735 -2967.54974269 3363.28633993 -2948.16577148 3383.11157227 C-2945.04741219 3386.49645799 -2942.1530274 3390.03078464 -2939.28295898 3393.62719727 C-2937.10343942 3396.31704337 -2934.86433697 3398.93131002 -2932.5871582 3401.53759766 C-2925.57798077 3409.57528344 -2919.13929612 3417.96058618 -2912.88061523 3426.59204102 C-2912.17001953 3427.57116455 -2912.17001953 3427.57116455 -2911.44506836 3428.57006836 C-2894.46938163 3452.07173067 -2878.64593101 3476.44760828 -2864.08959961 3501.5168457 C-2862.88729315 3503.58057852 -2861.67501654 3505.63807698 -2860.45874023 3507.69360352 C-2848.56865958 3527.78857685 -2837.16390082 3548.15130626 -2825.88061523 3568.59204102 C-2825.34936035 3569.55255371 -2824.81810547 3570.51306641 -2824.27075195 3571.50268555 C-2817.01467669 3584.63639169 -2810.04166703 3597.90411793 -2803.16577148 3611.24047852 C-2800.91042798 3615.61241469 -2798.62753917 3619.96738095 -2796.31103516 3624.30712891 C-2782.93691795 3649.39929771 -2770.42449807 3675.01483065 -2758.39428711 3700.7746582 C-2749.0808335 3720.71290901 -2741.23301713 3735.00583633 -2723.19311523 3748.02954102 C-2716.1906116 3753.13484185 -2709.25947164 3758.32135314 -2702.38061523 3763.59204102 C-2695.70237237 3768.70576175 -2688.98197113 3773.75113808 -2682.19311523 3778.71704102 C-2675.0807612 3783.92259375 -2668.09160233 3789.26693897 -2661.15063477 3794.69848633 C-2656.22900354 3798.5494431 -2651.26371289 3802.33176232 -2646.25170898 3806.06469727 C-2641.6846423 3809.47605149 -2637.16204924 3812.94610802 -2632.63061523 3816.40454102 C-2629.90818192 3818.47845303 -2627.18526217 3820.55172453 -2624.4621582 3822.62475586 C-2622.81672045 3823.87867466 -2621.17239426 3825.13405437 -2619.52954102 3826.39135742 C-2611.88690393 3832.23871015 -2604.34356925 3837.95369122 -2595.88061523 3842.59204102 C-2595.5373949 3837.73690332 -2596.3195844 3835.13976684 -2598.88061523 3831.02954102 C-2599.52901367 3829.96993164 -2600.17741211 3828.91032227 -2600.84545898 3827.81860352 C-2601.51706055 3826.75383789 -2602.18866211 3825.68907227 -2602.88061523 3824.59204102 C-2616.31194229 3803.23353876 -2628.08300697 3780.88127231 -2639.88061523 3758.59204102 C-2640.46842773 3757.48634766 -2641.05624023 3756.3806543 -2641.66186523 3755.24145508 C-2682.22966251 3678.79198443 -2712.91548658 3596.70057996 -2759.88061523 3304.59204102 C-2759.89705078 3303.41478455 -2759.89705078 3303.41478455 -2759.91381836 3302.21374512 C-2761.06773472 3214.93609306 -2750.75053258 3124.70751756 -2672.88061523 2953.59204102 C-2672.47633301 2953.0090625 -2672.07205078 2952.42608398 -2671.65551758 2951.82543945 C-2656.23442803 2929.63814058 -2638.67972755 2909.34811857 -2619.63061523 2890.21704102 C-2618.88610107 2889.467854 -2618.14158691 2888.71866699 -2617.37451172 2887.94677734 C-2612.70531671 2883.29107262 -2607.90454464 2878.86163043 -2602.88061523 2874.59204102 C-2601.92541992 2873.77678955 -2601.92541992 2873.77678955 -2600.95092773 2872.94506836 C-2573.86584095 2849.9896382 -2543.83841992 2830.11748516 -2512.09936523 2814.17016602 C-2511.32834473 2813.77829102 -2510.55732422 2813.38641602 -2509.76293945 2812.98266602 C-2508.3027465 2812.24483112 -2506.83591633 2811.51992667 -2505.36157227 2810.81079102 C-2500.81031939 2808.50467507 -2498.12862133 2806.36473087 -2495.88061523 2801.59204102 C-2495.55288995 2795.28842973 -2496.35466667 2789.30723892 -2497.30639648 2783.08422852 C-2497.45465378 2782.08231476 -2497.60291107 2781.080401 -2497.75566101 2780.04812622 C-2498.22938775 2776.85359523 -2498.71090817 2773.66030185 -2499.19311523 2770.46704102 C-2499.66109072 2767.33668086 -2500.12738961 2764.2060799 -2500.59225464 2761.07525635 C-2500.90172093 2758.99764673 -2501.2139984 2756.92045391 -2501.52908325 2754.84368896 C-2502.29876146 2749.7303634 -2503.01182553 2744.62068707 -2503.60473633 2739.48364258 C-2503.72245895 2738.50348175 -2503.84018158 2737.52332092 -2503.96147156 2736.51345825 C-2504.17746561 2734.68670372 -2504.37901935 2732.85814886 -2504.56208801 2731.02780151 C-2505.83166694 2720.48593881 -2510.56055702 2713.12337264 -2518.12280273 2705.89672852 C-2518.80939972 2705.21957794 -2519.4959967 2704.54242737 -2520.20339966 2703.84475708 C-2522.37582335 2701.70656324 -2524.56473086 2699.58629939 -2526.75561523 2697.46704102 C-2528.93575152 2695.33723418 -2531.11222659 2693.20378696 -2533.28640747 2691.06790161 C-2534.63235596 2689.74790073 -2535.9822388 2688.43189394 -2537.33688354 2687.12081909 C-2541.76514652 2682.80762049 -2545.85404247 2678.27972539 -2549.88061523 2673.59204102 C-2551.33507041 2671.98435729 -2552.79282418 2670.37964387 -2554.25561523 2668.77954102 C-2558.98637616 2663.53023125 -2563.45058575 2658.09580156 -2567.88061523 2652.59204102 C-2568.80599931 2651.45890405 -2569.73179917 2650.32610653 -2570.65795898 2649.19360352 C-2610.37145544 2600.39575211 -2640.66672215 2544.2868737 -2662.88061523 2485.59204102 C-2663.26958984 2484.57625977 -2663.65856445 2483.56047852 -2664.05932617 2482.51391602 C-2675.93642781 2451.36356446 -2684.58703406 2419.09009091 -2691.88061523 2386.59204102 C-2692.11911194 2385.53357971 -2692.11911194 2385.53357971 -2692.36242676 2384.45373535 C-2704.29790122 2331.23818491 -2709.70126824 2276.59939329 -2712.73245239 2222.22195435 C-2712.82785226 2220.5285919 -2712.92690838 2218.83542946 -2713.03048706 2217.14254761 C-2714.22812116 2197.3311544 -2714.06795839 2177.47691701 -2714.06591797 2157.63769531 C-2714.06583722 2153.59240193 -2714.07271077 2149.54722304 -2714.08642578 2145.50195312 C-2714.17433249 2119.12988245 -2713.66538433 2092.90700378 -2711.88061523 2066.59204102 C-2711.80491302 2065.46947906 -2711.72921082 2064.34691711 -2711.6512146 2063.19033813 C-2711.21345731 2056.88010467 -2710.69952622 2050.57920933 -2710.13061523 2044.27954102 C-2710.04758148 2043.346008 -2709.96454773 2042.41247498 -2709.8789978 2041.45065308 C-2701.10371149 1943.55743648 -2681.51701146 1846.84904925 -2618.88061523 1655.59204102 C-2618.55552979 1654.75771545 -2618.23044434 1653.92338989 -2617.89550781 1653.06378174 C-2603.06779156 1615.07674347 -2587.43479848 1577.40737012 -2569.88061523 1540.59204102 C-2569.36176758 1539.49408203 -2568.84291992 1538.39612305 -2568.30834961 1537.26489258 C-2560.85734868 1521.50315984 -2553.06392173 1505.92816345 -2545.13061523 1490.40454102 C-2544.69467041 1489.54962067 -2544.25872559 1488.69470032 -2543.80957031 1487.81387329 C-2538.07599322 1476.58291415 -2532.13762053 1465.49051431 -2525.95355225 1454.50119019 C-2524.5116304 1451.93548143 -2523.08530248 1449.36119421 -2521.65795898 1446.78735352 C-2514.05206514 1433.17079473 -2506.03229468 1419.82917346 -2497.89079285 1406.52966309 C-2495.25480873 1402.21864653 -2492.66220704 1397.88326901 -2490.08349609 1393.5378418 C-2483.6411383 1382.69268294 -2476.84050644 1372.11115388 -2469.88061523 1361.59204102 C-2469.19692871 1360.5562793 -2468.51324219 1359.52051758 -2467.80883789 1358.45336914 C-2453.30334072 1336.4994528 -2438.40518122 1314.84061792 -2422.88061523 1293.59204102 C-2422.32164551 1292.8244043 -2421.76267578 1292.05676758 -2421.18676758 1291.26586914 C-2413.15034184 1280.23645824 -2404.92439104 1269.37556347 -2396.49291992 1258.64526367 C-2394.99575992 1256.73867439 -2393.50363139 1254.82828804 -2392.01342773 1252.91625977 C-2385.56704552 1244.65795272 -2378.98490491 1236.51388699 -2372.35717773 1228.40063477 C-2371.05013983 1226.79968622 -2369.74638168 1225.19606125 -2368.44311523 1223.59204102 C-2364.01344721 1218.14987744 -2359.51292586 1212.77361426 -2354.96606445 1207.42944336 C-2352.05448664 1204.00124608 -2349.20283577 1200.53211829 -2346.38061523 1197.02954102 C-2342.73976546 1192.54999549 -2338.9070339 1188.3045614 -2334.9753418 1184.08325195 C-2331.88960089 1180.75065177 -2328.97892961 1177.32055769 -2326.13061523 1173.77954102 C-2323.110981 1170.02917679 -2319.98901861 1166.58291571 -2316.53295898 1163.23657227 C-2314.87215922 1161.58362498 -2313.34439132 1159.86952464 -2311.81811523 1158.09204102 C-2307.29281297 1152.85115644 -2302.54007427 1147.82557689 -2297.80053711 1142.77929688 C-2295.47690597 1140.30222829 -2293.16295747 1137.81739006 -2290.86669922 1135.31494141 C-2279.02887542 1122.47016065 -2266.62303454 1110.18165033 -2254.26269531 1097.84375 C-2251.05997602 1094.64677642 -2247.8618368 1091.44526429 -2244.66496372 1088.24244595 C-2242.17105906 1085.74491274 -2239.67475939 1083.24978426 -2237.17774773 1080.75535774 C-2235.99740449 1079.57567488 -2234.81778492 1078.39526743 -2233.63894844 1077.2140789 C-2228.04117437 1071.60756783 -2222.45406373 1066.03526648 -2216.41075134 1060.9019928 C-2214.45979137 1059.23177308 -2212.66382237 1057.43893412 -2210.88061523 1055.59204102 C-2207.8194427 1052.48958099 -2204.64919255 1049.61097677 -2201.34545898 1046.77172852 C-2197.96076496 1043.77860765 -2194.67512364 1040.68376703 -2191.38061523 1037.59204102 C-2186.90128061 1033.39225451 -2182.41206002 1029.22508837 -2177.75561523 1025.22094727 C-2175.49310342 1023.25539013 -2173.28370841 1021.23530792 -2171.06811523 1019.21704102 C-2166.6977584 1015.26832657 -2162.17758445 1011.54576892 -2157.59936523 1007.84204102 C-2154.95913794 1005.65702532 -2152.41331803 1003.40032711 -2149.88061523 1001.09204102 C-2145.65697246 997.24693227 -2141.29363593 993.6244593 -2136.85327148 990.03344727 C-2133.54310567 987.31484853 -2130.30556356 984.52130648 -2127.06811523 981.71704102 C-2121.85008674 977.20747481 -2116.51300785 972.89426508 -2111.06323242 968.66894531 C-2107.05984117 965.55326742 -2103.16872522 962.33163933 -2099.31811523 959.02954102 C-2094.06662453 954.53427132 -2088.66830249 950.28216971 -2083.16577148 946.09985352 C-2079.87196004 943.59558087 -2076.62554337 941.03412921 -2073.38061523 938.46704102 C-2058.55954552 926.78249387 -2043.45697325 915.46987515 -2028.23217773 904.31860352 C-2025.8394742 902.56183447 -2023.45296516 900.79695407 -2021.06811523 899.02954102 C-2011.49651002 891.93982229 -2001.85392809 884.96876833 -1992.09350586 878.14135742 C-1989.77501384 876.51810606 -1987.46040723 874.8894202 -1985.14624023 873.26000977 C-1968.87473064 861.81741216 -1952.46220123 850.58072951 -1935.88061523 839.59204102 C-1934.96151367 838.97586914 -1934.04241211 838.35969727 -1933.09545898 837.72485352 C-1897.07748607 813.58360115 -1860.08605856 790.59386016 -1822.4465332 769.06420898 C-1819.48357416 767.36424295 -1816.52758623 765.65248609 -1813.57202148 763.93969727 C-1795.18082397 753.28652108 -1776.63953212 742.97232136 -1757.93920898 732.87329102 C-1754.11099033 730.80404927 -1750.29012928 728.72251401 -1746.47827148 726.62329102 C-1722.53997334 713.44435221 -1698.14587668 701.16945474 -1673.7223053 688.9224968 C-1671.85644591 687.986274 -1669.99129488 687.04865481 -1668.12634277 686.11062622 C-1651.47588203 677.73923322 -1634.70538166 669.69183406 -1617.7671814 661.91882324 C-1614.16102661 660.26128906 -1610.56481251 658.58359633 -1606.97045898 656.90063477 C-1563.21038566 636.46036634 -1518.77538327 617.40044225 -1473.88061523 599.59204102 C-1473.04365112 599.25940247 -1472.20668701 598.92676392 -1471.34436035 598.58404541 C-1392.42287408 567.2230129 -1312.42926046 538.79132611 -1231.97570801 511.63696289 C-1228.95310005 510.61651232 -1225.93099051 509.59459667 -1222.90893555 508.57250977 C-1193.62953362 498.6779895 -1164.21755016 489.24330377 -1134.72648621 480.00022888 C-1126.53015337 477.42962868 -1118.34190508 474.83459654 -1110.15795898 472.22485352 C-1072.33511247 460.17516281 -1034.35794736 448.67105678 -996.32060242 437.32022095 C-993.87492016 436.5903414 -991.42933434 435.86013944 -988.98376465 435.12988281 C-911.58950562 412.02316282 -834.01813956 389.6199969 -756.16801453 368.09851074 C-689.40684491 349.6407436 -622.65009943 331.10213758 -556.53588867 310.42224121 C-553.97306204 309.62094552 -551.40931667 308.82264756 -548.84545898 308.0246582 C-512.34437881 296.63658553 -476.84838282 283.04236516 -441.88061523 267.59204102 C-440.01350863 266.77544978 -438.14633201 265.95901858 -436.27905273 265.14282227 C-406.77859563 252.14839839 -377.88773217 237.54009902 -349.88061523 221.59204102 C-349.14246582 221.17277344 -348.40431641 220.75350586 -347.64379883 220.3215332 C-312.8956319 200.53551815 -279.40403904 178.84026618 -246.88061523 155.59204102 C-245.75913086 154.7915332 -245.75913086 154.7915332 -244.61499023 153.97485352 C-234.89102595 147.0245032 -225.31383616 139.93166444 -215.88061523 132.59204102 C-214.31008026 131.3945081 -212.73953698 130.1969856 -211.16821289 129.00048828 C-204.19698897 123.68112746 -197.38948959 118.17115924 -190.59936523 112.62329102 C-187.64950132 110.21354303 -184.67881445 107.8323352 -181.69311523 105.46704102 C-172.05483725 97.77572737 -162.75731354 89.6533443 -153.40795898 81.61547852 C-151.09696078 79.63025137 -148.77661182 77.65697294 -146.44702148 75.69360352 C-139.2861488 69.64058569 -132.35706714 63.39164813 -125.56079102 56.93066406 C-121.66936749 53.23567052 -117.69624184 49.66541463 -113.64379883 46.14794922 C-111.63464227 44.37498401 -109.74160462 42.5194943 -107.88061523 40.59204102 C-105.43279133 38.05679483 -102.88501131 35.72066491 -100.21264648 33.42797852 C-95.41692141 29.26347426 -91.01276146 24.74938389 -86.56811523 20.21704102 C-61.61427347 -4.91670444 -31.9530557 -27.58994942 0 0 Z " fill="#FFFFFF" transform="translate(5176.880615234375,786.407958984375)"/>
<path d="M0 0 C1.94543701 0.02900391 1.94543701 0.02900391 3.93017578 0.05859375 C94.17095022 1.48878584 184.73522652 14.13102564 478 116 C478.80711426 116.39525879 479.61422852 116.79051758 480.44580078 117.19775391 C484.98478342 119.42491762 489.4997029 121.69573861 494 124 C494.83063965 124.4242627 495.6612793 124.84852539 496.51708984 125.28564453 C528.77846022 141.80948109 560.12932216 160.12418706 590.30615234 180.20751953 C593.02885821 182.01920219 595.75801107 183.82083551 598.48828125 185.62109375 C620.59803149 200.23483231 642.10568533 215.69352105 663 232 C663.57057129 232.4444043 664.14114258 232.88880859 664.72900391 233.34667969 C675.38925327 241.6551042 685.87075872 250.15685365 696.16430664 258.91625977 C699.56944129 261.80893451 703.01725775 264.63814467 706.5 267.4375 C711.88285937 271.8145112 716.94271342 276.49554127 722.01171875 281.2265625 C724.3035841 283.36354314 726.62758757 285.45223348 729 287.5 C736.95837907 294.39613779 744.67812185 301.57312363 752.05493164 309.08740234 C753.8467903 310.84934797 755.68704684 312.48312592 757.6015625 314.109375 C762.64603784 318.4954454 767.348237 323.20192157 772.0625 327.9375 C772.92166016 328.79279297 773.78082031 329.64808594 774.66601562 330.52929688 C779.10625472 334.97632014 783.38350114 339.49345519 787.47827148 344.26000977 C789.54357627 346.62154149 791.75295482 348.81208759 794 351 C797.52754647 354.4904144 800.87384474 358.04644314 804.09765625 361.81640625 C806.00714698 364.00820362 807.97065822 366.14384864 809.94799805 368.27441406 C814.77945479 373.48197223 819.36310508 378.8157426 823.8203125 384.3515625 C825.97757399 386.97275119 828.21311 389.49154281 830.5 392 C834.3150645 396.19657095 837.94264875 400.50777483 841.5078125 404.91796875 C843.30393609 407.13919369 845.11008536 409.34900377 846.9296875 411.55078125 C855.00403091 421.35238439 862.66290618 431.42870517 870.23046875 441.625 C871.8511186 443.80017684 873.48401534 445.96514358 875.125 448.125 C895.953752 475.5587448 915.29788084 504.45401694 933 534 C933.53915039 534.8971875 934.07830078 535.794375 934.63378906 536.71875 C941.55664901 548.26353091 948.28613711 559.90138045 954.74316406 571.71289062 C956.02187564 574.03980788 957.31811928 576.35626919 958.6171875 578.671875 C984.70410865 625.46459992 1006.6718172 674.68141756 1025 725 C1025.47281997 726.2889591 1025.94580533 727.57785755 1026.41894531 728.86669922 C1039.63885824 764.96571658 1050.73359581 801.69497299 1060 839 C1060.1785553 839.7163562 1060.3571106 840.4327124 1060.54107666 841.17077637 C1076.87656327 906.82401781 1086.55480671 973.51926152 1091 1041 C1091.10006348 1042.48717529 1091.10006348 1042.48717529 1091.20214844 1044.00439453 C1091.57144217 1049.66726262 1091.81563679 1055.3282835 1092 1061 C1092.04366699 1062.31129883 1092.08733398 1063.62259766 1092.13232422 1064.97363281 C1095.05367672 1154.64275234 1088.74572884 1243.81597877 997 1563 C996.32251709 1564.52633057 996.32251709 1564.52633057 995.63134766 1566.08349609 C982.43964385 1595.73457347 968.07086063 1625.24442494 951.61328125 1653.2265625 C949.77137635 1656.39303339 947.97687269 1659.58495169 946.1875 1662.78125 C938.18150092 1677.0480885 929.70678078 1690.88047664 920.63964844 1704.50634766 C918.27215391 1708.10694162 916.00750656 1711.76734849 913.75 1715.4375 C909.23569935 1722.73423464 904.42779684 1729.80201129 899.51123047 1736.83251953 C897.91612598 1739.12029621 896.33450373 1741.4170239 894.75390625 1743.71484375 C886.73842165 1755.3222868 878.33072968 1766.5811329 869.72265625 1777.75439453 C867.51726339 1780.62928166 865.34975498 1783.53003928 863.1875 1786.4375 C855.63902704 1796.52122859 847.80680515 1806.33055105 839.625 1815.90625 C837.16084036 1818.7955132 834.76339 1821.73518458 832.375 1824.6875 C828.75165505 1829.13903808 824.98036128 1833.42382455 821.1171875 1837.66796875 C819.21948831 1839.75823889 817.35266585 1841.86986115 815.5 1844 C811.38769234 1848.71594915 807.20226791 1853.36416476 803 1858 C802.55043945 1858.49612793 802.10087891 1858.99225586 801.63769531 1859.50341797 C796.76787536 1864.87033027 791.88316529 1870.19308704 786.70288086 1875.26464844 C785.05328595 1876.94569799 783.53391163 1878.6839678 782.01171875 1880.48046875 C777.59366171 1885.55745076 772.85076694 1890.29957471 768.0847168 1895.0456543 C766.56508332 1896.5599258 765.05087483 1898.0794743 763.53710938 1899.59960938 C758.71638995 1904.42328212 753.83971695 1909.12487145 748.65600586 1913.56225586 C746.49433207 1915.43902085 744.49269597 1917.4459903 742.5 1919.5 C739.21145472 1922.82769463 735.83618376 1925.95336441 732.28515625 1928.99609375 C729.93551965 1931.05654431 727.65022798 1933.17414744 725.36669922 1935.30712891 C720.03985899 1940.28080846 714.62024776 1945.03347676 708.93359375 1949.59765625 C705.45096586 1952.44960852 702.07222088 1955.40824185 698.6875 1958.375 C693.35651045 1963.03211904 687.92580167 1967.50809111 682.32958984 1971.84204102 C678.60029193 1974.73180504 674.9318752 1977.68291059 671.29125977 1980.68359375 C661.79664029 1988.49952233 651.95554028 1995.78494919 642 2003 C640.49857762 2004.09358486 638.99727317 2005.18733165 637.49609375 2006.28125 C619.9821016 2019.0158957 602.25180017 2031.34414741 584 2043 C583.19143555 2043.51836426 582.38287109 2044.03672852 581.54980469 2044.57080078 C571.28562337 2051.14506866 560.9202458 2057.50055048 550.37597656 2063.61474609 C547.77179548 2065.13304896 545.17859818 2066.66914303 542.5859375 2068.20703125 C463.40614196 2115.03967513 377.75236402 2151.13078421 42 2218 C41.18595703 2218.0483902 40.37191406 2218.0967804 39.53320312 2218.14663696 C21.93632132 2219.15960418 4.33654753 2219.18753632 -13.28320312 2219.18530273 C-16.57297322 2219.18522199 -19.86260251 2219.19209987 -23.15234375 2219.20581055 C-46.17494742 2219.30008387 -69.03457563 2218.64218896 -92 2217 C-93.06283203 2216.92429779 -94.12566406 2216.84859558 -95.22070312 2216.77059937 C-101.27842373 2216.32764376 -107.32743782 2215.81410721 -113.375 2215.25 C-114.27046539 2215.16763092 -115.16593079 2215.08526184 -116.08853149 2215.00039673 C-208.23269087 2206.44274479 -299.13210886 2186.3397323 -433 2138 C-434.12196777 2137.54818359 -435.24393555 2137.09636719 -436.39990234 2136.63085938 C-443.30351061 2133.83809941 -450.16510187 2130.95678276 -457 2128 C-458.05477539 2127.54399414 -459.10955078 2127.08798828 -460.19628906 2126.61816406 C-475.7004145 2119.87389214 -490.97634592 2112.69012044 -506.1875 2105.3125 C-506.9942215 2104.92289093 -507.80094299 2104.53328186 -508.6321106 2104.13186646 C-519.68504539 2098.78459124 -530.482096 2093.08441828 -541.1665802 2087.034729 C-546.69887931 2083.91245971 -552.28510503 2080.8896763 -557.91796875 2077.953125 C-566.70139299 2073.36732072 -575.28832122 2068.58459079 -583.72851562 2063.390625 C-586.29508922 2061.81934348 -588.87403139 2060.26939242 -591.453125 2058.71875 C-604.70244429 2050.70760798 -617.68169818 2042.33971847 -630.5625 2033.75 C-631.30623871 2033.25474823 -632.04997742 2032.75949646 -632.81625366 2032.24923706 C-646.90744433 2022.85387643 -660.81698676 2013.1928175 -674.4375 2003.125 C-675.60236938 2002.26527588 -675.60236938 2002.26527588 -676.79077148 2001.38818359 C-688.73369016 1992.53309913 -700.45276997 1983.36476387 -712 1974 C-712.85335938 1973.3090625 -713.70671875 1972.618125 -714.5859375 1971.90625 C-720.16961178 1967.36251506 -725.68677202 1962.74663064 -731.16772461 1958.08007812 C-734.52701794 1955.22549765 -737.93182466 1952.44101856 -741.375 1949.6875 C-747.3752306 1944.81176357 -752.95252666 1939.51153371 -758.57421875 1934.2109375 C-761.00658163 1931.92034812 -763.46432519 1929.67659232 -766 1927.5 C-779.16378755 1916.12931145 -791.41368402 1903.74466926 -803.69140625 1891.43896484 C-806.04940814 1889.07645357 -808.41068303 1886.71732488 -810.77390289 1884.36004066 C-813.07046239 1882.0679898 -815.36318146 1879.77210505 -817.65625 1877.4765625 C-818.90952087 1876.22632797 -818.90952087 1876.22632797 -820.18811035 1874.95083618 C-824.44535966 1870.67664146 -828.55984902 1866.33772213 -832.4836731 1861.75444031 C-835.024017 1858.81517851 -837.70957727 1856.01285626 -840.375 1853.1875 C-845.07829762 1848.1665666 -849.5218434 1843.01660138 -853.82421875 1837.64453125 C-856.130317 1834.84160752 -858.54151531 1832.16996725 -861 1829.5 C-865.8936826 1824.1703211 -870.46207844 1818.63303512 -875 1813 C-876.03294233 1811.73493201 -877.06685658 1810.4706572 -878.1015625 1809.20703125 C-884.8850097 1800.91459061 -891.53752302 1792.54600781 -898 1784 C-898.83917969 1782.89398437 -898.83917969 1782.89398437 -899.6953125 1781.765625 C-907.78592772 1771.09289853 -915.71843506 1760.33234711 -923.36767578 1749.33886719 C-925.17219728 1746.75326803 -926.99013313 1744.17737553 -928.80859375 1741.6015625 C-937.93396788 1728.63642917 -946.62439846 1715.46022273 -955 1702 C-955.95108643 1700.47850342 -955.95108643 1700.47850342 -956.92138672 1698.92626953 C-972.34665496 1674.22378795 -986.69225898 1649.05712325 -1000.21986389 1623.27801514 C-1001.99524895 1619.89728873 -1003.7874227 1616.52738206 -1005.6171875 1613.17578125 C-1012.41835704 1600.69492763 -1018.27142487 1587.76226089 -1024.16217041 1574.83453369 C-1024.98011951 1573.04353083 -1025.80322914 1571.25488763 -1026.62646484 1569.46630859 C-1063.88207992 1488.50197495 -1090.87954008 1402.16941604 -1122.25 1197.625 C-1122.33317474 1196.64302643 -1122.41634949 1195.66105286 -1122.50204468 1194.64932251 C-1124.90375137 1165.94685994 -1125.24079746 1137.22210415 -1125.25 1108.4375 C-1125.25058914 1107.58775352 -1125.25117828 1106.73800705 -1125.25178528 1105.86251068 C-1125.2662573 1076.14544172 -1124.4772813 1046.62774577 -1122 1017 C-1121.85932596 1015.26367585 -1121.71870008 1013.52734779 -1121.578125 1011.79101562 C-1117.05599821 956.9460802 -1107.62270101 902.53405671 -1095 849 C-1094.82982361 848.2743988 -1094.65964722 847.54879761 -1094.48431396 846.8012085 C-1079.77184301 784.14622586 -1058.85275651 722.91477715 -1033 664 C-1032.57525391 663.02740234 -1032.15050781 662.05480469 -1031.71289062 661.05273438 C-1023.11243114 641.41717947 -1013.74952075 622.08966496 -1004 603 C-1003.50806152 602.03400879 -1003.01612305 601.06801758 -1002.50927734 600.07275391 C-978.46132149 552.94955255 -950.64592238 508.10674612 -920 465 C-919.45778809 464.23494141 -918.91557617 463.46988281 -918.35693359 462.68164062 C-910.72590495 451.93268043 -902.80219478 441.44672223 -894.64599609 431.09130859 C-893.08869722 429.11269362 -891.53735583 427.12958832 -889.98828125 425.14453125 C-881.38404773 414.12987092 -872.51637344 403.34955127 -863.45458984 392.70898438 C-862.47460698 391.55761142 -861.49578855 390.40524646 -860.51806641 389.25195312 C-854.37373579 382.00448593 -848.13672424 374.87424283 -841.66796875 367.9140625 C-839.66118421 365.72217192 -837.69690128 363.5123288 -835.74951172 361.26879883 C-824.15064363 347.9985482 -811.69010038 335.52968999 -799.21801758 323.08764648 C-796.53804719 320.41309665 -793.86354516 317.73316024 -791.18945312 315.05273438 C-789.46125848 313.32519967 -787.73275411 311.59797474 -786.00390625 309.87109375 C-785.21730118 309.08246445 -784.43069611 308.29383514 -783.62025452 307.48130798 C-779.46880232 303.34726183 -775.24260425 299.36597126 -770.79241943 295.55430603 C-767.6660222 292.84323407 -764.69033121 289.97121734 -761.6875 287.125 C-756.49241316 282.2347467 -751.18647242 277.59570282 -745.609375 273.140625 C-742.81568484 270.84879535 -740.15791222 268.44768188 -737.5 266 C-732.1703211 261.1063174 -726.63303512 256.53792156 -721 252 C-719.73493201 250.96705767 -718.4706572 249.93314342 -717.20703125 248.8984375 C-708.91459061 242.1149903 -700.54600781 235.46247698 -692 229 C-691.26265625 228.44054688 -690.5253125 227.88109375 -689.765625 227.3046875 C-678.99963305 219.14337102 -668.13083042 211.1668967 -657.05029297 203.43847656 C-655.01513224 202.01061671 -652.99231577 200.56687273 -650.97265625 199.1171875 C-632.53316309 185.90852094 -613.36324393 173.80027703 -594 162 C-592.53457764 161.1028125 -592.53457764 161.1028125 -591.03955078 160.1875 C-577.67116879 152.01450416 -564.15386806 144.24704259 -550.33203125 136.8671875 C-546.00351422 134.55389208 -541.74144055 132.15646993 -537.5 129.6875 C-532.96307158 127.0654515 -528.36327408 124.62405529 -523.66796875 122.30078125 C-522.97571701 121.95668213 -522.28346527 121.61258301 -521.57023621 121.25805664 C-520.11143298 120.53338405 -518.652203 119.80956995 -517.19256592 119.08657837 C-515.07119145 118.03528062 -512.95167293 116.98032683 -510.83251953 115.92456055 C-465.50379166 93.37618245 -418.92605615 74.29207481 -371 58 C-370.2806427 57.75463501 -369.5612854 57.50927002 -368.82012939 57.25646973 C-288.9434455 30.0437051 -205.60351767 12.89029896 0 0 Z " fill="#FFFFFF" transform="translate(1317,1076)"/>
</svg>
