<?xml version="1.0" encoding="UTF-8"?>
<svg version="1.1" xmlns="http://www.w3.org/2000/svg" width="8534" height="8534">
<path d="M0 0 C6.43584891 5.5577279 10.14071921 11.67266623 11.2933197 20.15986633 C11.41166244 22.34585399 11.4283696 24.5025591 11.390625 26.69140625 C11.37881195 27.91048424 11.37881195 27.91048424 11.36676025 29.15419006 C11.1543643 38.23002019 9.73965204 47.09677023 8.23641968 56.03387451 C7.39274553 61.07008885 6.60582702 66.11519956 5.81640625 71.16015625 C5.65787674 72.16888794 5.49934723 73.17761963 5.33601379 74.21691895 C3.90505987 83.41403696 2.71710524 92.62507836 1.6875 101.875 C1.46755371 103.77946899 1.46755371 103.77946899 1.24316406 105.72241211 C-1.4914381 131.14496936 -2.38329429 156.61699376 -2.31765366 182.16810608 C-2.31239719 184.3552784 -2.3104969 186.5424364 -2.30899048 188.72961426 C-2.28317336 210.2896507 -1.6439006 231.58472329 1 253 C1.20999889 254.97234254 1.41719987 256.94498575 1.62109375 258.91796875 C8.95856482 325.83874753 33.70035808 389.93120133 57.11938477 452.53311157 C84.56890579 525.9122751 84.56890579 525.9122751 93.75390625 560.02734375 C93.97687881 560.85184021 94.19985138 561.67633667 94.42958069 562.52581787 C95.49195487 566.47046258 96.5304495 570.41897642 97.52856445 574.38037109 C100.55457088 586.41898406 100.55457088 586.41898406 108.86279297 595.22460938 C110.87321775 596.27714628 112.89609044 597.15128602 115 598 C116.38690445 598.62823626 117.77230886 599.25979376 119.15625 599.89453125 C120.60320678 600.53602369 122.05115737 601.17527829 123.5 601.8125 C124.274646 602.15434326 125.04929199 602.49618652 125.84741211 602.84838867 C127.44593841 603.55336724 129.0448155 604.25755095 130.64404297 604.9609375 C132.90241004 605.95695929 135.15673835 606.96159048 137.41015625 607.96875 C138.79393039 608.58409947 140.1780355 609.19870533 141.5625 609.8125 C142.22636719 610.10745361 142.89023437 610.40240723 143.57421875 610.70629883 C147.00717973 612.20865359 150.39531504 613.48329399 154 614.5 C159.03524244 616.05373195 162.2569857 619.43181864 166 623 C167.03125 623.804375 168.0625 624.60875 169.125 625.4375 C174.90230079 630.58683332 179.23852366 636.33595743 180.5 644.0625 C179.28663333 653.61776254 173.67735711 660.97663499 167.1484375 667.74609375 C164.94952224 669.93598402 164.94952224 669.93598402 163.2890625 672.47265625 C160.05308072 676.04548937 156.2476249 677.8096764 152 680 C150.29287474 680.93650454 148.58848221 681.87800601 146.88671875 682.82421875 C145.15375779 683.77884909 143.42068419 684.733275 141.6875 685.6875 C140.80771484 686.17283203 139.92792969 686.65816406 139.02148438 687.15820312 C138.17263672 687.62548828 137.32378906 688.09277344 136.44921875 688.57421875 C135.30972778 689.20203247 135.30972778 689.20203247 134.1472168 689.8425293 C132.72076593 690.6114666 131.26757638 691.33280202 129.79223633 692.00317383 C127.19374179 693.44843376 126.91989203 695.2403239 126 698 C125.66709961 698.59280762 125.33419922 699.18561523 124.99121094 699.79638672 C121.03806804 708.58482705 123.34556024 719.73104655 124.75 728.875 C127.40121365 747.52016655 128.82342507 766.21083238 130 785 C130.05327454 785.8236908 130.10654907 786.64738159 130.16143799 787.49603271 C133.87024198 845.0769547 133.68913916 903.70473102 130.16467285 961.29022217 C129.99030897 964.15947102 129.82428465 967.02913 129.65917969 969.89892578 C129.31591201 975.80911137 128.94412846 981.71718246 128.5625 987.625 C128.50710052 988.51623566 128.45170105 989.40747131 128.3946228 990.32571411 C127.72822651 1000.82757365 126.54790303 1010.76367275 124 1021 C122.18434255 1028.70157995 120.8586936 1034.79974514 124.625 1042.1875 C129.83632132 1048.35880156 136.17009668 1051.104543 143.5 1054 C154.55977769 1058.55988714 164.75508723 1064.2760382 175.07080078 1070.30175781 C178.98462007 1072.57084658 182.93262621 1074.77647332 186.8815918 1076.98364258 C203.0992265 1086.06578819 218.77921069 1095.7682558 234.25 1106.0625 C234.87794464 1106.47984406 235.50588928 1106.89718811 236.15286255 1107.32717896 C255.53409072 1120.22844028 274.33637687 1133.82068 292 1149 C308.85387089 1163.22816797 323.0721856 1169.61904021 344.9375 1172.4375 C345.7301123 1172.55496582 346.52272461 1172.67243164 347.33935547 1172.79345703 C353.21508067 1173.46698855 356.17818903 1172.44326758 361 1169 C362.76323505 1166.87396815 362.76323505 1166.87396815 364 1165 C364.66 1165 365.32 1165 366 1165 C366.26296875 1164.401875 366.5259375 1163.80375 366.796875 1163.1875 C368.06984157 1160.87301532 369.2330258 1159.68373498 371.25 1158 C371.96414062 1157.39542969 372.67828125 1156.79085938 373.4140625 1156.16796875 C374.26742187 1155.45253906 375.12078125 1154.73710938 376 1154 C377.62081979 1152.61422514 379.23775328 1151.22398936 380.85473633 1149.83374023 C382.66283312 1148.27998888 384.47363316 1146.72944227 386.28515625 1145.1796875 C388.71143599 1143.10365144 391.13600005 1141.0256487 393.55859375 1138.9453125 C403.93678573 1130.03446673 414.3227951 1121.13772931 424.93359375 1112.50390625 C427.28696059 1110.58223983 429.63242767 1108.65240478 431.97265625 1106.71484375 C439.168273 1100.76018997 446.39072755 1094.85622543 453.75878906 1089.1159668 C458.24280987 1085.61594656 462.65814096 1082.03706538 467.0625 1078.4375 C473.94280045 1072.82163381 480.93427029 1067.38048734 488 1062 C490.16864722 1060.33590324 492.33420897 1058.66781127 494.5 1057 C495.59113927 1056.1614498 496.68228509 1055.32290811 497.7734375 1054.484375 C499.86613953 1052.87499048 501.95371126 1051.25958663 504.0390625 1049.640625 C512.75937044 1042.88514594 521.62985936 1036.34325698 530.52392578 1029.81884766 C532.95512309 1028.0329652 535.38256376 1026.24211288 537.80859375 1024.44921875 C554.1822954 1012.34991147 570.68171235 1000.45237518 587.39160156 988.82128906 C589.98325762 987.01169021 592.56659514 985.19075377 595.1484375 983.3671875 C612.48767845 971.15962606 630.22028498 959.55271046 648 948 C648.62184174 947.59578827 649.24368347 947.19157654 649.8843689 946.77511597 C658.23420953 941.35524502 666.66848477 936.08834617 675.1875 930.9375 C675.78160675 930.5779422 676.3757135 930.2183844 676.98782349 929.84793091 C680.71630168 927.59191289 684.4479364 925.34118998 688.18188477 923.09423828 C689.93751057 922.03760946 691.6924039 920.97977215 693.44726562 919.921875 C707.53401393 911.44518447 721.74551785 903.26218422 736.18334961 895.40209961 C742.13579405 892.15657704 748.00009743 888.82443562 753.79418945 885.3046875 C756.89783136 883.46895287 760.06883388 881.89002068 763.3125 880.3125 C769.66574977 877.19453819 775.93448155 873.93896092 782.1875 870.625 C790.19669481 866.39483273 798.2953105 862.40814403 806.49072266 858.55249023 C811.55449054 856.16979058 816.5749873 853.72539069 821.5625 851.1875 C889.37978032 816.93972939 961.62909121 790.19249881 1033.79180908 766.71954346 C1035.96106626 766.01268664 1038.12887699 765.30155049 1040.29638672 764.58935547 C1064.87722747 756.52751257 1089.72719292 749.46491378 1114.62571716 742.46028137 C1115.27113401 742.27870798 1115.91655087 742.09713459 1116.5815258 741.91005898 C1117.88799034 741.54253121 1119.19446441 741.17503734 1120.50094795 740.80757713 C1180.44733643 723.9433078 1239.91683157 705.67505084 1299 686 C1300.59204254 685.47049744 1300.59204254 685.47049744 1302.21624756 684.93029785 C1373.47169539 661.21646285 1443.62811098 634.61422887 1512.98095703 605.83666992 C1514.94871573 605.02125166 1516.91750423 604.20837979 1518.88671875 603.39648438 C1538.46613593 595.3215142 1557.82712429 586.80208606 1577.1321106 578.09249878 C1582.18025562 575.81577567 1587.23543528 573.55559352 1592.296875 571.30859375 C1603.44276709 566.35599436 1614.54649342 561.38196152 1625.40234375 555.81640625 C1629.32374257 553.81304772 1633.31629212 551.97323472 1637.3125 550.125 C1648.080764 545.11791848 1658.5135811 539.48375577 1668.97265625 533.8671875 C1670.21081316 533.20289319 1671.44909202 532.53882612 1672.6875 531.875 C1673.29779053 531.54765869 1673.90808105 531.22031738 1674.53686523 530.88305664 C1678.71494487 528.65389661 1682.93907061 526.52933253 1687.1875 524.4375 C1703.66780154 516.2948596 1719.86815 507.4554186 1735.83984375 498.359375 C1739.15323894 496.47266139 1742.48274706 494.61629413 1745.81640625 492.765625 C1757.2209897 486.42838013 1768.52699531 479.9750512 1779.68359375 473.2109375 C1783.70304447 470.77495369 1787.7395403 468.36876794 1791.78515625 465.9765625 C1792.37607056 465.62711578 1792.96698486 465.27766907 1793.57580566 464.91763306 C1796.47460107 463.20413141 1799.37439323 461.49233846 1802.27490234 459.78173828 C1809.90434424 455.27233838 1817.46254295 450.66073159 1825 446 C1826.93708768 444.81182753 1828.87453419 443.62423966 1830.8125 442.4375 C1845.35659818 433.48456365 1859.85859738 424.45774185 1874.19186401 415.17042542 C1875.99461356 414.0034867 1877.79897441 412.8390802 1879.60375977 411.67529297 C1891.27945873 404.1413466 1902.89809301 396.52199748 1914.5 388.875 C1915.46666595 388.23793121 1916.43333191 387.60086243 1917.42929077 386.94448853 C1938.39833534 373.11888996 1959.15891519 359.02450304 1979.7578125 344.65234375 C1984.30595998 341.48015481 1988.86612104 338.32610105 1993.4375 335.1875 C1994.07405518 334.75042725 1994.71061035 334.31335449 1995.36645508 333.86303711 C1997.87843907 332.13930418 2000.39133495 330.4169067 2002.90478516 328.6953125 C2050.45595648 296.58892805 2050.45595648 296.58892805 2094.6171875 260.07421875 C2096 259 2096 259 2098 259 C2098 258.34 2098 257.68 2098 257 C2099.57421875 255.78125 2099.57421875 255.78125 2101.6875 254.5 C2102.37199219 254.0771875 2103.05648437 253.654375 2103.76171875 253.21875 C2110.9791625 249.28883298 2118.5034056 248.65978099 2126.53125 250.6171875 C2142.79455994 257.08815237 2149.96646463 274.53435089 2157.375 289.125 C2158.36750021 291.06444183 2159.36186303 293.00292187 2160.35623169 294.94140625 C2161.01007346 296.21647751 2161.66330085 297.49186401 2162.31588745 298.76757812 C2164.79679044 303.61604949 2167.32317533 308.43860337 2169.875 313.25 C2189.22342479 349.89886079 2208.26827453 386.80914314 2225.4765625 424.515625 C2227.99982748 430.04099547 2230.70384186 435.45095311 2233.4609375 440.86328125 C2235.57585703 445.17363755 2237.47687956 449.56632812 2239.37866211 453.97387695 C2241.33150398 458.49455608 2243.34779479 462.97843959 2245.4375 467.4375 C2245.72802246 468.05802246 2246.01854492 468.67854492 2246.31787109 469.31787109 C2247.78451433 472.44042785 2249.2652994 475.55567019 2250.76171875 478.6640625 C2256.73032251 491.11841111 2262.16565442 503.80175752 2267.62213135 516.48597717 C2269.24527719 520.25696006 2270.88067439 524.02219715 2272.53125 527.78125 C2279.66122779 544.02396787 2286.47556356 560.39607737 2293.25585938 576.78710938 C2294.73205201 580.3554743 2296.21706763 583.9201061 2297.703125 587.484375 C2313.61038626 625.86048707 2328.06322162 664.87095172 2342 704 C2342.30123779 704.84526245 2342.60247559 705.6905249 2342.9128418 706.56140137 C2347.34755548 719.01602394 2351.70920976 731.49506839 2356 744 C2356.27954529 744.81458679 2356.55909058 745.62917358 2356.84710693 746.46844482 C2377.91161801 807.95030601 2395.91700828 870.31255677 2412.2701416 933.1963501 C2412.95980476 935.84559554 2413.65282181 938.49394049 2414.34667969 941.14208984 C2441.63690864 1045.53827147 2458.46081206 1153.18465463 2468 1293 C2468.07831055 1294.49173737 2468.07831055 1294.49173737 2468.15820312 1296.01361084 C2471.29104314 1356.18662011 2471.3864984 1416.83786524 2468 1477 C2467.93683594 1478.12402222 2467.87367187 1479.24804443 2467.80859375 1480.40612793 C2461.77732429 1586.10486432 2447.46428718 1691.41758377 2371 2013 C2370.68524719 2014.00871155 2370.37049438 2015.0174231 2370.04620361 2016.05670166 C2351.94993141 2074.01217866 2331.70478152 2131.18035446 2308.52490234 2187.30322266 C2307.01515406 2190.96326244 2305.51632788 2194.62761592 2304.01953125 2198.29296875 C2297.17103088 2215.01528887 2290.01762997 2231.59088008 2282.71386719 2248.11816406 C2281.31336929 2251.28767019 2279.91966288 2254.4601037 2278.5282135 2257.6335907 C2273.80957515 2268.3896288 2269.09239169 2279.1151861 2263.72290039 2289.56469727 C2261.48015445 2293.94992521 2259.48798634 2298.40493923 2257.5625 2302.9375 C2254.85308647 2309.2927996 2251.76484006 2315.35996106 2248.47680664 2321.43334961 C2245.63648036 2326.71046837 2243.02887843 2332.06743116 2240.5 2337.5 C2237.27015757 2344.427125 2233.84657863 2351.21135863 2230.22998047 2357.9440918 C2227.94668467 2362.1967924 2225.75160437 2366.47827776 2223.625 2370.8125 C2220.30263412 2377.52676965 2216.68818304 2384.06267014 2213.04956055 2390.60986328 C2210.38764795 2395.41768273 2207.84264849 2400.24642662 2205.4375 2405.1875 C2202.47499482 2411.22617962 2199.13990821 2416.97716249 2195.69555664 2422.74804688 C2192.53659245 2428.04889592 2189.57609447 2433.43165131 2186.67578125 2438.87890625 C2174.04788309 2462.39799862 2159.77996074 2485.14500117 2146 2508 C2145.60941406 2508.65033203 2145.21882813 2509.30066406 2144.81640625 2509.97070312 C2139.63990267 2518.58142406 2134.12830058 2526.96636851 2128.62231445 2535.36865234 C2125.0750652 2540.78909891 2121.58111225 2546.23231223 2118.1875 2551.75 C2097.84204799 2584.68548102 2075.33204755 2616.55998849 2052.56347656 2647.84375 C2050.98933401 2650.01470987 2049.42666111 2652.19348371 2047.8671875 2654.375 C2041.40416198 2663.40369912 2034.77804237 2672.28828837 2028.02124023 2681.09936523 C2023.52348755 2686.97231646 2019.11274322 2692.90125772 2014.75 2698.875 C2010.13153332 2705.18828711 2005.38918543 2711.36727342 2000.46337891 2717.44335938 C1996.75859445 2722.02007423 1993.17848041 2726.68015045 1989.625 2731.375 C1980.75468921 2743.0590187 1971.34160697 2754.29362972 1961.8359375 2765.46313477 C1958.96946043 2768.83517928 1956.16017326 2772.2481237 1953.375 2775.6875 C1949.80474131 2780.07726647 1946.07117495 2784.27827693 1942.2578125 2788.45703125 C1939.87767687 2791.13777224 1937.62268159 2793.89504134 1935.375 2796.6875 C1932.31103547 2800.4749006 1929.14900283 2803.96981472 1925.65234375 2807.35546875 C1923.99154399 2809.00841603 1922.46377609 2810.72251638 1920.9375 2812.5 C1916.76505548 2817.34879968 1912.36688863 2821.9841704 1907.97436523 2826.6328125 C1905.42421036 2829.34395933 1902.987618 2832.0159137 1900.69921875 2834.95703125 C1900.13847656 2835.63121094 1899.57773437 2836.30539063 1899 2837 C1898.34 2837 1897.68 2837 1897 2837 C1896.78566315 2837.53932663 1896.57132629 2838.07865326 1896.35049438 2838.63432312 C1894.51267562 2841.85365184 1892.00585734 2844.26419815 1889.39208984 2846.85083008 C1888.8194339 2847.42538437 1888.24677795 2847.99993866 1887.6567688 2848.59190369 C1885.76300891 2850.48936641 1883.86214423 2852.37953238 1881.9609375 2854.26953125 C1880.63738122 2855.59189455 1879.31419536 2856.91462868 1877.99136353 2858.23771667 C1875.21526115 2861.01225463 1872.43583225 2863.78340153 1869.65380859 2866.55200195 C1866.1049193 2870.08397634 1862.56257245 2873.62242179 1859.02251244 2877.16324329 C1856.28772218 2879.89776012 1853.55032127 2882.62965098 1850.81206131 2885.36069298 C1849.5062644 2886.66332766 1848.20105471 2887.96655128 1846.8964653 2889.27039528 C1834.56853357 2901.5835863 1834.56853357 2901.5835863 1828.52603149 2906.69291687 C1826.22005459 2908.66804223 1824.11689744 2910.82588912 1822 2913 C1818.40212239 2916.64202335 1814.71530413 2920.07511531 1810.8203125 2923.39453125 C1808.99775908 2925.00197644 1807.31201624 2926.68935998 1805.625 2928.4375 C1803 2931 1803 2931 1801 2931 C1801 2931.66 1801 2932.32 1801 2933 C1799.63671875 2934.375 1799.63671875 2934.375 1797.6875 2936 C1794.22982451 2938.93749422 1790.84755259 2941.93724616 1787.5 2945 C1779.08581221 2952.6660042 1770.45468061 2960.07133055 1761.79931641 2967.46240234 C1760.6391774 2968.45379386 1759.47992905 2969.44622904 1758.32177734 2970.43994141 C1751.80906543 2976.02758561 1745.21028653 2981.46745421 1738.43701172 2986.73681641 C1734.62739694 2989.70473558 1730.86872121 2992.72678383 1727.13476562 2995.78930664 C1718.60573757 3002.78389707 1709.87440021 3009.4513467 1701 3016 C1699.46737909 3017.13532376 1697.93482916 3018.27074335 1696.40234375 3019.40625 C1667.00074205 3041.15980916 1667.00074205 3041.15980916 1652 3051 C1649.87235569 3052.4194779 1647.74754689 3053.84315114 1645.62255859 3055.26660156 C1624.43814213 3069.44327933 1603.10191158 3083.60860475 1580.76171875 3095.90625 C1576.74667047 3098.12087052 1572.81386325 3100.46591383 1568.875 3102.8125 C1544.85166287 3117.03739004 1519.94530882 3129.9396077 1494.671875 3141.78515625 C1491.20632016 3143.41374326 1487.78931875 3145.11328852 1484.38842773 3146.87207031 C1425.65887076 3177.12026572 1360.07152672 3197.7298996 1296 3213 C1295.28724915 3213.17017639 1294.57449829 3213.34035278 1293.84014893 3213.51568604 C1271.5326168 3218.8155575 1249.09505306 3222.81098617 1226.42138672 3226.21118164 C1225.40544937 3226.36790848 1224.38951202 3226.52463531 1223.3427887 3226.68611145 C1221.44973773 3226.97795072 1219.55521682 3227.26049228 1217.65904236 3227.53129578 C1208.91284569 3228.89425782 1200.52309345 3231.03920261 1194.84375 3238.21875 C1188.95995787 3247.09430084 1184.120081 3256.63764224 1179.4375 3266.1875 C1176.65667556 3271.85408566 1173.54946418 3277.22635979 1170.26538086 3282.60839844 C1167.55903222 3287.04526274 1165.01941237 3291.54469919 1162.5546875 3296.12109375 C1154.4998326 3311.03674214 1145.79686461 3325.57697585 1137.1137085 3340.13189697 C1135.98810362 3342.01995465 1134.86418634 3343.9090074 1133.74072266 3345.79833984 C1125.62013405 3359.45143409 1117.44269472 3373.04845623 1108.85083008 3386.41235352 C1104.72893125 3392.82480114 1100.72118947 3399.29790269 1096.81274414 3405.84277344 C1094.05455597 3410.42035718 1091.07456387 3414.79037546 1087.98803711 3419.15234375 C1084.42101134 3424.26173693 1080.9984027 3429.46811342 1077.55377197 3434.66046143 C1070.1332387 3445.84180613 1062.67598574 3456.99188865 1055 3468 C1054.47277344 3468.75861328 1053.94554688 3469.51722656 1053.40234375 3470.29882812 C1045.5816361 3481.54888935 1037.64680001 3492.70925519 1029.59570312 3503.79541016 C1028.00930343 3505.98714657 1026.43286229 3508.18569808 1024.859375 3510.38671875 C1017.70426835 3520.38087266 1010.33441014 3530.19234976 1002.859375 3539.94921875 C999.43507008 3544.42059025 996.05384751 3548.92242521 992.6875 3553.4375 C987.67919514 3560.14205805 982.54227667 3566.73613801 977.34570312 3573.29541016 C976.01005719 3574.98726065 974.68331703 3576.68569842 973.359375 3578.38671875 C963.80559576 3590.64860065 953.91024521 3602.62896102 943.83422852 3614.46459961 C940.98691066 3617.81379611 938.20001025 3621.20566913 935.4375 3624.625 C931.61736683 3629.32355951 927.58288744 3633.78213766 923.48046875 3638.234375 C920.99535768 3641.00517601 918.64555667 3643.85051362 916.3125 3646.75 C913.2837913 3650.50261798 910.15820544 3653.96235241 906.6953125 3657.3125 C902.98378788 3661.00692082 899.44082182 3664.95645816 896.421875 3669.23828125 C895.95265625 3669.81964844 895.4834375 3670.40101563 895 3671 C894.34 3671 893.68 3671 893 3671 C892.74605469 3671.58265625 892.49210937 3672.1653125 892.23046875 3672.765625 C890.86679667 3675.24188033 889.35774797 3676.80520626 887.3125 3678.75 C884.74590369 3681.19829628 882.36988709 3683.71815379 880.07421875 3686.41699219 C875.11909244 3692.09752399 869.77461154 3697.38969628 864.44921875 3702.71875 C863.34293079 3703.82825713 862.23671562 3704.93783685 861.13056946 3706.04748535 C858.82863641 3708.35536467 856.52468846 3710.66121043 854.21948242 3712.96582031 C851.2608337 3715.92436652 848.30917631 3718.88978644 845.35914898 3721.85692596 C843.0849618 3724.14219301 840.8062835 3726.42293985 838.52628517 3728.70240784 C837.43499006 3729.79488488 836.34532046 3730.88898815 835.25729942 3731.98472595 C833.74481297 3733.50695054 832.22619506 3735.02277909 830.70581055 3736.53710938 C829.84312057 3737.40122437 828.9804306 3738.26533936 828.09159851 3739.15563965 C826 3741 826 3741 824 3741 C824 3741.66 824 3742.32 824 3743 C822.42578125 3744.55078125 822.42578125 3744.55078125 820.3125 3746.3125 C817.80197706 3748.43644684 815.39176579 3750.55501344 813.125 3752.9375 C811 3755 811 3755 809 3755 C809 3755.66 809 3756.32 809 3757 C807.35546875 3758.69140625 807.35546875 3758.69140625 805.1875 3760.5625 C804.47980469 3761.18253906 803.77210938 3761.80257812 803.04296875 3762.44140625 C801 3764 801 3764 798 3765 C798 3765.66 798 3766.32 798 3767 C796.46804728 3768.37212301 794.87078919 3769.6715446 793.25 3770.9375 C789.0141273 3774.32076755 784.96169783 3777.80124958 781 3781.5 C776.42151245 3785.75613141 771.70706159 3789.77328995 766.8359375 3793.6953125 C763.74412094 3796.2079458 760.71569089 3798.7865464 757.6875 3801.375 C752.69783158 3805.62501997 747.60531499 3809.717808 742.43115234 3813.74047852 C738.67031878 3816.66951994 734.96582388 3819.65684123 731.28686523 3822.68798828 C721.79213085 3830.50027499 711.9553741 3837.78826504 702 3845 C700.46351458 3846.11715025 698.92705583 3847.23433718 697.390625 3848.3515625 C693.64249864 3851.07236168 689.88451415 3853.7791102 686.12060547 3856.47802734 C684.77695551 3857.44237386 683.43466106 3858.40861418 682.09423828 3859.37744141 C657.32539208 3877.27225919 631.62912422 3894.13200495 605.37792969 3909.76513672 C600.92016541 3912.42683525 596.50697553 3915.1527509 592.125 3917.9375 C591.52324951 3918.31543701 590.92149902 3918.69337402 590.30151367 3919.08276367 C587.11984686 3921.02879338 587.11984686 3921.02879338 585 3924 C585.96275816 3925.92671374 585.96275816 3925.92671374 587.375 3927.9375 C589.00525471 3930.3737745 590.06296245 3932.18888736 591 3935 C591.66 3935 592.32 3935 593 3935 C593 3935.66 593 3936.32 593 3937 C593.66 3937 594.32 3937 595 3937 C595 3937.66 595 3938.32 595 3939 C595.66 3939 596.32 3939 597 3939 C598.35382149 3940.48738235 599.63139886 3942.04430551 600.875 3943.625 C604.45436393 3948.10494108 608.11589086 3952.48276307 611.875 3956.8125 C616.32891253 3961.96914251 620.60862962 3967.2313003 624.78686523 3972.61303711 C627.73550283 3976.40699638 630.73957601 3980.14805744 633.78710938 3983.86303711 C640.22359284 3991.70964365 646.4030832 3999.71093659 652.43017578 4007.87548828 C654.07161994 4010.0969264 655.72100671 4012.31231964 657.37109375 4014.52734375 C670.8244624 4032.63060724 683.59301828 4051.16662489 696 4070 C696.7125293 4071.07531982 696.7125293 4071.07531982 697.43945312 4072.17236328 C705.44020163 4084.25694708 712.89078902 4096.65984541 720.28857422 4109.12060547 C721.75998543 4111.59618662 723.23917088 4114.06680298 724.72265625 4116.53515625 C734.7215784 4133.24453702 744.08670822 4150.34657872 752.12792969 4168.08691406 C753.2729202 4170.59871295 754.4517228 4173.09395221 755.63037109 4175.59008789 C756.80252707 4178.08017892 757.95841455 4180.57761086 759.11132812 4183.07666016 C759.70618109 4184.36409192 760.30386273 4185.6502203 760.90429688 4186.93505859 C772.47307753 4211.76635788 781.03261085 4237.73747312 789.58740234 4263.71435547 C799.15142564 4292.74246081 810.42806083 4320.89704714 822.04348755 4349.14663696 C822.37976166 4349.96449677 822.71603577 4350.78235657 823.0625 4351.625 C823.39933807 4352.44422943 823.73617615 4353.26345886 824.08322144 4354.10751343 C856.92623432 4434.02016247 883.48175514 4515.94457605 920.3125 4726.5625 C920.43473938 4727.89947433 920.43473938 4727.89947433 920.55944824 4729.26345825 C922.71480782 4753.17799068 923.24374481 4777.00060307 923.25 4801 C923.25044186 4801.77809776 923.25088371 4802.55619553 923.25133896 4803.35787201 C923.25806911 4825.9930954 923.11864709 4848.4838476 920.25646973 4870.97338867 C919.98350407 4873.13035002 919.72302301 4875.28860353 919.46386719 4877.44726562 C911.47138809 4943.36239435 893.44862377 5008.04023747 862.92529297 5067.18017578 C861.99842079 5069.00310592 861.10615148 5070.83929139 860.22265625 5072.68359375 C842.62159537 5109.21676919 818.84466039 5143.06850206 794 5175 C792.80271379 5176.57021142 791.60543752 5178.14043076 790.40917969 5179.71142578 C785.68932344 5185.89704074 780.8226345 5191.95225426 775.89624023 5197.97436523 C772.28514567 5202.39477888 768.7494322 5206.86591382 765.25 5211.375 C761.41564127 5216.30243609 757.40149833 5220.98494065 753.171875 5225.58203125 C750.89769962 5228.11389197 748.75823476 5230.72358588 746.625 5233.375 C742.46204105 5238.52047548 738.05158742 5243.38000421 733.5546875 5248.23046875 C731.49886278 5250.45918393 729.48383043 5252.70767919 727.5 5255 C722.30266292 5260.98931226 716.88743658 5266.78627366 711.51074219 5272.61425781 C710.52387132 5273.6840699 709.53753778 5274.75437792 708.55175781 5275.82519531 C707.20493204 5277.28817444 705.85642494 5278.74960521 704.5078125 5280.2109375 C702.69683807 5282.22501187 700.99416929 5284.24187309 699.3046875 5286.3515625 C698.54414063 5287.22554687 697.78359375 5288.09953125 697 5289 C696.34 5289 695.68 5289 695 5289 C694.74863281 5289.57878906 694.49726563 5290.15757813 694.23828125 5290.75390625 C692.84407086 5293.28283677 691.26209642 5294.9343046 689.1875 5296.9375 C688.47207031 5297.63617188 687.75664062 5298.33484375 687.01953125 5299.0546875 C686.35308594 5299.69664063 685.68664063 5300.33859375 685 5301 C682.21849144 5303.71528216 679.60419824 5306.4494137 677.125 5309.4375 C674.54506102 5312.50159206 671.73541197 5314.99179363 668.65234375 5317.53515625 C666.74858008 5319.14903343 666.74858008 5319.14903343 664.5 5322 C662.07918825 5324.9049741 659.58218698 5327.10439698 656.6875 5329.5 C654.75444683 5331.14332242 654.75444683 5331.14332242 652.5 5334 C650.12314041 5336.85223151 647.70766638 5339.07984693 644.84375 5341.41015625 C643.00403966 5342.99651665 641.3020407 5344.68236929 639.58959961 5346.40370178 C637.7184949 5348.28269137 635.83941229 5350.15352884 633.95996094 5352.02416992 C629.78504864 5356.18128557 625.61318997 5360.34145149 621.44238281 5364.50268555 C619.64118437 5366.29882077 617.83909446 5368.09406243 616.03613281 5369.88842773 C613.43321088 5372.47927718 610.83348135 5375.0732923 608.234375 5377.66796875 C607.42401794 5378.47316452 606.61366089 5379.27836029 605.77874756 5380.10795593 C605.03417297 5380.85245499 604.28959839 5381.59695404 603.52246094 5382.36401367 C602.86469666 5383.01955734 602.20693237 5383.67510101 601.52923584 5384.35050964 C598.49738879 5387.62077205 598.79763695 5390.46948171 598.83203125 5394.734375 C599.03328919 5397.44901699 599.75421396 5399.58628954 601 5402 C607.98219785 5402.96302956 614.32936806 5402.86435489 621.3125 5402.0625 C642.14736775 5399.9910565 663.24614851 5400.17452247 684 5403 C684.91458984 5403.12358887 685.82917969 5403.24717773 686.77148438 5403.37451172 C716.98036631 5407.6158881 747.16590255 5415.16185163 774 5430 C774.69963867 5430.38414063 775.39927734 5430.76828125 776.12011719 5431.1640625 C786.07760903 5436.68363777 795.20792642 5442.77823681 804 5450 C804.51449707 5450.4129834 805.02899414 5450.8259668 805.55908203 5451.25146484 C819.01939556 5462.05739617 831.5285253 5474.2620225 842 5488 C842.92824365 5489.18761082 843.85663929 5490.37510285 844.78515625 5491.5625 C857.50582863 5508.00340822 867.90852049 5525.86300472 878 5544 C878.5887793 5545.04559082 878.5887793 5545.04559082 879.18945312 5546.11230469 C898.70412629 5580.89110051 911.9062487 5619.14372433 924 5657 C924.36544922 5658.13695313 924.73089844 5659.27390625 925.10742188 5660.4453125 C946.83540475 5728.72115731 960.0657225 5800.88387566 968 5872 C968.13698303 5873.20674377 968.13698303 5873.20674377 968.2767334 5874.43786621 C977.80446381 5958.39866135 985.51126787 6061.59791275 929.60546875 6131.90234375 C922.71390378 6140.20035056 915.44133843 6148.2530351 907 6155 C906.07058594 6155.75539062 905.14117188 6156.51078125 904.18359375 6157.2890625 C895.89445948 6163.914647 887.14793037 6169.63455518 878 6175 C877.05060547 6175.56219238 877.05060547 6175.56219238 876.08203125 6176.13574219 C829.53183961 6203.32201391 770.77612751 6214.29418457 717.23828125 6213.98046875 C716.28727539 6213.97499023 715.33626953 6213.96951172 714.35644531 6213.96386719 C712.55745874 6213.94688968 710.75852514 6213.91849422 708.95996094 6213.87597656 C703.90811199 6213.80165513 699.70690852 6214.06257572 695 6216 C693.07881794 6218.92016351 692.74981596 6221.25431293 692.74897233 6224.70641794 C692.74388915 6225.65727499 692.73880597 6226.60813204 692.73356876 6227.58780293 C692.73816353 6228.63223729 692.74275831 6229.67667164 692.74749231 6230.75275552 C692.74449018 6231.86860121 692.74148804 6232.98444689 692.73839493 6234.13410608 C692.73070346 6237.91349403 692.73738574 6241.69272429 692.7438736 6245.47211266 C692.74240752 6248.20463689 692.73792308 6250.93715431 692.73358005 6253.66967529 C692.72568691 6259.65034725 692.72527389 6265.6309843 692.72963637 6271.61165933 C692.7361248 6280.5651087 692.7310879 6289.51852601 692.7237368 6298.47197339 C692.71154122 6313.72925677 692.7088043 6328.98652889 692.71113014 6344.24381638 C692.71344473 6359.71302661 692.71139738 6375.18222712 692.70396996 6390.65143585 C692.70327041 6392.11518575 692.70327041 6392.11518575 692.70255673 6393.60850636 C692.70015656 6398.58403342 692.69768083 6403.55956045 692.69517504 6408.53508746 C692.67770053 6443.475242 692.66874467 6478.41539403 692.66484548 6513.35555252 C692.66073458 6550.18035305 692.65186981 6587.00514721 692.63594055 6623.82994461 C692.63546206 6624.93866519 692.63498356 6626.04738577 692.63449056 6627.18970394 C692.62913171 6639.57778057 692.62361511 6651.96585712 692.61803395 6664.35393365 C692.60771589 6687.26870918 692.59806186 6710.18348499 692.58856964 6733.09826088 C692.5878558 6734.81817586 692.5878558 6734.81817586 692.58712754 6736.57283659 C692.56450114 6791.16802414 692.5479283 6845.76321314 692.53274599 6900.3584032 C692.53173803 6903.98185632 692.53072705 6907.60530944 692.5297154 6911.22876255 C692.51956415 6947.61084164 692.50974862 6983.99292081 692.5 7020.375 C692.48993177 7057.94808541 692.47976964 7095.5211708 692.46927268 7133.0942561 C692.46826198 7136.71440119 692.4672543 7140.33454627 692.46624694 7143.95469136 C692.45105315 7198.48106478 692.4340585 7253.00743686 692.41143036 7307.53380775 C692.41095573 7308.6797155 692.41048111 7309.82562324 692.4099921 7311.00625546 C692.40050115 7333.9004767 692.39074766 7356.79469781 692.38043689 7379.6889187 C692.37486293 7392.06991166 692.36940092 7404.45090467 692.36405945 7416.83189774 C692.36358047 7417.9395805 692.36310149 7419.04726327 692.362608 7420.18851218 C692.34676692 7456.99029503 692.33889431 7493.79207509 692.33478431 7530.59386095 C692.33085422 7565.44071566 692.32083677 7600.2875636 692.30331211 7635.13441425 C692.30081844 7640.10112731 692.29840057 7645.06784041 692.29603004 7650.03455353 C692.29556319 7651.00817841 692.29509634 7651.98180328 692.29461534 7652.98493194 C692.28740995 7668.40910617 692.28694622 7683.83327302 692.28930172 7699.25744844 C692.29148394 7714.41982957 692.28660572 7729.58219467 692.27419574 7744.74457103 C692.26713554 7753.63640474 692.26556056 7762.52819875 692.27207638 7771.4200331 C692.2758615 7777.32602773 692.27241089 7783.23198957 692.26308961 7789.13797798 C692.25800965 7792.48557335 692.25710308 7795.83302297 692.26290476 7799.18062689 C692.33013876 7841.24370437 692.33013876 7841.24370437 680 7854 C672.74845199 7859.91256923 664.63313101 7861.3811398 655.5 7861.3125 C654.33694336 7861.30621582 654.33694336 7861.30621582 653.15039062 7861.29980469 C638.71056134 7861.02369729 622.75829826 7858.3772752 612 7848 C599.26287803 7833.37884541 595.8131226 7812.76092696 595.87810284 7793.92175847 C595.87707321 7793.04812734 595.87604359 7792.17449621 595.87498276 7791.2743914 C595.87275666 7788.35079645 595.87766313 7785.42725797 595.8825388 7782.50366688 C595.88240594 7780.37586164 595.88183231 7778.2480564 595.88085803 7776.12025139 C595.87944962 7770.25417665 595.88430161 7764.38812103 595.89013653 7758.52204964 C595.89536847 7752.14728095 595.89477035 7745.77251244 595.89489073 7739.39774197 C595.89589891 7728.21867633 595.90057585 7717.03961707 595.90771103 7705.86055374 C595.91534274 7693.86528339 595.92076553 7681.87001502 595.92347908 7669.87474251 C595.92373748 7668.73831565 595.92373748 7668.73831565 595.92400111 7667.57893066 C595.92486725 7663.71579398 595.92569324 7659.85265729 595.92650168 7655.9895206 C595.92817424 7648.06929248 595.93015564 7640.14906444 595.932248 7632.22883642 C595.93245868 7631.43116822 595.93266937 7630.63350002 595.93288644 7629.81166006 C595.93782422 7611.4307973 595.94599219 7593.04993613 595.95424512 7574.66907462 C595.96705398 7546.10499268 595.97703358 7517.54091184 595.9829998 7488.97682762 C595.98326965 7487.68604214 595.98326965 7487.68604214 595.98354495 7486.36918019 C595.98572668 7475.87484817 595.98777494 7465.38051612 595.98978413 7454.88618406 C595.99285773 7438.87890789 595.99621743 7422.87163178 595.99959788 7406.86435568 C595.99997736 7405.06733293 596.00035617 7403.27031018 596.0007343 7401.47328743 C596.00965254 7359.1174627 596.0211186 7316.7616388 596.03359644 7274.40581498 C596.03442403 7271.59524523 596.03524898 7268.78467548 596.03607354 7265.97410573 C596.04878848 7222.68535292 596.06280725 7179.39660076 596.07904053 7136.10784912 C596.07974482 7134.22705136 596.08044905 7132.34625359 596.08115322 7130.46545583 C596.08431876 7122.01409468 596.08749302 7113.56273353 596.09066835 7105.11137238 C596.09207667 7101.36267192 596.09348416 7097.61397146 596.09489175 7093.86527101 C596.09594699 7091.056636 596.09700413 7088.24800099 596.09806137 7085.43936598 C596.11397017 7043.13096301 596.12837308 7000.82256062 596.13662624 6958.51415539 C596.13680043 6957.62488749 596.13697462 6956.73561959 596.13715409 6955.81940418 C596.14079275 6937.17469382 596.14403318 6918.52998342 596.14673797 6899.88527289 C596.1480074 6891.15426565 596.14937992 6882.42325842 596.15081596 6873.69225121 C596.15102581 6872.40283156 596.15102581 6872.40283156 596.15123989 6871.08736303 C596.15580107 6843.39612301 596.16718306 6815.70489086 596.18230075 6788.01365474 C596.19751283 6760.12419709 596.2067263 6732.23474488 596.20742919 6704.34528287 C596.20752917 6700.49094284 596.20770292 6696.63660282 596.20792198 6692.7822628 C596.20796255 6692.02671235 596.20800311 6691.27116189 596.20804491 6690.49271597 C596.20887515 6678.53216737 596.2164535 6666.57163291 596.22685952 6654.61108921 C596.23695703 6642.8484566 596.23976269 6631.08584383 596.23533946 6619.32320718 C596.23318478 6613.031807 596.23422256 6606.74045153 596.24408758 6600.44905774 C596.25300489 6594.72408006 596.25268332 6588.99917964 596.24503862 6583.27420081 C596.24390449 6581.21750521 596.24611733 6579.16080429 596.25211849 6577.10411714 C597.42118726 6558.97036822 597.42118726 6558.97036822 592.1284203 6542.70203729 C589.18922463 6540.35164595 586.47500641 6539.78305485 582.81863403 6538.93377686 C582.11362389 6538.76899928 581.40861374 6538.6042217 580.68223965 6538.43445086 C572.81295546 6536.64338356 564.86865221 6535.32865172 556.90185547 6534.05957031 C555.23376181 6533.78857201 553.56576667 6533.51696675 551.89786053 6533.24481678 C547.34972813 6532.50445088 542.80027339 6531.77252328 538.2505486 6531.04201627 C533.30601389 6530.24651186 528.36279834 6529.44288635 523.41941833 6528.64024353 C514.79965059 6527.24175903 506.17910407 6525.84816338 497.55801392 6524.45785522 C483.62506401 6522.2108348 469.69366523 6519.9542869 455.76245117 6517.6965332 C450.9204672 6516.91193304 446.07847002 6516.12741438 441.23646545 6515.34294128 C440.022964 6515.1463337 438.80946254 6514.94972612 437.55918831 6514.74716073 C428.78931467 6513.32644733 420.01920931 6511.90716981 411.24900818 6510.48847961 C376.92412529 6504.9356488 342.60287588 6499.36082654 308.28424191 6493.76950908 C296.86508225 6491.9090989 285.44584245 6490.04918051 274.02661133 6488.18920898 C272.13466036 6487.88104278 272.13466036 6487.88104278 270.20448816 6487.56665099 C180.87983544 6473.01756734 91.5426378 6458.54817645 2.1875 6444.1875 C1.00495793 6443.99744479 -0.17758413 6443.80738958 -1.39596081 6443.61157513 C-22.74403733 6440.18060797 -44.09226243 6436.75056555 -65.4405843 6433.32112539 C-117.23379278 6425.00086607 -169.02421622 6416.663357 -220.8125 6408.3125 C-221.93082167 6408.13217381 -223.04914334 6407.95184763 -224.20135355 6407.76605701 C-293.55912128 6396.58202688 -362.90856039 6385.34731886 -432.25 6374.0625 C-433.32209937 6373.88802589 -434.39419874 6373.71355179 -435.49878597 6373.53379059 C-483.85998451 6365.66328676 -532.21923762 6357.78086865 -580.57726109 6349.8908819 C-602.19713262 6346.36347851 -623.81721208 6342.83735032 -645.4375 6339.3125 C-647.13772371 6339.03530262 -647.13772371 6339.03530262 -648.87229538 6338.7525053 C-770.39317833 6318.94089926 -891.95078971 6299.35713287 -1088.84924316 6267.73291016 C-1089.83886791 6267.57404949 -1090.82849265 6267.41518882 -1091.84810603 6267.2515142 C-1097.82312736 6266.2923682 -1097.82312736 6266.2923682 -1103.79815102 6265.33323669 C-1195.1978792 6250.66152923 -1286.58271878 6235.89892295 -1463.85241175 6207.09482288 C-1467.11802949 6206.56363383 -1470.38365095 6206.03246766 -1473.64927292 6205.50130463 C-1523.7363615 6197.35434724 -1573.82151112 6189.19562145 -1623.9029429 6181.01395756 C-1632.81579049 6179.55792693 -1641.72872873 6178.10245224 -1650.64172363 6176.64732361 C-1651.89736893 6176.44232418 -1653.15301424 6176.23732475 -1654.44670939 6176.02611321 C-1659.49629057 6175.20171426 -1664.54587337 6174.3773253 -1669.59546709 6173.55300319 C-1682.96334762 6171.37073294 -1696.33104296 6169.18734577 -1709.69805908 6166.99978638 C-1756.31958956 6159.37051742 -1802.94731867 6151.78070408 -1849.61363029 6144.42946434 C-1853.84872359 6143.76226259 -1858.08327922 6143.09180104 -1862.31738472 6142.41835976 C-1867.22428717 6141.63827191 -1872.13233936 6140.86588107 -1877.04141545 6140.09959435 C-1878.82873706 6139.81942818 -1880.61566348 6139.5367267 -1882.40214229 6139.25123572 C-1895.30095065 6136.34312208 -1895.30095065 6136.34312208 -1908 6137 C-1911.43305633 6141.29677191 -1911.42201954 6145.44050002 -1911.37555552 6150.71198946 C-1911.37971151 6151.59464526 -1911.3838675 6152.47730106 -1911.38814943 6153.386704 C-1911.398479 6156.36531789 -1911.38731533 6159.34346948 -1911.37638092 6162.32207584 C-1911.37939605 6164.47993498 -1911.38372815 6166.63779261 -1911.38926309 6168.79564676 C-1911.40072198 6174.76383797 -1911.39336612 6180.73188439 -1911.3831337 6186.70007245 C-1911.37531612 6193.17851782 -1911.38485681 6199.65694047 -1911.3922677 6206.13538307 C-1911.40339325 6217.5026173 -1911.40242583 6228.86981315 -1911.39461708 6240.2370491 C-1911.38630159 6252.43718809 -1911.38454007 6264.63730191 -1911.39084435 6276.8374424 C-1911.39123892 6277.60734532 -1911.3916335 6278.37724823 -1911.39204003 6279.17048154 C-1911.39408536 6283.09609516 -1911.39624406 6287.0217087 -1911.39844786 6290.94732223 C-1911.4137368 6318.50777531 -1911.4162517 6346.06821614 -1911.41117306 6373.62867238 C-1911.40582293 6402.67418086 -1911.40761197 6431.71967399 -1911.41999817 6460.76518059 C-1911.42055518 6462.07717498 -1911.42055518 6462.07717498 -1911.42112344 6463.4156743 C-1911.42529131 6473.1886556 -1911.42969593 6482.96163679 -1911.43419749 6492.73461794 C-1911.44251554 6510.81177378 -1911.44983748 6528.88893003 -1911.45691681 6546.96608639 C-1911.45727242 6547.87061523 -1911.45762803 6548.77514407 -1911.45799442 6549.70708287 C-1911.47487554 6592.77132628 -1911.48267709 6635.83557022 -1911.48839001 6678.89981639 C-1911.48876963 6681.75779077 -1911.48915378 6684.61576516 -1911.48953895 6687.47373954 C-1911.49339654 6716.16999299 -1911.49675032 6744.86624648 -1911.5 6773.5625 C-1911.50335637 6803.19967265 -1911.50684987 6832.83684527 -1911.51084633 6862.47401784 C-1911.51123037 6865.32958626 -1911.51160988 6868.18515469 -1911.51198892 6871.04072312 C-1911.51772965 6914.05260449 -1911.52617499 6957.06448309 -1911.54308319 7000.07636166 C-1911.54343716 7000.98032377 -1911.54379113 7001.88428589 -1911.54415583 7002.8156408 C-1911.55124049 7020.87614275 -1911.55871966 7038.93664451 -1911.56703588 7056.99714593 C-1911.57153024 7066.76413357 -1911.57585651 7076.53112127 -1911.58000183 7086.29810905 C-1911.58037434 7087.1719194 -1911.58074685 7088.04572975 -1911.58113065 7088.94601921 C-1911.59339658 7117.97398453 -1911.59369745 7147.0019371 -1911.58834486 7176.02990405 C-1911.58333432 7203.51616111 -1911.58747172 7231.00240242 -1911.60288268 7258.48865596 C-1911.60507327 7262.40668731 -1911.60715002 7266.32471872 -1911.60915565 7270.24275017 C-1911.60955206 7271.01079707 -1911.60994847 7271.77884397 -1911.61035689 7272.57016503 C-1911.61634933 7284.73486635 -1911.61221848 7296.89954253 -1911.60384862 7309.06424157 C-1911.59582011 7321.02402684 -1911.59840649 7332.98377047 -1911.61229661 7344.94355079 C-1911.6192758 7351.34203264 -1911.62144514 7357.74041868 -1911.61043197 7364.13889701 C-1911.6005 7369.95877 -1911.60432712 7375.77846478 -1911.61916465 7381.59832584 C-1911.6220797 7383.69160989 -1911.61996176 7385.7849085 -1911.61221199 7387.87818023 C-1911.51663243 7415.62151865 -1911.51663243 7415.62151865 -1921 7426 C-1921.78375 7426.9075 -1922.5675 7427.815 -1923.375 7428.75 C-1934.27834188 7438.09572161 -1948.41185911 7437.95606972 -1962 7437 C-1975.23462753 7435.5493751 -1989.32245364 7433.2127514 -1999 7423.3125 C-2004.41102291 7416.26497259 -2006.18884511 7408.98693819 -2006.59352285 7400.20647722 C-2006.63283357 7399.39601921 -2006.67214428 7398.5855612 -2006.71264624 7397.75054385 C-2007.27129369 7384.49975576 -2007.1407618 7371.22497643 -2007.12997987 7357.96491703 C-2007.12765567 7353.7220889 -2007.13119463 7349.47926467 -2007.13394669 7345.23643735 C-2007.1379835 7337.78552193 -2007.13833392 7330.3346135 -2007.13624074 7322.88369738 C-2007.13312441 7311.72940406 -2007.13578563 7300.57511711 -2007.13953945 7289.42082425 C-2007.14576689 7270.40763949 -2007.1472465 7251.394457 -2007.14612198 7232.38127136 C-2007.144997 7213.11756378 -2007.14603345 7193.85385812 -2007.14969444 7174.59015083 C-2007.15003892 7172.76405338 -2007.15003892 7172.76405338 -2007.15039036 7170.90106507 C-2007.15133201 7165.94267126 -2007.1522877 7160.98427746 -2007.15326155 7156.02588365 C-2007.16326608 7105.01272572 -2007.16645332 7053.99956905 -2007.16702999 7002.98641038 C-2007.16709323 6997.42501736 -2007.16715976 6991.86362433 -2007.16723054 6986.30223131 C-2007.16724823 6984.90827239 -2007.16726561 6983.51431347 -2007.16728266 6982.12035455 C-2007.16767063 6950.82086283 -2007.16984986 6919.52137135 -2007.17241292 6888.22187975 C-2007.17298447 6881.23411143 -2007.17353845 6874.24634312 -2007.17409355 6867.2585748 C-2007.17414867 6866.56493871 -2007.17420379 6865.87130261 -2007.17426058 6865.15664724 C-2007.17459509 6860.94611059 -2007.17492885 6856.73557395 -2007.17526215 6852.52503731 C-2007.17542923 6850.41575354 -2007.17559674 6848.30646977 -2007.17576428 6846.197186 C-2007.178366 6813.40349136 -2007.18059635 6780.60979671 -2007.18244648 6747.81610203 C-2007.18248685 6747.101616 -2007.18252722 6746.38712998 -2007.18256881 6745.65099287 C-2007.18513144 6700.13028877 -2007.18603136 6654.6095848 -2007.18576848 6609.08888064 C-2007.18575573 6606.85092417 -2007.18574376 6604.61296769 -2007.18573207 6602.37501122 C-2007.18564973 6586.65282165 -2007.18554702 6570.93063208 -2007.18543919 6555.20844251 C-2007.18540842 6550.70064486 -2007.18537836 6546.19284721 -2007.18534838 6541.68504956 C-2007.18532328 6537.92496267 -2007.18529749 6534.16487578 -2007.18527026 6530.40478888 C-2007.18475878 6459.37831817 -2007.18617853 6388.35184859 -2007.19561768 6317.32537842 C-2007.19571703 6316.57746755 -2007.19581639 6315.82955667 -2007.19591876 6315.05898184 C-2007.19903021 6291.68995596 -2007.20239667 6268.32093013 -2007.20581055 6244.9519043 C-2007.20931201 6220.9727653 -2007.2127825 6196.9936263 -2007.21607494 6173.01448727 C-2007.21622723 6171.90696522 -2007.21622723 6171.90696522 -2007.2163826 6170.777069 C-2007.2227321 6124.53374764 -2007.22665367 6078.29042661 -2007.22793293 6032.04710484 C-2007.22795296 6031.33286367 -2007.22797299 6030.61862251 -2007.22799362 6029.88273768 C-2007.22886895 5998.51481047 -2007.22918871 5967.14688328 -2007.22890273 5935.77895606 C-2007.22878845 5923.15972922 -2007.22873238 5910.54050238 -2007.22869941 5897.92127554 C-2007.22869301 5895.82899187 -2007.22868394 5893.7367082 -2007.22867426 5891.64442453 C-2007.2285378 5859.64752177 -2007.22988213 5827.65062004 -2007.23571944 5795.65371776 C-2007.23584511 5794.96388818 -2007.23597079 5794.2740586 -2007.23610027 5793.56332509 C-2007.23812922 5782.46699292 -2007.24027326 5771.37066078 -2007.24242707 5760.27432864 C-2007.2512472 5714.79644247 -2007.25377435 5669.31856066 -2007.24706676 5623.84067358 C-2007.24615445 5617.65326509 -2007.24531117 5611.4658566 -2007.24450874 5605.2784481 C-2007.24434866 5604.06554149 -2007.24418857 5602.85263487 -2007.24402363 5601.60297351 C-2007.24166969 5582.38989288 -2007.24603035 5563.17681988 -2007.25317993 5543.96374068 C-2007.26006807 5525.07627387 -2007.25982978 5506.18881832 -2007.25198779 5487.30135176 C-2007.24760281 5476.22589027 -2007.2486866 5465.15046194 -2007.25785458 5454.07500319 C-2007.26339767 5446.71805407 -2007.26167751 5439.3611297 -2007.2540718 5432.00418249 C-2007.24996385 5427.83469321 -2007.24891121 5423.66526919 -2007.25682249 5419.49578391 C-2007.3568408 5362.80593202 -2007.3568408 5362.80593202 -1992.34375 5346.1640625 C-1985.665464 5339.94111418 -1978.26764334 5338.4794312 -1969.41947937 5338.62254333 C-1968.0532961 5338.63540033 -1968.0532961 5338.63540033 -1966.65951318 5338.64851707 C-1956.0782884 5338.86927123 -1945.72931108 5340.41884557 -1935.28833008 5342.03930664 C-1933.14419942 5342.3602756 -1930.9998518 5342.679798 -1928.85530567 5342.99797916 C-1924.42019972 5343.6584072 -1919.98650733 5344.32733298 -1915.5538063 5345.0037117 C-1909.34372849 5345.95044186 -1903.13029487 5346.87298803 -1896.91537476 5347.787323 C-1885.52592536 5349.46512591 -1874.13975187 5351.16440157 -1862.75407386 5352.86758637 C-1856.87372474 5353.74685187 -1850.99309501 5354.62423718 -1845.11250305 5355.50187683 C-1833.62895694 5357.21599652 -1822.14564765 5358.93169742 -1810.662422 5360.64796251 C-1801.27544629 5362.05089364 -1791.88836955 5363.45314725 -1782.5012207 5364.85491943 C-1781.48876114 5365.00610908 -1781.48876114 5365.00610908 -1780.45584784 5365.16035306 C-1776.32915518 5365.77658285 -1772.20245912 5366.39278991 -1768.07576236 5367.00899231 C-1761.7679611 5367.95088576 -1755.46016731 5368.89282928 -1749.15237427 5369.83477783 C-1748.09965893 5369.99197975 -1748.09965893 5369.99197975 -1747.02567662 5370.15235746 C-1736.9446437 5371.65776514 -1726.86365495 5373.16346828 -1716.78269632 5374.66937339 C-1678.30042028 5380.41787715 -1639.81729362 5386.16065405 -1601.33346516 5391.89875561 C-1590.67838827 5393.48747709 -1580.02334713 5395.0764381 -1569.36833191 5396.66557312 C-1568.62078192 5396.77706535 -1567.87323193 5396.88855758 -1567.10302892 5397.00342836 C-1560.35376197 5398.01003861 -1553.6044971 5399.01666276 -1546.85523689 5400.02331817 C-1542.41070537 5400.68622191 -1537.96617209 5401.34911388 -1533.52163696 5402.01199341 C-1532.79326774 5402.12062615 -1532.06489853 5402.22925888 -1531.31445751 5402.34118352 C-1519.7784145 5404.06170608 -1508.24225936 5405.78147571 -1496.70606404 5407.50097673 C-1485.05129795 5409.23817523 -1473.39668075 5410.97637013 -1461.74219614 5412.71545607 C-1455.23887325 5413.68585613 -1448.73548231 5414.65579609 -1442.23192787 5415.62464333 C-1418.92676989 5419.09671146 -1395.62228136 5422.56961128 -1372.34047127 5426.19548059 C-1369.66985231 5426.6113088 -1366.99906762 5427.02605589 -1364.32823181 5427.44048882 C-1357.23886419 5428.54129333 -1350.15007487 5429.64461962 -1343.06553936 5430.77616024 C-1341.00856573 5431.1033342 -1338.95096103 5431.42611637 -1336.89299011 5431.74695206 C-1334.47130738 5432.12486662 -1332.05076512 5432.5102108 -1329.63179016 5432.90508652 C-1324.13729809 5433.75228182 -1319.43446069 5434.33695306 -1314 5433 C-1310.53129385 5429.96017943 -1309.91506499 5425.56449044 -1308.8125 5421.25 C-1303.88076009 5403.45010048 -1294.38959242 5389.52956223 -1281.84765625 5376.05859375 C-1279.85434369 5373.93638507 -1279.85434369 5373.93638507 -1278 5371 C-1277.34 5371 -1276.68 5371 -1276 5371 C-1276 5370.34 -1276 5369.68 -1276 5369 C-1275.34 5369 -1274.68 5369 -1274 5369 C-1274 5368.34 -1274 5367.68 -1274 5367 C-1273.34 5367 -1272.68 5367 -1272 5367 C-1272 5366.34 -1272 5365.68 -1272 5365 C-1270.49609375 5363.5546875 -1270.49609375 5363.5546875 -1268.4375 5361.875 C-1264.24525212 5358.30299557 -1260.15943287 5354.54168475 -1257 5350 C-1257 5349.01 -1257 5348.02 -1257 5347 C-1263.786482 5345.15212121 -1270.59210103 5344.04664188 -1277.54443359 5343.01074219 C-1278.79685474 5342.82097211 -1280.04927589 5342.63120203 -1281.3396492 5342.43568134 C-1284.79617282 5341.91204338 -1288.25340227 5341.39320689 -1291.71077013 5340.87517667 C-1295.43491648 5340.3162967 -1299.15837915 5339.75289607 -1302.88192749 5339.19004822 C-1310.16534099 5338.08981378 -1317.44936385 5336.99366631 -1324.73360431 5335.89892179 C-1333.29581237 5334.61196567 -1341.85743437 5333.32113136 -1350.41902065 5332.03004634 C-1361.95776516 5330.29005417 -1373.49664352 5328.55095441 -1385.03588867 5326.81428528 C-1406.88496005 5323.52584988 -1428.73238656 5320.2267752 -1450.57819176 5316.91671371 C-1531.24106252 5304.69534842 -1611.91399917 5292.51076255 -1864.3236084 5259.21496582 C-2041.85785933 5237.17199847 -2041.85785933 5237.17199847 -2113 5217 C-2114.11568359 5216.68450195 -2115.23136719 5216.36900391 -2116.38085938 5216.04394531 C-2180.22051954 5197.76344915 -2241.81190684 5163.2736382 -2283 5110 C-2284.05164782 5108.69781355 -2285.10518874 5107.39715471 -2286.16015625 5106.09765625 C-2303.6161917 5084.39489429 -2317.23037314 5060.49984786 -2328.92333984 5035.3046875 C-2329.80202028 5033.42379332 -2330.7042778 5031.5539284 -2331.61328125 5029.6875 C-2370.35375841 4949.36921497 -2383.14557861 4856.22659949 -2394.91143799 4701.1831665 C-2394.99577313 4699.10419785 -2395.08492516 4697.02549128 -2395.17529297 4694.94677734 C-2397.30273258 4644.07130001 -2396.74323239 4592.83129182 -2394 4542 C-2393.94908203 4541.04550964 -2393.89816406 4540.09101929 -2393.84570312 4539.10760498 C-2388.93306991 4447.98486608 -2376.79971956 4356.61455971 -2315.97705078 4196.88037109 C-2314.9598889 4194.92280468 -2313.96217549 4192.95601535 -2312.96484375 4190.98828125 C-2297.59146471 4160.9700523 -2277.5968061 4132.78646495 -2254.75 4107.99609375 C-2252.95218021 4106.11549325 -2252.95218021 4106.11549325 -2252 4104 C-2251.34 4104 -2250.68 4104 -2250 4104 C-2249.74492676 4103.41968018 -2249.48985352 4102.83936035 -2249.22705078 4102.24145508 C-2247.87263534 4099.76734282 -2246.36587734 4098.12278998 -2244.3671875 4096.13671875 C-2243.64273438 4095.41419922 -2242.91828125 4094.69167969 -2242.171875 4093.94726562 C-2241.41390625 4093.20154297 -2240.6559375 4092.45582031 -2239.875 4091.6875 C-2239.14023438 4090.95337891 -2238.40546875 4090.21925781 -2237.6484375 4089.46289062 C-2232.92526439 4084.77713702 -2228.06624151 4080.31122519 -2223 4076 C-2222.35804688 4075.45126221 -2221.71609375 4074.90252441 -2221.0546875 4074.3371582 C-2146.29638846 4010.87280878 -2050.07839078 3986.87163463 -1950.17529297 3994.07250977 C-1942.39871706 3994.77065473 -1934.69256271 3995.82494296 -1926.97949219 3997.02783203 C-1920.61065443 3997.99898483 -1914.44177344 3998.28222366 -1908 3998 C-1905.30377742 3990.58538789 -1903.74159496 3983.17418646 -1902.25 3975.4375 C-1892.58462799 3927.28399623 -1873.16407452 3882.85967245 -1843.37158203 3843.80322266 C-1842.15402143 3842.2024924 -1840.94912104 3840.59215002 -1839.74609375 3838.98046875 C-1839.12863281 3838.16191406 -1838.51117187 3837.34335937 -1837.875 3836.5 C-1837.35679687 3835.8090625 -1836.83859375 3835.118125 -1836.3046875 3834.40625 C-1835.87414063 3833.9421875 -1835.44359375 3833.478125 -1835 3833 C-1834.34 3833 -1833.68 3833 -1833 3833 C-1832.7517749 3832.42725342 -1832.5035498 3831.85450684 -1832.24780273 3831.2644043 C-1830.80875865 3828.65295178 -1829.13991252 3826.88092339 -1827.03515625 3824.76953125 C-1826.24061035 3823.97087646 -1825.44606445 3823.17222168 -1824.62744141 3822.34936523 C-1823.78101074 3821.51219971 -1822.93458008 3820.67503418 -1822.0625 3819.8125 C-1821.19802246 3818.95406494 -1820.33354492 3818.09562988 -1819.44287109 3817.21118164 C-1813.54665252 3811.40621012 -1807.59097895 3806.00834267 -1801 3801 C-1800.04867187 3800.23171875 -1799.09734375 3799.4634375 -1798.1171875 3798.671875 C-1788.90413591 3791.32914216 -1779.0622466 3785.10929998 -1769 3779 C-1768.38012207 3778.62101562 -1767.76024414 3778.24203125 -1767.12158203 3777.8515625 C-1753.49378537 3769.57768196 -1738.9264449 3762.95992954 -1724.1875 3756.9375 C-1705.88585371 3749.3797657 -1690.94618535 3738.43071946 -1675.625 3726.0625 C-1661.18253533 3714.42585839 -1646.13353884 3704.15360007 -1630 3695 C-1628.83065918 3694.33291016 -1628.83065918 3694.33291016 -1627.63769531 3693.65234375 C-1598.75540751 3677.3429187 -1568.0448654 3669.08998754 -1535.25268555 3665.64550781 C-1531.50513114 3665.27912474 -1531.50513114 3665.27912474 -1528 3664 C-1528.29154646 3658.02329748 -1530.91402071 3655.02869921 -1535 3651 C-1535.969375 3650.195625 -1536.93875 3649.39125 -1537.9375 3648.5625 C-1540.9379558 3646.05191453 -1543.29972884 3643.45888297 -1545.82421875 3640.4921875 C-1548.05288919 3637.93941957 -1550.35140813 3635.46868049 -1552.671875 3632.99975586 C-1557.8965128 3627.4403398 -1562.91453886 3621.80508385 -1567.6875 3615.84765625 C-1570.41600052 3612.48772909 -1573.23382107 3609.21304348 -1576.0625 3605.9375 C-1600.7742641 3577.19914491 -1622.1004843 3545.80723386 -1641 3513 C-1641.52029785 3512.09685059 -1642.0405957 3511.19370117 -1642.57666016 3510.26318359 C-1690.77196243 3425.92523329 -1701.0095872 3327.77046227 -1683.33917236 3226.92956543 C-1682.84998349 3224.14654993 -1682.39288667 3221.35839563 -1681.93359375 3218.5703125 C-1680.30629497 3209.00617303 -1677.98709472 3200.22238312 -1674.26953125 3191.25 C-1668.5807458 3176.68670925 -1671.8473562 3159.73507039 -1677.73046875 3145.8515625 C-1681.33392682 3137.68292507 -1685.57850169 3130.19097357 -1690.52734375 3122.765625 C-1695.65871898 3115.04043647 -1700.29288047 3106.98757234 -1705 3099 C-1705.52062012 3098.11795898 -1706.04124023 3097.23591797 -1706.57763672 3096.32714844 C-1712.98461598 3085.42833038 -1718.93279386 3074.47449308 -1724.12060547 3062.94384766 C-1725.50480454 3059.88416054 -1726.94398101 3056.85051016 -1728.375 3053.8125 C-1728.95392302 3052.56547433 -1729.53202268 3051.31806615 -1730.109375 3050.0703125 C-1731.45591878 3047.16045724 -1732.82591716 3044.26264254 -1734.203125 3041.3671875 C-1749.78567229 3008.26549651 -1761.20446754 2973.21166256 -1772.47705078 2938.46166992 C-1772.70130737 2937.774655 -1772.92556396 2937.08764008 -1773.15661621 2936.37980652 C-1773.73838797 2934.59312659 -1774.31406629 2932.80446557 -1774.88916016 2931.015625 C-1780.09560761 2916.88155051 -1793.10966824 2910.8950264 -1805.32910156 2903.63720703 C-1806.16924805 2903.13817871 -1807.00939453 2902.63915039 -1807.875 2902.125 C-1808.72674805 2901.61952637 -1809.57849609 2901.11405273 -1810.45605469 2900.59326172 C-1830.17177492 2888.79602768 -1848.75549868 2874.49728415 -1866.11328125 2859.4765625 C-1870.00797486 2856.13524213 -1874.0218332 2852.95567224 -1878.05078125 2849.77734375 C-1879.01564453 2848.89755859 -1879.01564453 2848.89755859 -1880 2848 C-1880 2847.34 -1880 2846.68 -1880 2846 C-1880.79603638 2845.6918335 -1880.79603638 2845.6918335 -1881.6081543 2845.37744141 C-1884.99611889 2843.42634452 -1887.54341005 2840.72143301 -1890.26953125 2837.9609375 C-1890.868759 2837.36125153 -1891.46798676 2836.76156555 -1892.08537292 2836.14370728 C-1893.35266537 2834.87339709 -1894.61752983 2833.6006607 -1895.88012695 2832.32568359 C-1897.79009818 2830.3976141 -1899.70779036 2828.47750968 -1901.62695312 2826.55859375 C-1907.62784721 2820.54040391 -1913.51408025 2814.49714491 -1919 2808 C-1920.02077518 2806.84269838 -1921.04421697 2805.68774333 -1922.0703125 2804.53515625 C-1929.58628254 2796.01770665 -1936.60226136 2787.21042487 -1943.40917969 2778.11865234 C-1944.97318882 2776.03570709 -1946.55090477 2773.96390459 -1948.1328125 2771.89453125 C-1959.34113656 2757.18393977 -1969.2319278 2741.69313826 -1979 2726 C-1979.58515381 2725.06583252 -1979.58515381 2725.06583252 -1980.18212891 2724.11279297 C-1987.50028064 2712.391263 -1993.92054561 2700.17408255 -2000.40625 2687.97900391 C-2001.72142227 2685.52071161 -2003.05427345 2683.07485354 -2004.40625 2680.63671875 C-2024.61296884 2643.95788675 -2039.54981424 2603.66715405 -2053.24078369 2564.18652344 C-2053.98937432 2562.03060168 -2054.74300999 2559.87649903 -2055.49755859 2557.72265625 C-2086.59291419 2468.71520406 -2104.62978179 2376.32030486 -2117.75 2205.75 C-2117.80907532 2204.54812042 -2117.86815063 2203.34624084 -2117.92901611 2202.10794067 C-2118.33303749 2193.74031637 -2118.68287911 2185.37134639 -2119 2177 C-2119.0483902 2175.75064667 -2119.0967804 2174.50129333 -2119.14663696 2173.21408081 C-2120.11853963 2147.22082818 -2120.1875905 2121.22793295 -2120.18530273 2095.21899414 C-2120.18522198 2090.47839501 -2120.19210257 2085.73789357 -2120.20581055 2080.99731445 C-2120.33603723 2035.18324543 -2119.07823912 1989.43486591 -2115.90625 1943.72265625 C-2115.83692261 1942.71582291 -2115.76759521 1941.70898956 -2115.69616699 1940.67164612 C-2109.58349609 1853.41126595 -2098.64280798 1766.53435031 -2060 1580 C-2059.61131744 1578.4156012 -2059.61131744 1578.4156012 -2059.21478271 1576.79919434 C-2050.87954408 1542.83969945 -2041.7072044 1509.17886562 -2031.78259277 1475.65057373 C-2030.86598083 1472.54608872 -2029.95933933 1469.43877642 -2029.05445862 1466.33085632 C-2023.72445157 1448.03955788 -2017.78232337 1429.97232117 -2011.66845703 1411.93164062 C-2010.2334386 1407.69571606 -2008.81088876 1403.45569849 -2007.39047241 1399.21485901 C-1990.49236014 1348.80679895 -1971.63199519 1299.21560025 -1950.94854736 1250.24603271 C-1950.00876062 1248.02074397 -1949.07050826 1245.79481249 -1948.13232422 1243.56884766 C-1939.63355932 1223.42569198 -1930.74127012 1203.4877247 -1921.58509827 1183.63540649 C-1919.53509375 1179.18363716 -1917.52314562 1174.71710791 -1915.56030273 1170.22607422 C-1915.21040283 1169.42959473 -1914.86050293 1168.63311523 -1914.5 1167.8125 C-1914.2451886 1167.23220032 -1913.9903772 1166.65190063 -1913.72784424 1166.05401611 C-1911.70687452 1161.49201059 -1909.55571812 1157.01492021 -1907.3046875 1152.5625 C-1906.59652449 1151.15413076 -1905.88852182 1149.74568089 -1905.18066406 1148.3371582 C-1904.81992798 1147.62040924 -1904.45919189 1146.90366028 -1904.08752441 1146.16519165 C-1902.33245768 1142.67096588 -1900.59264655 1139.16917632 -1898.8515625 1135.66796875 C-1883.20814084 1104.24765421 -1866.89890903 1073.20542506 -1849 1043 C-1848.34273926 1041.89043945 -1847.68547852 1040.78087891 -1847.00830078 1039.63769531 C-1845.12262805 1036.45857045 -1843.23071764 1033.2832091 -1841.33538818 1030.10983276 C-1840.59565127 1028.87101829 -1839.85669888 1027.63173485 -1839.11871338 1026.39187622 C-1827.94668078 1007.64070391 -1816.01042745 989.3626729 -1803.99316406 971.14575195 C-1802.10159788 968.27700842 -1800.21476863 965.40518574 -1798.328125 962.53320312 C-1792.40690247 953.53775103 -1786.44737723 944.62890354 -1780 936 C-1779.17041107 934.8466653 -1778.34437465 933.69075891 -1777.5234375 932.53125 C-1770.47865844 922.59170719 -1763.25942766 912.78355664 -1756 903 C-1755.46552246 902.2795752 -1754.93104492 901.55915039 -1754.38037109 900.81689453 C-1744.82558194 887.95825296 -1734.9711495 875.37298852 -1724.83837891 862.96533203 C-1721.31511454 858.6440321 -1717.85879265 854.27725738 -1714.4375 849.875 C-1709.330323 843.32358412 -1703.96049687 837.0221539 -1698.51611328 830.75 C-1695.99841181 827.8438995 -1693.50038893 824.92099225 -1691 822 C-1690.0000133 820.834624 -1689.0000133 819.66925942 -1688 818.50390625 C-1685.99318189 816.16327171 -1683.99395749 813.8164414 -1682 811.46484375 C-1676.39153635 804.86407841 -1670.68537169 798.39039015 -1664.74414062 792.08569336 C-1662.05802884 789.27210862 -1662.05802884 789.27210862 -1660 786 C-1659.34 786 -1658.68 786 -1658 786 C-1657.74347656 785.41476562 -1657.48695313 784.82953125 -1657.22265625 784.2265625 C-1655.89437838 781.80765392 -1654.43475199 780.26801128 -1652.4375 778.375 C-1649.85984611 775.95478041 -1649.85984611 775.95478041 -1648 773 C-1647.34 773 -1646.68 773 -1646 773 C-1645.76410156 772.43539062 -1645.52820312 771.87078125 -1645.28515625 771.2890625 C-1643.70765058 768.47928037 -1641.75948714 766.60380949 -1639.4375 764.375 C-1636.30957946 761.48929319 -1636.30957946 761.48929319 -1634 758 C-1633.34 758 -1632.68 758 -1632 758 C-1632 757.34 -1632 756.68 -1632 756 C-1631.34 756 -1630.68 756 -1630 756 C-1630 755.34 -1630 754.68 -1630 754 C-1629.34 754 -1628.68 754 -1628 754 C-1627.62748108 753.14048737 -1627.62748108 753.14048737 -1627.24743652 752.26361084 C-1625.80923841 749.65384211 -1624.14579485 747.891671 -1622.04101562 745.78222656 C-1621.22677124 744.96167786 -1620.41252686 744.14112915 -1619.5736084 743.29571533 C-1618.25326599 741.98144562 -1618.25326599 741.98144562 -1616.90625 740.640625 C-1615.5525531 739.28405792 -1615.5525531 739.28405792 -1614.17150879 737.90008545 C-1612.26404896 735.99126509 -1610.35469588 734.08459451 -1608.44189453 732.18115234 C-1605.98693691 729.73762119 -1603.54111007 727.28517765 -1601.09784698 724.82995987 C-1598.76799406 722.49116087 -1596.43055469 720.15997507 -1594.09375 717.828125 C-1593.21352173 716.94384827 -1592.33329346 716.05957153 -1591.4263916 715.14849854 C-1590.61214722 714.34055847 -1589.79790283 713.53261841 -1588.95898438 712.70019531 C-1587.88215393 711.62575165 -1587.88215393 711.62575165 -1586.78356934 710.52960205 C-1585 709 -1585 709 -1583 709 C-1583 708.34 -1583 707.68 -1583 707 C-1582.34 707 -1581.68 707 -1581 707 C-1581 706.34 -1581 705.68 -1581 705 C-1579.49609375 703.51953125 -1579.49609375 703.51953125 -1577.4375 701.8125 C-1573.89003826 698.81322507 -1570.63477128 695.66004868 -1567.4453125 692.28515625 C-1566 691 -1566 691 -1564 691 C-1564 690.34 -1564 689.68 -1564 689 C-1562.35546875 687.37890625 -1562.35546875 687.37890625 -1560.1875 685.5625 C-1557.17536735 683.02660668 -1557.17536735 683.02660668 -1554.36328125 680.27734375 C-1553 679 -1553 679 -1551 679 C-1551 678.34 -1551 677.68 -1551 677 C-1549.6015625 675.58984375 -1549.6015625 675.58984375 -1547.625 673.9375 C-1544.37058933 671.17182591 -1541.16586167 668.36691808 -1538 665.5 C-1530.3486634 658.60220412 -1522.55015465 651.88372491 -1514.72265625 645.1875 C-1512.26836295 643.08768 -1509.8179562 640.98347363 -1507.37109375 638.875 C-1501.31810108 633.66272375 -1495.23356266 628.50356852 -1489.03125 623.46875 C-1486.6895377 621.56158225 -1484.35740313 619.64475202 -1482.03125 617.71875 C-1474.14393831 611.1905767 -1466.206631 604.74534791 -1458.1328125 598.44921875 C-1455.38321436 596.29959527 -1452.65552615 594.1267783 -1449.9375 591.9375 C-1440.14764385 584.09611036 -1430.12863246 576.59278191 -1420.0144043 569.17773438 C-1415.41853533 565.8025642 -1410.87225582 562.38037985 -1406.375 558.875 C-1400.91182833 554.64121462 -1395.31157059 550.63728398 -1389.65014648 546.67358398 C-1384.37448935 542.97938848 -1379.14799191 539.22292881 -1373.9375 535.4375 C-1365.71825759 529.48328625 -1357.39462844 523.70344254 -1349 518 C-1347.94893066 517.28473145 -1346.89786133 516.56946289 -1345.81494141 515.83251953 C-1303.01141231 486.70464374 -1259.54624255 458.75646016 -1215.24267578 431.96142578 C-1213.2352742 430.74719116 -1211.22834346 429.53217729 -1209.22216797 428.31591797 C-1187.65861425 415.24672048 -1165.74507426 402.79476727 -1143.72216797 390.51904297 C-1139.95569007 388.41724696 -1136.19589138 386.30371136 -1132.4375 384.1875 C-1131.50067383 383.6610791 -1131.50067383 383.6610791 -1130.54492188 383.12402344 C-1127.34586278 381.32560613 -1124.15230434 379.51812108 -1120.96484375 377.69921875 C-1113.59322709 373.50382532 -1106.17188792 369.5481037 -1098.5546875 365.80859375 C-1094.6763196 363.83531426 -1090.90186787 361.72142883 -1087.125 359.5625 C-1081.24257045 356.20565956 -1075.28764244 353.08015102 -1069.21142578 350.09008789 C-1063.92538183 347.48298177 -1058.70724301 344.76081339 -1053.5 342 C-1045.68700493 337.86393972 -1037.81700678 333.86295225 -1029.89453125 329.94140625 C-1027.48065933 328.74193587 -1025.07559845 327.52513848 -1022.66943359 326.31030273 C-1011.40924328 320.63875539 -1000.03548678 315.19847105 -988.67440796 309.7328949 C-984.4358848 307.69329794 -980.20134628 305.64562869 -975.96875 303.59375 C-962.63533651 297.13627352 -949.25000383 290.81851064 -935.75585938 284.70410156 C-932.9767102 283.44436907 -930.19983269 282.17973283 -927.42382812 280.91308594 C-904.95412663 270.66120494 -882.42274922 260.59640074 -859.67431641 250.97802734 C-855.5294016 249.22540552 -851.38823103 247.46407811 -847.24751282 245.7015686 C-772.19062884 213.76475755 -696.24263316 183.97064159 -619.31884766 156.81854248 C-616.95569866 155.98436183 -614.59306605 155.14873004 -612.23046875 154.31298828 C-532.31874091 126.06724372 -451.70064199 100.18481188 -223 38 C-221.13272247 37.5449408 -221.13272247 37.5449408 -219.22772217 37.08068848 C-180.34970814 27.6137078 -141.34585617 18.74569451 -102.19911957 10.46537781 C-99.93395518 9.98602359 -97.66902713 9.50556322 -95.40411377 9.02502441 C-85.89839168 7.01031901 -76.38680813 5.02630626 -66.86782837 3.07519531 C-63.83103073 2.4522553 -60.79619085 1.82089598 -57.76278687 1.18164062 C-11.89780675 -8.46268472 -11.89780675 -8.46268472 0 0 Z " fill="#29aae1" transform="translate(4171,381)"/>
</svg>
