<?xml version="1.0" encoding="UTF-8"?>
<svg version="1.1" xmlns="http://www.w3.org/2000/svg" width="8534" height="8534">
<path d="M0 0 C6.9541936 5.89926603 11.66104109 13.68409225 16.63720703 21.2253418 C26.84927539 36.67945412 37.74603707 51.65079528 48.8125 66.5 C49.60551514 67.56758545 49.60551514 67.56758545 50.41455078 68.65673828 C61.03987168 82.95813385 72.06914555 96.89909145 83.34033203 110.69580078 C84.63521511 112.28273046 85.92540478 113.87348737 87.21484375 115.46484375 C92.27819741 121.70018523 97.47080564 127.81522114 102.71484375 133.8984375 C104.73994119 136.24782976 106.7527473 138.6067514 108.75390625 140.9765625 C114.60106032 147.88497504 120.60665624 154.60232953 126.82958984 161.17553711 C129.64163878 164.14942165 132.39987656 167.15232731 135.07885742 170.24707031 C147.3920113 184.35094338 160.70366167 197.55355903 173.95166016 210.76953125 C176.35957416 213.17167508 178.76286615 215.57838595 181.16493225 217.98637581 C183.50334932 220.32929784 185.84559202 222.66837983 188.1875 225.0078125 C189.03658936 225.85892609 189.88567871 226.71003967 190.76049805 227.58694458 C195.06591886 231.87558253 199.43042864 236.02147205 204.05908203 239.96066284 C205.89185163 241.56966332 207.60537307 243.25895135 209.3125 245 C212.25514324 247.98893201 215.33605707 250.74652298 218.51171875 253.484375 C221.32023529 255.94480715 224.0669368 258.46994278 226.8125 261 C234.74745779 268.29790699 242.90832207 275.31581863 251.1015625 282.3203125 C253.5207138 284.38970698 255.93188733 286.46777307 258.3359375 288.5546875 C264.64242244 294.01788913 271.03666023 299.310785 277.63061523 304.42382812 C281.63392654 307.53907107 285.52452553 310.76076745 289.375 314.0625 C294.538434 318.47943212 299.8421637 322.67504279 305.25390625 326.78515625 C307.84131635 328.75082541 310.40757424 330.74136771 312.96484375 332.74609375 C328.1462923 344.64665605 343.69581285 356.01896497 359.3515625 367.28515625 C362.3319303 369.43010804 365.30543642 371.58406408 368.2734375 373.74609375 C396.78727312 394.49533502 426.32007803 413.9335674 456.11376953 432.79052734 C458.60956833 434.3714558 461.10050083 435.95971414 463.58984375 437.55078125 C482.87301804 449.84553339 502.49545418 461.61336962 522.2109375 473.19921875 C526.22642472 475.55987763 530.2292779 477.94068162 534.2265625 480.33203125 C546.79180898 487.8388505 559.42660969 495.13847538 572.24438477 502.2043457 C578.68399327 505.75514028 585.08713068 509.35451558 591.4375 513.0625 C602.80800869 519.69767828 614.31094257 526.09550522 625.8125 532.5 C626.66295898 532.97356934 627.51341797 533.44713867 628.38964844 533.93505859 C634.95853517 537.59086876 641.53236104 541.23774037 648.109375 544.87890625 C649.57301435 545.6899279 651.0365548 546.50112807 652.5 547.3125 C653.23742432 547.72121338 653.97484863 548.12992676 654.73461914 548.55102539 C658.8604477 550.84295644 662.97353038 553.15554912 667.07421875 555.4921875 C678.32661487 561.90073844 689.65638843 568.13762224 701.08370972 574.22717285 C708.27722617 578.06097848 715.44739621 581.92257855 722.53369141 585.95166016 C729.19759907 589.73612291 735.91248967 593.4277303 742.625 597.125 C781.25204466 618.41314671 781.25204466 618.41314671 797.96948242 628.01708984 C804.6589026 631.85590119 811.3879656 635.62050957 818.125 639.375 C828.39222795 645.1044834 838.5642971 650.98320416 848.70703125 656.9296875 C855.09773097 660.6745693 861.51688906 664.36921565 867.9375 668.0625 C879.61483266 674.7877289 891.23441806 681.60543192 902.8125 688.5 C903.65474121 689.00096191 904.49698242 689.50192383 905.36474609 690.01806641 C917.38173399 697.17242029 929.29957999 704.47793305 941.17578125 711.86328125 C943.79120991 713.48678438 946.41049469 715.1038618 949.03125 716.71875 C984.69392318 738.70327564 1019.83303439 761.54981098 1054.12646484 785.61816406 C1056.75272427 787.45812113 1059.38503559 789.28904798 1062.01953125 791.1171875 C1072.62194822 798.48445051 1083.06830322 806.03741573 1093.43164062 813.73681641 C1095.85969498 815.534951 1098.29570168 817.32176718 1100.734375 819.10546875 C1109.668212 825.64422042 1118.49213994 832.28449056 1127.15185547 839.18212891 C1128.83604155 840.51868234 1130.52788011 841.84487521 1132.22265625 843.16796875 C1140.56734042 849.6840848 1148.80463931 856.32544479 1157.00390625 863.0234375 C1158.6048548 864.33047541 1160.20847976 865.63423356 1161.8125 866.9375 C1168.8916077 872.69956441 1175.86461893 878.58106892 1182.8125 884.5 C1183.39999023 884.99967285 1183.98748047 885.4993457 1184.59277344 886.01416016 C1191.33977155 891.7558592 1198.03236925 897.54185376 1204.59375 903.49609375 C1206.60558393 905.31311982 1208.63910434 907.09944392 1210.6875 908.875 C1215.63278472 913.18474612 1220.4449339 917.63950069 1225.27001953 922.08251953 C1226.72749983 923.4218881 1228.1897771 924.75603125 1229.65234375 926.08984375 C1245.46181629 940.51137905 1260.82406685 955.34626911 1275.93652344 970.49365234 C1278.4597369 973.02263245 1280.98751358 975.54699698 1283.51657295 978.07012939 C1285.50026379 980.05018571 1287.4815415 982.03264294 1289.46212387 984.01580811 C1290.83824605 985.39290208 1292.21634691 986.76801788 1293.59451294 988.14306641 C1298.03112374 992.59621693 1302.33183779 997.10481238 1306.41671753 1001.8840332 C1308.12185367 1003.85815413 1309.93641192 1005.68860461 1311.8125 1007.5 C1314.94004053 1010.58583999 1317.84632257 1013.781243 1320.70703125 1017.11328125 C1322.9184256 1019.62007521 1325.1922846 1022.0574491 1327.48022461 1024.49414062 C1332.74130763 1030.09753636 1337.7637871 1035.78530733 1342.5703125 1041.7890625 C1345.05157733 1044.78905865 1347.66136537 1047.65131911 1350.3125 1050.5 C1354.54209229 1055.05102089 1358.53330879 1059.74298027 1362.4296875 1064.58203125 C1365.18792578 1067.95974271 1368.02528715 1071.2620152 1370.875 1074.5625 C1375.65316383 1080.10934117 1380.27357311 1085.75515896 1384.8125 1091.5 C1385.74641639 1092.66484844 1386.68139082 1093.82884907 1387.6171875 1094.9921875 C1394.12230882 1103.08164768 1400.51859203 1111.24464851 1406.8125 1119.5 C1408.06506322 1121.1393542 1409.31767077 1122.77867453 1410.5703125 1124.41796875 C1421.6559695 1138.93822477 1421.6559695 1138.93822477 1426.40234375 1145.30078125 C1427.223396 1146.40135864 1427.223396 1146.40135864 1428.06103516 1147.52416992 C1429.07476154 1148.88588012 1430.08629501 1150.24922667 1431.09521484 1151.61450195 C1433.19179989 1154.43312714 1435.28937551 1157.05838413 1437.8125 1159.5 C1445.06464997 1156.50151492 1451.08059425 1152.27615126 1457.22265625 1147.48144531 C1469.83224746 1137.69655982 1483.36610272 1129.06872914 1496.63842773 1120.22094727 C1499.11415592 1118.56973258 1501.58738787 1116.91482509 1504.06054688 1115.25976562 C1515.19785395 1107.82175296 1526.45567453 1100.59770304 1537.8125 1093.5 C1538.97167929 1092.77299695 1540.13078509 1092.0458767 1541.28979492 1091.31860352 C1571.25903757 1072.56675269 1602.12720596 1055.46923634 1633.51831055 1039.22045898 C1636.04161328 1037.90261163 1638.55743779 1036.57344951 1641.06958008 1035.23461914 C1652.29161654 1029.26438154 1663.63193925 1023.61641747 1675.125 1018.1875 C1676.42133865 1017.5736293 1676.42133865 1017.5736293 1677.74386597 1016.94735718 C1692.95923086 1009.7502724 1708.26957939 1002.84772493 1723.79656982 996.3458252 C1725.92480249 995.45288117 1728.05066291 994.55444957 1730.17626953 993.65527344 C1772.16065159 975.92144592 1815.17387814 960.08036803 1858.8671875 947.0625 C1860.65552002 946.52786133 1860.65552002 946.52786133 1862.47998047 945.98242188 C1864.59196056 945.35981324 1866.70782523 944.75011483 1868.82861328 944.15820312 C1878.86761003 941.2343256 1888.03374869 936.46923707 1893.8125 927.5 C1897.18141124 921.34821908 1899.98268059 914.91186929 1902.8125 908.5 C1903.23015625 907.55382813 1903.6478125 906.60765625 1904.078125 905.6328125 C1905.87786184 901.54545835 1907.67175917 897.45557321 1909.46191406 893.36401367 C1928.14691015 850.748046 1948.48849028 808.4428401 1971.65234375 768.06640625 C1975.06382797 762.10189361 1978.31395619 756.05434062 1981.5625 750 C1985.68606791 742.33673757 1989.91565341 734.78329934 1994.4609375 727.36328125 C1996.7938354 723.55490117 1999.04786713 719.70209602 2001.30444336 715.84814453 C2008.3169779 703.88626397 2015.59208105 692.10305367 2022.99658203 680.38037109 C2024.67153881 677.72358969 2026.33532157 675.06019282 2027.99609375 672.39453125 C2043.74869146 647.23612633 2060.58091523 622.66638225 2077.8125 598.5 C2078.33102539 597.76974609 2078.84955078 597.03949219 2079.38378906 596.28710938 C2087.69878318 584.5920778 2096.34611564 573.16698124 2105.07373047 561.77783203 C2107.27926912 558.88852066 2109.45463682 555.97831887 2111.625 553.0625 C2116.56904554 546.44842381 2121.68135092 539.96927618 2126.8125 533.5 C2127.47894531 532.65953125 2128.14539062 531.8190625 2128.83203125 530.953125 C2130.8173573 528.46206326 2132.81270431 525.9794645 2134.8125 523.5 C2135.51995361 522.62239014 2135.51995361 522.62239014 2136.24169922 521.72705078 C2142.39044411 514.10674588 2148.58337972 506.53209158 2154.93334961 499.07836914 C2157.72840559 495.79447116 2160.4732387 492.47587895 2163.1875 489.125 C2171.34716592 479.11152805 2179.8964891 469.42909296 2188.62109375 459.90625 C2190.52621809 457.81434877 2192.39689061 455.70036615 2194.25 453.5625 C2198.53397693 448.63642817 2202.96897045 443.84888693 2207.390625 439.046875 C2208.7427803 437.5758489 2210.09026969 436.10053795 2211.4375 434.625 C2222.86100034 422.11354725 2234.37763894 409.71544568 2246.5 397.875 C2248.32030663 396.0054959 2249.96572327 394.1303291 2251.625 392.125 C2254.41016881 388.82299574 2257.4788616 386.04558639 2260.78515625 383.2734375 C2263.24429068 381.12228715 2265.50968358 378.81814368 2267.8125 376.5 C2269.12118042 375.18346436 2269.12118042 375.18346436 2270.45629883 373.84033203 C2271.84884888 372.43823486 2271.84884888 372.43823486 2273.26953125 371.0078125 C2274.8473401 369.42261789 2276.42563633 367.83791034 2278.00415039 366.25341797 C2279.08025379 365.17228983 2280.15545744 364.09026533 2281.22973633 363.00732422 C2286.74035624 357.45361959 2292.2549797 351.96655786 2298.2097168 346.88232422 C2300.18038048 345.1827206 2302.00545979 343.37157736 2303.8125 341.5 C2306.89833999 338.37245947 2310.093743 335.46617743 2313.42578125 332.60546875 C2315.93248863 330.39415078 2318.36977893 328.12036949 2320.80639648 325.83251953 C2326.38796678 320.59188285 2332.05403624 315.59524633 2338.03515625 310.80859375 C2341.23694604 308.14719042 2344.27464542 305.34517976 2347.3125 302.5 C2352.01518295 298.10073815 2356.83949976 293.94775567 2361.86328125 289.9140625 C2365.43154893 286.9932818 2368.90239264 283.97078858 2372.375 280.9375 C2377.20355563 276.72880622 2382.07267957 272.60900034 2387.10546875 268.64453125 C2389.92289643 266.41254309 2392.7102064 264.14657861 2395.49511719 261.87426758 C2407.12397665 252.38633772 2418.92067179 243.12658332 2430.84228516 234.00927734 C2433.13088307 232.25610358 2435.41477308 230.49686181 2437.69921875 228.73828125 C2447.85567718 220.93809867 2458.1021037 213.32667242 2468.62304688 206.02587891 C2470.9600536 204.39716659 2473.28542921 202.75275807 2475.609375 201.10546875 C2486.3685655 193.49386888 2497.27347338 186.15624396 2508.37744141 179.05712891 C2510.73826864 177.54746818 2513.09380555 176.02980732 2515.44921875 174.51171875 C2527.10783095 167.03675993 2539.02952893 160.05104805 2551.01953125 153.12353516 C2553.56473109 151.64402651 2556.09791234 150.14689867 2558.625 148.63671875 C2566.01248356 144.22224687 2573.41822572 140.07707389 2581.1640625 136.30859375 C2583.71110076 135.06274478 2586.21726656 133.75962198 2588.7109375 132.41015625 C2628.54973873 110.86050572 2670.41622004 92.9802258 2714.71630859 83.18701172 C2729.90565916 79.81665748 2744.35974499 75.32845249 2758.9375 69.9375 C2810.66810487 50.81477363 2810.66810487 50.81477363 2829.49487305 58.27783203 C2838.71381521 63.13931149 2842.04953826 72.97958689 2845.28521729 82.2232666 C2846.62335391 86.03519596 2848.03596573 89.8194073 2849.4453125 93.60546875 C2849.72676117 94.36493805 2850.00820984 95.12440735 2850.29818726 95.90689087 C2854.47247786 107.07246047 2859.61604846 117.77985994 2864.8125 128.5 C2865.69017663 130.34762183 2866.56778264 132.19527721 2867.4453125 134.04296875 C2887.89811614 176.53866849 2915.81772633 216.39514815 2945.52099609 252.90869141 C2947.36219858 255.17730346 2949.18050253 257.46396471 2951 259.75 C2957.46190639 267.82073493 2964.0340908 275.79080192 2970.73022461 283.66772461 C2973.59059259 287.03793016 2976.40483985 290.43999462 2979.1875 293.875 C2984.35384032 300.2180157 2989.72967435 306.37340311 2995.10546875 312.53857422 C2996.81447532 314.50226969 2998.51759749 316.47090459 3000.21875 318.44140625 C3004.95229524 323.92264273 3009.68792615 329.39304644 3014.5625 334.75 C3017.53217972 338.02149835 3020.35589555 341.36969572 3023.125 344.8125 C3027.0176506 349.62906069 3031.14636642 354.15412708 3035.37695312 358.66992188 C3038.43415303 361.95185891 3041.32939519 365.30088342 3044.125 368.8125 C3048.57935623 374.36619461 3053.41698744 379.51355463 3058.3215332 384.66723633 C3062.01008137 388.547372 3065.58456213 392.49891992 3069.09326172 396.54223633 C3071.8463273 399.67725946 3074.70324376 402.71206568 3077.5625 405.75 C3081.99075047 410.47125729 3086.39244474 415.21343086 3090.75 420 C3094.15340813 423.72730495 3097.62078174 427.34483173 3101.22265625 430.87890625 C3102.89824421 432.5874296 3104.44735572 434.36677325 3106 436.1875 C3109.5542606 440.31942824 3113.38568745 444.13431015 3117.28588867 447.9362793 C3120.00791187 450.61109715 3122.57789746 453.35226683 3125.0625 456.25 C3129.39196722 461.25505441 3134.10041833 465.8582479 3138.8125 470.5 C3144.11316814 475.72155369 3149.34330344 480.92339431 3154.14453125 486.61328125 C3156.26806851 489.0153152 3158.53112821 491.24748766 3160.8125 493.5 C3161.69019043 494.37245361 3162.56788086 495.24490723 3163.47216797 496.14379883 C3164.87426514 497.53634888 3164.87426514 497.53634888 3166.3046875 498.95703125 C3167.88988211 500.5348401 3169.47458966 502.11313633 3171.05908203 503.69165039 C3172.14021017 504.76775379 3173.22223467 505.84295744 3174.30517578 506.91723633 C3184.48764474 517.02071138 3184.48764474 517.02071138 3188.2890625 521.48046875 C3193.27307799 527.31782872 3198.85556204 532.60986222 3204.3125 538 C3216.62210051 550.15891464 3216.62210051 550.15891464 3221.97460938 556.43945312 C3226.19306493 561.16896493 3230.80233281 565.55029467 3235.3125 570 C3246.50110869 581.03861776 3246.50110869 581.03861776 3250.25 585.4375 C3255.24881426 591.28845306 3260.84138802 596.59586171 3266.3125 602 C3278.5637222 614.10125096 3278.5637222 614.10125096 3283.91210938 620.37695312 C3288.4719442 625.47103375 3293.44965271 630.19668043 3298.3125 635 C3310.59291135 647.1300828 3310.59291135 647.1300828 3315.94335938 653.40820312 C3320.33239377 658.32006921 3325.12601886 662.87349211 3329.8125 667.5 C3341.61893618 679.15534833 3341.61893618 679.15534833 3347.01953125 685.484375 C3350.90691386 689.85450447 3355.14903022 693.89541947 3359.3125 698 C3364.75371635 703.36425431 3370.08960842 708.7210717 3375.06054688 714.52539062 C3378.4622187 718.35938195 3382.15918499 721.90798222 3385.8125 725.5 C3390.7723035 730.37658532 3395.56759344 735.29070492 3400.1015625 740.56640625 C3403.01900712 743.86351831 3406.17036592 746.91898754 3409.3125 750 C3413.70165859 754.34231819 3417.96449156 758.69070501 3421.9453125 763.4140625 C3425.15736928 767.00242719 3428.62941491 770.3358021 3432.05297852 773.72094727 C3435.51669091 777.16068587 3438.78390035 780.68571662 3441.94140625 784.41015625 C3444.95193896 787.77265103 3448.19375164 790.90111968 3451.40380859 794.07177734 C3454.80368914 797.44600648 3458.0002847 800.92506085 3461.10546875 804.57421875 C3463.803497 807.61798975 3466.73047733 810.4258425 3469.625 813.28125 C3472.21446881 815.90771122 3474.60086964 818.66976458 3477 821.46875 C3479.73904841 824.53837322 3482.6893364 827.38528608 3485.6171875 830.2734375 C3488.25256743 832.94633174 3490.69016489 835.75368303 3493.1328125 838.6015625 C3495.30536935 841.05705699 3497.63093603 843.33128437 3499.97021484 845.62646484 C3501.742899 847.42921838 3503.3994598 849.28590002 3505.046875 851.203125 C3508.776221 855.49226712 3512.65020991 859.62806338 3516.5625 863.75 C3523.0450916 870.60887009 3529.45503975 877.52512328 3535.8125 884.5 C3537.6444867 886.50123556 3539.4785076 888.50060261 3541.3125 890.5 C3542.22920349 891.49996625 3543.14587022 892.49996619 3544.0625 893.5 C3544.51625 893.995 3544.97 894.49 3545.4375 895 C3546.8125 896.5 3548.1875 898 3549.5625 899.5 C3550.01657227 899.99532227 3550.47064453 900.49064453 3550.93847656 901.00097656 C3551.85200603 901.99761319 3552.76541815 902.99435741 3553.67871094 903.99121094 C3556.01740938 906.54358061 3558.35832914 909.0938548 3560.703125 911.640625 C3565.17496169 916.50131705 3569.6114521 921.38340627 3573.9375 926.375 C3576.35800108 929.11823456 3578.8345241 931.80882906 3581.3125 934.5 C3584.93340134 938.43284841 3588.50208925 942.40214012 3592.00390625 946.44140625 C3594.2426125 948.9895665 3596.52660212 951.49410593 3598.8125 954 C3603.80938978 959.48457422 3608.71563066 965.03268831 3613.5234375 970.68359375 C3618.42600304 976.43972024 3623.35310674 982.14770024 3628.5 987.6875 C3632.72326845 992.23453987 3636.67578724 996.95135687 3640.56640625 1001.78515625 C3642.9008059 1004.60673495 3645.33240598 1007.30590712 3647.8125 1010 C3651.92628909 1014.4698512 3655.78337297 1019.09044893 3659.59765625 1023.81640625 C3661.76882827 1026.44708557 3664.01491357 1028.97942424 3666.3125 1031.5 C3670.13420863 1035.69729034 3673.72724189 1040.03710231 3677.296875 1044.44921875 C3680.24175361 1048.02056998 3683.26979425 1051.51203094 3686.3125 1055 C3691.60262321 1061.07037062 3696.75102492 1067.23701589 3701.8125 1073.5 C3703.20701705 1075.20940799 3704.60289228 1076.91770873 3706 1078.625 C3706.73605469 1079.52476563 3707.47210938 1080.42453125 3708.23046875 1081.3515625 C3711.41692301 1085.24059231 3714.61532654 1089.11978243 3717.8125 1093 C3723.15887927 1099.48940316 3728.4983477 1105.98415497 3733.8125 1112.5 C3734.53687256 1113.38655273 3734.53687256 1113.38655273 3735.27587891 1114.29101562 C3742.43179006 1123.05155896 3749.50745162 1131.86705638 3756.46972656 1140.78222656 C3758.74483948 1143.69271647 3761.02923698 1146.59590285 3763.3125 1149.5 C3764.22788617 1150.66534762 3765.14325076 1151.8307122 3766.05859375 1152.99609375 C3767.90313996 1155.34387673 3769.74968056 1157.69007187 3771.59765625 1160.03515625 C3777.72512338 1167.81447833 3783.79344252 1175.63646289 3789.8125 1183.5 C3790.52696289 1184.43271729 3790.52696289 1184.43271729 3791.25585938 1185.38427734 C3794.50785586 1189.63017315 3797.7556504 1193.87925968 3801.00146484 1198.12988281 C3802.90157531 1200.61657362 3804.8042983 1203.10125291 3806.70703125 1205.5859375 C3814.94392679 1216.35433762 3823.06587493 1227.1981041 3831.07714844 1238.13525391 C3832.86140915 1240.56664801 3834.65233672 1242.99299536 3836.4453125 1245.41796875 C3842.0376543 1252.9829285 3847.61099888 1260.55769512 3853.05786133 1268.22827148 C3855.87306392 1272.19246622 3858.71889923 1276.13329845 3861.57568359 1280.06762695 C3866.6827702 1287.1056957 3871.71125844 1294.18624242 3876.61083984 1301.37036133 C3878.94546557 1304.79142565 3881.29694062 1308.19745835 3883.6953125 1311.57421875 C3894.78687328 1327.20983749 3905.3386759 1343.2046933 3915.94203186 1359.173172 C3919.40913767 1364.3933919 3922.88656175 1369.60651424 3926.375 1374.8125 C3936.10895838 1389.34496412 3945.6953383 1403.95479556 3955.05761719 1418.73095703 C3956.69310091 1421.31159926 3958.33402319 1423.88868884 3959.9765625 1426.46484375 C3967.10159058 1437.66314266 3974.01746183 1448.9838781 3980.89257812 1460.33691406 C3982.90564639 1463.65345939 3984.92848262 1466.963954 3986.953125 1470.2734375 C3995.89303096 1484.90013902 4004.61133951 1499.63535944 4013.11181641 1514.5234375 C4014.69819278 1517.29993775 4016.29110224 1520.07255253 4017.88671875 1522.84375 C4029.60260838 1543.21988547 4040.96726364 1563.79795125 4052.16546631 1584.46261597 C4053.2428956 1586.44956168 4054.32181538 1588.43570008 4055.40240479 1590.42092896 C4065.67750023 1609.31581021 4075.44207051 1628.44312472 4085.03808594 1647.69042969 C4087.0368696 1651.69939827 4089.04291395 1655.70468339 4091.0508461 1659.70907593 C4100.11006784 1677.7835419 4108.96279155 1695.92100189 4117.35675049 1714.3157959 C4118.79250963 1717.45627448 4120.24073961 1720.59069552 4121.69287109 1723.72363281 C4128.05170442 1737.46729587 4134.12624558 1751.31915418 4140.0625 1765.25 C4140.73881973 1766.83423264 4140.73881973 1766.83423264 4141.42880249 1768.45046997 C4144.15373306 1774.83372316 4146.87160605 1781.2199409 4149.58416748 1787.60845947 C4150.71209407 1790.26364069 4151.84222516 1792.91786982 4152.97314453 1795.57177734 C4162.84892895 1818.76993673 4172.01536773 1842.20778673 4180.81829834 1865.83312988 C4181.79404371 1868.4504924 4182.77303778 1871.06662174 4183.75244141 1873.68261719 C4219.23944607 1968.63924651 4247.41252198 2066.34017859 4303.8125 2481.5 C4303.83334656 2482.34415466 4303.85419312 2483.18830933 4303.87567139 2484.05804443 C4304.51068317 2509.86709785 4305.13850631 2535.68219918 4304.8125 2561.5 C4304.7995993 2562.57220795 4304.7995993 2562.57220795 4304.78643799 2563.66607666 C4303.51613592 2665.61815098 4293.3419188 2767.41829042 4269.8125 2900.5 C4269.53886627 2901.91907654 4269.53886627 2901.91907654 4269.25970459 2903.36682129 C4256.12848814 2971.28238964 4239.26924132 3038.42301373 4218.8125 3104.5 C4218.36454071 3105.94798981 4218.36454071 3105.94798981 4217.90753174 3107.42523193 C4201.12817473 3161.56999663 4182.31883409 3215.04564502 4160.8125 3267.5 C4160.5267511 3268.19804749 4160.2410022 3268.89609497 4159.94659424 3269.61529541 C4151.81064963 3289.48162319 4143.42274021 3309.20398599 4134.52197266 3328.74121094 C4132.98617306 3332.11354804 4131.46220224 3335.49113014 4129.94052124 3338.86985779 C4128.61837927 3341.80469712 4127.29313539 3344.73812951 4125.96728516 3347.67129517 C4125.33800752 3349.06427872 4124.70954565 3350.45763117 4124.08203125 3351.85140991 C4119.90818118 3361.11456045 4115.5027365 3370.23226539 4110.92007446 3379.29953003 C4108.8816018 3383.34945898 4106.87331629 3387.41439661 4104.859375 3391.4765625 C4096.19440516 3408.92021544 4087.52669717 3426.31574698 4078.01660156 3443.31787109 C4076.46683583 3446.12642869 4074.98590901 3448.96795569 4073.5078125 3451.81469727 C4069.0286924 3460.43679912 4064.18194451 3468.8198768 4059.25756836 3477.19458008 C4055.09616337 3484.276073 4051.02213955 3491.40108616 4047 3498.5625 C4038.98266425 3512.8036161 4030.50107818 3526.68714964 4021.72851562 3540.47436523 C4020.22572398 3542.84746626 4018.73079678 3545.22494226 4017.24023438 3547.60571289 C4010.23391282 3558.77867123 4003.04076283 3569.81418208 3995.71337891 3580.77905273 C3993.94218074 3583.43049305 3992.17594562 3586.08518975 3990.41015625 3588.74023438 C3970.8964023 3618.02284417 3950.38803177 3646.69869289 3928.8125 3674.5 C3927.58071789 3676.10265188 3926.35127179 3677.70707877 3925.12182617 3679.31152344 C3916.52779006 3690.5189408 3907.79220374 3701.59838125 3898.8125 3712.5 C3897.35405659 3714.29157706 3895.89572483 3716.08324502 3894.4375 3717.875 C3890.64443 3722.51391139 3886.78517593 3727.09250666 3882.90332031 3731.65698242 C3879.95315907 3735.13204115 3877.05600085 3738.64435174 3874.1875 3742.1875 C3870.56415505 3746.63903808 3866.79286128 3750.92382455 3862.9296875 3755.16796875 C3861.03198831 3757.25823889 3859.16516585 3759.36986115 3857.3125 3761.5 C3853.91755061 3765.39790485 3850.45584116 3769.23347057 3846.9921875 3773.0703125 C3845.12104906 3775.1560618 3843.27325169 3777.25817628 3841.4375 3779.375 C3837.13930437 3784.30703093 3832.69646789 3789.10604161 3828.26513672 3793.91796875 C3826.81895626 3795.49296865 3825.37922628 3797.0736171 3823.94140625 3798.65625 C3819.32237722 3803.73399639 3814.64889161 3808.71884547 3809.74989319 3813.53016663 C3808.00583989 3815.30342278 3806.39257159 3817.11966934 3804.78686523 3819.01733398 C3799.94193709 3824.5880611 3794.69574411 3829.76104932 3789.47265625 3834.97265625 C3788.38066809 3836.06531989 3787.28882825 3837.15813178 3786.1971283 3838.25108337 C3783.92022878 3840.52944838 3781.64155347 3842.80601783 3779.36157227 3845.08129883 C3776.45907559 3847.97809895 3773.56109294 3850.8793668 3770.66443729 3853.78200626 C3768.4141457 3856.03593465 3766.16144908 3858.28744726 3763.90804863 3860.53826714 C3762.83934872 3861.60630638 3761.77137326 3862.67507108 3760.70417976 3863.74461555 C3755.42084761 3869.03703408 3750.12190113 3874.26319323 3744.4216156 3879.11106873 C3742.09364389 3881.12049099 3739.95685535 3883.2976891 3737.8125 3885.5 C3734.36813057 3888.98090062 3730.85925105 3892.27503619 3727.140625 3895.45703125 C3723.9698247 3898.23946172 3720.89556864 3901.12106517 3717.8125 3904 C3712.39389676 3909.04999077 3706.91473081 3913.99595664 3701.28222656 3918.80712891 C3699.50029854 3920.32934067 3697.71881399 3921.85206974 3695.9375 3923.375 C3695.32865967 3923.89497559 3694.71981934 3924.41495117 3694.0925293 3924.95068359 C3690.55549739 3927.97944776 3687.06823515 3931.05179463 3683.625 3934.1875 C3679.43880699 3937.98507249 3675.11230986 3941.57065944 3670.71875 3945.125 C3668.15901891 3947.21682325 3665.63558724 3949.34166368 3663.12255859 3951.48876953 C3656.4085738 3957.22485224 3649.53275733 3962.71957736 3642.56103516 3968.13818359 C3640.28887442 3969.90781674 3638.02646805 3971.6896578 3635.7644043 3973.47216797 C3633.42379946 3975.3155076 3631.07910745 3977.15361435 3628.734375 3978.99169922 C3627.40002434 3980.03890684 3626.06676776 3981.08750945 3624.734375 3982.13720703 C3614.35603811 3990.31061398 3603.82405066 3998.20878376 3593.07128906 4005.88232422 C3590.78794304 4007.51758694 3588.5137618 4009.16483697 3586.2421875 4010.81640625 C3560.78045235 4029.32609455 3534.58007439 4046.93285677 3507.8125 4063.5 C3506.16121094 4064.52867188 3506.16121094 4064.52867188 3504.4765625 4065.578125 C3501.2648911 4067.56822869 3498.04155487 4069.53830962 3494.8125 4071.5 C3494.13799805 4071.91121094 3493.46349609 4072.32242188 3492.76855469 4072.74609375 C3484.46023804 4077.80364865 3476.11281662 4082.78298587 3467.65234375 4087.58203125 C3467.03538132 4087.9323642 3466.41841888 4088.28269714 3465.78276062 4088.64364624 C3462.73694486 4090.37167897 3459.68763922 4092.09307174 3456.63256836 4093.8046875 C3443.53637956 4101.04716428 3443.53637956 4101.04716428 3432.375 4110.875 C3431.75753906 4111.54273437 3431.14007813 4112.21046875 3430.50390625 4112.8984375 C3426.45923779 4119.11956728 3425.3044571 4125.69203201 3425.4375 4133 C3425.44837646 4134.26191162 3425.44837646 4134.26191162 3425.45947266 4135.54931641 C3425.65169409 4145.03502631 3426.6592075 4154.46059102 3427.57969666 4163.89689636 C3428.58388819 4174.31583401 3429.34634219 4184.73099417 3429.89453125 4195.18359375 C3429.93721823 4195.99033854 3429.9799052 4196.79708332 3430.02388573 4197.62827492 C3430.95706219 4215.64561571 3431.17063248 4233.64466677 3431.13035583 4251.68333054 C3431.12488356 4254.24194232 3431.12253837 4256.80054476 3431.1204834 4259.35916138 C3431.08453971 4288.1589425 3430.22785926 4316.79002923 3427.8125 4345.5 C3427.73988953 4346.38727783 3427.66727905 4347.27455566 3427.59246826 4348.1887207 C3424.66587045 4383.91763642 3419.91442485 4419.55533425 3411.8125 4454.5 C3411.57883728 4455.5116925 3411.57883728 4455.5116925 3411.3404541 4456.54382324 C3395.10341805 4526.63833007 3368.11891492 4592.97799726 3330.8125 4654.5 C3330.36277832 4655.24217773 3329.91305664 4655.98435547 3329.44970703 4656.74902344 C3323.2602295 4666.9156094 3316.65663952 4676.76400569 3309.8125 4686.5 C3309.39500488 4687.09522461 3308.97750977 4687.69044922 3308.54736328 4688.30371094 C3295.01112114 4707.55835763 3280.51101774 4725.96163079 3265.22021484 4743.84960938 C3263.71067212 4745.61938198 3262.20867027 4747.39539278 3260.70703125 4749.171875 C3251.54452957 4759.97965561 3251.54452957 4759.97965561 3246.49256897 4764.81898499 C3244.79427289 4766.51823738 3243.2427438 4768.28626663 3241.68530273 4770.11499023 C3237.54385219 4774.87634397 3233.12637822 4779.33004449 3228.66015625 4783.78515625 C3227.37171059 4785.075037 3227.37171059 4785.075037 3226.05723572 4786.39097595 C3224.25072985 4788.19815861 3222.44297538 4790.00409392 3220.6340332 4791.80883789 C3217.8831319 4794.55438393 3215.13760779 4797.30522546 3212.39257812 4800.05664062 C3210.62792468 4801.8206332 3208.86296103 4803.5843155 3207.09765625 4805.34765625 C3206.28595474 4806.16138199 3205.47425323 4806.97510773 3204.63795471 4807.81349182 C3200.39363464 4812.04060738 3196.07838897 4816.11938896 3191.53094482 4820.01966858 C3188.95630175 4822.23756059 3186.48658206 4824.55882706 3184 4826.875 C3179.27618656 4831.24360555 3174.39664388 4835.35918263 3169.3828125 4839.39453125 C3167.02313516 4841.32745843 3164.75598849 4843.32296619 3162.5 4845.375 C3158.30294868 4849.14788124 3153.90106897 4852.62830928 3149.44677734 4856.08813477 C3145.61421098 4859.06930143 3141.83716955 4862.10668811 3138.09033203 4865.19482422 C3128.60011223 4873.00627719 3118.77751828 4880.30793103 3108.8125 4887.5 C3108.16361816 4887.97163574 3107.51473633 4888.44327148 3106.84619141 4888.92919922 C3079.4966711 4908.77467243 3050.92047233 4927.26741705 3021.703125 4944.2265625 C3019.07088472 4945.75610753 3016.45860662 4947.31344611 3013.859375 4948.8984375 C3007.21336939 4952.95090028 3000.57166728 4956.71384986 2993.55859375 4960.11328125 C2990.96774223 4961.42160599 2988.52745162 4962.84517146 2986.0625 4964.375 C2979.97881631 4968.10029365 2973.58870724 4971.18265878 2967.19335938 4974.32568359 C2962.72314848 4976.53053536 2958.26928041 4978.76816265 2953.8125 4981 C2951.91673131 4981.94804594 2950.02089891 4982.89596449 2948.125 4983.84375 C2947.2175 4984.2975 2946.31 4984.75125 2945.375 4985.21875 C2943.125 4986.34375 2940.875 4987.46875 2938.625 4988.59375 C2937.98957275 4988.91158447 2937.35414551 4989.22941895 2936.69946289 4989.55688477 C2935.43080936 4990.19096532 2934.16175942 4990.82425332 2932.89233398 4991.45678711 C2929.28438542 4993.25603954 2925.68666998 4995.07339595 2922.09765625 4996.91015625 C2907.51522745 5004.33657382 2892.66465158 5011.10481838 2877.74565125 5017.81881714 C2872.69313539 5020.095052 2867.66232492 5022.41553108 2862.63745117 5024.75219727 C2796.02938077 5055.64715136 2726.55942038 5080.720685 2656.8125 5103.5 C2655.58167694 5103.90285217 2655.58167694 5103.90285217 2654.32598877 5104.31384277 C2589.65578323 5125.46856458 2523.96988834 5142.69567045 2457.8125 5158.5 C2457.5991052 5160.73206684 2457.5991052 5160.73206684 2459.6875 5162.75 C2463.54699566 5166.43796252 2468.21143503 5168.85619434 2472.8125 5171.5 C2496.15074987 5185.11397909 2518.27166533 5200.91801103 2538.23046875 5219.1640625 C2540.33678031 5221.06962122 2542.46809891 5222.93254332 2544.6171875 5224.7890625 C2548.81752679 5228.45840345 2552.80914415 5232.30481882 2556.75 5236.25 C2557.44802734 5236.94810791 2558.14605469 5237.64621582 2558.86523438 5238.36547852 C2563.51665421 5243.06828031 2567.80600755 5247.8803536 2571.890625 5253.0859375 C2573.69341144 5255.35041315 2575.5873792 5257.44863104 2577.5625 5259.5625 C2636.82502409 5325.76250211 2659.07055651 5424.712202 2654.3059082 5511.36889648 C2650.44538049 5576.00353464 2633.28723728 5641.17141389 2602.8125 5698.5 C2602.34763184 5699.38574707 2601.88276367 5700.27149414 2601.40380859 5701.18408203 C2591.43904296 5720.13630578 2580.62314384 5738.32806655 2567.8125 5755.5 C2567.40821777 5756.04317871 2567.00393555 5756.58635742 2566.58740234 5757.14599609 C2554.67531847 5773.07126716 2541.54333823 5787.95668839 2527.48388672 5802.01391602 C2525.9407647 5803.55923066 2524.40585694 5805.11240446 2522.87109375 5806.66601562 C2516.51079601 5813.06225945 2509.89723527 5818.90022862 2502.8125 5824.5 C2501.58077957 5825.51252635 2500.35127122 5826.5277559 2499.125 5827.546875 C2483.99562547 5839.95605936 2467.66263302 5850.5877008 2450.8125 5860.5 C2449.82999268 5861.07911133 2449.82999268 5861.07911133 2448.82763672 5861.66992188 C2378.89373949 5902.60510696 2295.07887713 5921.94419926 2184.8125 5935.25 C2183.74863068 5935.33888489 2183.74863068 5935.33888489 2182.66326904 5935.42956543 C2160.8322043 5937.21802385 2138.98686077 5937.7202344 2117.09326172 5938.03222656 C2113.55237055 5938.08343609 2110.01154071 5938.13859035 2106.47070312 5938.19335938 C2099.58468897 5938.29931622 2092.69861885 5938.40108637 2085.8125 5938.5 C2088.31188427 5942.63328016 2090.25013397 5945.21541161 2094.55859375 5947.4296875 C2095.47165283 5947.91066895 2096.38471191 5948.39165039 2097.32543945 5948.88720703 C2098.29054443 5949.37817871 2099.25564941 5949.86915039 2100.25 5950.375 C2102.25397566 5951.42968984 2104.25658916 5952.48697205 2106.2578125 5953.546875 C2107.22106445 5954.05412109 2108.18431641 5954.56136719 2109.17675781 5955.08398438 C2113.44608794 5957.37762227 2117.52039735 5959.92940277 2121.62109375 5962.51171875 C2125.43748972 5964.88937548 2129.30680841 5967.16684579 2133.1875 5969.4375 C2140.40968758 5973.66864815 2147.59700646 5977.95389141 2154.76806641 5982.27099609 C2156.9726034 5983.59624558 2159.17944645 5984.91759283 2161.38671875 5986.23828125 C2195.04450104 6006.38351861 2228.44552919 6026.9567714 2261.5871582 6047.94018555 C2266.98373512 6051.35416031 2272.39748724 6054.73982822 2277.81689453 6058.11743164 C2286.40979386 6063.47337195 2294.98026025 6068.85518041 2303.46386719 6074.3828125 C2307.22606329 6076.83244804 2311.00108984 6079.25891201 2314.796875 6081.65625 C2326.28842138 6088.91501345 2337.65442331 6096.33340076 2348.92333984 6103.93188477 C2354.65866361 6107.78597674 2360.43456744 6111.52922954 2366.3125 6115.16015625 C2376.37329695 6121.39072115 2386.14305153 6128.0493669 2395.9375 6134.6875 C2397.86484938 6135.99068685 2399.79234064 6137.29366391 2401.7199707 6138.59643555 C2411.16133765 6144.9803031 2420.59070632 6151.38144761 2430 6157.8125 C2433.26937253 6160.04381672 2436.54049595 6162.27254429 2439.8125 6164.5 C2441.3289209 6165.53398926 2441.3289209 6165.53398926 2442.87597656 6166.58886719 C2446.12041504 6168.79625276 2449.37185685 6170.99296831 2452.625 6173.1875 C2453.61072998 6173.86014893 2454.59645996 6174.53279785 2455.61206055 6175.22583008 C2466.12539002 6182.29853382 2466.12539002 6182.29853382 2478.25 6185.375 C2479.07371094 6185.45492187 2479.89742187 6185.53484375 2480.74609375 6185.6171875 C2490.18724878 6185.25637903 2499.02476319 6181.9126503 2507.8973999 6178.93286133 C2555.09274344 6163.14116515 2609.09791262 6154.22158192 2655.85644531 6176.47265625 C2666.00220489 6181.53831314 2674.51161286 6187.81690554 2682.8125 6195.5 C2683.61042969 6196.21671875 2684.40835938 6196.9334375 2685.23046875 6197.671875 C2731.17588318 6240.93375195 2738.7993285 6316.56451915 2740.6640625 6375.71875 C2740.98083811 6388.36122763 2740.80713059 6400.9390913 2740.0625 6413.5625 C2740.01993073 6414.29066925 2739.97736145 6415.0188385 2739.9335022 6415.76907349 C2735.1801605 6494.84681003 2710.5230015 6574.61293393 2673.04296875 6644.3203125 C2671.23865032 6647.67686994 2669.53366453 6651.06860805 2667.875 6654.5 C2649.5177913 6691.41782138 2625.18387865 6726.09218511 2599.8125 6758.5 C2598.89709343 6759.67444644 2597.98173018 6760.84892665 2597.06640625 6762.0234375 C2585.24673471 6777.15885848 2573.01090236 6791.91761829 2560.02734375 6806.0703125 C2558.17243183 6808.10515415 2556.35821202 6810.16321247 2554.5625 6812.25 C2543.17445777 6825.29514726 2530.93169637 6837.53977236 2518.67871094 6849.76416016 C2515.91744716 6852.52001355 2513.1616364 6855.28124028 2510.40625 6858.04296875 C2508.62792508 6859.82063359 2506.84929037 6861.59798859 2505.0703125 6863.375 C2504.25869659 6864.18864014 2503.44708069 6865.00228027 2502.61087036 6865.84057617 C2498.37106139 6870.06314186 2494.0533279 6874.12592686 2489.51828003 6878.0300293 C2487.56806839 6879.71064105 2485.68115726 6881.44811383 2483.8125 6883.21875 C2483.1525 6883.84136719 2482.4925 6884.46398438 2481.8125 6885.10546875 C2481.1525 6885.73066406 2480.4925 6886.35585938 2479.8125 6887 C2474.58001286 6891.9565552 2469.27107938 6896.79312585 2463.8125 6901.5 C2463.2462793 6901.98839355 2462.68005859 6902.47678711 2462.09667969 6902.97998047 C2460.46263641 6904.38525769 2458.82574268 6905.78712127 2457.1875 6907.1875 C2453.5462043 6910.30023641 2449.90661282 6913.41435455 2446.2890625 6916.5546875 C2438.93376865 6922.92782964 2431.43212822 6929.05356749 2423.734375 6935.0078125 C2421.66986141 6936.61074785 2419.61567524 6938.22632058 2417.5625 6939.84375 C2402.78783199 6951.45924874 2387.62714803 6962.37517077 2372 6972.8125 C2371.43999298 6973.18709351 2370.87998596 6973.56168701 2370.30300903 6973.94763184 C2356.78171309 6982.97722104 2342.88925359 6991.36989276 2328.8125 6999.5 C2327.77512695 7000.09917236 2327.77512695 7000.09917236 2326.71679688 7000.71044922 C2315.05316027 7007.4063422 2303.09036945 7013.45723726 2291.0390625 7019.421875 C2290.01458008 7019.93169922 2288.99009766 7020.44152344 2287.93457031 7020.96679688 C2285.79856642 7022.01575718 2283.65135581 7023.04211795 2281.49511719 7024.04882812 C2280.43196289 7024.55349609 2279.36880859 7025.05816406 2278.2734375 7025.578125 C2277.32001465 7026.0205957 2276.3665918 7026.46306641 2275.38427734 7026.91894531 C2270.0458734 7030.2008424 2268.10131871 7034.51768551 2266.51416016 7040.31835938 C2265.13772409 7046.55973545 2264.26980593 7052.88177439 2263.36575317 7059.20587158 C2254.72682517 7119.29705824 2238.93107718 7177.78585232 2214.8125 7233.5 C2214.08377686 7235.19068604 2214.08377686 7235.19068604 2213.34033203 7236.91552734 C2197.49115955 7273.54390223 2179.87553796 7309.71906197 2159.32910156 7343.95898438 C2157.92559494 7346.31051317 2156.5465943 7348.67393319 2155.1796875 7351.046875 C2128.76998115 7396.8338381 2096.48462106 7440.01218946 2060.96484375 7479.12890625 C2059.47011439 7480.77555003 2057.98370285 7482.42976736 2056.50390625 7484.08984375 C2052.60625818 7488.46073071 2048.65105406 7492.70633986 2044.47265625 7496.80859375 C2042.77236377 7498.54089174 2041.19916988 7500.34022113 2039.625 7502.1875 C2032.90387234 7509.96826491 2025.4975922 7517.19781408 2017.671875 7523.859375 C2015.62949172 7525.66147789 2013.72348289 7527.55938947 2011.8125 7529.5 C2007.97695447 7533.3799727 2003.96005921 7536.95857014 1999.8125 7540.5 C1998.75885615 7541.40594952 1997.70549323 7542.31222583 1996.65234375 7543.21875 C1994.25032087 7545.28493701 1991.84355569 7547.34542344 1989.43359375 7549.40234375 C1987.18639524 7551.32062602 1984.94902713 7553.24900757 1982.72265625 7555.19140625 C1973.94648194 7562.80083055 1964.68701928 7569.72204298 1955.34716797 7576.62109375 C1952.9731638 7578.38090266 1950.61175282 7580.1561302 1948.25390625 7581.9375 C1874.34971902 7637.51048748 1788.51499923 7677.07825474 1506.8125 7736.5 C1505.78431152 7736.55639648 1504.75612305 7736.61279297 1503.69677734 7736.67089844 C1422.67273061 7741.08587954 1341.15606774 7732.46739608 1217.8125 7698.5 C1217.13548035 7698.28277283 1216.45846069 7698.06554565 1215.76092529 7697.84173584 C1181.78150823 7686.9250565 1148.89807068 7673.09273271 1116.8125 7657.5 C1115.68038086 7656.9524707 1114.54826172 7656.40494141 1113.38183594 7655.84082031 C1097.85052961 7648.30113401 1082.73101718 7640.18524093 1067.8125 7631.5 C1066.8951709 7630.96906738 1065.9778418 7630.43813477 1065.03271484 7629.89111328 C1025.24968022 7606.83447877 987.65027548 7580.39452097 952.63964844 7550.57519531 C949.32684125 7547.75882059 945.96577194 7545.01964814 942.5625 7542.3125 C936.03729222 7537.00660112 930.00797446 7531.18076659 923.91796875 7525.38671875 C920.72207696 7522.34782324 917.47398371 7519.37854308 914.1875 7516.4375 C907.94650093 7510.74487323 901.97895855 7504.77726705 896 7498.8125 C895.49950134 7498.31458954 894.99900269 7497.81667908 894.4833374 7497.30368042 C889.2751033 7492.1167066 884.1587786 7486.89352807 879.37524414 7481.30786133 C876.81902411 7478.35069692 874.11917502 7475.53042016 871.4375 7472.6875 C866.80779433 7467.7403929 862.40935195 7462.68452328 858.17578125 7457.390625 C855.89794843 7454.60451544 853.54851673 7451.90310974 851.16796875 7449.20532227 C844.46842497 7441.60263449 838.33775546 7433.7045437 832.33496094 7425.54589844 C830.27939815 7422.78361233 828.1692385 7420.06539681 826.05908203 7417.34472656 C809.59870096 7396.08154235 794.60290662 7373.57957865 780.8125 7350.5 C780.43851074 7349.87528809 780.06452148 7349.25057617 779.67919922 7348.60693359 C776.68437509 7343.59388459 773.73334436 7338.55649099 770.8125 7333.5 C770.43432129 7332.84563965 770.05614258 7332.1912793 769.66650391 7331.51708984 C729.48084747 7261.53952882 701.30076231 7185.77161397 664.8125 6973.5 C664.75465332 6972.45279785 664.69680664 6971.4055957 664.63720703 6970.32666016 C660.55787399 6892.21409013 668.70139927 6814.31635838 687.8125 6738.5 C688.0748645 6737.45181091 688.0748645 6737.45181091 688.3425293 6736.38244629 C697.25105971 6700.85522701 708.94817422 6666.1147546 722.40673828 6632.06738281 C724.57754405 6626.5585579 726.69575657 6621.02980972 728.8125 6615.5 C725.03913985 6615.9831358 722.32494336 6616.4196081 719.32421875 6618.80078125 C718.40201538 6619.51524414 718.40201538 6619.51524414 717.46118164 6620.24414062 C716.8139917 6620.76169922 716.16680176 6621.27925781 715.5 6621.8125 C714.07717357 6622.91489685 712.65263893 6624.01509188 711.2265625 6625.11328125 C710.49727539 6625.67740723 709.76798828 6626.2415332 709.01660156 6626.82275391 C705.53337803 6629.47336818 701.96052802 6631.99037944 698.375 6634.5 C697.31756592 6635.2422583 697.31756592 6635.2422583 696.23876953 6635.99951172 C694.8094775 6637.00193574 693.37962736 6638.00356446 691.94921875 6639.00439453 C681.01868237 6646.65527043 670.14997882 6654.38790998 659.34765625 6662.21875 C656.34258611 6664.39673068 653.32947522 6666.56275732 650.30859375 6668.71875 C638.82324462 6676.93058757 627.68340537 6685.53443783 616.58007812 6694.25292969 C597.13117969 6709.48533431 577.26462434 6722.23506009 551.8125 6723.5 C550.8740625 6723.55285156 549.935625 6723.60570313 548.96875 6723.66015625 C542.32659193 6723.8530472 536.13926547 6723.14228696 529.625 6722 C502.45973193 6717.35884803 482.36024064 6724.56927874 459.9375 6740 C457.56876786 6741.60571111 455.19473687 6743.20350308 452.8203125 6744.80078125 C451.93318573 6745.39872246 451.93318573 6745.39872246 451.02813721 6746.00874329 C432.8817507 6758.21631523 414.05553315 6769.12408224 394.8125 6779.5 C393.81863281 6780.03753906 392.82476563 6780.57507812 391.80078125 6781.12890625 C304.03847311 6828.38553371 202.13705615 6859.33497733 101.8125 6843.5 C100.68118652 6843.33371094 99.54987305 6843.16742188 98.38427734 6842.99609375 C18.93244078 6831.2270657 -61.83328027 6798.99991028 -130.1875 6757.5 C-131.03924805 6756.9858252 -131.89099609 6756.47165039 -132.76855469 6755.94189453 C-148.70295945 6746.27619658 -163.85743064 6735.42205112 -178.1875 6723.5 C-179.68603516 6722.26056641 -179.68603516 6722.26056641 -181.21484375 6720.99609375 C-191.97600929 6712.03331192 -202.19753492 6702.5635528 -212.125 6692.6875 C-212.73972168 6692.07745117 -213.35444336 6691.46740234 -213.98779297 6690.83886719 C-217.44829906 6687.36608645 -220.70603114 6683.80492893 -223.81201172 6680.01049805 C-228.55743151 6674.79929601 -233.56723921 6674.10024914 -240.2409668 6673.57617188 C-244.77177071 6673.45904446 -249.04356563 6674.19436439 -253.5 6674.9375 C-277.46335464 6678.38521359 -303.43117926 6678.26241517 -327.1875 6673.5 C-328.07711426 6673.32839355 -328.96672852 6673.15678711 -329.88330078 6672.97998047 C-348.43499088 6669.3296655 -366.4617204 6663.91254456 -383.37939453 6655.40039062 C-385.23965706 6654.47402711 -387.11495174 6653.58623653 -388.99609375 6652.703125 C-405.3415544 6644.93082891 -420.29521036 6635.06926192 -434.1875 6623.5 C-435.00226807 6622.82952637 -435.00226807 6622.82952637 -435.83349609 6622.14550781 C-444.22921168 6615.23080343 -452.29046795 6607.97735651 -460.1875 6600.5 C-460.93902344 6599.79101562 -461.69054688 6599.08203125 -462.46484375 6598.3515625 C-467.85589664 6593.12063989 -472.52718016 6587.38180601 -477.1875 6581.5 C-477.96996094 6580.54609375 -478.75242187 6579.5921875 -479.55859375 6578.609375 C-487.11553362 6569.17831405 -493.20224578 6558.98148381 -499.1875 6548.5 C-499.60418945 6547.77796387 -500.02087891 6547.05592773 -500.45019531 6546.31201172 C-538.69875082 6479.49548061 -545.99366052 6387.44407284 -535.1875 6312.5 C-535.09039734 6311.81238586 -534.99329468 6311.12477173 -534.89324951 6310.4163208 C-531.72993927 6288.07744165 -527.22094103 6266.23838931 -521.1875 6244.5 C-520.87586914 6243.37480957 -520.56423828 6242.24961914 -520.24316406 6241.09033203 C-508.18385585 6198.30850053 -489.37533942 6156.92127477 -467.1875 6118.5 C-466.57390625 6117.43410645 -465.9603125 6116.36821289 -465.328125 6115.27001953 C-456.00267464 6099.09353256 -446.40202876 6083.13555 -436.1875 6067.5 C-435.79272461 6066.89462402 -435.39794922 6066.28924805 -434.99121094 6065.66552734 C-432.75844823 6062.25270744 -430.4822299 6058.8713825 -428.1875 6055.5 C-427.80094238 6054.92717285 -427.41438477 6054.3543457 -427.01611328 6053.76416016 C-419.37679257 6042.44850871 -411.3431778 6031.44757495 -403.1875 6020.5 C-402.35267666 6019.3738372 -401.51801944 6018.24755122 -400.68359375 6017.12109375 C-384.35265945 5995.18096556 -366.87946139 5974.08301524 -348.39453125 5953.92578125 C-346.39491632 5951.72797439 -344.44031681 5949.50007914 -342.5 5947.25 C-339.79825143 5944.13697823 -336.94713054 5941.23531547 -334.00537109 5938.3503418 C-332.35949569 5936.67506786 -330.85008382 5934.95688627 -329.33984375 5933.16015625 C-324.22098156 5927.27502165 -318.65778808 5921.82121121 -313.13598633 5916.31811523 C-311.25421726 5914.44170525 -309.37785262 5912.56001031 -307.50195312 5910.67773438 C-302.12354482 5905.29634017 -296.76052573 5899.9609764 -290.96118164 5895.02856445 C-287.65610798 5892.18024151 -284.53491797 5889.13212558 -281.375 5886.125 C-275.9950143 5881.03936381 -270.54246212 5876.20921464 -264.75 5871.59765625 C-262.02603041 5869.36782139 -259.45414815 5867.02045882 -256.875 5864.625 C-252.24130877 5860.36094796 -247.42080014 5856.45349831 -242.44555664 5852.60375977 C-238.65998914 5849.6716844 -234.96542399 5846.6602985 -231.3125 5843.5625 C-224.1641107 5837.56921467 -216.71791716 5832.00225744 -209.1875 5826.5 C-208.49994629 5825.99678223 -207.81239258 5825.49356445 -207.10400391 5824.97509766 C-174.72941414 5801.39753861 -139.96540218 5785.55927032 -101.87109375 5773.62890625 C-96.90632701 5772.07040061 -92.03140259 5770.39968941 -87.1875 5768.5 C-87.73513104 5763.10794056 -89.68697317 5759.22534863 -92.125 5754.5 C-131.2466105 5675.08695054 -124.14340814 5572.31825989 -96.90625 5490.52734375 C-83.66471176 5451.95208498 -65.60960258 5414.56391316 -40.1875 5382.5 C-38.98287109 5380.97632812 -38.98287109 5380.97632812 -37.75390625 5379.421875 C-32.77939304 5373.24899553 -27.53680517 5367.34834019 -22.1875 5361.5 C-21.27661758 5360.48502623 -20.366491 5359.46937374 -19.45703125 5358.453125 C-14.92972671 5353.41738982 -10.38659152 5348.54252429 -5.18359375 5344.1875 C-2.94884444 5342.29824031 -0.82840806 5340.3073561 1.3125 5338.3125 C23.03030641 5318.78975519 50.77697916 5301.7221097 79.8125 5296.5 C70.13672618 5261.6898642 58.56860754 5227.6157445 41.83398438 5195.48730469 C40.68178975 5193.24570232 39.56555974 5190.98815487 38.453125 5188.7265625 C32.9023116 5177.45554467 27.01440447 5166.42590829 20.8125 5155.5 C19.9342086 5158.75767083 19.56054951 5161.92306923 19.26855469 5165.28564453 C14.96082785 5212.88500533 -13.54205858 5255.08006831 -49.1875 5285.5 C-78.19421349 5309.50682371 -110.1250283 5323.73446764 -146.8125 5331.375 C-178.4635686 5337.98510087 -208.28527956 5349.03704841 -237.4296875 5362.93359375 C-273.35268861 5380.0483665 -310.97238887 5392.72354313 -351.1875 5393.5 C-352.07083008 5393.52046387 -352.95416016 5393.54092773 -353.86425781 5393.56201172 C-367.7701036 5393.84291445 -381.40434705 5393.39402944 -395.1875 5391.5 C-396.07195801 5391.38172852 -396.95641602 5391.26345703 -397.86767578 5391.14160156 C-419.14940989 5388.18360987 -440.10728261 5382.50964424 -459.1875 5372.5 C-460.55912263 5371.81485614 -461.93155721 5371.131336 -463.3046875 5370.44921875 C-517.92925936 5342.89808602 -553.29474977 5293.42648954 -572.1875 5236.5 C-573.79483038 5231.50889711 -575.38164188 5226.51145733 -576.89331055 5221.49047852 C-578.22246341 5217.1489643 -579.47103989 5213.21101107 -582.1875 5209.5 C-584.7001274 5208.2436863 -586.36350035 5208.39957703 -589.17431641 5208.43408203 C-590.21786285 5208.44384064 -591.2614093 5208.45359924 -592.33657837 5208.46365356 C-593.47589813 5208.47822601 -594.6152179 5208.49279846 -595.7890625 5208.5078125 C-598.22525592 5208.52537517 -600.66145416 5208.54227878 -603.09765625 5208.55859375 C-606.91892141 5208.5891406 -610.73993867 5208.62410208 -614.56103516 5208.67138672 C-663.92517329 5209.24984732 -717.18344412 5199.38896703 -755.1875 5165.5 C-756.05890625 5164.736875 -756.9303125 5163.97375 -757.828125 5163.1875 C-773.04727153 5149.69987313 -784.9284185 5134.62102649 -794.1875 5116.5 C-794.68709229 5115.55133057 -794.68709229 5115.55133057 -795.19677734 5114.58349609 C-814.83051092 5077.06613767 -821.40990598 5033.32942663 -821.4375 4991.4375 C-821.43817474 4990.51103668 -821.43884949 4989.58457336 -821.43954468 4988.6300354 C-821.42124489 4972.72649379 -820.51824861 4957.25157962 -818.1875 4941.5 C-818.04248047 4940.4392627 -817.89746094 4939.37852539 -817.74804688 4938.28564453 C-812.61471009 4901.30228631 -802.03706116 4864.83814668 -790.1875 4829.5 C-789.79997559 4828.32937012 -789.41245117 4827.15874023 -789.01318359 4825.95263672 C-770.17511237 4769.19345463 -744.85389627 4713.69758221 -715.82226562 4661.44433594 C-714.02580418 4658.20877366 -712.23931953 4654.96780314 -710.453125 4651.7265625 C-703.98684664 4640.00736456 -697.46966111 4628.32517341 -690.58935547 4616.84277344 C-688.9292295 4614.0683797 -687.27949581 4611.28788994 -685.62890625 4608.5078125 C-678.38743264 4596.34073662 -671.00334451 4584.3061995 -663.1875 4572.5 C-662.3852105 4571.27747902 -661.58312456 4570.05482444 -660.78125 4568.83203125 C-635.97900155 4531.16655194 -608.50510253 4495.11834511 -578.1875 4461.71484375 C-576.39146471 4459.72587498 -574.62796697 4457.71436806 -572.875 4455.6875 C-569.19108641 4451.45143074 -565.36976591 4447.34482747 -561.5378418 4443.24291992 C-559.13228977 4440.65680301 -556.79415169 4438.0508429 -554.5625 4435.3125 C-552.57577105 4432.95979466 -550.6832372 4431.06290552 -548.3125 4429.125 C-545.55593771 4426.77986492 -543.14189589 4424.39390454 -540.8125 4421.625 C-537.52153013 4417.74979053 -533.87951213 4414.47820456 -530.06640625 4411.125 C-526.61847827 4407.98116336 -523.34190599 4404.69278712 -520.0625 4401.375 C-515.90563473 4397.17837197 -511.7420813 4393.080717 -507.23046875 4389.26171875 C-505.08234941 4387.40932521 -503.00156679 4385.49165584 -500.9230957 4383.56176758 C-495.81369799 4378.81980171 -490.58986356 4374.30937298 -485.15625 4369.9375 C-481.66467355 4367.07073197 -478.27240453 4364.10206682 -474.875 4361.125 C-468.44665488 4355.51479315 -461.84868789 4350.18531918 -455.09326172 4344.97607422 C-453.03422715 4343.38128521 -450.9872111 4341.77187709 -448.94140625 4340.16015625 C-439.24830929 4332.54005736 -429.3990727 4325.18411706 -419.35058594 4318.03955078 C-417.30467622 4316.58339879 -415.26507251 4315.11882809 -413.2265625 4313.65234375 C-389.96349709 4296.99270878 -365.91255902 4281.31965325 -341.29003906 4266.74853516 C-338.92542315 4265.34437285 -336.56830471 4263.92801496 -334.2109375 4262.51171875 C-320.74102257 4254.44789624 -307.06412583 4246.84016222 -293.1875 4239.5 C-292.10275391 4238.92604492 -291.01800781 4238.35208984 -289.90039062 4237.76074219 C-211.1027124 4196.20494857 -124.2104911 4159.1315454 114.10632324 4169.20098877 C131.15067859 4174.53812353 147.9816067 4180.531785 164.8125 4186.5 C164.52407227 4185.48196289 164.23564453 4184.46392578 163.93847656 4183.41503906 C157.78656102 4161.56172665 152.33231681 4139.51961252 146.8125 4117.5 C146.58481934 4116.59330566 146.35713867 4115.68661133 146.12255859 4114.75244141 C124.77863092 4029.62019757 113.29296694 3941.89823153 110.54296875 3854.21875 C110.50260498 3852.97424072 110.46224121 3851.72973145 110.4206543 3850.44750977 C110.35150867 3848.20347665 110.29093352 3845.95915248 110.24145508 3843.71459961 C110.0896372 3833.71761181 110.0896372 3833.71761181 105.79980469 3824.953125 C101.95967009 3821.79967024 98.49091461 3820.85495295 93.734375 3819.65234375 C92.81944275 3819.40604721 91.9045105 3819.15975067 90.96185303 3818.9059906 C88.96653063 3818.3708988 86.96912773 3817.84351929 84.9699707 3817.32293701 C81.76130503 3816.48665697 78.55892621 3815.62937905 75.35742188 3814.76611328 C70.73218952 3813.52013387 66.10534288 3812.28046373 61.47705078 3811.04589844 C32.94651507 3803.42349388 4.63154241 3795.25309632 -23.52697754 3786.34124756 C-26.06873137 3785.53755421 -28.61177254 3784.73808585 -31.15527344 3783.93994141 C-107.21787594 3760.03374394 -181.61718223 3730.40450948 -253.62255859 3696.19287109 C-256.78347267 3694.69185903 -259.94769669 3693.19815812 -263.11328125 3691.70703125 C-286.9471091 3680.44089915 -310.6090225 3668.74555976 -333.63964844 3655.91064453 C-336.27372963 3654.45225807 -338.91972757 3653.01799758 -341.5703125 3651.58984375 C-355.28838817 3644.19256664 -368.77445519 3636.43586238 -382.1875 3628.5 C-382.87827637 3628.09217285 -383.56905273 3627.6843457 -384.28076172 3627.26416016 C-387.88725018 3625.13127006 -391.47598446 3622.97084254 -395.05517578 3620.79248047 C-396.58976305 3619.86231044 -398.12760033 3618.9374946 -399.66748047 3618.01611328 C-414.94180504 3608.87224428 -429.82162503 3599.19741616 -444.625 3589.3125 C-445.50370758 3588.72584564 -446.38241516 3588.13919128 -447.28775024 3587.53475952 C-489.91400142 3559.04642318 -531.59693844 3529.11089219 -571.1875 3496.5 C-572.97907706 3495.04155659 -574.77074502 3493.58322483 -576.5625 3492.125 C-581.20141139 3488.33193 -585.78000666 3484.47267593 -590.34448242 3480.59082031 C-593.81954115 3477.64065907 -597.33185174 3474.74350085 -600.875 3471.875 C-605.32653808 3468.25165505 -609.61132455 3464.48036128 -613.85546875 3460.6171875 C-615.94573889 3458.71948831 -618.05736115 3456.85266585 -620.1875 3455 C-624.08679326 3451.60384136 -627.923791 3448.14098157 -631.76171875 3444.67578125 C-633.82452788 3442.82556437 -635.9046237 3441.00055191 -638 3439.1875 C-642.67738516 3435.11122458 -647.21768888 3430.88714625 -651.765625 3426.66796875 C-653.97503322 3424.61843542 -656.19315689 3422.57929478 -658.421875 3420.55078125 C-664.89130371 3414.64922681 -671.14916442 3408.58473979 -677.30834961 3402.35986328 C-680.18608783 3399.46236758 -683.06806346 3396.6405465 -686.1875 3394 C-690.06410949 3390.70948698 -693.65097749 3387.15021668 -697.25 3383.5625 C-697.82814453 3382.98886719 -698.40628906 3382.41523438 -699.00195312 3381.82421875 C-701.99082517 3378.82516894 -704.85671814 3375.76633478 -707.62109375 3372.55859375 C-711.27817198 3368.32963514 -715.19785455 3364.41321546 -719.1875 3360.5 C-723.797715 3355.97810329 -728.22639251 3351.3936214 -732.44140625 3346.5 C-735.42863038 3343.07839205 -738.56428322 3339.79708658 -741.6875 3336.5 C-746.6440552 3331.26751286 -751.48062585 3325.95857938 -756.1875 3320.5 C-756.92009033 3319.65066895 -756.92009033 3319.65066895 -757.66748047 3318.78417969 C-759.07275743 3317.1501367 -760.47456079 3315.51319043 -761.875 3313.875 C-762.92310523 3312.64967812 -763.97128437 3311.42441946 -765.01953125 3310.19921875 C-765.54627441 3309.58353027 -766.07301758 3308.9678418 -766.61572266 3308.33349609 C-768.11907148 3306.57982264 -769.62696611 3304.83019247 -771.13671875 3303.08203125 C-778.36640197 3294.70140181 -785.4383364 3286.19911159 -792.44384766 3277.63037109 C-794.13942265 3275.55874026 -795.84074301 3273.49194835 -797.54296875 3271.42578125 C-803.40325102 3264.29031271 -809.09295605 3257.061155 -814.59375 3249.64477539 C-818.4208361 3244.4911419 -822.35135228 3239.42607777 -826.3125 3234.375 C-831.70071162 3227.48608896 -836.8607859 3220.47945745 -841.890625 3213.32666016 C-843.2754439 3211.37613022 -844.68171899 3209.44263419 -846.09375 3207.51171875 C-865.41854915 3181.06821703 -883.39839248 3153.59683475 -900.73828125 3125.81738281 C-902.23540048 3123.42340442 -903.74252494 3121.03590588 -905.25 3118.6484375 C-913.98798389 3104.74458452 -922.15093752 3090.52855395 -930.21362305 3076.22705078 C-931.1589979 3074.55054497 -932.10584341 3072.87486873 -933.05273438 3071.19921875 C-934.8303276 3068.05143745 -936.60379556 3064.90138008 -938.375 3061.75 C-939.12027954 3060.42597168 -939.12027954 3060.42597168 -939.88061523 3059.07519531 C-941.66278114 3055.890674 -943.42808123 3052.69711941 -945.1875 3049.5 C-945.62815796 3048.70093231 -946.06881592 3047.90186462 -946.52282715 3047.07858276 C-955.25380759 3031.21172565 -963.54837484 3015.14435356 -971.62767792 2998.9375 C-972.57979756 2997.02780579 -973.53315537 2995.11873315 -974.4866333 2993.2097168 C-983.54977406 2975.05293284 -992.40011389 2956.82992677 -1000.54248047 2938.23876953 C-1001.97784929 2934.96550619 -1003.44079345 2931.70525346 -1004.91082764 2928.44743347 C-1015.00997999 2906.0641812 -1024.26304066 2883.37494992 -1033.1875 2860.5 C-1033.581651 2859.49030151 -1033.581651 2859.49030151 -1033.98376465 2858.46020508 C-1037.47404918 2849.50629813 -1040.86446554 2840.51720423 -1044.1875 2831.5 C-1044.43870605 2830.81943542 -1044.68991211 2830.13887085 -1044.94873047 2829.43768311 C-1068.41133394 2765.80607229 -1088.09281106 2701.11732787 -1105.1875 2635.5 C-1105.41288452 2634.63499878 -1105.63826904 2633.76999756 -1105.8704834 2632.87878418 C-1120.05049707 2578.33020268 -1131.61702018 2523.03422249 -1141.1875 2467.5 C-1141.36496765 2466.47384583 -1141.5424353 2465.44769165 -1141.72528076 2464.39044189 C-1159.91603827 2359.03219926 -1170.33800931 2252.55279733 -1176.30954361 2046.03527451 C-1176.31242911 2043.62179081 -1176.31658884 2041.20831185 -1176.32089233 2038.79483032 C-1176.37073566 2005.70556041 -1175.50696322 1972.67455116 -1173.875 1939.625 C-1173.81125183 1938.32047882 -1173.74750366 1937.01595764 -1173.68182373 1935.67190552 C-1169.15404595 1843.53971612 -1159.39958318 1751.68003629 -1128.1875 1565.5 C-1127.98552002 1564.47914307 -1127.78354004 1563.45828613 -1127.57543945 1562.40649414 C-1107.3811969 1460.61392775 -1081.14423141 1359.95942771 -1047.62353516 1261.72265625 C-1046.39582093 1258.12127744 -1045.1864965 1254.51398934 -1043.98168945 1250.90489197 C-1021.33091372 1183.10393188 -994.65190186 1116.61449131 -965.1875 1051.5 C-964.85020874 1050.75365295 -964.51291748 1050.00730591 -964.16540527 1049.23834229 C-955.9423697 1031.04559234 -947.59943852 1012.91968797 -938.86865234 994.96386719 C-937.27791702 991.68629635 -935.69479869 988.40517413 -934.11381531 985.12289429 C-920.08541194 956.00508135 -920.08541194 956.00508135 -912.90625 942.62109375 C-910.60790759 938.32516858 -908.37743849 933.99627877 -906.15625 929.66015625 C-905.61410355 928.6018309 -905.61410355 928.6018309 -905.06100464 927.52212524 C-904.31440921 926.06451581 -903.56781705 924.60690471 -902.82122803 923.14929199 C-896.91461711 911.62607441 -890.93651391 900.17105529 -884.54394531 888.90820312 C-882.92645269 886.03654236 -881.33377366 883.15172427 -879.7421875 880.265625 C-872.56533374 867.25886281 -865.24847136 854.34785812 -857.72265625 841.5390625 C-854.62251524 836.2593917 -851.57340825 830.95166332 -848.53125 825.63842773 C-841.86542626 814.00823859 -835.00138759 802.53268897 -827.87060547 791.18212891 C-826.08563134 788.33766621 -824.30963366 785.48774046 -822.53515625 782.63671875 C-821.27361541 780.61186831 -820.01190004 778.5871266 -818.75 776.5625 C-818.20214844 775.68319824 -817.65429688 774.80389648 -817.08984375 773.89794922 C-806.43381337 756.84647594 -795.58075998 739.92540953 -784.51025391 723.14013672 C-782.68444822 720.37037042 -780.86360591 717.59738438 -779.04296875 714.82421875 C-771.44642522 703.27997797 -763.64575279 691.89964389 -755.67486572 680.61102295 C-753.69438997 677.80012735 -751.73404336 674.97593699 -749.77734375 672.1484375 C-742.21731785 661.2312848 -734.5651622 650.39285354 -726.75097656 639.65625 C-725.17683401 637.48529013 -723.61416111 635.30651629 -722.0546875 633.125 C-714.89379948 623.12117539 -707.51675794 613.30112711 -700.03515625 603.53515625 C-696.678167 599.15161541 -693.36239845 594.73908443 -690.0625 590.3125 C-684.09509398 582.32348296 -677.97786122 574.45379673 -671.83203125 566.6015625 C-670.32332674 564.67357432 -668.81754649 562.74334395 -667.3125 560.8125 C-661.36442981 553.19614691 -655.29791483 545.68114194 -649.19140625 538.19140625 C-646.75633821 535.20356942 -644.34012587 532.20152967 -641.9375 529.1875 C-635.5058551 521.13115983 -628.94761109 513.18911312 -622.27197266 505.33447266 C-619.39242259 501.94103984 -616.55567528 498.51759017 -613.75 495.0625 C-608.85633642 489.05426535 -603.80723208 483.18540867 -598.74902344 477.31591797 C-597.1849147 475.49699352 -595.62668924 473.67319921 -594.0703125 471.84765625 C-588.85625232 465.7351607 -583.59795643 459.67777424 -578.19921875 453.7265625 C-576.34015331 451.66895609 -574.50821642 449.59153237 -572.6875 447.5 C-569.29255061 443.60209515 -565.83084116 439.76652943 -562.3671875 435.9296875 C-560.49604906 433.8439382 -558.64825169 431.74182372 -556.8125 429.625 C-553.39931909 425.70616266 -549.88777862 421.87997465 -546.36889648 418.05639648 C-543.51455173 414.95346787 -540.6842044 411.83150716 -537.875 408.6875 C-532.35703305 402.5422686 -526.70482602 396.5237591 -521.05664062 390.49853516 C-519.20443932 388.51811197 -517.35924071 386.53138389 -515.515625 384.54296875 C-508.40716724 376.89334371 -501.18359824 369.39264389 -493.72900391 362.07836914 C-490.72348326 359.1137161 -487.82631216 356.12583764 -485.08984375 352.91015625 C-480.07247111 347.09440494 -474.57328084 341.73699025 -469.13598633 336.31811523 C-467.25421726 334.44170525 -465.37785262 332.56001031 -463.50195312 330.67773438 C-458.14947407 325.32259385 -452.80724304 320.03972651 -447.03686523 315.13110352 C-443.23735967 311.78001485 -439.73774824 308.11083268 -436.1875 304.5 C-431.24045629 299.46853575 -426.25505186 294.59233665 -420.90234375 289.9921875 C-418.89969386 288.24956276 -417.0310634 286.40940495 -415.1875 284.5 C-412.71036087 281.93439162 -410.12870754 279.55515968 -407.4375 277.21875 C-403.25205629 273.58361463 -399.21164745 269.81193655 -395.1875 266 C-390.54395563 261.60133004 -385.84859104 257.29160833 -381.01806641 253.09863281 C-378.59665617 250.98401636 -376.23629549 248.80635229 -373.875 246.625 C-370.25226095 243.31663086 -366.57057109 240.13987642 -362.75 237.0625 C-358.75523566 233.84054925 -354.94218333 230.49322017 -351.1875 227 C-346.65012149 222.78277892 -341.9685144 218.81119257 -337.14453125 214.92578125 C-333.72429176 212.12001015 -330.39295125 209.22366387 -327.0625 206.3125 C-318.9119928 199.20165719 -310.56351217 192.34240682 -302.1875 185.5 C-301.21167969 184.69949219 -300.23585938 183.89898438 -299.23046875 183.07421875 C-297.50043296 181.65543377 -295.76867348 180.23874789 -294.03515625 178.82421875 C-291.87320235 177.05966104 -289.71503824 175.29079668 -287.55859375 173.51953125 C-279.97060139 167.30295359 -272.29207735 161.23561854 -264.47631836 155.30786133 C-259.80001111 151.75472439 -255.19367507 148.12774592 -250.625 144.4375 C-245.03262586 139.92875403 -239.34828028 135.56678133 -233.58520508 131.27880859 C-228.86066304 127.76242289 -224.17261639 124.20160918 -219.49780273 120.61938477 C-209.90980271 113.27518073 -200.21815428 106.10487756 -190.39355469 99.08105469 C-187.38591339 96.92551186 -184.39057629 94.75315995 -181.39453125 92.58154297 C-172.81261301 86.36482208 -164.18728595 80.21263483 -155.51025391 74.12939453 C-153.91764878 73.01219392 -152.32623702 71.89329075 -150.73583984 70.77294922 C-138.31457384 62.02680965 -125.76467675 53.48859508 -113.125 45.0625 C-112.43470703 44.60200256 -111.74441406 44.14150513 -111.03320312 43.66705322 C-22.31161675 -15.47626596 -22.31161675 -15.47626596 0 0 Z M1599.8125 1435.5 C1601.71666855 1441.57304246 1603.96059392 1447.34844512 1606.625 1453.125 C1607.43099216 1454.89713425 1608.23698155 1456.66926975 1609.04296875 1458.44140625 C1609.96599343 1460.46100716 1610.88918055 1462.48053383 1611.8125 1464.5 C1635.7290812 1516.90489436 1657.8273993 1570.07956172 1677.6328125 1624.1796875 C1678.04200928 1625.29182617 1678.45120605 1626.40396484 1678.87280273 1627.54980469 C1679.58682349 1629.49778075 1680.29305273 1631.44864536 1680.98852539 1633.40332031 C1683.55851318 1640.43213904 1686.3504586 1647.28952381 1692.8125 1651.5 C1695.04993425 1652.06891857 1695.04993425 1652.06891857 1697.43701172 1652.17941284 C1698.31887146 1652.24370358 1699.2007312 1652.30799431 1700.10931396 1652.37423325 C1704.34928508 1652.57149951 1708.57604327 1652.63929327 1712.8203125 1652.62939453 C1713.76465652 1652.63114685 1714.70900055 1652.63289917 1715.68196106 1652.63470459 C1718.76716003 1652.63906498 1721.85230057 1652.63620769 1724.9375 1652.6328125 C1727.09318045 1652.63348676 1729.24886083 1652.6344578 1731.40454102 1652.63571167 C1735.90300222 1652.63718036 1740.40144347 1652.6350591 1744.89990234 1652.63037109 C1750.67484098 1652.62464675 1756.44973342 1652.62797505 1762.22467041 1652.63394356 C1766.66660921 1652.63754816 1771.10853695 1652.63641153 1775.55047607 1652.63381577 C1777.68121343 1652.63314764 1779.81195179 1652.63397096 1781.94268799 1652.63629532 C1784.90843393 1652.63882312 1787.87410353 1652.63498067 1790.83984375 1652.62939453 C1792.1660247 1652.63243088 1792.1660247 1652.63243088 1793.51899719 1652.63552856 C1797.80103588 1652.74696975 1797.80103588 1652.74696975 1801.8125 1651.5 C1803.09379295 1644.5579914 1802.51406492 1638.58957742 1801.3359375 1631.6796875 C1800.99345559 1629.53697805 1800.65117938 1627.39423572 1800.30908203 1625.25146484 C1800.12589417 1624.13132996 1799.9427063 1623.01119507 1799.75396729 1621.8571167 C1796.67284225 1602.91721107 1793.94568549 1583.95943555 1791.9375 1564.875 C1791.83573456 1563.91332916 1791.73396912 1562.95165833 1791.62911987 1561.96084595 C1790.59159711 1552.00951955 1789.72160716 1542.06698978 1789.20703125 1532.07421875 C1789.16471375 1531.25693298 1789.12239624 1530.43964722 1789.07879639 1529.59759521 C1788.89033397 1525.81658586 1788.7303182 1522.03750582 1788.61962891 1518.25341797 C1788.27154818 1509.32959438 1787.25920712 1503.67201418 1781.56640625 1496.78125 C1778.16897849 1493.96692687 1774.67139907 1491.99386103 1770.75 1490 C1769.9262085 1489.5762207 1769.10241699 1489.15244141 1768.25366211 1488.71582031 C1765.44967821 1487.29009188 1762.63402056 1485.89069323 1759.8125 1484.5 C1758.80735352 1484.00435547 1757.80220703 1483.50871094 1756.76660156 1482.99804688 C1719.5593596 1464.83641257 1680.57427137 1451.33191418 1640.62713623 1440.6338501 C1638.61087976 1440.09347521 1636.59589834 1439.54831627 1634.58233643 1438.99798584 C1617.19647874 1433.44800478 1617.19647874 1433.44800478 1599.8125 1435.5 Z " fill="#fbed21" transform="translate(2644.1875,598.5)"/>
</svg>
