<?xml version="1.0" encoding="UTF-8"?>
<svg version="1.1" xmlns="http://www.w3.org/2000/svg" width="8534" height="8534">
<path d="M0 0 C0.72058594 0.40089844 1.44117187 0.80179687 2.18359375 1.21484375 C8.60628257 5.16462564 13.9321844 10.37172592 19.39282227 15.51855469 C21.18050085 17.16637994 23.00747601 18.76200226 24.84375 20.35546875 C29.13907947 24.09406234 33.29801862 27.96530669 37.4375 31.875 C38.55499634 32.92772095 38.55499634 32.92772095 39.69506836 34.00170898 C44.16344588 38.22404015 48.57524826 42.48816724 52.84765625 46.91015625 C54.66125902 48.67109542 56.50918785 50.29717152 58.43115234 51.93554688 C63.94631607 56.75089731 69.08559732 61.94115239 74.25390625 67.12109375 C75.32414967 68.19066164 76.39454134 69.26008121 77.46507263 70.32936096 C79.69635913 72.55918224 81.92585057 74.7907784 84.15405273 77.02368164 C86.99031888 79.86564432 89.83105231 82.70309242 92.67315769 85.53921413 C94.88076333 87.74318226 97.08595221 89.94955619 99.29044914 92.15663338 C100.33615979 93.20300449 101.38259535 94.24865174 102.42981148 95.29351616 C107.65110675 100.50565306 112.79986479 105.73790843 117.58201599 111.36183167 C119.76152461 113.87977403 122.11724811 116.17331286 124.5 118.5 C128.25097537 122.16271712 131.73443075 125.94913404 135.16601562 129.91210938 C138.19092508 133.35580289 141.34821666 136.67275656 144.5 140 C148.90863371 144.6540628 153.23010841 149.35917615 157.43261719 154.20068359 C159.37968954 156.43587413 161.37494469 158.62470003 163.375 160.8125 C166.50422827 164.27530082 169.50500349 167.80679003 172.4375 171.4375 C175.51336588 175.24087503 178.68753166 178.90082652 182 182.5 C186.05538943 186.91156385 189.8847374 191.45187882 193.6484375 196.11328125 C196.24448225 199.30012024 198.89762133 202.43328988 201.5625 205.5625 C206.14772142 210.96035211 210.61775435 216.43537486 215 222 C215.80695313 223.02222656 216.61390625 224.04445313 217.4453125 225.09765625 C220.30496903 228.72544402 223.15390246 232.36156908 226 236 C226.52867676 236.67562988 227.05735352 237.35125977 227.60205078 238.04736328 C253.22236972 270.81683418 253.22236972 270.81683418 265.08984375 287.8515625 C267.56062027 291.39364902 270.09538927 294.88464114 272.64648438 298.36914062 C280.51283521 309.12908214 287.88538915 320.19846954 295.22705078 331.32080078 C297.12427983 334.18780596 299.04009467 337.0417012 300.96069336 339.89306641 C317.79329765 364.93196236 333.72445626 390.66601869 348.35498047 417.04980469 C350.04316215 420.07740745 351.75563627 423.0902322 353.47265625 426.1015625 C384.56035783 480.90314268 410.24736439 539.37962808 430.81640625 598.91796875 C431.12775009 599.8179509 431.43909393 600.71793304 431.75987244 601.64518738 C433.24945597 605.96274763 434.72237667 610.28502785 436.16967773 614.61694336 C440.57856917 627.66696315 446.10020199 639.07956975 454.5625 650.0625 C455.79608991 651.704364 457.02780447 653.34763841 458.2578125 654.9921875 C458.87946289 655.82073242 459.50111328 656.64927734 460.14160156 657.50292969 C512.30823958 727.59756627 547.24905835 809.47442779 587 944 C587.36795785 945.43051248 587.73595744 946.86101422 588.10400391 948.29150391 C610.86048098 1037.0934073 628.49356189 1134.53029789 617.79296875 1250.4921875 C612.03877773 1258.54053311 604.47627135 1263.41397436 594.9375 1265.75 C573.18395818 1267.60136526 555.53099095 1254.89674124 537.56640625 1244.26953125 C532.75655448 1241.42708221 527.89807632 1238.68687126 523 1236 C523.01268921 1236.70323898 523.02537842 1237.40647797 523.03845215 1238.13102722 C523.11876441 1246.16245855 522.61812001 1254.05440312 521.90625 1262.05078125 C521.73667535 1264.03436606 521.56710379 1266.01795114 521.39771271 1268.00155163 C521.16227047 1270.74452936 520.92228519 1273.48710152 520.68218994 1276.22967529 C520.26048197 1281.05070867 519.84292177 1285.87209511 519.43005371 1290.69389343 C519.21057313 1293.25178818 518.98813398 1295.8094313 518.7623291 1298.36677551 C517.41377373 1314.02053218 520.43271319 1324.93195459 526.1875 1339.5625 C548.43294975 1397.09676773 577.38315963 1503.53011634 550.68359375 1563.98046875 C545.09673391 1574.04290568 536.99823435 1579.82933784 526 1583 C511.94322411 1585.83891748 497.61265279 1585.13512482 483.375 1584.5 C479.97994623 1584.37107082 476.58472801 1584.24746452 473.18945312 1584.12451172 C471.17727636 1584.0459592 469.16543158 1583.95775606 467.15429688 1583.85595703 C455.54923977 1583.26969119 446.22149019 1583.54398777 437.046875 1591.74609375 C432.99324988 1596.16375802 429.93324207 1600.97430883 429.5 1607.0625 C429.68962363 1611.01541719 429.68962363 1611.01541719 431.9375 1613.75 C437.46309838 1617.8096233 443.34935916 1620.93532341 450.38208008 1620.48999023 C453.56523164 1619.89420685 456.09026842 1618.72570512 459.01171875 1617.328125 C460.16236816 1616.7830127 461.31301758 1616.23790039 462.49853516 1615.67626953 C463.65401855 1615.12310059 464.80950195 1614.56993164 466 1614 C468.04200637 1613.04221633 470.0849543 1612.08643714 472.12890625 1611.1328125 C473.1638623 1610.6483667 474.19881836 1610.1639209 475.26513672 1609.66479492 C557.71717286 1571.16153771 642.59254387 1537.98789796 1079.0625 1437.6875 C1080.09103088 1437.60609772 1081.11956177 1437.52469543 1082.17926025 1437.44082642 C1097.44154512 1436.25051013 1112.70089497 1435.51228316 1128 1435 C1128.90620087 1434.96856903 1129.81240173 1434.93713806 1130.74606323 1434.90475464 C1207.57898853 1432.26607686 1286.51822783 1435.03161295 1362.21020508 1449.66357422 C1370.77202534 1450.69605766 1377.43023062 1449.2957027 1385.58203125 1446.5546875 C1386.69301178 1446.19302994 1387.80399231 1445.83137238 1388.94863892 1445.45875549 C1391.33346522 1444.68064075 1393.71633269 1443.89650119 1396.09738159 1443.10690308 C1399.85735975 1441.86012487 1403.6222016 1440.62880883 1407.38891602 1439.40258789 C1412.49794609 1437.73787272 1417.60481841 1436.06673442 1422.70996094 1434.39013672 C1509.1555285 1406.0203582 1597.43847789 1386.70256709 1782 1377 C1783.53261475 1377.02682861 1783.53261475 1377.02682861 1785.09619141 1377.05419922 C1871.88001364 1378.831121 1958.15607649 1393.22239855 2145.42285156 1458.84960938 C2148.46599009 1460.20800922 2151.52549319 1461.52529974 2154.58837891 1462.83837891 C2163.23412718 1466.55714127 2171.63102305 1470.70392516 2180 1475 C2180.97904297 1475.49918945 2181.95808594 1475.99837891 2182.96679688 1476.51269531 C2198.86879782 1484.62684244 2214.57987843 1493.00126548 2230 1502 C2230.85787109 1502.49806152 2231.71574219 1502.99612305 2232.59960938 1503.50927734 C2246.32904922 1511.52854204 2259.57932244 1520.25790991 2272.8125 1529.0625 C2274.03839844 1529.87658829 2274.03839844 1529.87658829 2275.2890625 1530.7071228 C2293.01459764 1542.49557437 2310.18037841 1554.95486042 2327 1568 C2327.93585938 1568.72316406 2327.93585938 1568.72316406 2328.890625 1569.4609375 C2336.89603756 1575.65315832 2344.7002136 1582.04191044 2352.38671875 1588.625 C2354.0107451 1590.00915805 2355.64421167 1591.38126487 2357.28125 1592.75 C2363.76606678 1598.17905933 2370.07720943 1603.75244402 2376.28125 1609.5 C2378.59296482 1611.62571478 2380.93355862 1613.70045051 2383.3125 1615.75 C2386.40439309 1618.42751566 2389.28142857 1621.25736115 2392.14404297 1624.17651367 C2393.85127434 1625.85387635 2395.60562645 1627.39820648 2397.43359375 1628.94140625 C2402.83207078 1633.63697599 2407.85318036 1638.70341794 2412.90014648 1643.76977539 C2414.5592732 1645.43426277 2416.22368051 1647.09333447 2417.88867188 1648.75195312 C2422.89566852 1653.75581666 2427.81954233 1658.78675874 2432.41870117 1664.17358398 C2435.29096095 1667.49107285 2438.35055403 1670.6343816 2441.375 1673.8125 C2446.45735538 1679.189015 2451.28394154 1684.6387559 2455.89453125 1690.42578125 C2458.17200846 1693.21030348 2460.56312008 1695.85413803 2463 1698.5 C2467.03311363 1702.88678667 2470.83380373 1707.40513299 2474.578125 1712.0390625 C2477.88487454 1716.08183048 2481.26873652 1720.05593588 2484.69873047 1723.99462891 C2486.85357655 1726.47039486 2488.94326669 1728.92342171 2490.8984375 1731.5625 C2493.87649066 1735.5138681 2496.12032923 1737.34801353 2500.99169922 1738.45532227 C2502.06466248 1738.70114044 2503.13762573 1738.94695862 2504.24310303 1739.20022583 C2512.0303452 1740.85798626 2519.82613807 1742.46356244 2527.6328125 1744.02734375 C2529.56437938 1744.41610536 2531.49592281 1744.80498349 2533.42744446 1745.19396973 C2539.65888186 1746.44723533 2545.89181843 1747.69294253 2552.125 1748.9375 C2553.19076893 1749.15049366 2554.25653786 1749.36348732 2555.35460281 1749.58293533 C2593.16624429 1757.13811778 2631.00325104 1764.43107661 2669 1771 C2670.07881313 1771.18667488 2670.07881313 1771.18667488 2671.17942047 1771.37712097 C2731.07662962 1781.73627808 2790.99467398 1791.48256364 2851.6875 1795.6875 C2852.5617865 1795.74852905 2853.436073 1795.80955811 2854.33685303 1795.87243652 C2879.81363725 1797.62347209 2905.27925623 1798.20999578 2930.8125 1798.1875 C2931.49690029 1798.18723312 2932.18130058 1798.18696625 2932.88644028 1798.18669128 C2955.64498249 1798.17560395 2978.30549891 1797.79888012 3001 1796 C3002.18432617 1795.90878876 3002.18432617 1795.90878876 3003.39257812 1795.81573486 C3078.56477419 1790.0090404 3153.12437647 1775.87815687 3224.7421875 1752.16015625 C3225.71420609 1751.83894806 3226.68622467 1751.51773987 3227.68769836 1751.1867981 C3232.36918051 1749.6352883 3237.04227471 1748.06354208 3241.70483398 1746.45605469 C3254.79811455 1742.00459275 3268.39397617 1738.05157283 3281.62890625 1744.2265625 C3292.09842002 1750.06202919 3296.90017177 1757.90267801 3300.71875 1769.109375 C3304.29009808 1782.65948976 3303.15079965 1798.10169759 3303.1328125 1812.01171875 C3303.13391572 1813.81245445 3303.13534834 1815.61318997 3303.13708496 1817.41392517 C3303.13996228 1822.18632563 3303.13572547 1826.95869106 3303.12897491 1831.73108673 C3303.12496818 1834.71116637 3303.12247499 1837.69124418 3303.12030029 1840.67132568 C3303.09389769 1872.12362257 3302.86704422 1903.55811712 3302 1935 C3301.96841797 1936.17071045 3301.93683594 1937.3414209 3301.90429688 1938.54760742 C3299.25480366 2036.35157158 3293.50908086 2134.04173486 3275 2312 C3274.88140625 2312.98703918 3274.7628125 2313.97407837 3274.640625 2314.99102783 C3273.43810909 2324.97635888 3272.19956893 2334.95654479 3270.90953064 2344.93095398 C3270.40145656 2348.86004496 3269.89984108 2352.78970345 3269.41455078 2356.72167969 C3258.04581197 2448.795681 3240.92399321 2540.21558715 3211.67211914 2677.12322998 C3210.71376622 2681.2251232 3209.77409229 2685.33124617 3208.83262634 2689.43704224 C3187.72016926 2781.3750958 3162.54609824 2872.72107441 3086 3085 C3085.66250732 3085.8245166 3085.32501465 3086.6490332 3084.97729492 3087.49853516 C3076.66703004 3107.78957528 3068.27959739 3128.03809735 3059.31689453 3148.05126953 C3057.90819273 3151.20557068 3056.51356446 3154.36584556 3055.12109375 3157.52734375 C3040.29202637 3191.14994954 3024.40851209 3224.24354108 3008.02258301 3257.13006592 C3006.94379632 3259.29567204 3005.86619504 3261.46186917 3004.78991699 3263.62872314 C2998.31743753 3276.65058432 2991.62517935 3289.51429427 2984.60742188 3302.25073242 C2981.66190311 3307.59733293 2978.84361469 3313.0039078 2976.0625 3318.4375 C2970.50763388 3329.17604603 2964.61626227 3339.70369211 2958.60693359 3350.19335938 C2957.02036286 3352.9644346 2955.44085164 3355.73941772 2953.86328125 3358.515625 C2942.61424344 3378.29409399 2930.9415494 3397.79882918 2919.08709717 3417.21899414 C2918.03304764 3418.94585762 2916.97964804 3420.67311775 2915.92626953 3422.40039062 C2901.16174469 3446.58717823 2885.8559139 3470.38113243 2870.06982422 3493.91064453 C2867.9701831 3497.04450378 2865.87890566 3500.18381902 2863.7890625 3503.32421875 C2860.84805374 3507.73753663 2857.88552317 3512.13384005 2854.875 3516.5 C2854.42108887 3517.15887207 2853.96717773 3517.81774414 2853.49951172 3518.49658203 C2843.69952497 3532.69750401 2833.76440107 3546.79420839 2823.62646484 3560.75585938 C2821.95058763 3563.0681775 2820.28107152 3565.38496831 2818.61328125 3567.703125 C2813.23629639 3575.1749583 2807.83831195 3582.62356163 2802.2890625 3589.96875 C2800.60966304 3592.19266464 2798.93805869 3594.42133121 2797.2734375 3596.65625 C2786.95403878 3610.49833503 2776.31643164 3624.09040891 2765.6328125 3637.65234375 C2763.87102177 3639.88946589 2762.11636314 3642.13190823 2760.3671875 3644.37890625 C2753.58636421 3653.07618409 2746.60749372 3661.59890817 2739.57470703 3670.09326172 C2737.47508831 3672.63559075 2735.39353488 3675.19244908 2733.3125 3677.75 C2728.74390196 3683.34041017 2724.07761486 3688.84561871 2719.40283203 3694.34716797 C2718.02522412 3695.97028067 2716.65068243 3697.5959304 2715.27734375 3699.22265625 C2697.4081194 3720.38848876 2697.4081194 3720.38848876 2690.3125 3728.1875 C2687.21031992 3731.59821516 2684.26761726 3735.0973376 2681.375 3738.6875 C2678.31461645 3742.47047411 2675.15704685 3745.96241355 2671.6640625 3749.34375 C2669.3086822 3751.68807218 2667.17055227 3754.2002977 2665 3756.71484375 C2661.22210638 3761.03138236 2657.31160219 3765.2290633 2653.42626953 3769.44873047 C2651.17428659 3771.89807994 2648.93207349 3774.35636141 2646.6875 3776.8125 C2642.39505039 3781.49779935 2638.07901957 3786.16097797 2633.75 3790.8125 C2632.9005481 3791.72769409 2632.9005481 3791.72769409 2632.03393555 3792.66137695 C2629.24761013 3795.64919201 2626.42680451 3798.58266435 2623.515625 3801.44921875 C2621.13395133 3803.8094203 2618.89371575 3806.23621832 2616.71214294 3808.78196716 C2613.31315948 3812.68757531 2609.75627523 3816.38552696 2606.09008789 3820.03930664 C2605.43867325 3820.6924736 2604.78725861 3821.34564056 2604.11610413 3822.01860046 C2601.98744251 3824.15162075 2599.8551943 3826.28101207 2597.72265625 3828.41015625 C2596.22710329 3829.90638397 2594.73169871 3831.40276001 2593.23643494 3832.89927673 C2590.11212601 3836.02505453 2586.98602966 3839.14903055 2583.85864258 3842.27172852 C2579.86653311 3846.25814122 2575.87893053 3850.24902715 2571.892663 3854.24128056 C2568.80855071 3857.32902037 2565.72204331 3860.41435722 2562.63482475 3863.49899101 C2561.16420708 3864.96894548 2559.69432113 3866.43963241 2558.22520638 3867.91108894 C2556.16566174 3869.97319624 2554.10289875 3872.03203199 2552.03930664 3874.09008789 C2551.44321594 3874.68820282 2550.84712524 3875.28631775 2550.23297119 3875.90255737 C2546.54549427 3879.57188902 2542.73237531 3883.04393864 2538.78633785 3886.43396664 C2536.22894455 3888.67596315 2533.87633761 3891.06640124 2531.5 3893.5 C2527.8443912 3897.24369576 2524.06542811 3900.71855919 2520.11035156 3904.14355469 C2516.52824135 3907.2946845 2513.08397621 3910.59004043 2509.625 3913.875 C2504.24983558 3918.95703709 2498.85112285 3924.00001978 2493.328125 3928.921875 C2490.65950484 3931.30393192 2488.01726431 3933.71375334 2485.375 3936.125 C2479.91739206 3941.08784571 2474.39483264 3945.96061178 2468.78125 3950.74609375 C2467.58319225 3951.7680638 2466.3852799 3952.79020431 2465.1875 3953.8125 C2464.58147949 3954.32965576 2463.97545898 3954.84681152 2463.35107422 3955.37963867 C2459.60967738 3958.5847653 2455.93901522 3961.85193729 2452.3125 3965.1875 C2448.00605963 3969.13663745 2443.56133821 3972.8504913 2439.015625 3976.51953125 C2435.45329519 3979.44968595 2431.97534874 3982.46769057 2428.5 3985.5 C2423.32227942 3990.01379376 2418.08486694 3994.43053123 2412.74609375 3998.75390625 C2409.61010122 4001.31890725 2406.52257156 4003.93671651 2403.4375 4006.5625 C2398.93973794 4010.38464941 2394.39327631 4014.12816747 2389.765625 4017.79296875 C2387.63868059 4019.49031845 2385.52632863 4021.20090054 2383.421875 4022.92578125 C2375.83689733 4029.13881626 2368.16942468 4035.20683703 2360.3527832 4041.12597656 C2355.52345413 4044.7965529 2350.80545126 4048.5795426 2346.125 4052.4375 C2339.6517311 4057.76073241 2332.98311687 4062.76307463 2326.2097168 4067.69677734 C2320.70204007 4071.71723113 2315.29800667 4075.84825049 2309.9375 4080.0625 C2301.86088806 4086.39796147 2293.59567793 4092.43320924 2285.24121094 4098.39550781 C2282.2684674 4100.52370722 2279.31117357 4102.67287104 2276.35302734 4104.82128906 C2252.73480015 4121.95395003 2228.58651461 4138.28935712 2204 4154 C2202.95392578 4154.67047363 2202.95392578 4154.67047363 2201.88671875 4155.35449219 C2165.07916396 4178.91464325 2127.20668946 4200.47713823 2088.47070312 4220.70361328 C2085.80305473 4222.10333789 2083.14355519 4223.51785211 2080.484375 4224.93359375 C2070.09172507 4230.44367239 2059.64786394 4235.68961118 2048.88354492 4240.43945312 C2043.95166536 4242.62096277 2039.11330921 4244.92823826 2034.30078125 4247.36328125 C2026.88763898 4251.10801369 2019.35184441 4254.53268885 2011.75 4257.875 C2011.03601044 4258.18959167 2010.32202087 4258.50418335 2009.58639526 4258.82830811 C1922.1170938 4297.28252646 1830.92645422 4326.64157673 1533 4376 C1531.40871277 4376.1417868 1531.40871277 4376.1417868 1529.78527832 4376.28643799 C1497.54981104 4379.14199265 1465.34481339 4381.00121377 1433 4382 C1431.34553916 4382.05302224 1429.69107946 4382.10608031 1428.03662109 4382.15917969 C1409.27239191 4382.7483508 1390.50577201 4383.00666835 1371.73375893 4383.1837101 C1368.87565312 4383.21096853 1366.01756071 4383.23935594 1363.1594696 4383.26811218 C1361.23367324 4383.28739821 1359.30787673 4383.30667 1357.38208008 4383.32592773 C1355.94299868 4383.3403669 1355.94299868 4383.3403669 1354.47484493 4383.35509777 C1348.6886696 4383.41205283 1342.90251159 4383.459065 1337.11619473 4383.49894714 C1333.46194155 4383.52596936 1329.80779102 4383.56086137 1326.15362358 4383.59756851 C1324.43163226 4383.61310904 1322.70960636 4383.62523574 1320.98756599 4383.63375473 C1318.5992847 4383.64595666 1316.21139714 4383.67014396 1313.82324219 4383.69702148 C1313.13040477 4383.69761346 1312.43756735 4383.69820543 1311.72373486 4383.69881535 C1307.11350012 4383.76728458 1303.34165168 4384.58539672 1299 4386 C1297.46488328 4394.20906387 1296.04304128 4402.40161879 1295.02172852 4410.69213867 C1289.8198491 4452.44776534 1276.20444193 4492.22361235 1258 4530 C1257.4730957 4531.10142334 1257.4730957 4531.10142334 1256.93554688 4532.22509766 C1254.70756763 4536.86155346 1252.3868248 4541.44343027 1250 4546 C1249.58733887 4546.78955078 1249.17467773 4547.57910156 1248.74951172 4548.39257812 C1234.68343408 4575.12781231 1218.13781244 4600.17200641 1201 4625 C1199.96601074 4626.49829346 1199.96601074 4626.49829346 1198.91113281 4628.02685547 C1183.18350158 4650.75485617 1166.94781679 4673.1655627 1150 4695 C1148.41592848 4697.0619331 1146.83261478 4699.12444859 1145.25 4701.1875 C1143.50185955 4703.45976937 1141.75126122 4705.73013523 1140 4708 C1139.47390137 4708.68223633 1138.94780273 4709.36447266 1138.40576172 4710.06738281 C1131.60251532 4718.88036674 1124.7302794 4727.62502447 1117.68212891 4736.24365234 C1114.25712506 4740.43602387 1110.89001571 4744.66746287 1107.5625 4748.9375 C1098.92375935 4760.00137306 1089.92452047 4770.77647575 1080.83203125 4781.46899414 C1078.01714765 4784.78304071 1075.24517661 4788.12804856 1072.5 4791.5 C1067.87447007 4797.17903141 1063.14532956 4802.76592822 1058.40283203 4808.34716797 C1057.02522412 4809.97028067 1055.65068243 4811.5959304 1054.27734375 4813.22265625 C1048.05772607 4820.58920145 1041.79688682 4827.91944038 1035.51611328 4835.23388672 C1033.50882984 4837.57216183 1031.5033586 4839.91198703 1029.49804688 4842.25195312 C1027.99761049 4844.00278828 1026.49685195 4845.75334695 1024.99609375 4847.50390625 C1023.00798724 4849.82325601 1021.02110562 4852.14364674 1019.03515625 4854.46484375 C999.65014781 4877.11627232 999.65014781 4877.11627232 992.25 4885.25 C989.31815907 4888.47873622 986.53742089 4891.78259885 983.8125 4895.1875 C978.90996514 4901.25320218 973.57741963 4906.88164977 968.23046875 4912.5546875 C965.28464137 4915.683104 962.42737853 4918.87473562 959.62109375 4922.12890625 C953.91147727 4928.7190419 947.98386941 4935.12010831 942.0847168 4941.5402832 C939.22455432 4944.65561264 936.38515356 4947.78817406 933.5625 4950.9375 C928.60825056 4956.45593444 923.57304147 4961.89791761 918.53515625 4967.33984375 C917.052456 4968.94327278 915.57254164 4970.54921626 914.09375 4972.15625 C906.77272759 4980.10969412 899.39191221 4988.00576593 891.98828125 4995.88232422 C889.94773071 4998.05567091 887.91111012 5000.23264959 885.875 5002.41015625 C879.20640154 5009.53187642 872.51701132 5016.60174424 865.52734375 5023.41015625 C863.6084384 5025.37651521 861.84064816 5027.34452228 860.06640625 5029.43359375 C853.82848975 5036.62924415 846.87239464 5043.18037498 840.10644531 5049.87304688 C838.25633381 5051.70489754 836.40937088 5053.53988307 834.5625 5055.375 C834.00812256 5055.9210791 833.45374512 5056.4671582 832.88256836 5057.02978516 C830.0622922 5059.83272788 827.37311219 5062.69149166 824.78491211 5065.71069336 C820.07985372 5071.14676846 814.96515388 5076.17908065 809.87890625 5081.25390625 C808.80933836 5082.32414967 807.73991879 5083.39454134 806.67063904 5084.46507263 C804.44081776 5086.69635913 802.2092216 5088.92585057 799.97631836 5091.15405273 C797.13435568 5093.99031888 794.29690758 5096.83105231 791.46078587 5099.67315769 C789.25681774 5101.88076333 787.05044381 5104.08595221 784.84336662 5106.29044914 C783.79699551 5107.33615979 782.75134826 5108.38259535 781.70648384 5109.42981148 C776.55330226 5114.59204784 771.36372974 5119.64932404 765.82359314 5124.39878845 C762.72005784 5127.12385713 759.83624795 5130.06046923 756.9375 5133 C756.30191162 5133.639375 755.66632324 5134.27875 755.01147461 5134.9375 C753.0051635 5136.95588397 751.00215999 5138.97749876 749 5141 C733.79892099 5156.35551668 733.79892099 5156.35551668 727.72265625 5161.5 C724.4787496 5164.3246262 721.50978391 5167.43049191 718.5 5170.5 C714.11485084 5174.93255618 709.72188096 5179.24328301 704.953125 5183.265625 C701.85372139 5186.01789541 698.98166602 5188.99806842 696.07202148 5191.94750977 C692.80571318 5195.2410799 689.4207065 5198.31512012 685.89453125 5201.32421875 C683.21538454 5203.69402069 680.73358347 5206.24021712 678.25 5208.8125 C676.30309774 5210.70532164 674.31553052 5212.48689757 672.265625 5214.265625 C667.98569433 5217.98334461 663.86161239 5221.84803278 659.75 5225.75 C658.25437034 5227.16195009 656.7582744 5228.57340642 655.26171875 5229.984375 C654.17383057 5231.01014648 654.17383057 5231.01014648 653.06396484 5232.05664062 C640.33425934 5244.04250008 640.33425934 5244.04250008 633.6875 5249.0625 C617.15821394 5262.19102386 611.40107691 5286.70645265 605.13692856 5305.86732101 C604.49037948 5307.84188104 603.84008326 5309.81516964 603.18862915 5311.78811646 C588.96472276 5354.87603806 575.9164057 5398.27978063 563.82556152 5442.01416016 C563.04333675 5444.84326231 562.25863955 5447.67166878 561.47363281 5450.5 C540.94818783 5524.60818586 524.94780973 5600.04444117 513 5676 C512.84551392 5676.97723022 512.69102783 5677.95446045 512.53186035 5678.96130371 C500.24643956 5756.79395814 491.77988108 5835.28453753 488 5914 C487.95121704 5915.00838928 487.90243408 5916.01677856 487.85217285 5917.0557251 C486.72927786 5940.4685022 485.91051798 5963.88889723 485.453125 5987.32421875 C485.43187687 5988.40546083 485.41062874 5989.48670292 485.38873672 5990.60070992 C484.83804724 6019.50811094 484.84773513 6048.41622741 484.87143075 6077.32761264 C484.87521395 6082.47956415 484.87382353 6087.63149645 484.86962891 6092.78344727 C484.8304616 6142.59727602 485.55267717 6192.22045037 488.38647461 6241.965271 C488.85898347 6250.27923159 489.31997924 6258.59382993 489.77802849 6266.90859795 C489.93654626 6269.76022824 490.09960827 6272.61156978 490.26332092 6275.46290588 C492.26203857 6310.86353566 492.26203857 6310.86353566 483 6323 C478.06751035 6328.47541006 472.69293471 6331.36295004 465.41015625 6332.3515625 C440.86355689 6333.57727968 415.21301775 6321.74949174 392.34088135 6314.11376953 C381.15234657 6310.38378099 369.95269594 6306.68721035 358.75 6303 C358.08060394 6302.77966347 357.41120789 6302.55932693 356.7215271 6302.33231354 C283.14213779 6278.12480123 208.90355308 6255.748566 134 6236 C133.01100708 6235.73916626 132.02201416 6235.47833252 131.00305176 6235.20959473 C41.12664919 6211.57012123 -52.54999761 6196.08612035 -145 6187 C-146.40079803 6186.86208038 -146.40079803 6186.86208038 -147.82989502 6186.72137451 C-194.4714862 6182.20834318 -241.83998751 6182.53140256 -288.5625 6185.75 C-289.72405609 6185.82832062 -290.88561218 6185.90664124 -292.08236694 6185.98733521 C-304.44543203 6186.84734089 -316.70036944 6188.10344724 -328.95703125 6189.94921875 C-330.00210342 6190.10545715 -331.0471756 6190.26169556 -332.12391663 6190.42266846 C-341.27434259 6191.87860122 -350.16419067 6194.18841432 -358.89526367 6197.29589844 C-361 6198 -361 6198 -363.22387695 6198.47753906 C-365.51773547 6199.05654599 -367.09166812 6199.59328195 -369 6201 C-370.69721236 6204.39005455 -371.26714587 6207.9143824 -371.9375 6211.625 C-372.41266082 6213.82001122 -372.89869863 6216.01269078 -373.39453125 6218.203125 C-373.64928223 6219.33169922 -373.9040332 6220.46027344 -374.16650391 6221.62304688 C-381.65765329 6251.97383138 -397.14864081 6281.50300054 -415 6307 C-415.56170898 6307.80848389 -415.56170898 6307.80848389 -416.13476562 6308.63330078 C-423.0817123 6318.61314111 -430.30898762 6328.49461716 -438.3203125 6337.65234375 C-440.3879187 6340.06107306 -440.3879187 6340.06107306 -440 6344 C-435.09737783 6344.77909887 -430.34510669 6345.14094799 -425.375 6345.3125 C-385.59308689 6347.35056208 -352.59181332 6366.06666992 -326.14111328 6395.18334961 C-267.49489497 6461.54617559 -251.99025464 6556.59166876 -242 6670 C-241.95763214 6670.67343445 -241.91526428 6671.3468689 -241.87161255 6672.04071045 C-240.70648267 6690.74352375 -240.81257341 6709.47483668 -240.81469727 6728.20556641 C-240.81477781 6731.95301211 -240.80793768 6735.70033368 -240.79418945 6739.44775391 C-240.66968933 6773.98012638 -241.95839593 6808.3306342 -244.8125 6842.75 C-244.89648041 6843.77930634 -244.98046082 6844.80861267 -245.06698608 6845.86911011 C-253.06398219 6943.31035688 -270.44403298 7039.92931443 -313.22973633 7184.66381836 C-313.9857265 7186.95670898 -314.73809662 7189.25076516 -315.49023438 7191.54492188 C-326.51570839 7225.07489812 -339.62489944 7257.77308043 -354 7290 C-354.33370605 7290.75603516 -354.66741211 7291.51207031 -355.01123047 7292.29101562 C-359.00159496 7301.30955661 -363.54340824 7310.05118161 -368.0625 7318.8125 C-368.94796509 7320.53182739 -368.94796509 7320.53182739 -369.85131836 7322.28588867 C-372.95000601 7328.24543656 -376.15494894 7334.08814995 -379.68115234 7339.80615234 C-381.06116216 7342.10174068 -382.31977381 7344.44018307 -383.5625 7346.8125 C-391.56956508 7361.58993686 -400.7192907 7375.71020138 -411 7389 C-411.70769531 7389.92039063 -412.41539062 7390.84078125 -413.14453125 7391.7890625 C-417.17879831 7396.92937122 -421.45038912 7401.81532772 -425.859375 7406.63671875 C-427.72852907 7408.70029213 -429.52323362 7410.80514613 -431.3125 7412.9375 C-448.78189516 7432.79996299 -475.35773739 7450.97636861 -502.24755859 7453.18457031 C-526.55066473 7454.54754459 -548.57729297 7447.13270249 -567 7431 C-571.31796471 7426.87439792 -575.51425216 7422.63107528 -579.63378906 7418.30761719 C-597.83468275 7399.3984601 -618.34040939 7391.882362 -644.1262207 7391.05371094 C-654.79005073 7390.85440395 -665.46404399 7391.2019173 -676.125 7391.4375 C-701.64014667 7391.97041539 -727.10895785 7392.1706914 -752.625 7391.625 C-753.64767975 7391.60321686 -754.6703595 7391.58143372 -755.72402954 7391.55899048 C-866.41140163 7389.13992528 -977.68146761 7379.60730947 -1126.9375 7352.75 C-1128.45647385 7352.4462294 -1128.45647385 7352.4462294 -1130.00613403 7352.13632202 C-1141.56786715 7349.8131717 -1153.09097195 7347.36802985 -1164.5610199 7344.6239624 C-1174.09568935 7342.33447235 -1174.09568935 7342.33447235 -1183.8125 7342.375 C-1190.49104248 7347.33620299 -1191.81077732 7358.86339955 -1193.94442749 7366.49172974 C-1200.5328213 7389.89772009 -1208.72572569 7412.47441113 -1218.75 7434.625 C-1219.06029144 7435.31296661 -1219.37058289 7436.00093323 -1219.6902771 7436.70974731 C-1223.23618092 7444.530594 -1227.01702101 7452.05866059 -1231.46118164 7459.42114258 C-1232.95777431 7461.9292353 -1234.3363628 7464.47373288 -1235.6875 7467.0625 C-1260.28129691 7512.34631653 -1298.91048764 7559.68756382 -1349.97705078 7575.61669922 C-1358.21132771 7578.00981647 -1366.41125014 7579.66966347 -1375 7580 C-1375.79664062 7580.06316406 -1376.59328125 7580.12632813 -1377.4140625 7580.19140625 C-1392.33358474 7580.90735856 -1407.62889964 7576.26621981 -1421 7570 C-1422.37091797 7569.35804687 -1422.37091797 7569.35804687 -1423.76953125 7568.703125 C-1439.86281453 7560.49965226 -1453.33635315 7548.68511066 -1466 7536 C-1472.80246709 7529.59767803 -1481.3570753 7526.92307004 -1490.3125 7525.08984375 C-1491.54427475 7524.83466225 -1491.54427475 7524.83466225 -1492.80093384 7524.57432556 C-1502.7585012 7522.56898775 -1512.80053883 7521.1064338 -1522.84255981 7519.59707642 C-1594.73752195 7508.71696262 -1665.97583218 7493.77007864 -2001.77490234 7386.3984375 C-2004.69437392 7385.1325228 -2007.61727263 7383.87481398 -2010.54101562 7382.61880493 C-2029.00816726 7374.67574173 -2047.24937411 7366.30202162 -2065.39982605 7357.66123962 C-2069.15803767 7355.87223703 -2072.92190637 7354.09666759 -2076.6953125 7352.33984375 C-2087.65077982 7347.23179314 -2098.34323308 7341.70244389 -2109 7336 C-2111.93597125 7334.43461399 -2114.87368735 7332.87254448 -2117.8125 7331.3125 C-2118.86570435 7330.75260376 -2118.86570435 7330.75260376 -2119.94018555 7330.18139648 C-2124.23963022 7327.90444928 -2128.57159823 7325.71032294 -2132.9375 7323.5625 C-2147.82591706 7316.1605401 -2162.11715833 7307.64386081 -2176.453125 7299.23828125 C-2180.61237839 7296.80232573 -2184.79414393 7294.41675358 -2189 7292.0625 C-2198.49355323 7286.65900914 -2207.69407377 7280.76611048 -2216.92919922 7274.93603516 C-2219.82476436 7273.1104801 -2222.72612301 7271.29451606 -2225.62890625 7269.48046875 C-2239.04532516 7261.0616179 -2252.07242511 7252.14898003 -2265 7243 C-2265.67998047 7242.52079102 -2266.35996094 7242.04158203 -2267.06054688 7241.54785156 C-2282.34150214 7230.77616431 -2297.42584893 7219.71323958 -2312 7208 C-2312.6403418 7207.4858252 -2313.28068359 7206.97165039 -2313.94042969 7206.44189453 C-2322.51909554 7199.54040139 -2331.00664201 7192.53959185 -2339.37597656 7185.38574219 C-2341.06714221 7183.94270908 -2342.76374619 7182.50625183 -2344.4609375 7181.0703125 C-2351.34742947 7175.22717071 -2358.07311563 7169.24851895 -2364.671875 7163.08203125 C-2367.29310978 7160.63478826 -2369.96426006 7158.24854829 -2372.64282227 7155.86425781 C-2377.59115286 7151.41332327 -2382.3438493 7146.80151825 -2387.04296875 7142.08984375 C-2387.85566727 7141.27810196 -2388.66836578 7140.46636017 -2389.50569153 7139.63002014 C-2391.20676351 7137.92962282 -2392.90659689 7136.22798554 -2394.60522461 7134.52514648 C-2397.18816516 7131.93683345 -2399.77642341 7129.35392439 -2402.36523438 7126.77148438 C-2404.02896665 7125.10709146 -2405.69238879 7123.44238846 -2407.35546875 7121.77734375 C-2408.11917282 7121.01566391 -2408.88287689 7120.25398407 -2409.66972351 7119.46922302 C-2413.77158446 7115.34960105 -2417.71406291 7111.14720572 -2421.5018158 7106.73629761 C-2423.72728305 7104.15712647 -2426.05311011 7101.68021963 -2428.375 7099.1875 C-2432.6655487 7094.54308403 -2436.72872414 7089.76241201 -2440.6953125 7084.8359375 C-2442.75828773 7082.29742899 -2444.85898776 7079.8010438 -2446.98413086 7077.31494141 C-2457.5370125 7064.96712519 -2467.34105433 7052.05346332 -2477 7039 C-2477.72944824 7038.02015137 -2477.72944824 7038.02015137 -2478.47363281 7037.02050781 C-2497.05811844 7011.9986622 -2514.01180302 6985.61944395 -2529.91015625 6958.82373047 C-2531.04278422 6956.92840545 -2532.19123751 6955.04344914 -2533.34375 6953.16015625 C-2537.27483858 6946.7201226 -2540.94809958 6940.28346261 -2544.2421875 6933.48828125 C-2546.05557952 6929.88970553 -2547.9801354 6926.37091758 -2549.93188477 6922.84619141 C-2591.0106401 6848.60201969 -2620.87043936 6767.81943593 -2692.6875 6392.625 C-2692.74852905 6391.74996826 -2692.80955811 6390.87493652 -2692.87243652 6389.97338867 C-2694.79944205 6361.9767702 -2695.16707083 6333.99284887 -2695.13037109 6305.94262695 C-2695.12468779 6301.57358924 -2695.12806235 6297.20461263 -2695.13380623 6292.83557701 C-2695.19233942 6240.44123854 -2695.19233942 6240.44123854 -2693.3046875 6217.90625 C-2691.32497835 6189.72789455 -2701.02673084 6164.11505134 -2709.78100586 6137.70050049 C-2711.76215821 6131.68631634 -2713.68203174 6125.65268612 -2715.609375 6119.62109375 C-2719.96484207 6106.04430365 -2724.44784187 6092.51201201 -2729 6079 C-2729.32850952 6078.0241394 -2729.65701904 6077.04827881 -2729.9954834 6076.04284668 C-2760.48104721 5985.63565194 -2797.65575743 5896.90404592 -2881 5761 C-2881.94942975 5759.63947014 -2882.8986423 5758.27878868 -2883.84765625 5756.91796875 C-2897.54925627 5737.33127021 -2911.84596032 5718.22266949 -2926.97265625 5699.71484375 C-2929.36289882 5696.78902204 -2931.72077973 5693.83988076 -2934.0625 5690.875 C-2938.70376964 5685.05638523 -2943.58101272 5679.44278063 -2948.44433594 5673.81005859 C-2949.95363447 5672.05394758 -2951.45140211 5670.28874085 -2952.9453125 5668.51953125 C-2959.33762741 5660.96526826 -2965.95966182 5653.67439138 -2972.74609375 5646.47265625 C-2975.4629547 5643.58633473 -2978.11900447 5640.6525902 -2980.75 5637.6875 C-2984.49024961 5633.49536149 -2988.41937524 5629.534682 -2992.4453125 5625.6171875 C-2994.48683394 5623.52572058 -2996.40130758 5621.4093173 -2998.30859375 5619.19921875 C-3002.01157637 5614.9303916 -3005.93123635 5610.92058373 -3009.9375 5606.9375 C-3010.93426758 5605.93493164 -3010.93426758 5605.93493164 -3011.95117188 5604.91210938 C-3015.87954333 5600.99135843 -3019.92593813 5597.27989144 -3024.12719727 5593.65454102 C-3026.87834769 5591.22401743 -3029.4384711 5588.62719798 -3032 5586 C-3035.79598109 5582.15729369 -3039.63668759 5578.46576357 -3043.75390625 5574.96484375 C-3046.2173923 5572.809829 -3048.60004766 5570.58132125 -3050.9855957 5568.34082031 C-3056.61305353 5563.05553719 -3062.32584204 5558.00477951 -3068.35546875 5553.17578125 C-3071.15839248 5550.869683 -3073.83003275 5548.45848469 -3076.5 5546 C-3081.30786903 5541.58488646 -3086.27409325 5537.43345518 -3091.35400391 5533.33691406 C-3093.95739315 5531.22238432 -3096.53647559 5529.07861775 -3099.11962891 5526.93945312 C-3107.31252288 5520.16038521 -3115.59268172 5513.5109307 -3124 5507 C-3124.99644531 5506.22785156 -3125.99289062 5505.45570312 -3127.01953125 5504.66015625 C-3129.68083794 5502.60695302 -3132.34674211 5500.56011604 -3135.01660156 5498.51806641 C-3136.475164 5497.40170239 -3137.93269655 5496.28399245 -3139.38964844 5495.16552734 C-3149.54256546 5487.37273494 -3159.72391817 5479.65868734 -3170.18652344 5472.28662109 C-3172.97527072 5470.30806722 -3175.74211309 5468.29953479 -3178.51074219 5466.29296875 C-3182.33533237 5463.52147955 -3186.16710453 5460.7599872 -3190 5458 C-3190.66805664 5457.51837402 -3191.33611328 5457.03674805 -3192.02441406 5456.54052734 C-3215.41344163 5439.72125415 -3239.50126688 5424.09319679 -3264.5390625 5409.8359375 C-3265.40144531 5409.34343506 -3266.26382813 5408.85093262 -3267.15234375 5408.34350586 C-3268.73118255 5407.44574395 -3270.31414724 5406.555174 -3271.90234375 5405.67407227 C-3280.08872922 5401.04116924 -3286.49751244 5395.95884214 -3290 5387 C-3293.3664634 5373.97053982 -3286.31739838 5362.91882032 -3280 5352 C-3277.40799579 5347.62036528 -3274.70725727 5343.30905115 -3272 5339 C-3268.24361954 5332.96811983 -3264.86886087 5326.87170392 -3261.74609375 5320.48828125 C-3260.46005411 5317.91907901 -3259.1461438 5315.38433465 -3257.78515625 5312.85546875 C-3215.7200819 5234.65713956 -3188.7057872 5147.11210379 -3188.8125 5058 C-3188.81310425 5057.05879303 -3188.8137085 5056.11758606 -3188.81433105 5055.14785767 C-3188.84059667 5040.00781407 -3189.28777816 5025.0567183 -3191 5010 C-3191.12358887 5008.87577637 -3191.24717773 5007.75155273 -3191.37451172 5006.59326172 C-3199.38857307 4935.65181921 -3220.90958525 4866.88200243 -3250.12817383 4801.93902588 C-3251.02749221 4799.93885466 -3251.92313605 4797.93706566 -3252.81835938 4795.93505859 C-3263.06706399 4773.04771261 -3273.89522514 4750.44798756 -3285.02459717 4727.97647095 C-3285.70523279 4726.59729049 -3286.37924172 4725.21482852 -3287.04815674 4723.82992554 C-3287.39255798 4723.12381134 -3287.73695923 4722.41769714 -3288.09179688 4721.69018555 C-3288.39790894 4721.05686813 -3288.704021 4720.42355072 -3289.01940918 4719.77104187 C-3290.69394578 4716.74666681 -3292.86503856 4714.5076166 -3295.25 4712 C-3295.73380127 4711.48800049 -3296.21760254 4710.97600098 -3296.71606445 4710.44848633 C-3298.13371845 4708.95529293 -3299.56435696 4707.47588025 -3301 4706 C-3301.73089844 4705.24074219 -3302.46179687 4704.48148438 -3303.21484375 4703.69921875 C-3307.60792719 4699.21914356 -3312.23158135 4695.07383721 -3317 4691 C-3318.07714468 4690.07068532 -3319.15393909 4689.14096456 -3320.23046875 4688.2109375 C-3325.58149695 4683.59650008 -3330.94760022 4679.01177699 -3336.4375 4674.5625 C-3340.90451474 4670.93346291 -3345.27642425 4667.20666017 -3349.625 4663.4375 C-3350.27170654 4662.87949707 -3350.91841309 4662.32149414 -3351.5847168 4661.74658203 C-3355.06668928 4658.72943706 -3358.42670799 4655.62976616 -3361.75 4652.4375 C-3369.74897025 4645.39141821 -3380.82834784 4643.99760915 -3390.9921875 4642.08203125 C-3392.33320176 4641.8219303 -3393.67402309 4641.56083292 -3395.0146637 4641.29881287 C-3397.84085778 4640.74747179 -3400.66784442 4640.20050972 -3403.49557495 4639.65710449 C-3410.86593396 4638.23871977 -3418.22844536 4636.7804909 -3425.58984375 4635.31640625 C-3426.6754103 4635.1006576 -3426.6754103 4635.1006576 -3427.78290749 4634.88055038 C-3444.31137408 4631.58886652 -3460.67158729 4627.78074724 -3476.9765625 4623.52423096 C-3479.75124927 4622.8053668 -3482.53099486 4622.10711925 -3485.31060791 4621.40759277 C-3537.1512585 4608.33102037 -3588.14789366 4590.95639968 -3636 4567 C-3637.17344971 4566.41919678 -3637.17344971 4566.41919678 -3638.37060547 4565.82666016 C-3655.96208234 4557.07606834 -3672.82231401 4546.48976024 -3688 4534 C-3688.52319824 4533.57686523 -3689.04639648 4533.15373047 -3689.58544922 4532.71777344 C-3702.65306458 4522.13680349 -3714.1727806 4510.66485617 -3724 4497 C-3724.56203125 4496.24460938 -3725.1240625 4495.48921875 -3725.703125 4494.7109375 C-3741.52717024 4472.47398971 -3747.18662725 4443.17136103 -3743.17553711 4416.41650391 C-3734.39292045 4365.51630862 -3700.09239223 4319.26323813 -3660.19921875 4287.80078125 C-3652.52761198 4281.51905705 -3648.2918885 4274.02112521 -3647.13096619 4264.13856506 C-3646.42045203 4252.53648062 -3651.66730977 4239.39100701 -3654.7828064 4228.33670044 C-3678.28246714 4144.7233825 -3699.6558432 4053.46935305 -3675.625 3894.0625 C-3662.58786252 3871.22582903 -3643.47748026 3854.79783297 -3618.05712891 3847.54931641 C-3544.67406771 3827.95379211 -3459.51811064 3871.43723633 -3397.29150391 3906.52734375 C-3393.68500324 3908.61446195 -3390.1102713 3910.74803841 -3386.55078125 3912.9140625 C-3380.58500112 3916.49453071 -3374.75981416 3919.31004646 -3368 3921 C-3367.51937243 3918.8428601 -3367.03970162 3916.68551653 -3366.56152344 3914.52783203 C-3366.21856561 3912.98392537 -3365.87341422 3911.44050124 -3365.52441406 3909.89794922 C-3363.09942185 3899.07413991 -3361.4947881 3888.26293104 -3360.22265625 3877.24609375 C-3358.35223819 3861.58502989 -3355.68835746 3846.133838 -3352.70134735 3830.64535904 C-3352.30354276 3828.57846031 -3351.90913688 3826.51093846 -3351.51568604 3824.44320679 C-3319.8374358 3658.03028971 -3319.8374358 3658.03028971 -3277.5390625 3626.67578125 C-3263.41144727 3617.3515552 -3248.65131185 3614.20051535 -3232.10693359 3617.50634766 C-3199.0512723 3625.25125462 -3171.15542022 3653.15698325 -3151 3679 C-3150.02552716 3680.18898584 -3149.04738865 3681.37497297 -3148.06640625 3682.55859375 C-3139.636088 3692.74828276 -3131.71893291 3703.26341257 -3124 3714 C-3123.43168457 3714.78858398 -3122.86336914 3715.57716797 -3122.27783203 3716.38964844 C-3112.3224852 3730.25612582 -3103.07774689 3744.54730183 -3094 3759 C-3093.4023584 3759.95148926 -3092.8047168 3760.90297852 -3092.18896484 3761.88330078 C-3084.92698628 3773.47433981 -3077.86385706 3785.16930464 -3071 3797 C-3070.57009766 3797.73895508 -3070.14019531 3798.47791016 -3069.69726562 3799.23925781 C-3066.45156732 3804.81854213 -3063.22171514 3810.40683681 -3060 3816 C-3059.53368164 3816.80888672 -3059.06736328 3817.61777344 -3058.58691406 3818.45117188 C-3051.71185933 3830.38932456 -3044.97437255 3842.40067792 -3038.30371094 3854.45385742 C-3035.08313111 3860.26870037 -3031.836469 3866.06345538 -3028.5 3871.8125 C-3025.44788207 3877.11768353 -3022.68549319 3882.52678469 -3019.98925781 3888.02026367 C-3017.89232849 3892.24975024 -3015.6873769 3896.41906988 -3013.4765625 3900.58984375 C-3007.81701477 3911.30864424 -3002.26729873 3922.0824004 -2996.75 3932.875 C-2996.24699371 3933.85888702 -2995.74398743 3934.84277405 -2995.22573853 3935.85647583 C-2985.71045745 3954.48596465 -2976.45973572 3973.21907151 -2967.65617371 3992.19691467 C-2966.0649914 3995.62335777 -2964.46535279 3999.04582929 -2962.8656311 4002.46829224 C-2961.72663303 4004.9159063 -2960.60164392 4007.36960569 -2959.47729492 4009.82397461 C-2953.92782637 4021.79848791 -2947.64507072 4033.21120389 -2938.0625 4042.5 C-2937.25425781 4043.29506958 -2937.25425781 4043.29506958 -2936.4296875 4044.10620117 C-2930.71099206 4049.55261603 -2924.34192177 4054.03109519 -2917.8828125 4058.546875 C-2912.60376582 4062.24371045 -2907.48729301 4066.13964117 -2902.375 4070.0625 C-2900.59127201 4071.42855019 -2898.80741989 4072.79443831 -2897.0234375 4074.16015625 C-2896.16975586 4074.81387207 -2895.31607422 4075.46758789 -2894.43652344 4076.14111328 C-2890.97403253 4078.7827371 -2887.48925328 4081.39388722 -2884 4084 C-2877.91284394 4088.55119552 -2871.8566348 4093.14183196 -2865.8125 4097.75 C-2864.92836426 4098.42401855 -2864.04422852 4099.09803711 -2863.13330078 4099.79248047 C-2858.63944371 4103.21997103 -2854.14844008 4106.65115248 -2849.66015625 4110.0859375 C-2840.31280118 4117.23249674 -2830.92136728 4124.3055051 -2821.42089844 4131.24755859 C-2816.48207338 4134.86774481 -2811.67795501 4138.58328541 -2807.0078125 4142.546875 C-2803.40601262 4145.15362511 -2800.12092095 4146.27528546 -2795.6875 4146.125 C-2794.470625 4146.08375 -2793.25375 4146.0425 -2792 4146 C-2792.40959593 4135.35050592 -2798.36449772 4126.83503742 -2804.03515625 4118.13671875 C-2807.83018605 4112.07825169 -2811.20034502 4105.77469505 -2814.62890625 4099.50390625 C-2816.00632959 4096.98844084 -2817.39307353 4094.47829464 -2818.78125 4091.96875 C-2861.43980331 4014.61612076 -2896.59491595 3932.96796857 -2930.45043945 3812.20281982 C-2930.98267056 3810.06946212 -2931.51930765 3807.93725329 -2932.05664062 3805.80517578 C-2946.77166129 3747.17476971 -2955.93148895 3687.10516553 -2960.6875 3626.875 C-2960.74852905 3626.11285187 -2960.80955811 3625.35070374 -2960.87243652 3624.56546021 C-2962.71192007 3601.26333083 -2963.20922482 3577.930159 -2963.1875 3554.5625 C-2963.18689575 3553.34499054 -2963.1862915 3552.12748108 -2963.18566895 3550.87307739 C-2963.158856 3530.846917 -2962.71261846 3510.9541686 -2961 3491 C-2960.93683594 3490.25155823 -2960.87367188 3489.50311646 -2960.80859375 3488.73199463 C-2956.4724575 3437.73855412 -2947.65601162 3387.32872715 -2934 3338 C-2933.70270996 3336.92556641 -2933.40541992 3335.85113281 -2933.09912109 3334.74414062 C-2919.19489824 3285.28888732 -2897.25844113 3237.2334118 -2868 3195 C-2867.59571777 3194.41557129 -2867.19143555 3193.83114258 -2866.77490234 3193.22900391 C-2852.32575782 3172.44583091 -2836.10207451 3152.71231692 -2818 3135 C-2815.25947232 3132.27355038 -2812.53780856 3129.53028316 -2809.8359375 3126.765625 C-2803.72836947 3120.5436006 -2797.59978125 3114.59882946 -2790.74609375 3109.1875 C-2788.30139341 3107.24008579 -2785.93285498 3105.22646355 -2783.57495117 3103.17553711 C-2767.85137822 3089.56761465 -2750.54960833 3078.0929616 -2733 3067 C-2732.30986816 3066.56349121 -2731.61973633 3066.12698242 -2730.90869141 3065.67724609 C-2721.72845505 3059.91818586 -2712.2069725 3054.7914376 -2702.64868164 3049.69091797 C-2689.05057448 3043.35434257 -2689.05057448 3043.35434257 -2679 3033 C-2677.89224815 3023.18440499 -2679.82710889 3013.37012167 -2681.44976807 3003.72064209 C-2683.47956752 2991.62895746 -2685.33748495 2979.62156045 -2686.125 2967.375 C-2687.26424702 2950.63716007 -2692.31194996 2937.89716679 -2704.55859375 2926.0859375 C-2705.26597183 2925.38659088 -2705.97334991 2924.68724426 -2706.7021637 2923.96670532 C-2708.93787912 2921.75966695 -2711.18686974 2919.56681715 -2713.4375 2917.375 C-2715.68185867 2915.17346245 -2717.92325101 2912.96898647 -2720.16212463 2910.76187134 C-2721.54747913 2909.39783817 -2722.93634437 2908.03735719 -2724.32945251 2906.6812439 C-2728.79128 2902.30984015 -2732.93093696 2897.73666943 -2737 2893 C-2738.45445517 2891.39231627 -2739.91220895 2889.78760285 -2741.375 2888.1875 C-2746.10576093 2882.93819023 -2750.56997052 2877.50376055 -2755 2872 C-2755.92538408 2870.86686303 -2756.85118393 2869.73406551 -2757.77734375 2868.6015625 C-2780.11333838 2841.15541935 -2799.39084215 2811.39559286 -2816.58691406 2780.51318359 C-2817.77161415 2778.4061859 -2818.97734953 2776.31684803 -2820.2109375 2774.23828125 C-2864.21525468 2699.79016096 -2885.71371892 2611.46839548 -2900 2527 C-2900.12719421 2526.24885925 -2900.25438843 2525.49771851 -2900.38543701 2524.72381592 C-2909.14777195 2472.69478972 -2913.31399527 2419.96878706 -2914.5625 2367.25 C-2914.58334656 2366.38437439 -2914.60419312 2365.51874878 -2914.62567139 2364.62689209 C-2914.96349595 2350.4157824 -2915.22282226 2336.21519464 -2915 2322 C-2914.98211426 2320.82131348 -2914.96422852 2319.64262695 -2914.94580078 2318.42822266 C-2913.18235012 2217.86004725 -2898.63418299 2117.49608294 -2800 1767 C-2799.54140594 1765.83531189 -2799.54140594 1765.83531189 -2799.07354736 1764.64709473 C-2789.69024972 1740.82465301 -2779.59344464 1717.37496704 -2768.9520874 1694.08843994 C-2768.08145381 1692.17867203 -2767.21617288 1690.26662835 -2766.35400391 1688.35302734 C-2758.10642525 1670.07711276 -2749.17246874 1652.13991659 -2740.22291565 1634.20085144 C-2739.26376237 1632.27759576 -2738.30579775 1630.35375179 -2737.34802246 1628.42980957 C-2730.52418355 1614.73080476 -2723.60864346 1601.11347914 -2716.02996826 1587.81292725 C-2714.51795514 1585.15151536 -2713.03908292 1582.47201239 -2711.55859375 1579.79296875 C-2697.67177416 1554.8120018 -2683.14775411 1530.23719696 -2668 1506 C-2667.42749512 1505.0826709 -2666.85499023 1504.1653418 -2666.26513672 1503.22021484 C-2652.43250104 1481.11460673 -2637.93929954 1459.37318096 -2623 1438 C-2622.54286621 1437.34386719 -2622.08573242 1436.68773437 -2621.61474609 1436.01171875 C-2614.17724127 1425.34870137 -2606.5229913 1414.85594621 -2598.78222656 1404.41162109 C-2597.01142769 1402.01546339 -2595.25028828 1399.61251756 -2593.4921875 1397.20703125 C-2586.03752812 1387.01715662 -2578.41293421 1376.98068279 -2570.61230469 1367.05322266 C-2569.11514468 1365.14663337 -2567.62301616 1363.23624703 -2566.1328125 1361.32421875 C-2559.68643028 1353.0659117 -2553.10428967 1344.92184598 -2546.4765625 1336.80859375 C-2545.16952459 1335.2076452 -2543.86576644 1333.60402024 -2542.5625 1332 C-2533.90298045 1321.3611617 -2524.97791409 1310.94713499 -2516.0390625 1300.54296875 C-2514.00630776 1298.17621475 -2511.98082084 1295.80352816 -2509.9609375 1293.42578125 C-2504.24986611 1286.71255763 -2498.43007237 1280.13043112 -2492.4453125 1273.66015625 C-2490.44839207 1271.48778754 -2488.49171266 1269.29460837 -2486.5625 1267.0625 C-2482.03026987 1261.83964433 -2477.3000957 1256.79694275 -2472.59814453 1251.72753906 C-2471.00712839 1250.00770555 -2469.42250541 1248.28220959 -2467.83984375 1246.5546875 C-2462.96204897 1241.23582368 -2458.05453326 1235.99331291 -2452.90333557 1230.93577576 C-2451.18547343 1229.18863461 -2449.59963618 1227.39827909 -2448.01928711 1225.52758789 C-2442.9573279 1219.70831784 -2437.46011736 1214.31602793 -2432.00390625 1208.87109375 C-2430.84465727 1207.71116945 -2429.68555663 1206.55109688 -2428.52659607 1205.3908844 C-2426.10846178 1202.9712839 -2423.6885492 1200.55348029 -2421.26733398 1198.13696289 C-2418.18323528 1195.05856078 -2415.10364906 1191.97568977 -2412.02539158 1188.89144802 C-2409.63612967 1186.49855131 -2407.24446486 1184.10806762 -2404.85209465 1181.71827888 C-2403.71640839 1180.58325383 -2402.58144814 1179.44750181 -2401.44726753 1178.31097221 C-2395.97136513 1172.82621618 -2390.49922403 1167.38609411 -2384.58604431 1162.36585999 C-2382.26402995 1160.36620179 -2380.13669756 1158.19444614 -2378 1156 C-2374.52527658 1152.43136514 -2370.89662877 1149.14187147 -2367.13671875 1145.8828125 C-2363.50384005 1142.68162871 -2360.00862967 1139.33607411 -2356.5 1136 C-2351.68744023 1131.4241235 -2346.83054365 1126.93182119 -2341.81298828 1122.58105469 C-2339.39631015 1120.47353952 -2337.04273937 1118.30075768 -2334.6875 1116.125 C-2331.06476095 1112.81663086 -2327.38307109 1109.63987642 -2323.5625 1106.5625 C-2319.56773566 1103.34054925 -2315.75468333 1099.99322017 -2312 1096.5 C-2307.47011346 1092.28974225 -2302.79707608 1088.3236197 -2297.98046875 1084.4453125 C-2294.42709058 1081.52995898 -2290.96284737 1078.52178951 -2287.5 1075.5 C-2281.42969417 1070.20973724 -2275.26210764 1065.06257873 -2269 1060 C-2267.27002243 1058.5843237 -2265.54087763 1057.1676292 -2263.8125 1055.75 C-2262.44931641 1054.63625 -2262.44931641 1054.63625 -2261.05859375 1053.5 C-2259.44821076 1052.18372271 -2257.83814612 1050.86705019 -2256.23095703 1049.546875 C-2248.02757839 1042.80891712 -2239.73865907 1036.21631273 -2231.2800293 1029.80126953 C-2226.68917951 1026.31320861 -2222.16928606 1022.75178425 -2217.6875 1019.125 C-2211.18722624 1013.87802143 -2204.53556525 1008.8511046 -2197.83813477 1003.85913086 C-2191.56399468 999.181958 -2185.33777918 994.44578238 -2179.125 989.6875 C-2171.77916095 984.07268844 -2164.35780498 978.60269005 -2156.80029297 973.27783203 C-2154.06511723 971.33642847 -2151.35330653 969.36313314 -2148.63891602 967.39282227 C-2141.42661882 962.15918182 -2134.1752428 956.98531152 -2126.875 951.875 C-2126.12524902 951.3500293 -2125.37549805 950.82505859 -2124.60302734 950.28417969 C-2110.5911806 940.50238058 -2096.46241991 930.89181808 -2082.30029297 921.3293457 C-2080.43260009 920.06755389 -2078.56573804 918.80453141 -2076.69970703 917.5402832 C-2065.8305156 910.1765154 -2054.90337777 902.96446578 -2043.7286377 896.07315063 C-2039.15591294 893.23437043 -2034.64860848 890.29108606 -2030.125 887.375 C-2013.59211044 876.75762978 -1996.87164991 866.43400085 -1979.98828125 856.3828125 C-1976.7884396 854.47684542 -1973.60242978 852.54873714 -1970.41796875 850.6171875 C-1957.73245662 842.93829635 -1944.93346685 835.52108795 -1931.96875 828.32421875 C-1926.53381812 825.30664854 -1921.1378387 822.2256278 -1915.75 819.125 C-1897.27736309 808.53144991 -1878.63401989 798.26972531 -1859.70043945 788.52294922 C-1852.89925868 785.01489655 -1846.17301937 781.4002735 -1839.5324707 777.59619141 C-1832.9149592 773.84156296 -1826.08400193 770.51038152 -1819.27108765 767.12960815 C-1815.34041458 765.17454475 -1811.41892409 763.20120685 -1807.49609375 761.23046875 C-1773.55929906 744.20156732 -1773.55929906 744.20156732 -1757.06494141 736.44482422 C-1754.15978012 735.07532091 -1751.25901923 733.69695151 -1748.35920715 732.31617737 C-1729.15180096 723.17471077 -1709.80801936 714.38588856 -1690.34313965 705.80752563 C-1684.69981603 703.31743869 -1679.08023957 700.77836 -1673.46386719 698.22802734 C-1584.67298981 658.01338219 -1492.73965386 624.27437365 -1355 576 C-1353.9267749 575.63173096 -1352.8535498 575.26346191 -1351.74780273 574.8840332 C-1294.09357677 555.1087062 -1236.18441898 536.15556714 -1178 518 C-1176.89875793 517.65598145 -1175.79751587 517.31196289 -1174.66290283 516.95751953 C-1089.66239989 490.40674063 -1004.23624646 465.22062424 -782.17926025 402.0497036 C-722.95214181 385.60489933 -663.78209639 368.98466125 -605 351 C-603.94530518 350.67793579 -602.89061035 350.35587158 -601.80395508 350.02404785 C-551.03874618 334.51382952 -501.33326401 317.04398866 -453 295 C-451.85080078 294.47615723 -450.70160156 293.95231445 -449.51757812 293.41259766 C-380.32561035 261.78612738 -314.87556298 223.26287562 -253 179 C-252.2992334 178.50113281 -251.5984668 178.00226563 -250.87646484 177.48828125 C-228.58154116 161.60833561 -207.00298448 144.79029014 -185.80859375 127.4765625 C-184.2076452 126.16952459 -182.60402024 124.86576644 -181 123.5625 C-175.5570428 119.132186 -170.1796416 114.63139173 -164.83520508 110.08325195 C-161.43017203 107.19081537 -157.98256237 104.36171074 -154.5 101.5625 C-149.12145252 97.18899497 -144.06547069 92.51181721 -139 87.78515625 C-136.03453651 85.02028676 -133.00129607 82.34278992 -129.9375 79.6875 C-122.06739399 72.83289154 -114.41448496 65.7314703 -106.76367188 58.63427734 C-104.95442854 56.95777196 -103.14129224 55.28554113 -101.328125 53.61328125 C-94.94947804 47.71278378 -88.67858828 41.73551666 -82.5625 35.5625 C-77.8671943 30.8279219 -73.12245904 26.27528313 -68 22 C-66.68515625 20.85144531 -66.68515625 20.85144531 -65.34375 19.6796875 C-47.91329235 4.68031999 -23.22032727 -13.06399365 0 0 Z M1750 1471 C1771.1687608 1488.11672809 1815.08206532 1520.75424391 1842.99609375 1521.2265625 C1847.95486841 1520.66592131 1850.78524706 1518.54663992 1853.875 1514.8125 C1859.81974825 1506.34006352 1870 1490.31524115 1870 1480 C1859.95209968 1477.8633467 1849.95318995 1476.1785742 1839.75 1474.9375 C1839.06235565 1474.85317719 1838.3747113 1474.76885437 1837.66622925 1474.68197632 C1818.03199628 1472.28821714 1798.38853074 1470.98272818 1778.625 1470.3125 C1777.59175095 1470.2749913 1777.59175095 1470.2749913 1776.53762817 1470.23672485 C1767.61249053 1469.92346118 1758.888079 1470.11005721 1750 1471 Z M1641 1482 C1637.11463185 1487.15895676 1634.16992582 1492.63040388 1633 1499 C1633.33 1499.99 1633.66 1500.98 1634 1502 C1636.44015202 1503.0257932 1636.44015202 1503.0257932 1639.5 1503.71411133 C1640.68053955 1504.01485062 1641.8610791 1504.3155899 1643.07739258 1504.6254425 C1644.38485783 1504.94459459 1645.6923958 1505.26344891 1647 1505.58203125 C1648.35142887 1505.92100607 1649.70258044 1506.26108817 1651.0534668 1506.60221863 C1654.63813432 1507.50407619 1658.22652918 1508.39015553 1661.81585693 1509.27325439 C1665.36536882 1510.14959749 1668.91098788 1511.04138772 1672.45703125 1511.93164062 C1678.66087831 1513.48666923 1684.86940423 1515.02180448 1691.08137512 1516.54403877 C1695.55820192 1517.64200467 1700.02980524 1518.75953636 1704.5 1519.88427734 C1706.77073388 1520.4479919 1709.04156161 1521.01132863 1711.3125 1521.57421875 C1712.34415283 1521.83725296 1713.37580566 1522.10028717 1714.4387207 1522.37129211 C1715.38320068 1522.60285507 1716.32768066 1522.83441803 1717.30078125 1523.07299805 C1718.11716064 1523.27749069 1718.93354004 1523.48198334 1719.7746582 1523.69267273 C1722.15928888 1524.02199834 1723.72878065 1523.74265932 1726 1523 C1718.43763111 1517.22343898 1710.67143902 1512.34624474 1702.3125 1507.8125 C1701.13499558 1507.16663456 1699.9578372 1506.52013791 1698.78100586 1505.87304688 C1689.89536838 1500.99608493 1680.97560977 1496.18026051 1672.04882812 1491.37915039 C1666.02087335 1488.12935434 1660.08958593 1484.78370617 1654.26953125 1481.171875 C1649.06103867 1478.48246403 1645.81183803 1478.56297284 1641 1482 Z M1566 1486 C1568.61673759 1487.40182371 1571.0371669 1488.60495559 1574 1489 C1574.66 1488.34 1575.32 1487.68 1576 1487 C1576 1486.01 1576 1485.02 1576 1484 C1572.14354879 1483.77963136 1569.50776784 1484.39644899 1566 1486 Z M1924 1497 C1921.75189908 1500.58295893 1919.81402809 1504.30532285 1917.875 1508.0625 C1916.7276375 1510.23693304 1915.57786415 1512.41009554 1914.42578125 1514.58203125 C1913.56654053 1516.2055249 1913.56654053 1516.2055249 1912.68994141 1517.86181641 C1910.25282926 1522.38747943 1907.67096248 1526.82156378 1905.0625 1531.25 C1901.0775624 1538.03957531 1897.36864986 1544.87893004 1894 1552 C1903.92646822 1559.90397938 1914.94250144 1565.85325115 1926 1572 C1927.31242676 1572.73452393 1927.31242676 1572.73452393 1928.65136719 1573.48388672 C1939.61875875 1579.62074792 1950.65466964 1585.58750802 1962 1591 C1962.65589111 1591.33217529 1963.31178223 1591.66435059 1963.98754883 1592.0065918 C1970.5329166 1595.16825488 1977.22047615 1596.4983304 1984.3125 1597.9375 C1997.80270631 1600.79073518 2010.98409665 1604.47656372 2024.1875 1608.4375 C2025.12768982 1608.7191803 2026.06787964 1609.0008606 2027.03656006 1609.29107666 C2031.65147591 1610.67526319 2036.26463878 1612.06518047 2040.87695312 1613.45800781 C2048.05082149 1615.62143302 2055.2392172 1617.73192359 2062.4375 1619.8125 C2064.1229895 1620.30931274 2064.1229895 1620.30931274 2065.8425293 1620.81616211 C2066.86258057 1621.11014893 2067.88263184 1621.40413574 2068.93359375 1621.70703125 C2070.2338147 1622.08565308 2070.2338147 1622.08565308 2071.56030273 1622.47192383 C2074.15105207 1623.03269545 2076.35820457 1623.21891792 2079 1623 C2092.48388092 1611.44965672 2100.41149819 1591.5344337 2108.1875 1576 C2108.57542725 1575.22623016 2108.96335449 1574.45246033 2109.36303711 1573.65524292 C2110.47049333 1571.43965491 2111.5708908 1569.22074258 2112.66796875 1567 C2113.00491257 1566.32369034 2113.34185638 1565.64738068 2113.68901062 1564.95057678 C2115.42526582 1561.63192351 2115.42526582 1561.63192351 2116 1558 C2111.50654577 1555.72392521 2107.00178501 1553.47189583 2102.48828125 1551.23583984 C2100.86124616 1550.42775 2099.23615411 1549.61573301 2097.61328125 1548.79931641 C2053.4172455 1526.62123325 2005.97254694 1509.84391415 1958 1498 C1956.87706543 1497.7205957 1955.75413086 1497.44119141 1954.59716797 1497.15332031 C1951.5268611 1496.39759495 1948.45321099 1495.6602966 1945.375 1494.9375 C1944.5099585 1494.73294189 1943.64491699 1494.52838379 1942.75366211 1494.31762695 C1932.50933074 1491.88040008 1932.50933074 1491.88040008 1924 1497 Z M2160 1591 C2157.894232 1594.24718393 2156.10206781 1597.6331313 2154.3125 1601.0625 C2153.79574707 1602.03171387 2153.27899414 1603.00092773 2152.74658203 1603.99951172 C2151.15344343 1606.99402676 2149.57593922 1609.99640468 2148 1613 C2147.02288493 1614.84544913 2146.04505143 1616.69051809 2145.06640625 1618.53515625 C2142.69480439 1623.01494201 2140.32519348 1627.49590399 2138 1632 C2137.62955566 1632.65532715 2137.25911133 1633.3106543 2136.87744141 1633.98583984 C2135.73374381 1636.24502485 2135.73374381 1636.24502485 2136 1640 C2137.40557915 1640.39890945 2137.40557915 1640.39890945 2138.83955383 1640.80587769 C2147.84974008 1643.36305175 2156.85983155 1645.9205595 2165.86983967 1648.47836113 C2170.49741044 1649.7920461 2175.12500997 1651.10562957 2179.75268555 1652.41894531 C2191.31044518 1655.69906079 2202.8674489 1658.98182407 2214.42359924 1662.26760483 C2216.97733513 1662.99355704 2219.53119589 1663.71906853 2222.08508301 1664.44448853 C2226.10156245 1665.58551348 2230.11754675 1666.72826573 2234.13316917 1667.87230301 C2235.59981139 1668.28989157 2237.06660312 1668.70695543 2238.53356361 1669.12342453 C2247.27120677 1671.60455765 2255.96406945 1674.1998598 2264.625 1676.9375 C2275.01416002 1680.15754877 2286.01961776 1683.35759866 2297 1683 C2289.75284413 1674.2271271 2281.67338382 1666.35186999 2273 1659 C2272.06800781 1658.19046875 2271.13601563 1657.3809375 2270.17578125 1656.546875 C2261.75883661 1649.27222053 2252.98846689 1642.55084419 2244 1636 C2243.35111816 1635.52481934 2242.70223633 1635.04963867 2242.03369141 1634.56005859 C2232.0321388 1627.26595655 2221.70073021 1620.56121862 2211.24511719 1613.93823242 C2204.98774122 1609.95986568 2198.84000774 1605.88100805 2192.8125 1601.5625 C2187.68420936 1597.89987569 2182.55573439 1594.2471193 2177.3125 1590.75 C2176.23613281 1590.02296875 2175.15976562 1589.2959375 2174.05078125 1588.546875 C2168.20380275 1585.58220984 2164.46993171 1586.26257632 2160 1591 Z " fill="#00a54f" transform="translate(4840,479)"/>
<path d="M0 0 C3.96592514 2.77687263 7.40478583 2.89042149 12.13671875 2.49609375 C16.82129014 0.03024082 21.17055226 -2.81460425 25.57421875 -5.75390625 C50.64004522 -22.10872076 79.21291752 -31.35886643 109.13671875 -25.50390625 C128.97748785 -21.15896859 146.09072822 -10.24249939 160.859375 3.40625 C162.80405982 5.19082355 164.78601656 6.88354562 166.82421875 8.55859375 C170.68620134 11.85475098 173.88069479 15.61264124 177.13671875 19.49609375 C177.86503906 20.3365625 178.59335938 21.17703125 179.34375 22.04296875 C239.18462864 92.03456186 258.87019717 190.3410086 263.32421875 315.49609375 C263.3236145 316.65651184 263.32301025 317.81692993 263.3223877 319.01251221 C263.29670469 337.26216933 262.85305031 355.31754752 261.13671875 373.49609375 C261.06884155 374.22880493 261.00096436 374.96151611 260.93103027 375.71643066 C259.86249282 387.24570352 258.67030229 398.75902508 257.38482666 410.26605225 C257.15576328 412.32491787 256.93189387 414.38435958 256.70849609 416.44384766 C246.08834966 512.84703906 218.30205925 607.82736101 183.34448242 698.00537109 C173.18782182 724.20926621 164.92007 748.44570356 164.96875 776.81640625 C164.97058792 778.08735138 164.97242584 779.35829651 164.97431946 780.66775513 C165.04945777 792.94962527 165.7407502 805.15995329 166.56060791 817.41119385 C167.040511 824.620185 167.48698985 831.8311329 167.921875 839.04296875 C167.9940411 840.23728956 167.9940411 840.23728956 168.0676651 841.45573807 C169.02136185 857.38382336 169.74750111 873.32063554 170.4453125 889.26171875 C170.50011717 890.50923542 170.55492184 891.75675209 170.61138725 893.0420723 C171.16504407 905.66450648 171.70774846 918.28734939 172.23159504 930.91105652 C172.4311248 935.68490428 172.63671163 940.45847959 172.84350777 945.23201752 C172.93897764 947.47207229 173.03156601 949.71225198 173.12107658 951.9525528 C173.24501222 955.05221079 173.37856204 958.15132168 173.51416016 961.25048828 C173.54744761 962.14578184 173.58073507 963.0410754 173.61503124 963.96349907 C174.04519943 973.32382375 174.91005098 983.99013838 181.671875 991.11328125 C184.04391827 993.19895028 186.4889429 995.06636843 189.12109375 996.8125 C205.23556596 1007.77408866 207.74982776 1030.31320798 211.85546875 1048.046875 C212.30650599 1049.97435979 212.75810269 1051.90171374 213.21020508 1053.82894897 C214.18201206 1057.97644188 215.15019698 1062.12475675 216.11547852 1066.27377319 C217.66301075 1072.92516176 219.21846162 1079.5746825 220.77539062 1086.22387695 C221.31874225 1088.54471961 221.86207701 1090.86556621 222.40539551 1093.18641663 C222.67920547 1094.35602495 222.95301544 1095.52563328 223.23512268 1096.73068428 C224.08375837 1100.35717205 224.9315705 1103.98385149 225.7791748 1107.61058044 C229.96258066 1125.50690458 234.17219471 1143.39692423 238.39571571 1161.28381467 C238.88621381 1163.36114278 239.37664236 1165.43848729 239.86705017 1167.51583672 C242.59160251 1179.05678774 245.31688385 1190.59756663 248.04351473 1202.13802677 C248.80841956 1205.37560122 249.57315839 1208.61321486 250.33789062 1211.85083008 C250.63434731 1213.10575162 250.93080399 1214.36067316 251.2362442 1215.65362263 C252.67288059 1221.7379008 254.10636187 1227.82289203 255.53283691 1233.90956116 C255.80163918 1235.05648091 256.07044144 1236.20340067 256.34738922 1237.38507557 C256.87286745 1239.62738377 257.39821535 1241.86972251 257.92342377 1244.11209393 C259.30172899 1249.98432911 260.70203831 1255.85033819 262.13585663 1261.70926571 C262.91960273 1264.9193955 263.68951341 1268.13274374 264.45680237 1271.34684181 C264.79491378 1272.74714242 265.13953721 1274.14589408 265.49205017 1275.54263878 C269.12498282 1289.94502117 269.4786844 1303.68936561 265.19921875 1317.99609375 C264.8856543 1319.09429443 264.57208984 1320.19249512 264.24902344 1321.32397461 C249.47452704 1371.87571558 224.08313836 1424.7469498 182.13671875 1458.49609375 C181.06338422 1459.3927292 179.99051364 1460.28992015 178.91796875 1461.1875 C170.37254742 1468.25965208 161.46873914 1474.49302337 152.03515625 1480.32226562 C150.40450455 1481.33051837 148.7850734 1482.35687842 147.16796875 1483.38671875 C94.4020477 1515.83472767 24.31834976 1527.28817798 -35.890625 1513.81884766 C-47.85135615 1510.93389707 -59.52181329 1507.26484022 -70.86328125 1502.49609375 C-71.67700195 1502.15626465 -72.49072266 1501.81643555 -73.32910156 1501.46630859 C-105.25264944 1487.96474138 -134.80669167 1468.42462404 -159.86328125 1444.49609375 C-160.52972656 1443.8825 -161.19617188 1443.26890625 -161.8828125 1442.63671875 C-173.73815959 1431.41995007 -182.38451589 1416.91397608 -189.48828125 1402.37109375 C-189.83640869 1401.67483887 -190.18453613 1400.97858398 -190.54321289 1400.26123047 C-196.598785 1387.47206557 -199.97839541 1373.33950857 -203.76669312 1359.74967957 C-208.5813749 1342.5304828 -213.6535331 1325.40156224 -219.01171875 1308.34375 C-219.34759758 1307.27252459 -219.68347641 1306.20129917 -220.02953339 1305.09761238 C-225.76066775 1286.85021486 -231.73290946 1268.68728333 -237.81640625 1250.5546875 C-238.13207794 1249.61344867 -238.13207794 1249.61344867 -238.45412683 1248.6531949 C-242.32773252 1237.10439079 -246.21355997 1225.5597004 -250.10995364 1214.01856524 C-252.50548409 1206.92290992 -254.89250183 1199.8244664 -257.27169037 1192.72331429 C-258.07987501 1190.31713867 -258.89145083 1187.91209885 -259.70676422 1185.50832939 C-276.07587747 1137.2442073 -276.07587747 1137.2442073 -265.05078125 1114.68359375 C-263.32736575 1110.05758372 -263.88586072 1105.93519572 -265.69458008 1101.42163086 C-266.7925499 1099.1984173 -267.96450845 1097.03465846 -269.17578125 1094.87109375 C-269.61946045 1094.05406982 -270.06313965 1093.2370459 -270.52026367 1092.39526367 C-271.47007733 1090.64989652 -272.42572297 1088.90769238 -273.38671875 1087.16845703 C-274.84889256 1084.52213518 -276.29581039 1081.8680433 -277.73828125 1079.2109375 C-279.73089346 1075.5435162 -281.72990088 1071.87970146 -283.734375 1068.21875 C-286.91725522 1062.4025875 -290.08091619 1056.57614063 -293.23828125 1050.74609375 C-293.77485352 1049.75536865 -294.31142578 1048.76464355 -294.86425781 1047.74389648 C-298.89681743 1040.2927662 -302.91259177 1032.83266979 -306.92578125 1025.37109375 C-313.66726613 1012.83898907 -320.47301472 1000.34267876 -327.30615234 987.86035156 C-333.33372104 976.84887841 -339.31545773 965.81430495 -345.23828125 954.74609375 C-345.55165436 954.16059753 -345.86502747 953.57510132 -346.18789673 952.97186279 C-347.7762368 950.00416537 -349.36425698 947.03629685 -350.95214844 944.06835938 C-351.26728394 943.47933838 -351.58241943 942.89031738 -351.90710449 942.28344727 C-352.54592855 941.08931196 -353.1846815 939.89513862 -353.82336426 938.70092773 C-356.00022952 934.63097951 -358.18107179 930.56318 -360.36328125 926.49609375 C-360.91419434 925.46516602 -361.46510742 924.43423828 -362.03271484 923.37207031 C-363.62671214 920.40427044 -365.24191506 917.44901671 -366.86328125 914.49609375 C-367.41757812 913.46226562 -367.971875 912.4284375 -368.54296875 911.36328125 C-374.29177003 900.98422373 -381.48137117 894.43906621 -391.05078125 887.62109375 C-392.73641817 886.39945941 -394.42131211 885.17679926 -396.10546875 883.953125 C-396.91983398 883.36354004 -397.73419922 882.77395508 -398.57324219 882.16650391 C-403.75483718 878.38692257 -408.80723695 874.44134044 -413.86328125 870.49609375 C-414.40726563 870.07295898 -414.95125 869.64982422 -415.51171875 869.21386719 C-423.82207454 862.74653385 -432.01956384 856.14776972 -440.1796875 849.4921875 C-443.11931533 847.09613322 -446.07858134 844.72669465 -449.05078125 842.37109375 C-455.09923431 837.5444484 -460.97751233 832.51830717 -466.86328125 827.49609375 C-467.74669189 826.74440918 -467.74669189 826.74440918 -468.64794922 825.97753906 C-475.39352787 820.23731985 -482.08465512 814.45287461 -488.64453125 808.5 C-490.65636518 806.68297393 -492.68988559 804.89664983 -494.73828125 803.12109375 C-499.07854352 799.33749839 -503.31844737 795.44674804 -507.54980469 791.54248047 C-509.53597115 789.71223067 -511.53078787 787.89429548 -513.53686523 786.08569336 C-523.76729371 776.79857746 -533.50208204 767.0103611 -543.25830078 757.23144531 C-545.75249879 754.73151163 -548.25121646 752.23615094 -550.75125694 749.74206161 C-552.70579134 747.79116536 -554.65790783 745.83786357 -556.60933304 743.88385773 C-557.9699337 742.5222837 -559.33251595 741.16269074 -560.69515991 739.80316162 C-565.07037173 735.41150065 -569.31579113 730.96785581 -573.34344482 726.25404358 C-576.03918416 723.13596164 -578.9033344 720.17455621 -581.73828125 717.18359375 C-586.65495133 711.96007873 -591.3102383 706.64380185 -595.7890625 701.0390625 C-597.90415721 698.44598028 -600.10846221 695.96824475 -602.36328125 693.49609375 C-607.0679614 688.32094559 -611.46764468 682.93406535 -615.86328125 677.49609375 C-616.87410892 676.26489288 -617.88588174 675.03446757 -618.8984375 673.8046875 C-625.96798993 665.19836859 -632.76209209 656.42974303 -639.38818359 647.47851562 C-640.84374561 645.5223482 -642.31351314 643.57784211 -643.7890625 641.63671875 C-667.62503087 610.24213516 -688.63239579 576.88171302 -707.86328125 542.49609375 C-708.2205127 541.86429199 -708.57774414 541.23249023 -708.94580078 540.58154297 C-737.89049707 489.22804956 -757.08354484 430.67612883 -765.86328125 372.49609375 C-766.02554199 371.47064453 -766.18780273 370.44519531 -766.35498047 369.38867188 C-773.88725529 320.60378353 -770.75937026 261.63012933 -740.76000977 220.4753418 C-725.2328006 199.91495446 -702.35517477 187.69149379 -677.03125 184.09375 C-668.04968857 183.02365767 -659.14057097 182.45038089 -650.09790039 182.50805664 C-641.04047084 182.45956827 -632.816116 180.50246932 -625.86328125 174.49609375 C-620.7506124 168.35034954 -617.49071874 160.89280544 -613.97949219 153.7590332 C-607.73636295 141.08643492 -600.9886353 129.32110067 -591.86328125 118.49609375 C-591.43289551 117.98062988 -591.00250977 117.46516602 -590.55908203 116.93408203 C-571.07473927 93.86641186 -544.69329038 82.21866613 -514.74609375 79.69238281 C-500.25342114 78.70558498 -485.95800338 79.37306391 -471.58935547 81.42871094 C-461.70510672 82.81603173 -451.0680213 84.24503607 -441.86328125 79.49609375 C-440.85845042 78.50094803 -439.85763167 77.50171159 -438.86328125 76.49609375 C-438.20328125 76.49609375 -437.54328125 76.49609375 -436.86328125 76.49609375 C-436.62222656 75.9959375 -436.38117188 75.49578125 -436.1328125 74.98046875 C-427.47110097 58.03016556 -416.17163489 43.89014244 -403.22265625 30.04296875 C-401.30081493 27.96839832 -399.47171707 25.86575233 -397.67578125 23.68359375 C-377.66506706 0.15824987 -345.92246438 -13.43247196 -315.70556641 -16.05224609 C-282.52713134 -18.43974632 -246.19940077 -7.18706227 -217.15234375 8.48046875 C-207.5291319 13.78782553 -207.5291319 13.78782553 -196.86328125 13.49609375 C-192.34639268 10.83479184 -188.51173893 7.53191098 -184.61328125 4.05859375 C-126.27895594 -46.67306585 -60.8162738 -46.28742432 0 0 Z " fill="#00A54F" transform="translate(1042.86328125,1005.50390625)"/>
</svg>
